%TF.GenerationSoftware,KiCad,Pcbnew,7.0.9*%
%TF.CreationDate,2024-03-30T19:36:33+01:00*%
%TF.ProjectId,8x-sata-backplane,38782d73-6174-4612-9d62-61636b706c61,rev?*%
%TF.SameCoordinates,Original*%
%TF.FileFunction,Drillmap*%
%TF.FilePolarity,Positive*%
%FSLAX45Y45*%
G04 Gerber Fmt 4.5, Leading zero omitted, Abs format (unit mm)*
G04 Created by KiCad (PCBNEW 7.0.9) date 2024-03-30 19:36:33*
%MOMM*%
%LPD*%
G01*
G04 APERTURE LIST*
%ADD10C,0.100000*%
%ADD11C,0.200000*%
%ADD12C,0.210000*%
%ADD13C,0.230000*%
%ADD14C,0.320000*%
G04 APERTURE END LIST*
D10*
X9540000Y-3986200D02*
G75*
G03*
X9440000Y-3886200I-100000J0D01*
G01*
X4833400Y-13463600D02*
X4833400Y-3986200D01*
X9540000Y-3986200D02*
X9540000Y-13463600D01*
X6000000Y-3986200D02*
X6000000Y-13463600D01*
X2715400Y-2340000D02*
G75*
G03*
X2465400Y-2590000I0J-250000D01*
G01*
X4933400Y-3886200D02*
G75*
G03*
X4833400Y-3986200I0J-100000D01*
G01*
X8373400Y-13463600D02*
X8373400Y-3986200D01*
X6000000Y-3986200D02*
G75*
G03*
X5900000Y-3886200I-100000J0D01*
G01*
X5900000Y-13563600D02*
G75*
G03*
X6000000Y-13463600I0J100000D01*
G01*
X5900000Y-13563600D02*
X4933400Y-13563600D01*
X4833400Y-13463600D02*
G75*
G03*
X4933400Y-13563600I100000J0D01*
G01*
X9440000Y-13563600D02*
X8473400Y-13563600D01*
X4933400Y-3886200D02*
X5900000Y-3886200D01*
X12980000Y-13563600D02*
G75*
G03*
X13080000Y-13463600I0J100000D01*
G01*
X9440000Y-13563600D02*
G75*
G03*
X9540000Y-13463600I0J100000D01*
G01*
X12013400Y-3886200D02*
X12980000Y-3886200D01*
X11913400Y-13463600D02*
G75*
G03*
X12013400Y-13563600I100000J0D01*
G01*
X2465400Y-14990000D02*
X2465400Y-2590000D01*
X2715400Y-2340000D02*
X15320200Y-2340000D01*
X11913400Y-13463600D02*
X11913400Y-3986200D01*
X15320200Y-15239780D02*
G75*
G03*
X15570200Y-14989777I0J250000D01*
G01*
X15570200Y-2589777D02*
X15570200Y-14989777D01*
X13080000Y-3986200D02*
X13080000Y-13463600D01*
X8373400Y-13463600D02*
G75*
G03*
X8473400Y-13563600I100000J0D01*
G01*
X8473400Y-3886200D02*
X9440000Y-3886200D01*
X8473400Y-3886200D02*
G75*
G03*
X8373400Y-3986200I0J-100000D01*
G01*
X2465400Y-14990000D02*
G75*
G03*
X2715400Y-15240000I250000J0D01*
G01*
X15320200Y-15240000D02*
X2715400Y-15240000D01*
X15570203Y-2589777D02*
G75*
G03*
X15320200Y-2339777I-250003J-3D01*
G01*
X13080000Y-3986200D02*
G75*
G03*
X12980000Y-3886200I-100000J0D01*
G01*
X12980000Y-13563600D02*
X12013400Y-13563600D01*
X12013400Y-3886200D02*
G75*
G03*
X11913400Y-3986200I0J-100000D01*
G01*
D11*
D12*
X4423300Y-4468500D02*
X4633300Y-4678500D01*
X4633300Y-4468500D02*
X4423300Y-4678500D01*
X4423300Y-8148500D02*
X4633300Y-8358500D01*
X4633300Y-8148500D02*
X4423300Y-8358500D01*
X7963300Y-4468500D02*
X8173300Y-4678500D01*
X8173300Y-4468500D02*
X7963300Y-4678500D01*
X7963300Y-8148500D02*
X8173300Y-8358500D01*
X8173300Y-8148500D02*
X7963300Y-8358500D01*
X11503300Y-4468500D02*
X11713300Y-4678500D01*
X11713300Y-4468500D02*
X11503300Y-4678500D01*
X11503300Y-8148500D02*
X11713300Y-8358500D01*
X11713300Y-8148500D02*
X11503300Y-8358500D01*
X15043300Y-4468500D02*
X15253300Y-4678500D01*
X15253300Y-4468500D02*
X15043300Y-4678500D01*
X15043300Y-8148500D02*
X15253300Y-8358500D01*
X15253300Y-8148500D02*
X15043300Y-8358500D01*
D13*
X6103200Y-3200400D02*
G75*
G03*
X6103200Y-3200400I-115000J0D01*
G01*
X8503200Y-3200400D02*
G75*
G03*
X8503200Y-3200400I-115000J0D01*
G01*
D14*
X3733800Y-2640000D02*
X3733800Y-2960000D01*
X3573800Y-2800000D02*
X3893800Y-2800000D01*
X5503800Y-14240000D02*
X5503800Y-14560000D01*
X5343800Y-14400000D02*
X5663800Y-14400000D01*
X12583800Y-14240000D02*
X12583800Y-14560000D01*
X12423800Y-14400000D02*
X12743800Y-14400000D01*
X14353800Y-2640000D02*
X14353800Y-2960000D01*
X14193800Y-2800000D02*
X14513800Y-2800000D01*
D11*
X2721177Y-15556484D02*
X2721177Y-15356484D01*
X2721177Y-15356484D02*
X2768796Y-15356484D01*
X2768796Y-15356484D02*
X2797367Y-15366008D01*
X2797367Y-15366008D02*
X2816415Y-15385055D01*
X2816415Y-15385055D02*
X2825939Y-15404103D01*
X2825939Y-15404103D02*
X2835462Y-15442198D01*
X2835462Y-15442198D02*
X2835462Y-15470769D01*
X2835462Y-15470769D02*
X2825939Y-15508865D01*
X2825939Y-15508865D02*
X2816415Y-15527912D01*
X2816415Y-15527912D02*
X2797367Y-15546960D01*
X2797367Y-15546960D02*
X2768796Y-15556484D01*
X2768796Y-15556484D02*
X2721177Y-15556484D01*
X2921177Y-15556484D02*
X2921177Y-15423150D01*
X2921177Y-15461246D02*
X2930701Y-15442198D01*
X2930701Y-15442198D02*
X2940224Y-15432674D01*
X2940224Y-15432674D02*
X2959272Y-15423150D01*
X2959272Y-15423150D02*
X2978320Y-15423150D01*
X3044986Y-15556484D02*
X3044986Y-15423150D01*
X3044986Y-15356484D02*
X3035462Y-15366008D01*
X3035462Y-15366008D02*
X3044986Y-15375531D01*
X3044986Y-15375531D02*
X3054510Y-15366008D01*
X3054510Y-15366008D02*
X3044986Y-15356484D01*
X3044986Y-15356484D02*
X3044986Y-15375531D01*
X3168796Y-15556484D02*
X3149748Y-15546960D01*
X3149748Y-15546960D02*
X3140224Y-15527912D01*
X3140224Y-15527912D02*
X3140224Y-15356484D01*
X3273558Y-15556484D02*
X3254510Y-15546960D01*
X3254510Y-15546960D02*
X3244986Y-15527912D01*
X3244986Y-15527912D02*
X3244986Y-15356484D01*
X3502129Y-15556484D02*
X3502129Y-15356484D01*
X3502129Y-15356484D02*
X3568796Y-15499341D01*
X3568796Y-15499341D02*
X3635462Y-15356484D01*
X3635462Y-15356484D02*
X3635462Y-15556484D01*
X3816415Y-15556484D02*
X3816415Y-15451722D01*
X3816415Y-15451722D02*
X3806891Y-15432674D01*
X3806891Y-15432674D02*
X3787843Y-15423150D01*
X3787843Y-15423150D02*
X3749748Y-15423150D01*
X3749748Y-15423150D02*
X3730701Y-15432674D01*
X3816415Y-15546960D02*
X3797367Y-15556484D01*
X3797367Y-15556484D02*
X3749748Y-15556484D01*
X3749748Y-15556484D02*
X3730701Y-15546960D01*
X3730701Y-15546960D02*
X3721177Y-15527912D01*
X3721177Y-15527912D02*
X3721177Y-15508865D01*
X3721177Y-15508865D02*
X3730701Y-15489817D01*
X3730701Y-15489817D02*
X3749748Y-15480293D01*
X3749748Y-15480293D02*
X3797367Y-15480293D01*
X3797367Y-15480293D02*
X3816415Y-15470769D01*
X3911653Y-15423150D02*
X3911653Y-15623150D01*
X3911653Y-15432674D02*
X3930701Y-15423150D01*
X3930701Y-15423150D02*
X3968796Y-15423150D01*
X3968796Y-15423150D02*
X3987843Y-15432674D01*
X3987843Y-15432674D02*
X3997367Y-15442198D01*
X3997367Y-15442198D02*
X4006891Y-15461246D01*
X4006891Y-15461246D02*
X4006891Y-15518388D01*
X4006891Y-15518388D02*
X3997367Y-15537436D01*
X3997367Y-15537436D02*
X3987843Y-15546960D01*
X3987843Y-15546960D02*
X3968796Y-15556484D01*
X3968796Y-15556484D02*
X3930701Y-15556484D01*
X3930701Y-15556484D02*
X3911653Y-15546960D01*
X4092605Y-15537436D02*
X4102129Y-15546960D01*
X4102129Y-15546960D02*
X4092605Y-15556484D01*
X4092605Y-15556484D02*
X4083082Y-15546960D01*
X4083082Y-15546960D02*
X4092605Y-15537436D01*
X4092605Y-15537436D02*
X4092605Y-15556484D01*
X4092605Y-15432674D02*
X4102129Y-15442198D01*
X4102129Y-15442198D02*
X4092605Y-15451722D01*
X4092605Y-15451722D02*
X4083082Y-15442198D01*
X4083082Y-15442198D02*
X4092605Y-15432674D01*
X4092605Y-15432674D02*
X4092605Y-15451722D01*
X2260400Y-15785000D02*
X2460400Y-15985000D01*
X2460400Y-15785000D02*
X2260400Y-15985000D01*
X2711653Y-15795531D02*
X2721177Y-15786008D01*
X2721177Y-15786008D02*
X2740224Y-15776484D01*
X2740224Y-15776484D02*
X2787844Y-15776484D01*
X2787844Y-15776484D02*
X2806891Y-15786008D01*
X2806891Y-15786008D02*
X2816415Y-15795531D01*
X2816415Y-15795531D02*
X2825939Y-15814579D01*
X2825939Y-15814579D02*
X2825939Y-15833627D01*
X2825939Y-15833627D02*
X2816415Y-15862198D01*
X2816415Y-15862198D02*
X2702129Y-15976484D01*
X2702129Y-15976484D02*
X2825939Y-15976484D01*
X2911653Y-15957436D02*
X2921177Y-15966960D01*
X2921177Y-15966960D02*
X2911653Y-15976484D01*
X2911653Y-15976484D02*
X2902129Y-15966960D01*
X2902129Y-15966960D02*
X2911653Y-15957436D01*
X2911653Y-15957436D02*
X2911653Y-15976484D01*
X3111653Y-15976484D02*
X2997367Y-15976484D01*
X3054510Y-15976484D02*
X3054510Y-15776484D01*
X3054510Y-15776484D02*
X3035462Y-15805055D01*
X3035462Y-15805055D02*
X3016415Y-15824103D01*
X3016415Y-15824103D02*
X2997367Y-15833627D01*
X3235462Y-15776484D02*
X3254510Y-15776484D01*
X3254510Y-15776484D02*
X3273558Y-15786008D01*
X3273558Y-15786008D02*
X3283082Y-15795531D01*
X3283082Y-15795531D02*
X3292605Y-15814579D01*
X3292605Y-15814579D02*
X3302129Y-15852674D01*
X3302129Y-15852674D02*
X3302129Y-15900293D01*
X3302129Y-15900293D02*
X3292605Y-15938388D01*
X3292605Y-15938388D02*
X3283082Y-15957436D01*
X3283082Y-15957436D02*
X3273558Y-15966960D01*
X3273558Y-15966960D02*
X3254510Y-15976484D01*
X3254510Y-15976484D02*
X3235462Y-15976484D01*
X3235462Y-15976484D02*
X3216415Y-15966960D01*
X3216415Y-15966960D02*
X3206891Y-15957436D01*
X3206891Y-15957436D02*
X3197367Y-15938388D01*
X3197367Y-15938388D02*
X3187843Y-15900293D01*
X3187843Y-15900293D02*
X3187843Y-15852674D01*
X3187843Y-15852674D02*
X3197367Y-15814579D01*
X3197367Y-15814579D02*
X3206891Y-15795531D01*
X3206891Y-15795531D02*
X3216415Y-15786008D01*
X3216415Y-15786008D02*
X3235462Y-15776484D01*
X3425939Y-15776484D02*
X3444986Y-15776484D01*
X3444986Y-15776484D02*
X3464034Y-15786008D01*
X3464034Y-15786008D02*
X3473558Y-15795531D01*
X3473558Y-15795531D02*
X3483082Y-15814579D01*
X3483082Y-15814579D02*
X3492605Y-15852674D01*
X3492605Y-15852674D02*
X3492605Y-15900293D01*
X3492605Y-15900293D02*
X3483082Y-15938388D01*
X3483082Y-15938388D02*
X3473558Y-15957436D01*
X3473558Y-15957436D02*
X3464034Y-15966960D01*
X3464034Y-15966960D02*
X3444986Y-15976484D01*
X3444986Y-15976484D02*
X3425939Y-15976484D01*
X3425939Y-15976484D02*
X3406891Y-15966960D01*
X3406891Y-15966960D02*
X3397367Y-15957436D01*
X3397367Y-15957436D02*
X3387843Y-15938388D01*
X3387843Y-15938388D02*
X3378320Y-15900293D01*
X3378320Y-15900293D02*
X3378320Y-15852674D01*
X3378320Y-15852674D02*
X3387843Y-15814579D01*
X3387843Y-15814579D02*
X3397367Y-15795531D01*
X3397367Y-15795531D02*
X3406891Y-15786008D01*
X3406891Y-15786008D02*
X3425939Y-15776484D01*
X3578320Y-15976484D02*
X3578320Y-15843150D01*
X3578320Y-15862198D02*
X3587843Y-15852674D01*
X3587843Y-15852674D02*
X3606891Y-15843150D01*
X3606891Y-15843150D02*
X3635463Y-15843150D01*
X3635463Y-15843150D02*
X3654510Y-15852674D01*
X3654510Y-15852674D02*
X3664034Y-15871722D01*
X3664034Y-15871722D02*
X3664034Y-15976484D01*
X3664034Y-15871722D02*
X3673558Y-15852674D01*
X3673558Y-15852674D02*
X3692605Y-15843150D01*
X3692605Y-15843150D02*
X3721177Y-15843150D01*
X3721177Y-15843150D02*
X3740224Y-15852674D01*
X3740224Y-15852674D02*
X3749748Y-15871722D01*
X3749748Y-15871722D02*
X3749748Y-15976484D01*
X3844986Y-15976484D02*
X3844986Y-15843150D01*
X3844986Y-15862198D02*
X3854510Y-15852674D01*
X3854510Y-15852674D02*
X3873558Y-15843150D01*
X3873558Y-15843150D02*
X3902129Y-15843150D01*
X3902129Y-15843150D02*
X3921177Y-15852674D01*
X3921177Y-15852674D02*
X3930701Y-15871722D01*
X3930701Y-15871722D02*
X3930701Y-15976484D01*
X3930701Y-15871722D02*
X3940224Y-15852674D01*
X3940224Y-15852674D02*
X3959272Y-15843150D01*
X3959272Y-15843150D02*
X3987843Y-15843150D01*
X3987843Y-15843150D02*
X4006891Y-15852674D01*
X4006891Y-15852674D02*
X4016415Y-15871722D01*
X4016415Y-15871722D02*
X4016415Y-15976484D01*
X4406891Y-15766960D02*
X4235463Y-16024103D01*
X4664034Y-15776484D02*
X4683082Y-15776484D01*
X4683082Y-15776484D02*
X4702129Y-15786008D01*
X4702129Y-15786008D02*
X4711653Y-15795531D01*
X4711653Y-15795531D02*
X4721177Y-15814579D01*
X4721177Y-15814579D02*
X4730701Y-15852674D01*
X4730701Y-15852674D02*
X4730701Y-15900293D01*
X4730701Y-15900293D02*
X4721177Y-15938388D01*
X4721177Y-15938388D02*
X4711653Y-15957436D01*
X4711653Y-15957436D02*
X4702129Y-15966960D01*
X4702129Y-15966960D02*
X4683082Y-15976484D01*
X4683082Y-15976484D02*
X4664034Y-15976484D01*
X4664034Y-15976484D02*
X4644987Y-15966960D01*
X4644987Y-15966960D02*
X4635463Y-15957436D01*
X4635463Y-15957436D02*
X4625939Y-15938388D01*
X4625939Y-15938388D02*
X4616415Y-15900293D01*
X4616415Y-15900293D02*
X4616415Y-15852674D01*
X4616415Y-15852674D02*
X4625939Y-15814579D01*
X4625939Y-15814579D02*
X4635463Y-15795531D01*
X4635463Y-15795531D02*
X4644987Y-15786008D01*
X4644987Y-15786008D02*
X4664034Y-15776484D01*
X4816415Y-15957436D02*
X4825939Y-15966960D01*
X4825939Y-15966960D02*
X4816415Y-15976484D01*
X4816415Y-15976484D02*
X4806891Y-15966960D01*
X4806891Y-15966960D02*
X4816415Y-15957436D01*
X4816415Y-15957436D02*
X4816415Y-15976484D01*
X4949748Y-15776484D02*
X4968796Y-15776484D01*
X4968796Y-15776484D02*
X4987844Y-15786008D01*
X4987844Y-15786008D02*
X4997368Y-15795531D01*
X4997368Y-15795531D02*
X5006891Y-15814579D01*
X5006891Y-15814579D02*
X5016415Y-15852674D01*
X5016415Y-15852674D02*
X5016415Y-15900293D01*
X5016415Y-15900293D02*
X5006891Y-15938388D01*
X5006891Y-15938388D02*
X4997368Y-15957436D01*
X4997368Y-15957436D02*
X4987844Y-15966960D01*
X4987844Y-15966960D02*
X4968796Y-15976484D01*
X4968796Y-15976484D02*
X4949748Y-15976484D01*
X4949748Y-15976484D02*
X4930701Y-15966960D01*
X4930701Y-15966960D02*
X4921177Y-15957436D01*
X4921177Y-15957436D02*
X4911653Y-15938388D01*
X4911653Y-15938388D02*
X4902129Y-15900293D01*
X4902129Y-15900293D02*
X4902129Y-15852674D01*
X4902129Y-15852674D02*
X4911653Y-15814579D01*
X4911653Y-15814579D02*
X4921177Y-15795531D01*
X4921177Y-15795531D02*
X4930701Y-15786008D01*
X4930701Y-15786008D02*
X4949748Y-15776484D01*
X5130701Y-15862198D02*
X5111653Y-15852674D01*
X5111653Y-15852674D02*
X5102129Y-15843150D01*
X5102129Y-15843150D02*
X5092606Y-15824103D01*
X5092606Y-15824103D02*
X5092606Y-15814579D01*
X5092606Y-15814579D02*
X5102129Y-15795531D01*
X5102129Y-15795531D02*
X5111653Y-15786008D01*
X5111653Y-15786008D02*
X5130701Y-15776484D01*
X5130701Y-15776484D02*
X5168796Y-15776484D01*
X5168796Y-15776484D02*
X5187844Y-15786008D01*
X5187844Y-15786008D02*
X5197368Y-15795531D01*
X5197368Y-15795531D02*
X5206891Y-15814579D01*
X5206891Y-15814579D02*
X5206891Y-15824103D01*
X5206891Y-15824103D02*
X5197368Y-15843150D01*
X5197368Y-15843150D02*
X5187844Y-15852674D01*
X5187844Y-15852674D02*
X5168796Y-15862198D01*
X5168796Y-15862198D02*
X5130701Y-15862198D01*
X5130701Y-15862198D02*
X5111653Y-15871722D01*
X5111653Y-15871722D02*
X5102129Y-15881246D01*
X5102129Y-15881246D02*
X5092606Y-15900293D01*
X5092606Y-15900293D02*
X5092606Y-15938388D01*
X5092606Y-15938388D02*
X5102129Y-15957436D01*
X5102129Y-15957436D02*
X5111653Y-15966960D01*
X5111653Y-15966960D02*
X5130701Y-15976484D01*
X5130701Y-15976484D02*
X5168796Y-15976484D01*
X5168796Y-15976484D02*
X5187844Y-15966960D01*
X5187844Y-15966960D02*
X5197368Y-15957436D01*
X5197368Y-15957436D02*
X5206891Y-15938388D01*
X5206891Y-15938388D02*
X5206891Y-15900293D01*
X5206891Y-15900293D02*
X5197368Y-15881246D01*
X5197368Y-15881246D02*
X5187844Y-15871722D01*
X5187844Y-15871722D02*
X5168796Y-15862198D01*
X5283082Y-15795531D02*
X5292606Y-15786008D01*
X5292606Y-15786008D02*
X5311653Y-15776484D01*
X5311653Y-15776484D02*
X5359272Y-15776484D01*
X5359272Y-15776484D02*
X5378320Y-15786008D01*
X5378320Y-15786008D02*
X5387844Y-15795531D01*
X5387844Y-15795531D02*
X5397368Y-15814579D01*
X5397368Y-15814579D02*
X5397368Y-15833627D01*
X5397368Y-15833627D02*
X5387844Y-15862198D01*
X5387844Y-15862198D02*
X5273558Y-15976484D01*
X5273558Y-15976484D02*
X5397368Y-15976484D01*
X5464034Y-15776484D02*
X5597367Y-15776484D01*
X5597367Y-15776484D02*
X5511653Y-15976484D01*
X5664034Y-15776484D02*
X5664034Y-15814579D01*
X5740225Y-15776484D02*
X5740225Y-15814579D01*
X6035463Y-16052674D02*
X6025939Y-16043150D01*
X6025939Y-16043150D02*
X6006891Y-16014579D01*
X6006891Y-16014579D02*
X5997368Y-15995531D01*
X5997368Y-15995531D02*
X5987844Y-15966960D01*
X5987844Y-15966960D02*
X5978320Y-15919341D01*
X5978320Y-15919341D02*
X5978320Y-15881246D01*
X5978320Y-15881246D02*
X5987844Y-15833627D01*
X5987844Y-15833627D02*
X5997368Y-15805055D01*
X5997368Y-15805055D02*
X6006891Y-15786008D01*
X6006891Y-15786008D02*
X6025939Y-15757436D01*
X6025939Y-15757436D02*
X6035463Y-15747912D01*
X6140225Y-15862198D02*
X6121177Y-15852674D01*
X6121177Y-15852674D02*
X6111653Y-15843150D01*
X6111653Y-15843150D02*
X6102129Y-15824103D01*
X6102129Y-15824103D02*
X6102129Y-15814579D01*
X6102129Y-15814579D02*
X6111653Y-15795531D01*
X6111653Y-15795531D02*
X6121177Y-15786008D01*
X6121177Y-15786008D02*
X6140225Y-15776484D01*
X6140225Y-15776484D02*
X6178320Y-15776484D01*
X6178320Y-15776484D02*
X6197368Y-15786008D01*
X6197368Y-15786008D02*
X6206891Y-15795531D01*
X6206891Y-15795531D02*
X6216415Y-15814579D01*
X6216415Y-15814579D02*
X6216415Y-15824103D01*
X6216415Y-15824103D02*
X6206891Y-15843150D01*
X6206891Y-15843150D02*
X6197368Y-15852674D01*
X6197368Y-15852674D02*
X6178320Y-15862198D01*
X6178320Y-15862198D02*
X6140225Y-15862198D01*
X6140225Y-15862198D02*
X6121177Y-15871722D01*
X6121177Y-15871722D02*
X6111653Y-15881246D01*
X6111653Y-15881246D02*
X6102129Y-15900293D01*
X6102129Y-15900293D02*
X6102129Y-15938388D01*
X6102129Y-15938388D02*
X6111653Y-15957436D01*
X6111653Y-15957436D02*
X6121177Y-15966960D01*
X6121177Y-15966960D02*
X6140225Y-15976484D01*
X6140225Y-15976484D02*
X6178320Y-15976484D01*
X6178320Y-15976484D02*
X6197368Y-15966960D01*
X6197368Y-15966960D02*
X6206891Y-15957436D01*
X6206891Y-15957436D02*
X6216415Y-15938388D01*
X6216415Y-15938388D02*
X6216415Y-15900293D01*
X6216415Y-15900293D02*
X6206891Y-15881246D01*
X6206891Y-15881246D02*
X6197368Y-15871722D01*
X6197368Y-15871722D02*
X6178320Y-15862198D01*
X6454510Y-15976484D02*
X6454510Y-15776484D01*
X6540225Y-15976484D02*
X6540225Y-15871722D01*
X6540225Y-15871722D02*
X6530701Y-15852674D01*
X6530701Y-15852674D02*
X6511653Y-15843150D01*
X6511653Y-15843150D02*
X6483082Y-15843150D01*
X6483082Y-15843150D02*
X6464034Y-15852674D01*
X6464034Y-15852674D02*
X6454510Y-15862198D01*
X6664034Y-15976484D02*
X6644987Y-15966960D01*
X6644987Y-15966960D02*
X6635463Y-15957436D01*
X6635463Y-15957436D02*
X6625939Y-15938388D01*
X6625939Y-15938388D02*
X6625939Y-15881246D01*
X6625939Y-15881246D02*
X6635463Y-15862198D01*
X6635463Y-15862198D02*
X6644987Y-15852674D01*
X6644987Y-15852674D02*
X6664034Y-15843150D01*
X6664034Y-15843150D02*
X6692606Y-15843150D01*
X6692606Y-15843150D02*
X6711653Y-15852674D01*
X6711653Y-15852674D02*
X6721177Y-15862198D01*
X6721177Y-15862198D02*
X6730701Y-15881246D01*
X6730701Y-15881246D02*
X6730701Y-15938388D01*
X6730701Y-15938388D02*
X6721177Y-15957436D01*
X6721177Y-15957436D02*
X6711653Y-15966960D01*
X6711653Y-15966960D02*
X6692606Y-15976484D01*
X6692606Y-15976484D02*
X6664034Y-15976484D01*
X6844987Y-15976484D02*
X6825939Y-15966960D01*
X6825939Y-15966960D02*
X6816415Y-15947912D01*
X6816415Y-15947912D02*
X6816415Y-15776484D01*
X6997368Y-15966960D02*
X6978320Y-15976484D01*
X6978320Y-15976484D02*
X6940225Y-15976484D01*
X6940225Y-15976484D02*
X6921177Y-15966960D01*
X6921177Y-15966960D02*
X6911653Y-15947912D01*
X6911653Y-15947912D02*
X6911653Y-15871722D01*
X6911653Y-15871722D02*
X6921177Y-15852674D01*
X6921177Y-15852674D02*
X6940225Y-15843150D01*
X6940225Y-15843150D02*
X6978320Y-15843150D01*
X6978320Y-15843150D02*
X6997368Y-15852674D01*
X6997368Y-15852674D02*
X7006891Y-15871722D01*
X7006891Y-15871722D02*
X7006891Y-15890769D01*
X7006891Y-15890769D02*
X6911653Y-15909817D01*
X7083082Y-15966960D02*
X7102130Y-15976484D01*
X7102130Y-15976484D02*
X7140225Y-15976484D01*
X7140225Y-15976484D02*
X7159272Y-15966960D01*
X7159272Y-15966960D02*
X7168796Y-15947912D01*
X7168796Y-15947912D02*
X7168796Y-15938388D01*
X7168796Y-15938388D02*
X7159272Y-15919341D01*
X7159272Y-15919341D02*
X7140225Y-15909817D01*
X7140225Y-15909817D02*
X7111653Y-15909817D01*
X7111653Y-15909817D02*
X7092606Y-15900293D01*
X7092606Y-15900293D02*
X7083082Y-15881246D01*
X7083082Y-15881246D02*
X7083082Y-15871722D01*
X7083082Y-15871722D02*
X7092606Y-15852674D01*
X7092606Y-15852674D02*
X7111653Y-15843150D01*
X7111653Y-15843150D02*
X7140225Y-15843150D01*
X7140225Y-15843150D02*
X7159272Y-15852674D01*
X7235463Y-16052674D02*
X7244987Y-16043150D01*
X7244987Y-16043150D02*
X7264034Y-16014579D01*
X7264034Y-16014579D02*
X7273558Y-15995531D01*
X7273558Y-15995531D02*
X7283082Y-15966960D01*
X7283082Y-15966960D02*
X7292606Y-15919341D01*
X7292606Y-15919341D02*
X7292606Y-15881246D01*
X7292606Y-15881246D02*
X7283082Y-15833627D01*
X7283082Y-15833627D02*
X7273558Y-15805055D01*
X7273558Y-15805055D02*
X7264034Y-15786008D01*
X7264034Y-15786008D02*
X7244987Y-15757436D01*
X7244987Y-15757436D02*
X7235463Y-15747912D01*
X7597368Y-16052674D02*
X7587844Y-16043150D01*
X7587844Y-16043150D02*
X7568796Y-16014579D01*
X7568796Y-16014579D02*
X7559272Y-15995531D01*
X7559272Y-15995531D02*
X7549749Y-15966960D01*
X7549749Y-15966960D02*
X7540225Y-15919341D01*
X7540225Y-15919341D02*
X7540225Y-15881246D01*
X7540225Y-15881246D02*
X7549749Y-15833627D01*
X7549749Y-15833627D02*
X7559272Y-15805055D01*
X7559272Y-15805055D02*
X7568796Y-15786008D01*
X7568796Y-15786008D02*
X7587844Y-15757436D01*
X7587844Y-15757436D02*
X7597368Y-15747912D01*
X7673558Y-15843150D02*
X7673558Y-15976484D01*
X7673558Y-15862198D02*
X7683082Y-15852674D01*
X7683082Y-15852674D02*
X7702130Y-15843150D01*
X7702130Y-15843150D02*
X7730701Y-15843150D01*
X7730701Y-15843150D02*
X7749749Y-15852674D01*
X7749749Y-15852674D02*
X7759272Y-15871722D01*
X7759272Y-15871722D02*
X7759272Y-15976484D01*
X7883082Y-15976484D02*
X7864034Y-15966960D01*
X7864034Y-15966960D02*
X7854511Y-15957436D01*
X7854511Y-15957436D02*
X7844987Y-15938388D01*
X7844987Y-15938388D02*
X7844987Y-15881246D01*
X7844987Y-15881246D02*
X7854511Y-15862198D01*
X7854511Y-15862198D02*
X7864034Y-15852674D01*
X7864034Y-15852674D02*
X7883082Y-15843150D01*
X7883082Y-15843150D02*
X7911653Y-15843150D01*
X7911653Y-15843150D02*
X7930701Y-15852674D01*
X7930701Y-15852674D02*
X7940225Y-15862198D01*
X7940225Y-15862198D02*
X7949749Y-15881246D01*
X7949749Y-15881246D02*
X7949749Y-15938388D01*
X7949749Y-15938388D02*
X7940225Y-15957436D01*
X7940225Y-15957436D02*
X7930701Y-15966960D01*
X7930701Y-15966960D02*
X7911653Y-15976484D01*
X7911653Y-15976484D02*
X7883082Y-15976484D01*
X8006892Y-15843150D02*
X8083082Y-15843150D01*
X8035463Y-15776484D02*
X8035463Y-15947912D01*
X8035463Y-15947912D02*
X8044987Y-15966960D01*
X8044987Y-15966960D02*
X8064034Y-15976484D01*
X8064034Y-15976484D02*
X8083082Y-15976484D01*
X8302130Y-15843150D02*
X8302130Y-16043150D01*
X8302130Y-15852674D02*
X8321177Y-15843150D01*
X8321177Y-15843150D02*
X8359273Y-15843150D01*
X8359273Y-15843150D02*
X8378320Y-15852674D01*
X8378320Y-15852674D02*
X8387844Y-15862198D01*
X8387844Y-15862198D02*
X8397368Y-15881246D01*
X8397368Y-15881246D02*
X8397368Y-15938388D01*
X8397368Y-15938388D02*
X8387844Y-15957436D01*
X8387844Y-15957436D02*
X8378320Y-15966960D01*
X8378320Y-15966960D02*
X8359273Y-15976484D01*
X8359273Y-15976484D02*
X8321177Y-15976484D01*
X8321177Y-15976484D02*
X8302130Y-15966960D01*
X8511654Y-15976484D02*
X8492606Y-15966960D01*
X8492606Y-15966960D02*
X8483082Y-15947912D01*
X8483082Y-15947912D02*
X8483082Y-15776484D01*
X8673558Y-15976484D02*
X8673558Y-15871722D01*
X8673558Y-15871722D02*
X8664035Y-15852674D01*
X8664035Y-15852674D02*
X8644987Y-15843150D01*
X8644987Y-15843150D02*
X8606892Y-15843150D01*
X8606892Y-15843150D02*
X8587844Y-15852674D01*
X8673558Y-15966960D02*
X8654511Y-15976484D01*
X8654511Y-15976484D02*
X8606892Y-15976484D01*
X8606892Y-15976484D02*
X8587844Y-15966960D01*
X8587844Y-15966960D02*
X8578320Y-15947912D01*
X8578320Y-15947912D02*
X8578320Y-15928865D01*
X8578320Y-15928865D02*
X8587844Y-15909817D01*
X8587844Y-15909817D02*
X8606892Y-15900293D01*
X8606892Y-15900293D02*
X8654511Y-15900293D01*
X8654511Y-15900293D02*
X8673558Y-15890769D01*
X8740225Y-15843150D02*
X8816415Y-15843150D01*
X8768796Y-15776484D02*
X8768796Y-15947912D01*
X8768796Y-15947912D02*
X8778320Y-15966960D01*
X8778320Y-15966960D02*
X8797368Y-15976484D01*
X8797368Y-15976484D02*
X8816415Y-15976484D01*
X8959273Y-15966960D02*
X8940225Y-15976484D01*
X8940225Y-15976484D02*
X8902130Y-15976484D01*
X8902130Y-15976484D02*
X8883082Y-15966960D01*
X8883082Y-15966960D02*
X8873558Y-15947912D01*
X8873558Y-15947912D02*
X8873558Y-15871722D01*
X8873558Y-15871722D02*
X8883082Y-15852674D01*
X8883082Y-15852674D02*
X8902130Y-15843150D01*
X8902130Y-15843150D02*
X8940225Y-15843150D01*
X8940225Y-15843150D02*
X8959273Y-15852674D01*
X8959273Y-15852674D02*
X8968796Y-15871722D01*
X8968796Y-15871722D02*
X8968796Y-15890769D01*
X8968796Y-15890769D02*
X8873558Y-15909817D01*
X9140225Y-15976484D02*
X9140225Y-15776484D01*
X9140225Y-15966960D02*
X9121177Y-15976484D01*
X9121177Y-15976484D02*
X9083082Y-15976484D01*
X9083082Y-15976484D02*
X9064035Y-15966960D01*
X9064035Y-15966960D02*
X9054511Y-15957436D01*
X9054511Y-15957436D02*
X9044987Y-15938388D01*
X9044987Y-15938388D02*
X9044987Y-15881246D01*
X9044987Y-15881246D02*
X9054511Y-15862198D01*
X9054511Y-15862198D02*
X9064035Y-15852674D01*
X9064035Y-15852674D02*
X9083082Y-15843150D01*
X9083082Y-15843150D02*
X9121177Y-15843150D01*
X9121177Y-15843150D02*
X9140225Y-15852674D01*
X9216416Y-16052674D02*
X9225939Y-16043150D01*
X9225939Y-16043150D02*
X9244987Y-16014579D01*
X9244987Y-16014579D02*
X9254511Y-15995531D01*
X9254511Y-15995531D02*
X9264035Y-15966960D01*
X9264035Y-15966960D02*
X9273558Y-15919341D01*
X9273558Y-15919341D02*
X9273558Y-15881246D01*
X9273558Y-15881246D02*
X9264035Y-15833627D01*
X9264035Y-15833627D02*
X9254511Y-15805055D01*
X9254511Y-15805055D02*
X9244987Y-15786008D01*
X9244987Y-15786008D02*
X9225939Y-15757436D01*
X9225939Y-15757436D02*
X9216416Y-15747912D01*
X2460400Y-16205000D02*
G75*
G03*
X2460400Y-16205000I-100000J0D01*
G01*
X2711653Y-16115531D02*
X2721177Y-16106008D01*
X2721177Y-16106008D02*
X2740224Y-16096484D01*
X2740224Y-16096484D02*
X2787844Y-16096484D01*
X2787844Y-16096484D02*
X2806891Y-16106008D01*
X2806891Y-16106008D02*
X2816415Y-16115531D01*
X2816415Y-16115531D02*
X2825939Y-16134579D01*
X2825939Y-16134579D02*
X2825939Y-16153627D01*
X2825939Y-16153627D02*
X2816415Y-16182198D01*
X2816415Y-16182198D02*
X2702129Y-16296484D01*
X2702129Y-16296484D02*
X2825939Y-16296484D01*
X2911653Y-16277436D02*
X2921177Y-16286960D01*
X2921177Y-16286960D02*
X2911653Y-16296484D01*
X2911653Y-16296484D02*
X2902129Y-16286960D01*
X2902129Y-16286960D02*
X2911653Y-16277436D01*
X2911653Y-16277436D02*
X2911653Y-16296484D01*
X2987843Y-16096484D02*
X3111653Y-16096484D01*
X3111653Y-16096484D02*
X3044986Y-16172674D01*
X3044986Y-16172674D02*
X3073558Y-16172674D01*
X3073558Y-16172674D02*
X3092605Y-16182198D01*
X3092605Y-16182198D02*
X3102129Y-16191722D01*
X3102129Y-16191722D02*
X3111653Y-16210769D01*
X3111653Y-16210769D02*
X3111653Y-16258388D01*
X3111653Y-16258388D02*
X3102129Y-16277436D01*
X3102129Y-16277436D02*
X3092605Y-16286960D01*
X3092605Y-16286960D02*
X3073558Y-16296484D01*
X3073558Y-16296484D02*
X3016415Y-16296484D01*
X3016415Y-16296484D02*
X2997367Y-16286960D01*
X2997367Y-16286960D02*
X2987843Y-16277436D01*
X3235462Y-16096484D02*
X3254510Y-16096484D01*
X3254510Y-16096484D02*
X3273558Y-16106008D01*
X3273558Y-16106008D02*
X3283082Y-16115531D01*
X3283082Y-16115531D02*
X3292605Y-16134579D01*
X3292605Y-16134579D02*
X3302129Y-16172674D01*
X3302129Y-16172674D02*
X3302129Y-16220293D01*
X3302129Y-16220293D02*
X3292605Y-16258388D01*
X3292605Y-16258388D02*
X3283082Y-16277436D01*
X3283082Y-16277436D02*
X3273558Y-16286960D01*
X3273558Y-16286960D02*
X3254510Y-16296484D01*
X3254510Y-16296484D02*
X3235462Y-16296484D01*
X3235462Y-16296484D02*
X3216415Y-16286960D01*
X3216415Y-16286960D02*
X3206891Y-16277436D01*
X3206891Y-16277436D02*
X3197367Y-16258388D01*
X3197367Y-16258388D02*
X3187843Y-16220293D01*
X3187843Y-16220293D02*
X3187843Y-16172674D01*
X3187843Y-16172674D02*
X3197367Y-16134579D01*
X3197367Y-16134579D02*
X3206891Y-16115531D01*
X3206891Y-16115531D02*
X3216415Y-16106008D01*
X3216415Y-16106008D02*
X3235462Y-16096484D01*
X3425939Y-16096484D02*
X3444986Y-16096484D01*
X3444986Y-16096484D02*
X3464034Y-16106008D01*
X3464034Y-16106008D02*
X3473558Y-16115531D01*
X3473558Y-16115531D02*
X3483082Y-16134579D01*
X3483082Y-16134579D02*
X3492605Y-16172674D01*
X3492605Y-16172674D02*
X3492605Y-16220293D01*
X3492605Y-16220293D02*
X3483082Y-16258388D01*
X3483082Y-16258388D02*
X3473558Y-16277436D01*
X3473558Y-16277436D02*
X3464034Y-16286960D01*
X3464034Y-16286960D02*
X3444986Y-16296484D01*
X3444986Y-16296484D02*
X3425939Y-16296484D01*
X3425939Y-16296484D02*
X3406891Y-16286960D01*
X3406891Y-16286960D02*
X3397367Y-16277436D01*
X3397367Y-16277436D02*
X3387843Y-16258388D01*
X3387843Y-16258388D02*
X3378320Y-16220293D01*
X3378320Y-16220293D02*
X3378320Y-16172674D01*
X3378320Y-16172674D02*
X3387843Y-16134579D01*
X3387843Y-16134579D02*
X3397367Y-16115531D01*
X3397367Y-16115531D02*
X3406891Y-16106008D01*
X3406891Y-16106008D02*
X3425939Y-16096484D01*
X3578320Y-16296484D02*
X3578320Y-16163150D01*
X3578320Y-16182198D02*
X3587843Y-16172674D01*
X3587843Y-16172674D02*
X3606891Y-16163150D01*
X3606891Y-16163150D02*
X3635463Y-16163150D01*
X3635463Y-16163150D02*
X3654510Y-16172674D01*
X3654510Y-16172674D02*
X3664034Y-16191722D01*
X3664034Y-16191722D02*
X3664034Y-16296484D01*
X3664034Y-16191722D02*
X3673558Y-16172674D01*
X3673558Y-16172674D02*
X3692605Y-16163150D01*
X3692605Y-16163150D02*
X3721177Y-16163150D01*
X3721177Y-16163150D02*
X3740224Y-16172674D01*
X3740224Y-16172674D02*
X3749748Y-16191722D01*
X3749748Y-16191722D02*
X3749748Y-16296484D01*
X3844986Y-16296484D02*
X3844986Y-16163150D01*
X3844986Y-16182198D02*
X3854510Y-16172674D01*
X3854510Y-16172674D02*
X3873558Y-16163150D01*
X3873558Y-16163150D02*
X3902129Y-16163150D01*
X3902129Y-16163150D02*
X3921177Y-16172674D01*
X3921177Y-16172674D02*
X3930701Y-16191722D01*
X3930701Y-16191722D02*
X3930701Y-16296484D01*
X3930701Y-16191722D02*
X3940224Y-16172674D01*
X3940224Y-16172674D02*
X3959272Y-16163150D01*
X3959272Y-16163150D02*
X3987843Y-16163150D01*
X3987843Y-16163150D02*
X4006891Y-16172674D01*
X4006891Y-16172674D02*
X4016415Y-16191722D01*
X4016415Y-16191722D02*
X4016415Y-16296484D01*
X4406891Y-16086960D02*
X4235463Y-16344103D01*
X4664034Y-16096484D02*
X4683082Y-16096484D01*
X4683082Y-16096484D02*
X4702129Y-16106008D01*
X4702129Y-16106008D02*
X4711653Y-16115531D01*
X4711653Y-16115531D02*
X4721177Y-16134579D01*
X4721177Y-16134579D02*
X4730701Y-16172674D01*
X4730701Y-16172674D02*
X4730701Y-16220293D01*
X4730701Y-16220293D02*
X4721177Y-16258388D01*
X4721177Y-16258388D02*
X4711653Y-16277436D01*
X4711653Y-16277436D02*
X4702129Y-16286960D01*
X4702129Y-16286960D02*
X4683082Y-16296484D01*
X4683082Y-16296484D02*
X4664034Y-16296484D01*
X4664034Y-16296484D02*
X4644987Y-16286960D01*
X4644987Y-16286960D02*
X4635463Y-16277436D01*
X4635463Y-16277436D02*
X4625939Y-16258388D01*
X4625939Y-16258388D02*
X4616415Y-16220293D01*
X4616415Y-16220293D02*
X4616415Y-16172674D01*
X4616415Y-16172674D02*
X4625939Y-16134579D01*
X4625939Y-16134579D02*
X4635463Y-16115531D01*
X4635463Y-16115531D02*
X4644987Y-16106008D01*
X4644987Y-16106008D02*
X4664034Y-16096484D01*
X4816415Y-16277436D02*
X4825939Y-16286960D01*
X4825939Y-16286960D02*
X4816415Y-16296484D01*
X4816415Y-16296484D02*
X4806891Y-16286960D01*
X4806891Y-16286960D02*
X4816415Y-16277436D01*
X4816415Y-16277436D02*
X4816415Y-16296484D01*
X4949748Y-16096484D02*
X4968796Y-16096484D01*
X4968796Y-16096484D02*
X4987844Y-16106008D01*
X4987844Y-16106008D02*
X4997368Y-16115531D01*
X4997368Y-16115531D02*
X5006891Y-16134579D01*
X5006891Y-16134579D02*
X5016415Y-16172674D01*
X5016415Y-16172674D02*
X5016415Y-16220293D01*
X5016415Y-16220293D02*
X5006891Y-16258388D01*
X5006891Y-16258388D02*
X4997368Y-16277436D01*
X4997368Y-16277436D02*
X4987844Y-16286960D01*
X4987844Y-16286960D02*
X4968796Y-16296484D01*
X4968796Y-16296484D02*
X4949748Y-16296484D01*
X4949748Y-16296484D02*
X4930701Y-16286960D01*
X4930701Y-16286960D02*
X4921177Y-16277436D01*
X4921177Y-16277436D02*
X4911653Y-16258388D01*
X4911653Y-16258388D02*
X4902129Y-16220293D01*
X4902129Y-16220293D02*
X4902129Y-16172674D01*
X4902129Y-16172674D02*
X4911653Y-16134579D01*
X4911653Y-16134579D02*
X4921177Y-16115531D01*
X4921177Y-16115531D02*
X4930701Y-16106008D01*
X4930701Y-16106008D02*
X4949748Y-16096484D01*
X5111653Y-16296484D02*
X5149748Y-16296484D01*
X5149748Y-16296484D02*
X5168796Y-16286960D01*
X5168796Y-16286960D02*
X5178320Y-16277436D01*
X5178320Y-16277436D02*
X5197368Y-16248865D01*
X5197368Y-16248865D02*
X5206891Y-16210769D01*
X5206891Y-16210769D02*
X5206891Y-16134579D01*
X5206891Y-16134579D02*
X5197368Y-16115531D01*
X5197368Y-16115531D02*
X5187844Y-16106008D01*
X5187844Y-16106008D02*
X5168796Y-16096484D01*
X5168796Y-16096484D02*
X5130701Y-16096484D01*
X5130701Y-16096484D02*
X5111653Y-16106008D01*
X5111653Y-16106008D02*
X5102129Y-16115531D01*
X5102129Y-16115531D02*
X5092606Y-16134579D01*
X5092606Y-16134579D02*
X5092606Y-16182198D01*
X5092606Y-16182198D02*
X5102129Y-16201246D01*
X5102129Y-16201246D02*
X5111653Y-16210769D01*
X5111653Y-16210769D02*
X5130701Y-16220293D01*
X5130701Y-16220293D02*
X5168796Y-16220293D01*
X5168796Y-16220293D02*
X5187844Y-16210769D01*
X5187844Y-16210769D02*
X5197368Y-16201246D01*
X5197368Y-16201246D02*
X5206891Y-16182198D01*
X5330701Y-16096484D02*
X5349749Y-16096484D01*
X5349749Y-16096484D02*
X5368796Y-16106008D01*
X5368796Y-16106008D02*
X5378320Y-16115531D01*
X5378320Y-16115531D02*
X5387844Y-16134579D01*
X5387844Y-16134579D02*
X5397368Y-16172674D01*
X5397368Y-16172674D02*
X5397368Y-16220293D01*
X5397368Y-16220293D02*
X5387844Y-16258388D01*
X5387844Y-16258388D02*
X5378320Y-16277436D01*
X5378320Y-16277436D02*
X5368796Y-16286960D01*
X5368796Y-16286960D02*
X5349749Y-16296484D01*
X5349749Y-16296484D02*
X5330701Y-16296484D01*
X5330701Y-16296484D02*
X5311653Y-16286960D01*
X5311653Y-16286960D02*
X5302129Y-16277436D01*
X5302129Y-16277436D02*
X5292606Y-16258388D01*
X5292606Y-16258388D02*
X5283082Y-16220293D01*
X5283082Y-16220293D02*
X5283082Y-16172674D01*
X5283082Y-16172674D02*
X5292606Y-16134579D01*
X5292606Y-16134579D02*
X5302129Y-16115531D01*
X5302129Y-16115531D02*
X5311653Y-16106008D01*
X5311653Y-16106008D02*
X5330701Y-16096484D01*
X5568796Y-16096484D02*
X5530701Y-16096484D01*
X5530701Y-16096484D02*
X5511653Y-16106008D01*
X5511653Y-16106008D02*
X5502129Y-16115531D01*
X5502129Y-16115531D02*
X5483082Y-16144103D01*
X5483082Y-16144103D02*
X5473558Y-16182198D01*
X5473558Y-16182198D02*
X5473558Y-16258388D01*
X5473558Y-16258388D02*
X5483082Y-16277436D01*
X5483082Y-16277436D02*
X5492606Y-16286960D01*
X5492606Y-16286960D02*
X5511653Y-16296484D01*
X5511653Y-16296484D02*
X5549749Y-16296484D01*
X5549749Y-16296484D02*
X5568796Y-16286960D01*
X5568796Y-16286960D02*
X5578320Y-16277436D01*
X5578320Y-16277436D02*
X5587844Y-16258388D01*
X5587844Y-16258388D02*
X5587844Y-16210769D01*
X5587844Y-16210769D02*
X5578320Y-16191722D01*
X5578320Y-16191722D02*
X5568796Y-16182198D01*
X5568796Y-16182198D02*
X5549749Y-16172674D01*
X5549749Y-16172674D02*
X5511653Y-16172674D01*
X5511653Y-16172674D02*
X5492606Y-16182198D01*
X5492606Y-16182198D02*
X5483082Y-16191722D01*
X5483082Y-16191722D02*
X5473558Y-16210769D01*
X5664034Y-16096484D02*
X5664034Y-16134579D01*
X5740225Y-16096484D02*
X5740225Y-16134579D01*
X6035463Y-16372674D02*
X6025939Y-16363150D01*
X6025939Y-16363150D02*
X6006891Y-16334579D01*
X6006891Y-16334579D02*
X5997368Y-16315531D01*
X5997368Y-16315531D02*
X5987844Y-16286960D01*
X5987844Y-16286960D02*
X5978320Y-16239341D01*
X5978320Y-16239341D02*
X5978320Y-16201246D01*
X5978320Y-16201246D02*
X5987844Y-16153627D01*
X5987844Y-16153627D02*
X5997368Y-16125055D01*
X5997368Y-16125055D02*
X6006891Y-16106008D01*
X6006891Y-16106008D02*
X6025939Y-16077436D01*
X6025939Y-16077436D02*
X6035463Y-16067912D01*
X6102129Y-16115531D02*
X6111653Y-16106008D01*
X6111653Y-16106008D02*
X6130701Y-16096484D01*
X6130701Y-16096484D02*
X6178320Y-16096484D01*
X6178320Y-16096484D02*
X6197368Y-16106008D01*
X6197368Y-16106008D02*
X6206891Y-16115531D01*
X6206891Y-16115531D02*
X6216415Y-16134579D01*
X6216415Y-16134579D02*
X6216415Y-16153627D01*
X6216415Y-16153627D02*
X6206891Y-16182198D01*
X6206891Y-16182198D02*
X6092606Y-16296484D01*
X6092606Y-16296484D02*
X6216415Y-16296484D01*
X6454510Y-16296484D02*
X6454510Y-16096484D01*
X6540225Y-16296484D02*
X6540225Y-16191722D01*
X6540225Y-16191722D02*
X6530701Y-16172674D01*
X6530701Y-16172674D02*
X6511653Y-16163150D01*
X6511653Y-16163150D02*
X6483082Y-16163150D01*
X6483082Y-16163150D02*
X6464034Y-16172674D01*
X6464034Y-16172674D02*
X6454510Y-16182198D01*
X6664034Y-16296484D02*
X6644987Y-16286960D01*
X6644987Y-16286960D02*
X6635463Y-16277436D01*
X6635463Y-16277436D02*
X6625939Y-16258388D01*
X6625939Y-16258388D02*
X6625939Y-16201246D01*
X6625939Y-16201246D02*
X6635463Y-16182198D01*
X6635463Y-16182198D02*
X6644987Y-16172674D01*
X6644987Y-16172674D02*
X6664034Y-16163150D01*
X6664034Y-16163150D02*
X6692606Y-16163150D01*
X6692606Y-16163150D02*
X6711653Y-16172674D01*
X6711653Y-16172674D02*
X6721177Y-16182198D01*
X6721177Y-16182198D02*
X6730701Y-16201246D01*
X6730701Y-16201246D02*
X6730701Y-16258388D01*
X6730701Y-16258388D02*
X6721177Y-16277436D01*
X6721177Y-16277436D02*
X6711653Y-16286960D01*
X6711653Y-16286960D02*
X6692606Y-16296484D01*
X6692606Y-16296484D02*
X6664034Y-16296484D01*
X6844987Y-16296484D02*
X6825939Y-16286960D01*
X6825939Y-16286960D02*
X6816415Y-16267912D01*
X6816415Y-16267912D02*
X6816415Y-16096484D01*
X6997368Y-16286960D02*
X6978320Y-16296484D01*
X6978320Y-16296484D02*
X6940225Y-16296484D01*
X6940225Y-16296484D02*
X6921177Y-16286960D01*
X6921177Y-16286960D02*
X6911653Y-16267912D01*
X6911653Y-16267912D02*
X6911653Y-16191722D01*
X6911653Y-16191722D02*
X6921177Y-16172674D01*
X6921177Y-16172674D02*
X6940225Y-16163150D01*
X6940225Y-16163150D02*
X6978320Y-16163150D01*
X6978320Y-16163150D02*
X6997368Y-16172674D01*
X6997368Y-16172674D02*
X7006891Y-16191722D01*
X7006891Y-16191722D02*
X7006891Y-16210769D01*
X7006891Y-16210769D02*
X6911653Y-16229817D01*
X7083082Y-16286960D02*
X7102130Y-16296484D01*
X7102130Y-16296484D02*
X7140225Y-16296484D01*
X7140225Y-16296484D02*
X7159272Y-16286960D01*
X7159272Y-16286960D02*
X7168796Y-16267912D01*
X7168796Y-16267912D02*
X7168796Y-16258388D01*
X7168796Y-16258388D02*
X7159272Y-16239341D01*
X7159272Y-16239341D02*
X7140225Y-16229817D01*
X7140225Y-16229817D02*
X7111653Y-16229817D01*
X7111653Y-16229817D02*
X7092606Y-16220293D01*
X7092606Y-16220293D02*
X7083082Y-16201246D01*
X7083082Y-16201246D02*
X7083082Y-16191722D01*
X7083082Y-16191722D02*
X7092606Y-16172674D01*
X7092606Y-16172674D02*
X7111653Y-16163150D01*
X7111653Y-16163150D02*
X7140225Y-16163150D01*
X7140225Y-16163150D02*
X7159272Y-16172674D01*
X7235463Y-16372674D02*
X7244987Y-16363150D01*
X7244987Y-16363150D02*
X7264034Y-16334579D01*
X7264034Y-16334579D02*
X7273558Y-16315531D01*
X7273558Y-16315531D02*
X7283082Y-16286960D01*
X7283082Y-16286960D02*
X7292606Y-16239341D01*
X7292606Y-16239341D02*
X7292606Y-16201246D01*
X7292606Y-16201246D02*
X7283082Y-16153627D01*
X7283082Y-16153627D02*
X7273558Y-16125055D01*
X7273558Y-16125055D02*
X7264034Y-16106008D01*
X7264034Y-16106008D02*
X7244987Y-16077436D01*
X7244987Y-16077436D02*
X7235463Y-16067912D01*
X7597368Y-16372674D02*
X7587844Y-16363150D01*
X7587844Y-16363150D02*
X7568796Y-16334579D01*
X7568796Y-16334579D02*
X7559272Y-16315531D01*
X7559272Y-16315531D02*
X7549749Y-16286960D01*
X7549749Y-16286960D02*
X7540225Y-16239341D01*
X7540225Y-16239341D02*
X7540225Y-16201246D01*
X7540225Y-16201246D02*
X7549749Y-16153627D01*
X7549749Y-16153627D02*
X7559272Y-16125055D01*
X7559272Y-16125055D02*
X7568796Y-16106008D01*
X7568796Y-16106008D02*
X7587844Y-16077436D01*
X7587844Y-16077436D02*
X7597368Y-16067912D01*
X7673558Y-16163150D02*
X7673558Y-16296484D01*
X7673558Y-16182198D02*
X7683082Y-16172674D01*
X7683082Y-16172674D02*
X7702130Y-16163150D01*
X7702130Y-16163150D02*
X7730701Y-16163150D01*
X7730701Y-16163150D02*
X7749749Y-16172674D01*
X7749749Y-16172674D02*
X7759272Y-16191722D01*
X7759272Y-16191722D02*
X7759272Y-16296484D01*
X7883082Y-16296484D02*
X7864034Y-16286960D01*
X7864034Y-16286960D02*
X7854511Y-16277436D01*
X7854511Y-16277436D02*
X7844987Y-16258388D01*
X7844987Y-16258388D02*
X7844987Y-16201246D01*
X7844987Y-16201246D02*
X7854511Y-16182198D01*
X7854511Y-16182198D02*
X7864034Y-16172674D01*
X7864034Y-16172674D02*
X7883082Y-16163150D01*
X7883082Y-16163150D02*
X7911653Y-16163150D01*
X7911653Y-16163150D02*
X7930701Y-16172674D01*
X7930701Y-16172674D02*
X7940225Y-16182198D01*
X7940225Y-16182198D02*
X7949749Y-16201246D01*
X7949749Y-16201246D02*
X7949749Y-16258388D01*
X7949749Y-16258388D02*
X7940225Y-16277436D01*
X7940225Y-16277436D02*
X7930701Y-16286960D01*
X7930701Y-16286960D02*
X7911653Y-16296484D01*
X7911653Y-16296484D02*
X7883082Y-16296484D01*
X8006892Y-16163150D02*
X8083082Y-16163150D01*
X8035463Y-16096484D02*
X8035463Y-16267912D01*
X8035463Y-16267912D02*
X8044987Y-16286960D01*
X8044987Y-16286960D02*
X8064034Y-16296484D01*
X8064034Y-16296484D02*
X8083082Y-16296484D01*
X8302130Y-16163150D02*
X8302130Y-16363150D01*
X8302130Y-16172674D02*
X8321177Y-16163150D01*
X8321177Y-16163150D02*
X8359273Y-16163150D01*
X8359273Y-16163150D02*
X8378320Y-16172674D01*
X8378320Y-16172674D02*
X8387844Y-16182198D01*
X8387844Y-16182198D02*
X8397368Y-16201246D01*
X8397368Y-16201246D02*
X8397368Y-16258388D01*
X8397368Y-16258388D02*
X8387844Y-16277436D01*
X8387844Y-16277436D02*
X8378320Y-16286960D01*
X8378320Y-16286960D02*
X8359273Y-16296484D01*
X8359273Y-16296484D02*
X8321177Y-16296484D01*
X8321177Y-16296484D02*
X8302130Y-16286960D01*
X8511654Y-16296484D02*
X8492606Y-16286960D01*
X8492606Y-16286960D02*
X8483082Y-16267912D01*
X8483082Y-16267912D02*
X8483082Y-16096484D01*
X8673558Y-16296484D02*
X8673558Y-16191722D01*
X8673558Y-16191722D02*
X8664035Y-16172674D01*
X8664035Y-16172674D02*
X8644987Y-16163150D01*
X8644987Y-16163150D02*
X8606892Y-16163150D01*
X8606892Y-16163150D02*
X8587844Y-16172674D01*
X8673558Y-16286960D02*
X8654511Y-16296484D01*
X8654511Y-16296484D02*
X8606892Y-16296484D01*
X8606892Y-16296484D02*
X8587844Y-16286960D01*
X8587844Y-16286960D02*
X8578320Y-16267912D01*
X8578320Y-16267912D02*
X8578320Y-16248865D01*
X8578320Y-16248865D02*
X8587844Y-16229817D01*
X8587844Y-16229817D02*
X8606892Y-16220293D01*
X8606892Y-16220293D02*
X8654511Y-16220293D01*
X8654511Y-16220293D02*
X8673558Y-16210769D01*
X8740225Y-16163150D02*
X8816415Y-16163150D01*
X8768796Y-16096484D02*
X8768796Y-16267912D01*
X8768796Y-16267912D02*
X8778320Y-16286960D01*
X8778320Y-16286960D02*
X8797368Y-16296484D01*
X8797368Y-16296484D02*
X8816415Y-16296484D01*
X8959273Y-16286960D02*
X8940225Y-16296484D01*
X8940225Y-16296484D02*
X8902130Y-16296484D01*
X8902130Y-16296484D02*
X8883082Y-16286960D01*
X8883082Y-16286960D02*
X8873558Y-16267912D01*
X8873558Y-16267912D02*
X8873558Y-16191722D01*
X8873558Y-16191722D02*
X8883082Y-16172674D01*
X8883082Y-16172674D02*
X8902130Y-16163150D01*
X8902130Y-16163150D02*
X8940225Y-16163150D01*
X8940225Y-16163150D02*
X8959273Y-16172674D01*
X8959273Y-16172674D02*
X8968796Y-16191722D01*
X8968796Y-16191722D02*
X8968796Y-16210769D01*
X8968796Y-16210769D02*
X8873558Y-16229817D01*
X9140225Y-16296484D02*
X9140225Y-16096484D01*
X9140225Y-16286960D02*
X9121177Y-16296484D01*
X9121177Y-16296484D02*
X9083082Y-16296484D01*
X9083082Y-16296484D02*
X9064035Y-16286960D01*
X9064035Y-16286960D02*
X9054511Y-16277436D01*
X9054511Y-16277436D02*
X9044987Y-16258388D01*
X9044987Y-16258388D02*
X9044987Y-16201246D01*
X9044987Y-16201246D02*
X9054511Y-16182198D01*
X9054511Y-16182198D02*
X9064035Y-16172674D01*
X9064035Y-16172674D02*
X9083082Y-16163150D01*
X9083082Y-16163150D02*
X9121177Y-16163150D01*
X9121177Y-16163150D02*
X9140225Y-16172674D01*
X9216416Y-16372674D02*
X9225939Y-16363150D01*
X9225939Y-16363150D02*
X9244987Y-16334579D01*
X9244987Y-16334579D02*
X9254511Y-16315531D01*
X9254511Y-16315531D02*
X9264035Y-16286960D01*
X9264035Y-16286960D02*
X9273558Y-16239341D01*
X9273558Y-16239341D02*
X9273558Y-16201246D01*
X9273558Y-16201246D02*
X9264035Y-16153627D01*
X9264035Y-16153627D02*
X9254511Y-16125055D01*
X9254511Y-16125055D02*
X9244987Y-16106008D01*
X9244987Y-16106008D02*
X9225939Y-16077436D01*
X9225939Y-16077436D02*
X9216416Y-16067912D01*
X2360400Y-16425000D02*
X2360400Y-16625000D01*
X2260400Y-16525000D02*
X2460400Y-16525000D01*
X2702129Y-16416484D02*
X2825939Y-16416484D01*
X2825939Y-16416484D02*
X2759272Y-16492674D01*
X2759272Y-16492674D02*
X2787844Y-16492674D01*
X2787844Y-16492674D02*
X2806891Y-16502198D01*
X2806891Y-16502198D02*
X2816415Y-16511722D01*
X2816415Y-16511722D02*
X2825939Y-16530769D01*
X2825939Y-16530769D02*
X2825939Y-16578388D01*
X2825939Y-16578388D02*
X2816415Y-16597436D01*
X2816415Y-16597436D02*
X2806891Y-16606960D01*
X2806891Y-16606960D02*
X2787844Y-16616484D01*
X2787844Y-16616484D02*
X2730701Y-16616484D01*
X2730701Y-16616484D02*
X2711653Y-16606960D01*
X2711653Y-16606960D02*
X2702129Y-16597436D01*
X2911653Y-16597436D02*
X2921177Y-16606960D01*
X2921177Y-16606960D02*
X2911653Y-16616484D01*
X2911653Y-16616484D02*
X2902129Y-16606960D01*
X2902129Y-16606960D02*
X2911653Y-16597436D01*
X2911653Y-16597436D02*
X2911653Y-16616484D01*
X2997367Y-16435531D02*
X3006891Y-16426008D01*
X3006891Y-16426008D02*
X3025939Y-16416484D01*
X3025939Y-16416484D02*
X3073558Y-16416484D01*
X3073558Y-16416484D02*
X3092605Y-16426008D01*
X3092605Y-16426008D02*
X3102129Y-16435531D01*
X3102129Y-16435531D02*
X3111653Y-16454579D01*
X3111653Y-16454579D02*
X3111653Y-16473627D01*
X3111653Y-16473627D02*
X3102129Y-16502198D01*
X3102129Y-16502198D02*
X2987843Y-16616484D01*
X2987843Y-16616484D02*
X3111653Y-16616484D01*
X3235462Y-16416484D02*
X3254510Y-16416484D01*
X3254510Y-16416484D02*
X3273558Y-16426008D01*
X3273558Y-16426008D02*
X3283082Y-16435531D01*
X3283082Y-16435531D02*
X3292605Y-16454579D01*
X3292605Y-16454579D02*
X3302129Y-16492674D01*
X3302129Y-16492674D02*
X3302129Y-16540293D01*
X3302129Y-16540293D02*
X3292605Y-16578388D01*
X3292605Y-16578388D02*
X3283082Y-16597436D01*
X3283082Y-16597436D02*
X3273558Y-16606960D01*
X3273558Y-16606960D02*
X3254510Y-16616484D01*
X3254510Y-16616484D02*
X3235462Y-16616484D01*
X3235462Y-16616484D02*
X3216415Y-16606960D01*
X3216415Y-16606960D02*
X3206891Y-16597436D01*
X3206891Y-16597436D02*
X3197367Y-16578388D01*
X3197367Y-16578388D02*
X3187843Y-16540293D01*
X3187843Y-16540293D02*
X3187843Y-16492674D01*
X3187843Y-16492674D02*
X3197367Y-16454579D01*
X3197367Y-16454579D02*
X3206891Y-16435531D01*
X3206891Y-16435531D02*
X3216415Y-16426008D01*
X3216415Y-16426008D02*
X3235462Y-16416484D01*
X3425939Y-16416484D02*
X3444986Y-16416484D01*
X3444986Y-16416484D02*
X3464034Y-16426008D01*
X3464034Y-16426008D02*
X3473558Y-16435531D01*
X3473558Y-16435531D02*
X3483082Y-16454579D01*
X3483082Y-16454579D02*
X3492605Y-16492674D01*
X3492605Y-16492674D02*
X3492605Y-16540293D01*
X3492605Y-16540293D02*
X3483082Y-16578388D01*
X3483082Y-16578388D02*
X3473558Y-16597436D01*
X3473558Y-16597436D02*
X3464034Y-16606960D01*
X3464034Y-16606960D02*
X3444986Y-16616484D01*
X3444986Y-16616484D02*
X3425939Y-16616484D01*
X3425939Y-16616484D02*
X3406891Y-16606960D01*
X3406891Y-16606960D02*
X3397367Y-16597436D01*
X3397367Y-16597436D02*
X3387843Y-16578388D01*
X3387843Y-16578388D02*
X3378320Y-16540293D01*
X3378320Y-16540293D02*
X3378320Y-16492674D01*
X3378320Y-16492674D02*
X3387843Y-16454579D01*
X3387843Y-16454579D02*
X3397367Y-16435531D01*
X3397367Y-16435531D02*
X3406891Y-16426008D01*
X3406891Y-16426008D02*
X3425939Y-16416484D01*
X3578320Y-16616484D02*
X3578320Y-16483150D01*
X3578320Y-16502198D02*
X3587843Y-16492674D01*
X3587843Y-16492674D02*
X3606891Y-16483150D01*
X3606891Y-16483150D02*
X3635463Y-16483150D01*
X3635463Y-16483150D02*
X3654510Y-16492674D01*
X3654510Y-16492674D02*
X3664034Y-16511722D01*
X3664034Y-16511722D02*
X3664034Y-16616484D01*
X3664034Y-16511722D02*
X3673558Y-16492674D01*
X3673558Y-16492674D02*
X3692605Y-16483150D01*
X3692605Y-16483150D02*
X3721177Y-16483150D01*
X3721177Y-16483150D02*
X3740224Y-16492674D01*
X3740224Y-16492674D02*
X3749748Y-16511722D01*
X3749748Y-16511722D02*
X3749748Y-16616484D01*
X3844986Y-16616484D02*
X3844986Y-16483150D01*
X3844986Y-16502198D02*
X3854510Y-16492674D01*
X3854510Y-16492674D02*
X3873558Y-16483150D01*
X3873558Y-16483150D02*
X3902129Y-16483150D01*
X3902129Y-16483150D02*
X3921177Y-16492674D01*
X3921177Y-16492674D02*
X3930701Y-16511722D01*
X3930701Y-16511722D02*
X3930701Y-16616484D01*
X3930701Y-16511722D02*
X3940224Y-16492674D01*
X3940224Y-16492674D02*
X3959272Y-16483150D01*
X3959272Y-16483150D02*
X3987843Y-16483150D01*
X3987843Y-16483150D02*
X4006891Y-16492674D01*
X4006891Y-16492674D02*
X4016415Y-16511722D01*
X4016415Y-16511722D02*
X4016415Y-16616484D01*
X4406891Y-16406960D02*
X4235463Y-16664103D01*
X4664034Y-16416484D02*
X4683082Y-16416484D01*
X4683082Y-16416484D02*
X4702129Y-16426008D01*
X4702129Y-16426008D02*
X4711653Y-16435531D01*
X4711653Y-16435531D02*
X4721177Y-16454579D01*
X4721177Y-16454579D02*
X4730701Y-16492674D01*
X4730701Y-16492674D02*
X4730701Y-16540293D01*
X4730701Y-16540293D02*
X4721177Y-16578388D01*
X4721177Y-16578388D02*
X4711653Y-16597436D01*
X4711653Y-16597436D02*
X4702129Y-16606960D01*
X4702129Y-16606960D02*
X4683082Y-16616484D01*
X4683082Y-16616484D02*
X4664034Y-16616484D01*
X4664034Y-16616484D02*
X4644987Y-16606960D01*
X4644987Y-16606960D02*
X4635463Y-16597436D01*
X4635463Y-16597436D02*
X4625939Y-16578388D01*
X4625939Y-16578388D02*
X4616415Y-16540293D01*
X4616415Y-16540293D02*
X4616415Y-16492674D01*
X4616415Y-16492674D02*
X4625939Y-16454579D01*
X4625939Y-16454579D02*
X4635463Y-16435531D01*
X4635463Y-16435531D02*
X4644987Y-16426008D01*
X4644987Y-16426008D02*
X4664034Y-16416484D01*
X4816415Y-16597436D02*
X4825939Y-16606960D01*
X4825939Y-16606960D02*
X4816415Y-16616484D01*
X4816415Y-16616484D02*
X4806891Y-16606960D01*
X4806891Y-16606960D02*
X4816415Y-16597436D01*
X4816415Y-16597436D02*
X4816415Y-16616484D01*
X5016415Y-16616484D02*
X4902129Y-16616484D01*
X4959272Y-16616484D02*
X4959272Y-16416484D01*
X4959272Y-16416484D02*
X4940225Y-16445055D01*
X4940225Y-16445055D02*
X4921177Y-16464103D01*
X4921177Y-16464103D02*
X4902129Y-16473627D01*
X5092606Y-16435531D02*
X5102129Y-16426008D01*
X5102129Y-16426008D02*
X5121177Y-16416484D01*
X5121177Y-16416484D02*
X5168796Y-16416484D01*
X5168796Y-16416484D02*
X5187844Y-16426008D01*
X5187844Y-16426008D02*
X5197368Y-16435531D01*
X5197368Y-16435531D02*
X5206891Y-16454579D01*
X5206891Y-16454579D02*
X5206891Y-16473627D01*
X5206891Y-16473627D02*
X5197368Y-16502198D01*
X5197368Y-16502198D02*
X5083082Y-16616484D01*
X5083082Y-16616484D02*
X5206891Y-16616484D01*
X5378320Y-16416484D02*
X5340225Y-16416484D01*
X5340225Y-16416484D02*
X5321177Y-16426008D01*
X5321177Y-16426008D02*
X5311653Y-16435531D01*
X5311653Y-16435531D02*
X5292606Y-16464103D01*
X5292606Y-16464103D02*
X5283082Y-16502198D01*
X5283082Y-16502198D02*
X5283082Y-16578388D01*
X5283082Y-16578388D02*
X5292606Y-16597436D01*
X5292606Y-16597436D02*
X5302129Y-16606960D01*
X5302129Y-16606960D02*
X5321177Y-16616484D01*
X5321177Y-16616484D02*
X5359272Y-16616484D01*
X5359272Y-16616484D02*
X5378320Y-16606960D01*
X5378320Y-16606960D02*
X5387844Y-16597436D01*
X5387844Y-16597436D02*
X5397368Y-16578388D01*
X5397368Y-16578388D02*
X5397368Y-16530769D01*
X5397368Y-16530769D02*
X5387844Y-16511722D01*
X5387844Y-16511722D02*
X5378320Y-16502198D01*
X5378320Y-16502198D02*
X5359272Y-16492674D01*
X5359272Y-16492674D02*
X5321177Y-16492674D01*
X5321177Y-16492674D02*
X5302129Y-16502198D01*
X5302129Y-16502198D02*
X5292606Y-16511722D01*
X5292606Y-16511722D02*
X5283082Y-16530769D01*
X5521177Y-16416484D02*
X5540225Y-16416484D01*
X5540225Y-16416484D02*
X5559272Y-16426008D01*
X5559272Y-16426008D02*
X5568796Y-16435531D01*
X5568796Y-16435531D02*
X5578320Y-16454579D01*
X5578320Y-16454579D02*
X5587844Y-16492674D01*
X5587844Y-16492674D02*
X5587844Y-16540293D01*
X5587844Y-16540293D02*
X5578320Y-16578388D01*
X5578320Y-16578388D02*
X5568796Y-16597436D01*
X5568796Y-16597436D02*
X5559272Y-16606960D01*
X5559272Y-16606960D02*
X5540225Y-16616484D01*
X5540225Y-16616484D02*
X5521177Y-16616484D01*
X5521177Y-16616484D02*
X5502129Y-16606960D01*
X5502129Y-16606960D02*
X5492606Y-16597436D01*
X5492606Y-16597436D02*
X5483082Y-16578388D01*
X5483082Y-16578388D02*
X5473558Y-16540293D01*
X5473558Y-16540293D02*
X5473558Y-16492674D01*
X5473558Y-16492674D02*
X5483082Y-16454579D01*
X5483082Y-16454579D02*
X5492606Y-16435531D01*
X5492606Y-16435531D02*
X5502129Y-16426008D01*
X5502129Y-16426008D02*
X5521177Y-16416484D01*
X5664034Y-16416484D02*
X5664034Y-16454579D01*
X5740225Y-16416484D02*
X5740225Y-16454579D01*
X6035463Y-16692674D02*
X6025939Y-16683150D01*
X6025939Y-16683150D02*
X6006891Y-16654579D01*
X6006891Y-16654579D02*
X5997368Y-16635531D01*
X5997368Y-16635531D02*
X5987844Y-16606960D01*
X5987844Y-16606960D02*
X5978320Y-16559341D01*
X5978320Y-16559341D02*
X5978320Y-16521246D01*
X5978320Y-16521246D02*
X5987844Y-16473627D01*
X5987844Y-16473627D02*
X5997368Y-16445055D01*
X5997368Y-16445055D02*
X6006891Y-16426008D01*
X6006891Y-16426008D02*
X6025939Y-16397436D01*
X6025939Y-16397436D02*
X6035463Y-16387912D01*
X6197368Y-16483150D02*
X6197368Y-16616484D01*
X6149748Y-16406960D02*
X6102129Y-16549817D01*
X6102129Y-16549817D02*
X6225939Y-16549817D01*
X6454510Y-16616484D02*
X6454510Y-16416484D01*
X6540225Y-16616484D02*
X6540225Y-16511722D01*
X6540225Y-16511722D02*
X6530701Y-16492674D01*
X6530701Y-16492674D02*
X6511653Y-16483150D01*
X6511653Y-16483150D02*
X6483082Y-16483150D01*
X6483082Y-16483150D02*
X6464034Y-16492674D01*
X6464034Y-16492674D02*
X6454510Y-16502198D01*
X6664034Y-16616484D02*
X6644987Y-16606960D01*
X6644987Y-16606960D02*
X6635463Y-16597436D01*
X6635463Y-16597436D02*
X6625939Y-16578388D01*
X6625939Y-16578388D02*
X6625939Y-16521246D01*
X6625939Y-16521246D02*
X6635463Y-16502198D01*
X6635463Y-16502198D02*
X6644987Y-16492674D01*
X6644987Y-16492674D02*
X6664034Y-16483150D01*
X6664034Y-16483150D02*
X6692606Y-16483150D01*
X6692606Y-16483150D02*
X6711653Y-16492674D01*
X6711653Y-16492674D02*
X6721177Y-16502198D01*
X6721177Y-16502198D02*
X6730701Y-16521246D01*
X6730701Y-16521246D02*
X6730701Y-16578388D01*
X6730701Y-16578388D02*
X6721177Y-16597436D01*
X6721177Y-16597436D02*
X6711653Y-16606960D01*
X6711653Y-16606960D02*
X6692606Y-16616484D01*
X6692606Y-16616484D02*
X6664034Y-16616484D01*
X6844987Y-16616484D02*
X6825939Y-16606960D01*
X6825939Y-16606960D02*
X6816415Y-16587912D01*
X6816415Y-16587912D02*
X6816415Y-16416484D01*
X6997368Y-16606960D02*
X6978320Y-16616484D01*
X6978320Y-16616484D02*
X6940225Y-16616484D01*
X6940225Y-16616484D02*
X6921177Y-16606960D01*
X6921177Y-16606960D02*
X6911653Y-16587912D01*
X6911653Y-16587912D02*
X6911653Y-16511722D01*
X6911653Y-16511722D02*
X6921177Y-16492674D01*
X6921177Y-16492674D02*
X6940225Y-16483150D01*
X6940225Y-16483150D02*
X6978320Y-16483150D01*
X6978320Y-16483150D02*
X6997368Y-16492674D01*
X6997368Y-16492674D02*
X7006891Y-16511722D01*
X7006891Y-16511722D02*
X7006891Y-16530769D01*
X7006891Y-16530769D02*
X6911653Y-16549817D01*
X7083082Y-16606960D02*
X7102130Y-16616484D01*
X7102130Y-16616484D02*
X7140225Y-16616484D01*
X7140225Y-16616484D02*
X7159272Y-16606960D01*
X7159272Y-16606960D02*
X7168796Y-16587912D01*
X7168796Y-16587912D02*
X7168796Y-16578388D01*
X7168796Y-16578388D02*
X7159272Y-16559341D01*
X7159272Y-16559341D02*
X7140225Y-16549817D01*
X7140225Y-16549817D02*
X7111653Y-16549817D01*
X7111653Y-16549817D02*
X7092606Y-16540293D01*
X7092606Y-16540293D02*
X7083082Y-16521246D01*
X7083082Y-16521246D02*
X7083082Y-16511722D01*
X7083082Y-16511722D02*
X7092606Y-16492674D01*
X7092606Y-16492674D02*
X7111653Y-16483150D01*
X7111653Y-16483150D02*
X7140225Y-16483150D01*
X7140225Y-16483150D02*
X7159272Y-16492674D01*
X7235463Y-16692674D02*
X7244987Y-16683150D01*
X7244987Y-16683150D02*
X7264034Y-16654579D01*
X7264034Y-16654579D02*
X7273558Y-16635531D01*
X7273558Y-16635531D02*
X7283082Y-16606960D01*
X7283082Y-16606960D02*
X7292606Y-16559341D01*
X7292606Y-16559341D02*
X7292606Y-16521246D01*
X7292606Y-16521246D02*
X7283082Y-16473627D01*
X7283082Y-16473627D02*
X7273558Y-16445055D01*
X7273558Y-16445055D02*
X7264034Y-16426008D01*
X7264034Y-16426008D02*
X7244987Y-16397436D01*
X7244987Y-16397436D02*
X7235463Y-16387912D01*
X7597368Y-16692674D02*
X7587844Y-16683150D01*
X7587844Y-16683150D02*
X7568796Y-16654579D01*
X7568796Y-16654579D02*
X7559272Y-16635531D01*
X7559272Y-16635531D02*
X7549749Y-16606960D01*
X7549749Y-16606960D02*
X7540225Y-16559341D01*
X7540225Y-16559341D02*
X7540225Y-16521246D01*
X7540225Y-16521246D02*
X7549749Y-16473627D01*
X7549749Y-16473627D02*
X7559272Y-16445055D01*
X7559272Y-16445055D02*
X7568796Y-16426008D01*
X7568796Y-16426008D02*
X7587844Y-16397436D01*
X7587844Y-16397436D02*
X7597368Y-16387912D01*
X7673558Y-16483150D02*
X7673558Y-16616484D01*
X7673558Y-16502198D02*
X7683082Y-16492674D01*
X7683082Y-16492674D02*
X7702130Y-16483150D01*
X7702130Y-16483150D02*
X7730701Y-16483150D01*
X7730701Y-16483150D02*
X7749749Y-16492674D01*
X7749749Y-16492674D02*
X7759272Y-16511722D01*
X7759272Y-16511722D02*
X7759272Y-16616484D01*
X7883082Y-16616484D02*
X7864034Y-16606960D01*
X7864034Y-16606960D02*
X7854511Y-16597436D01*
X7854511Y-16597436D02*
X7844987Y-16578388D01*
X7844987Y-16578388D02*
X7844987Y-16521246D01*
X7844987Y-16521246D02*
X7854511Y-16502198D01*
X7854511Y-16502198D02*
X7864034Y-16492674D01*
X7864034Y-16492674D02*
X7883082Y-16483150D01*
X7883082Y-16483150D02*
X7911653Y-16483150D01*
X7911653Y-16483150D02*
X7930701Y-16492674D01*
X7930701Y-16492674D02*
X7940225Y-16502198D01*
X7940225Y-16502198D02*
X7949749Y-16521246D01*
X7949749Y-16521246D02*
X7949749Y-16578388D01*
X7949749Y-16578388D02*
X7940225Y-16597436D01*
X7940225Y-16597436D02*
X7930701Y-16606960D01*
X7930701Y-16606960D02*
X7911653Y-16616484D01*
X7911653Y-16616484D02*
X7883082Y-16616484D01*
X8006892Y-16483150D02*
X8083082Y-16483150D01*
X8035463Y-16416484D02*
X8035463Y-16587912D01*
X8035463Y-16587912D02*
X8044987Y-16606960D01*
X8044987Y-16606960D02*
X8064034Y-16616484D01*
X8064034Y-16616484D02*
X8083082Y-16616484D01*
X8302130Y-16483150D02*
X8302130Y-16683150D01*
X8302130Y-16492674D02*
X8321177Y-16483150D01*
X8321177Y-16483150D02*
X8359273Y-16483150D01*
X8359273Y-16483150D02*
X8378320Y-16492674D01*
X8378320Y-16492674D02*
X8387844Y-16502198D01*
X8387844Y-16502198D02*
X8397368Y-16521246D01*
X8397368Y-16521246D02*
X8397368Y-16578388D01*
X8397368Y-16578388D02*
X8387844Y-16597436D01*
X8387844Y-16597436D02*
X8378320Y-16606960D01*
X8378320Y-16606960D02*
X8359273Y-16616484D01*
X8359273Y-16616484D02*
X8321177Y-16616484D01*
X8321177Y-16616484D02*
X8302130Y-16606960D01*
X8511654Y-16616484D02*
X8492606Y-16606960D01*
X8492606Y-16606960D02*
X8483082Y-16587912D01*
X8483082Y-16587912D02*
X8483082Y-16416484D01*
X8673558Y-16616484D02*
X8673558Y-16511722D01*
X8673558Y-16511722D02*
X8664035Y-16492674D01*
X8664035Y-16492674D02*
X8644987Y-16483150D01*
X8644987Y-16483150D02*
X8606892Y-16483150D01*
X8606892Y-16483150D02*
X8587844Y-16492674D01*
X8673558Y-16606960D02*
X8654511Y-16616484D01*
X8654511Y-16616484D02*
X8606892Y-16616484D01*
X8606892Y-16616484D02*
X8587844Y-16606960D01*
X8587844Y-16606960D02*
X8578320Y-16587912D01*
X8578320Y-16587912D02*
X8578320Y-16568865D01*
X8578320Y-16568865D02*
X8587844Y-16549817D01*
X8587844Y-16549817D02*
X8606892Y-16540293D01*
X8606892Y-16540293D02*
X8654511Y-16540293D01*
X8654511Y-16540293D02*
X8673558Y-16530769D01*
X8740225Y-16483150D02*
X8816415Y-16483150D01*
X8768796Y-16416484D02*
X8768796Y-16587912D01*
X8768796Y-16587912D02*
X8778320Y-16606960D01*
X8778320Y-16606960D02*
X8797368Y-16616484D01*
X8797368Y-16616484D02*
X8816415Y-16616484D01*
X8959273Y-16606960D02*
X8940225Y-16616484D01*
X8940225Y-16616484D02*
X8902130Y-16616484D01*
X8902130Y-16616484D02*
X8883082Y-16606960D01*
X8883082Y-16606960D02*
X8873558Y-16587912D01*
X8873558Y-16587912D02*
X8873558Y-16511722D01*
X8873558Y-16511722D02*
X8883082Y-16492674D01*
X8883082Y-16492674D02*
X8902130Y-16483150D01*
X8902130Y-16483150D02*
X8940225Y-16483150D01*
X8940225Y-16483150D02*
X8959273Y-16492674D01*
X8959273Y-16492674D02*
X8968796Y-16511722D01*
X8968796Y-16511722D02*
X8968796Y-16530769D01*
X8968796Y-16530769D02*
X8873558Y-16549817D01*
X9140225Y-16616484D02*
X9140225Y-16416484D01*
X9140225Y-16606960D02*
X9121177Y-16616484D01*
X9121177Y-16616484D02*
X9083082Y-16616484D01*
X9083082Y-16616484D02*
X9064035Y-16606960D01*
X9064035Y-16606960D02*
X9054511Y-16597436D01*
X9054511Y-16597436D02*
X9044987Y-16578388D01*
X9044987Y-16578388D02*
X9044987Y-16521246D01*
X9044987Y-16521246D02*
X9054511Y-16502198D01*
X9054511Y-16502198D02*
X9064035Y-16492674D01*
X9064035Y-16492674D02*
X9083082Y-16483150D01*
X9083082Y-16483150D02*
X9121177Y-16483150D01*
X9121177Y-16483150D02*
X9140225Y-16492674D01*
X9216416Y-16692674D02*
X9225939Y-16683150D01*
X9225939Y-16683150D02*
X9244987Y-16654579D01*
X9244987Y-16654579D02*
X9254511Y-16635531D01*
X9254511Y-16635531D02*
X9264035Y-16606960D01*
X9264035Y-16606960D02*
X9273558Y-16559341D01*
X9273558Y-16559341D02*
X9273558Y-16521246D01*
X9273558Y-16521246D02*
X9264035Y-16473627D01*
X9264035Y-16473627D02*
X9254511Y-16445055D01*
X9254511Y-16445055D02*
X9244987Y-16426008D01*
X9244987Y-16426008D02*
X9225939Y-16397436D01*
X9225939Y-16397436D02*
X9216416Y-16387912D01*
M02*
