M48
; DRILL file {KiCad 7.0.9} date 
; FORMAT={-:-/ absolute / inch / decimal}
; #@! TF.CreationDate,2024-03-30T19:36:34+01:00
; #@! TF.GenerationSoftware,Kicad,Pcbnew,7.0.9
; #@! TF.FileFunction,Plated,1,4,PTH
FMAT,2
INCH
; #@! TA.AperFunction,Plated,PTH,ViaDrill
T1C0.0157
; #@! TA.AperFunction,Plated,PTH,ComponentDrill
T2C0.0591
%
G90
G05
T1
X1.32Y-5.5208
X1.47Y-5.5208
X1.53Y-1.42
X1.58Y-1.9
X1.58Y-1.95
X1.58Y-2.0
X1.58Y-2.05
X1.58Y-2.15
X1.58Y-2.2
X1.58Y-2.25
X1.58Y-2.3
X1.58Y-2.35
X1.58Y-2.4
X1.58Y-2.45
X1.62Y-1.9
X1.62Y-1.95
X1.62Y-2.001
X1.62Y-2.051
X1.62Y-2.151
X1.62Y-2.2
X1.62Y-2.251
X1.62Y-2.3
X1.62Y-2.35
X1.62Y-2.4
X1.62Y-2.451
X1.62Y-5.5208
X1.65Y-2.85
X1.65Y-3.0
X1.65Y-3.15
X1.66Y-1.53
X1.7599Y-3.4299
X2.7137Y-5.5208
X2.8637Y-5.5208
X2.92Y-1.42
X2.98Y-1.9
X2.98Y-1.95
X2.98Y-2.0
X2.98Y-2.05
X2.98Y-2.15
X2.98Y-2.2
X2.98Y-2.25
X2.98Y-2.3
X2.98Y-2.35
X2.98Y-2.4
X2.98Y-2.45
X3.0137Y-5.5208
X3.02Y-1.9
X3.02Y-1.95
X3.02Y-2.0
X3.02Y-2.05
X3.02Y-2.15
X3.02Y-2.2
X3.02Y-2.25
X3.02Y-2.3
X3.02Y-2.35
X3.02Y-2.4
X3.02Y-2.45
X3.05Y-1.53
X3.05Y-2.85
X3.05Y-3.0
X3.05Y-3.15
X3.15Y-3.43
X4.1074Y-5.5208
X4.2574Y-5.5208
X4.32Y-1.42
X4.37Y-1.9
X4.37Y-1.95
X4.37Y-2.0
X4.37Y-2.05
X4.37Y-2.15
X4.37Y-2.2
X4.37Y-2.25
X4.37Y-2.3
X4.37Y-2.35
X4.37Y-2.4
X4.37Y-2.45
X4.4074Y-5.5208
X4.41Y-1.9
X4.41Y-1.95
X4.41Y-2.0
X4.41Y-2.05
X4.41Y-2.15
X4.41Y-2.2
X4.41Y-2.25
X4.41Y-2.3
X4.41Y-2.35
X4.41Y-2.4
X4.41Y-2.45
X4.44Y-2.85
X4.44Y-3.0
X4.44Y-3.15
X4.45Y-1.53
X4.55Y-3.43
X5.5011Y-5.5208
X5.6511Y-5.5208
X5.71Y-1.42
X5.77Y-1.9
X5.77Y-1.95
X5.77Y-2.0
X5.77Y-2.05
X5.77Y-2.15
X5.77Y-2.2
X5.77Y-2.25
X5.77Y-2.3
X5.77Y-2.35
X5.77Y-2.4
X5.77Y-2.45
X5.8011Y-5.5208
X5.81Y-1.9
X5.81Y-1.95
X5.81Y-2.0
X5.81Y-2.05
X5.81Y-2.15
X5.81Y-2.2
X5.81Y-2.25
X5.81Y-2.3
X5.81Y-2.35
X5.81Y-2.4
X5.81Y-2.45
X5.83Y-2.85
X5.83Y-3.0
X5.83Y-3.15
X5.84Y-1.53
X5.94Y-3.43
T2
X1.2192Y-5.6708
X1.7208Y-5.6708
X2.53Y-1.0454
X2.6129Y-5.6708
X2.73Y-1.0454
X2.93Y-1.0454
X3.1145Y-5.6708
X3.13Y-1.0454
X4.0066Y-5.6708
X4.5082Y-5.6708
X5.4003Y-5.6716
X5.9019Y-5.6716
T0
M30
