%TF.GenerationSoftware,KiCad,Pcbnew,7.0.9*%
%TF.CreationDate,2024-03-25T15:38:11+01:00*%
%TF.ProjectId,8x-sata-backplane,38782d73-6174-4612-9d62-61636b706c61,rev?*%
%TF.SameCoordinates,Original*%
%TF.FileFunction,Legend,Top*%
%TF.FilePolarity,Positive*%
%FSLAX46Y46*%
G04 Gerber Fmt 4.6, Leading zero omitted, Abs format (unit mm)*
G04 Created by KiCad (PCBNEW 7.0.9) date 2024-03-25 15:38:11*
%MOMM*%
%LPD*%
G01*
G04 APERTURE LIST*
%ADD10C,0.300000*%
%ADD11C,0.150000*%
%ADD12C,0.500000*%
%ADD13C,0.100000*%
G04 APERTURE END LIST*
D10*
X89843368Y-32074828D02*
X89843368Y-33074828D01*
X89486225Y-31503400D02*
X89129082Y-32574828D01*
X89129082Y-32574828D02*
X90057653Y-32574828D01*
X90486224Y-33074828D02*
X91271939Y-32074828D01*
X90486224Y-32074828D02*
X91271939Y-33074828D01*
X92914796Y-33003400D02*
X93129082Y-33074828D01*
X93129082Y-33074828D02*
X93486224Y-33074828D01*
X93486224Y-33074828D02*
X93629082Y-33003400D01*
X93629082Y-33003400D02*
X93700510Y-32931971D01*
X93700510Y-32931971D02*
X93771939Y-32789114D01*
X93771939Y-32789114D02*
X93771939Y-32646257D01*
X93771939Y-32646257D02*
X93700510Y-32503400D01*
X93700510Y-32503400D02*
X93629082Y-32431971D01*
X93629082Y-32431971D02*
X93486224Y-32360542D01*
X93486224Y-32360542D02*
X93200510Y-32289114D01*
X93200510Y-32289114D02*
X93057653Y-32217685D01*
X93057653Y-32217685D02*
X92986224Y-32146257D01*
X92986224Y-32146257D02*
X92914796Y-32003400D01*
X92914796Y-32003400D02*
X92914796Y-31860542D01*
X92914796Y-31860542D02*
X92986224Y-31717685D01*
X92986224Y-31717685D02*
X93057653Y-31646257D01*
X93057653Y-31646257D02*
X93200510Y-31574828D01*
X93200510Y-31574828D02*
X93557653Y-31574828D01*
X93557653Y-31574828D02*
X93771939Y-31646257D01*
X94343367Y-32646257D02*
X95057653Y-32646257D01*
X94200510Y-33074828D02*
X94700510Y-31574828D01*
X94700510Y-31574828D02*
X95200510Y-33074828D01*
X95486224Y-31574828D02*
X96343367Y-31574828D01*
X95914795Y-33074828D02*
X95914795Y-31574828D01*
X96771938Y-32646257D02*
X97486224Y-32646257D01*
X96629081Y-33074828D02*
X97129081Y-31574828D01*
X97129081Y-31574828D02*
X97629081Y-33074828D01*
X99771937Y-32289114D02*
X99986223Y-32360542D01*
X99986223Y-32360542D02*
X100057652Y-32431971D01*
X100057652Y-32431971D02*
X100129080Y-32574828D01*
X100129080Y-32574828D02*
X100129080Y-32789114D01*
X100129080Y-32789114D02*
X100057652Y-32931971D01*
X100057652Y-32931971D02*
X99986223Y-33003400D01*
X99986223Y-33003400D02*
X99843366Y-33074828D01*
X99843366Y-33074828D02*
X99271937Y-33074828D01*
X99271937Y-33074828D02*
X99271937Y-31574828D01*
X99271937Y-31574828D02*
X99771937Y-31574828D01*
X99771937Y-31574828D02*
X99914795Y-31646257D01*
X99914795Y-31646257D02*
X99986223Y-31717685D01*
X99986223Y-31717685D02*
X100057652Y-31860542D01*
X100057652Y-31860542D02*
X100057652Y-32003400D01*
X100057652Y-32003400D02*
X99986223Y-32146257D01*
X99986223Y-32146257D02*
X99914795Y-32217685D01*
X99914795Y-32217685D02*
X99771937Y-32289114D01*
X99771937Y-32289114D02*
X99271937Y-32289114D01*
X101414795Y-33074828D02*
X101414795Y-32289114D01*
X101414795Y-32289114D02*
X101343366Y-32146257D01*
X101343366Y-32146257D02*
X101200509Y-32074828D01*
X101200509Y-32074828D02*
X100914795Y-32074828D01*
X100914795Y-32074828D02*
X100771937Y-32146257D01*
X101414795Y-33003400D02*
X101271937Y-33074828D01*
X101271937Y-33074828D02*
X100914795Y-33074828D01*
X100914795Y-33074828D02*
X100771937Y-33003400D01*
X100771937Y-33003400D02*
X100700509Y-32860542D01*
X100700509Y-32860542D02*
X100700509Y-32717685D01*
X100700509Y-32717685D02*
X100771937Y-32574828D01*
X100771937Y-32574828D02*
X100914795Y-32503400D01*
X100914795Y-32503400D02*
X101271937Y-32503400D01*
X101271937Y-32503400D02*
X101414795Y-32431971D01*
X102771938Y-33003400D02*
X102629080Y-33074828D01*
X102629080Y-33074828D02*
X102343366Y-33074828D01*
X102343366Y-33074828D02*
X102200509Y-33003400D01*
X102200509Y-33003400D02*
X102129080Y-32931971D01*
X102129080Y-32931971D02*
X102057652Y-32789114D01*
X102057652Y-32789114D02*
X102057652Y-32360542D01*
X102057652Y-32360542D02*
X102129080Y-32217685D01*
X102129080Y-32217685D02*
X102200509Y-32146257D01*
X102200509Y-32146257D02*
X102343366Y-32074828D01*
X102343366Y-32074828D02*
X102629080Y-32074828D01*
X102629080Y-32074828D02*
X102771938Y-32146257D01*
X103414794Y-33074828D02*
X103414794Y-31574828D01*
X103557652Y-32503400D02*
X103986223Y-33074828D01*
X103986223Y-32074828D02*
X103414794Y-32646257D01*
X104629080Y-32074828D02*
X104629080Y-33574828D01*
X104629080Y-32146257D02*
X104771938Y-32074828D01*
X104771938Y-32074828D02*
X105057652Y-32074828D01*
X105057652Y-32074828D02*
X105200509Y-32146257D01*
X105200509Y-32146257D02*
X105271938Y-32217685D01*
X105271938Y-32217685D02*
X105343366Y-32360542D01*
X105343366Y-32360542D02*
X105343366Y-32789114D01*
X105343366Y-32789114D02*
X105271938Y-32931971D01*
X105271938Y-32931971D02*
X105200509Y-33003400D01*
X105200509Y-33003400D02*
X105057652Y-33074828D01*
X105057652Y-33074828D02*
X104771938Y-33074828D01*
X104771938Y-33074828D02*
X104629080Y-33003400D01*
X106200509Y-33074828D02*
X106057652Y-33003400D01*
X106057652Y-33003400D02*
X105986223Y-32860542D01*
X105986223Y-32860542D02*
X105986223Y-31574828D01*
X107414795Y-33074828D02*
X107414795Y-32289114D01*
X107414795Y-32289114D02*
X107343366Y-32146257D01*
X107343366Y-32146257D02*
X107200509Y-32074828D01*
X107200509Y-32074828D02*
X106914795Y-32074828D01*
X106914795Y-32074828D02*
X106771937Y-32146257D01*
X107414795Y-33003400D02*
X107271937Y-33074828D01*
X107271937Y-33074828D02*
X106914795Y-33074828D01*
X106914795Y-33074828D02*
X106771937Y-33003400D01*
X106771937Y-33003400D02*
X106700509Y-32860542D01*
X106700509Y-32860542D02*
X106700509Y-32717685D01*
X106700509Y-32717685D02*
X106771937Y-32574828D01*
X106771937Y-32574828D02*
X106914795Y-32503400D01*
X106914795Y-32503400D02*
X107271937Y-32503400D01*
X107271937Y-32503400D02*
X107414795Y-32431971D01*
X108129080Y-32074828D02*
X108129080Y-33074828D01*
X108129080Y-32217685D02*
X108200509Y-32146257D01*
X108200509Y-32146257D02*
X108343366Y-32074828D01*
X108343366Y-32074828D02*
X108557652Y-32074828D01*
X108557652Y-32074828D02*
X108700509Y-32146257D01*
X108700509Y-32146257D02*
X108771938Y-32289114D01*
X108771938Y-32289114D02*
X108771938Y-33074828D01*
X110057652Y-33003400D02*
X109914795Y-33074828D01*
X109914795Y-33074828D02*
X109629081Y-33074828D01*
X109629081Y-33074828D02*
X109486223Y-33003400D01*
X109486223Y-33003400D02*
X109414795Y-32860542D01*
X109414795Y-32860542D02*
X109414795Y-32289114D01*
X109414795Y-32289114D02*
X109486223Y-32146257D01*
X109486223Y-32146257D02*
X109629081Y-32074828D01*
X109629081Y-32074828D02*
X109914795Y-32074828D01*
X109914795Y-32074828D02*
X110057652Y-32146257D01*
X110057652Y-32146257D02*
X110129081Y-32289114D01*
X110129081Y-32289114D02*
X110129081Y-32431971D01*
X110129081Y-32431971D02*
X109414795Y-32574828D01*
X111914794Y-32503400D02*
X113057652Y-32503400D01*
X114771937Y-32074828D02*
X115129080Y-33074828D01*
X115129080Y-33074828D02*
X115486223Y-32074828D01*
X116843366Y-33074828D02*
X115986223Y-33074828D01*
X116414794Y-33074828D02*
X116414794Y-31574828D01*
X116414794Y-31574828D02*
X116271937Y-31789114D01*
X116271937Y-31789114D02*
X116129080Y-31931971D01*
X116129080Y-31931971D02*
X115986223Y-32003400D01*
X117486222Y-32931971D02*
X117557651Y-33003400D01*
X117557651Y-33003400D02*
X117486222Y-33074828D01*
X117486222Y-33074828D02*
X117414794Y-33003400D01*
X117414794Y-33003400D02*
X117486222Y-32931971D01*
X117486222Y-32931971D02*
X117486222Y-33074828D01*
X118486223Y-31574828D02*
X118629080Y-31574828D01*
X118629080Y-31574828D02*
X118771937Y-31646257D01*
X118771937Y-31646257D02*
X118843366Y-31717685D01*
X118843366Y-31717685D02*
X118914794Y-31860542D01*
X118914794Y-31860542D02*
X118986223Y-32146257D01*
X118986223Y-32146257D02*
X118986223Y-32503400D01*
X118986223Y-32503400D02*
X118914794Y-32789114D01*
X118914794Y-32789114D02*
X118843366Y-32931971D01*
X118843366Y-32931971D02*
X118771937Y-33003400D01*
X118771937Y-33003400D02*
X118629080Y-33074828D01*
X118629080Y-33074828D02*
X118486223Y-33074828D01*
X118486223Y-33074828D02*
X118343366Y-33003400D01*
X118343366Y-33003400D02*
X118271937Y-32931971D01*
X118271937Y-32931971D02*
X118200508Y-32789114D01*
X118200508Y-32789114D02*
X118129080Y-32503400D01*
X118129080Y-32503400D02*
X118129080Y-32146257D01*
X118129080Y-32146257D02*
X118200508Y-31860542D01*
X118200508Y-31860542D02*
X118271937Y-31717685D01*
X118271937Y-31717685D02*
X118343366Y-31646257D01*
X118343366Y-31646257D02*
X118486223Y-31574828D01*
G36*
X89359922Y-27521684D02*
G01*
X89369807Y-27509250D01*
X89395385Y-27480826D01*
X89421185Y-27454552D01*
X89450176Y-27426970D01*
X89454578Y-27422923D01*
X89482237Y-27398540D01*
X89512000Y-27374758D01*
X89543866Y-27351576D01*
X89577837Y-27328996D01*
X89607752Y-27310639D01*
X89626403Y-27299825D01*
X89658923Y-27282202D01*
X89692904Y-27265664D01*
X89728346Y-27250212D01*
X89765249Y-27235844D01*
X89803613Y-27222563D01*
X89843438Y-27210366D01*
X89859777Y-27205791D01*
X89893303Y-27197176D01*
X89928058Y-27189709D01*
X89964042Y-27183391D01*
X90001255Y-27178222D01*
X90039696Y-27174202D01*
X90079366Y-27171330D01*
X90120266Y-27169607D01*
X90162394Y-27169033D01*
X90210279Y-27169897D01*
X90257442Y-27172489D01*
X90303885Y-27176809D01*
X90349606Y-27182857D01*
X90394606Y-27190633D01*
X90438884Y-27200138D01*
X90482442Y-27211370D01*
X90525278Y-27224331D01*
X90567392Y-27239019D01*
X90608786Y-27255436D01*
X90635981Y-27267340D01*
X90676137Y-27286251D01*
X90715181Y-27306440D01*
X90753113Y-27327905D01*
X90789934Y-27350648D01*
X90825642Y-27374668D01*
X90860239Y-27399966D01*
X90893723Y-27426540D01*
X90926095Y-27454392D01*
X90957356Y-27483521D01*
X90987504Y-27513928D01*
X91006986Y-27534908D01*
X91035236Y-27567178D01*
X91062284Y-27600515D01*
X91088130Y-27634918D01*
X91112773Y-27670389D01*
X91136215Y-27706926D01*
X91158454Y-27744530D01*
X91179492Y-27783201D01*
X91199327Y-27822939D01*
X91217960Y-27863744D01*
X91235391Y-27905616D01*
X91246344Y-27934123D01*
X91261621Y-27977388D01*
X91275395Y-28021268D01*
X91287667Y-28065764D01*
X91298436Y-28110877D01*
X91307702Y-28156606D01*
X91315466Y-28202950D01*
X91321727Y-28249911D01*
X91326486Y-28297488D01*
X91329741Y-28345681D01*
X91331495Y-28394490D01*
X91331829Y-28427372D01*
X91331122Y-28476446D01*
X91329004Y-28524935D01*
X91325472Y-28572837D01*
X91320528Y-28620154D01*
X91314172Y-28666884D01*
X91306403Y-28713029D01*
X91297222Y-28758587D01*
X91286628Y-28803559D01*
X91274622Y-28847945D01*
X91261203Y-28891746D01*
X91251473Y-28920620D01*
X91235737Y-28963211D01*
X91218664Y-29004749D01*
X91200254Y-29045236D01*
X91180507Y-29084671D01*
X91159422Y-29123054D01*
X91137000Y-29160386D01*
X91113240Y-29196665D01*
X91088143Y-29231892D01*
X91061708Y-29266068D01*
X91033937Y-29299192D01*
X91014679Y-29320690D01*
X90984769Y-29351948D01*
X90953701Y-29381929D01*
X90921476Y-29410632D01*
X90888095Y-29438058D01*
X90853556Y-29464207D01*
X90817860Y-29489079D01*
X90781007Y-29512673D01*
X90742997Y-29534990D01*
X90703830Y-29556030D01*
X90663506Y-29575793D01*
X90635981Y-29588258D01*
X90593979Y-29605674D01*
X90551000Y-29621377D01*
X90507044Y-29635367D01*
X90462112Y-29647643D01*
X90416203Y-29658207D01*
X90369318Y-29667058D01*
X90321455Y-29674195D01*
X90272616Y-29679620D01*
X90222800Y-29683332D01*
X90172008Y-29685330D01*
X90137603Y-29685711D01*
X90089658Y-29684794D01*
X90042314Y-29682044D01*
X89995571Y-29677461D01*
X89949429Y-29671045D01*
X89903888Y-29662795D01*
X89858949Y-29652712D01*
X89814610Y-29640796D01*
X89770872Y-29627047D01*
X89727736Y-29611464D01*
X89685200Y-29594048D01*
X89657177Y-29581419D01*
X89616260Y-29560790D01*
X89577176Y-29538012D01*
X89539924Y-29513085D01*
X89504507Y-29486010D01*
X89470922Y-29456786D01*
X89439171Y-29425412D01*
X89409253Y-29391890D01*
X89381168Y-29356220D01*
X89354916Y-29318400D01*
X89330498Y-29278432D01*
X89326761Y-29271614D01*
X89342593Y-29631001D01*
X88727101Y-29631001D01*
X88727101Y-28427372D01*
X89352851Y-28427372D01*
X89353936Y-28467213D01*
X89357192Y-28506596D01*
X89362618Y-28545519D01*
X89370215Y-28583983D01*
X89379982Y-28621988D01*
X89391920Y-28659534D01*
X89397303Y-28674423D01*
X89412484Y-28710642D01*
X89429711Y-28745566D01*
X89448982Y-28779197D01*
X89470299Y-28811533D01*
X89493662Y-28842576D01*
X89519069Y-28872324D01*
X89529805Y-28883862D01*
X89557930Y-28911302D01*
X89587808Y-28936989D01*
X89619439Y-28960923D01*
X89652823Y-28983104D01*
X89687960Y-29003532D01*
X89724851Y-29022207D01*
X89740098Y-29029186D01*
X89779380Y-29044947D01*
X89811978Y-29055633D01*
X89845618Y-29064609D01*
X89880299Y-29071875D01*
X89916023Y-29077432D01*
X89952788Y-29081279D01*
X89990595Y-29083416D01*
X90019634Y-29083897D01*
X90058222Y-29083042D01*
X90095769Y-29080477D01*
X90132274Y-29076203D01*
X90167737Y-29070219D01*
X90202158Y-29062525D01*
X90235537Y-29053122D01*
X90275796Y-29038963D01*
X90299170Y-29029186D01*
X90336761Y-29011213D01*
X90372600Y-28991486D01*
X90406686Y-28970006D01*
X90439018Y-28946773D01*
X90469597Y-28921787D01*
X90498423Y-28895048D01*
X90509463Y-28883862D01*
X90535668Y-28854631D01*
X90559785Y-28824106D01*
X90581816Y-28792287D01*
X90601760Y-28759174D01*
X90619617Y-28724767D01*
X90635386Y-28689066D01*
X90641110Y-28674423D01*
X90654162Y-28637061D01*
X90665002Y-28599240D01*
X90673630Y-28560960D01*
X90680046Y-28522220D01*
X90684249Y-28483021D01*
X90686240Y-28443363D01*
X90686417Y-28427372D01*
X90685311Y-28387551D01*
X90681992Y-28348231D01*
X90676462Y-28309412D01*
X90668719Y-28271094D01*
X90658764Y-28233277D01*
X90646596Y-28195961D01*
X90641110Y-28181175D01*
X90626175Y-28144731D01*
X90609153Y-28109665D01*
X90590044Y-28075976D01*
X90568848Y-28043664D01*
X90545565Y-28012730D01*
X90520195Y-27983174D01*
X90509463Y-27971737D01*
X90481338Y-27944050D01*
X90451460Y-27918158D01*
X90419829Y-27894061D01*
X90386445Y-27871759D01*
X90351307Y-27851252D01*
X90314417Y-27832540D01*
X90299170Y-27825557D01*
X90259888Y-27809796D01*
X90227290Y-27799110D01*
X90193650Y-27790135D01*
X90158969Y-27782868D01*
X90123245Y-27777312D01*
X90086480Y-27773465D01*
X90048673Y-27771328D01*
X90019634Y-27770847D01*
X89981045Y-27771702D01*
X89943499Y-27774266D01*
X89906994Y-27778541D01*
X89871531Y-27784525D01*
X89837110Y-27792218D01*
X89803731Y-27801622D01*
X89763472Y-27815780D01*
X89740098Y-27825557D01*
X89702506Y-27843552D01*
X89666668Y-27863341D01*
X89632582Y-27884925D01*
X89600250Y-27908304D01*
X89569671Y-27933478D01*
X89540844Y-27960447D01*
X89529805Y-27971737D01*
X89503579Y-28000742D01*
X89479399Y-28031125D01*
X89457264Y-28062886D01*
X89437174Y-28096024D01*
X89419129Y-28130539D01*
X89403130Y-28166432D01*
X89397303Y-28181175D01*
X89384497Y-28218291D01*
X89373861Y-28255908D01*
X89365396Y-28294025D01*
X89359102Y-28332644D01*
X89354978Y-28371763D01*
X89353025Y-28411383D01*
X89352851Y-28427372D01*
X88727101Y-28427372D01*
X88727101Y-25879064D01*
X89372512Y-25879064D01*
X89359922Y-27521684D01*
G37*
G36*
X91820803Y-25853419D02*
G01*
X92466214Y-25853419D01*
X92466214Y-29631001D01*
X91820803Y-29631001D01*
X91820803Y-25853419D01*
G37*
G36*
X94328189Y-27169822D02*
G01*
X94378210Y-27172188D01*
X94427705Y-27176133D01*
X94476675Y-27181655D01*
X94525118Y-27188755D01*
X94573036Y-27197433D01*
X94620427Y-27207689D01*
X94667293Y-27219522D01*
X94713633Y-27232933D01*
X94759446Y-27247923D01*
X94789697Y-27258792D01*
X94834326Y-27276283D01*
X94877813Y-27295096D01*
X94920158Y-27315232D01*
X94961361Y-27336690D01*
X95001422Y-27359470D01*
X95040341Y-27383573D01*
X95078118Y-27408998D01*
X95114753Y-27435746D01*
X95150246Y-27463816D01*
X95184597Y-27493208D01*
X95206863Y-27513537D01*
X95239389Y-27545066D01*
X95270607Y-27577781D01*
X95300517Y-27611684D01*
X95329120Y-27646774D01*
X95356416Y-27683050D01*
X95382405Y-27720514D01*
X95407086Y-27759165D01*
X95430460Y-27799004D01*
X95452527Y-27840029D01*
X95473286Y-27882241D01*
X95486399Y-27911042D01*
X95504885Y-27954945D01*
X95521552Y-27999780D01*
X95536401Y-28045546D01*
X95549431Y-28092244D01*
X95560644Y-28139873D01*
X95570038Y-28188435D01*
X95577614Y-28237927D01*
X95583371Y-28288352D01*
X95586200Y-28322486D01*
X95588220Y-28357034D01*
X95589432Y-28391996D01*
X95589836Y-28427372D01*
X95589432Y-28462751D01*
X95588220Y-28497723D01*
X95586200Y-28532288D01*
X95583371Y-28566445D01*
X95577614Y-28616917D01*
X95570038Y-28666473D01*
X95560644Y-28715111D01*
X95549431Y-28762834D01*
X95536401Y-28809639D01*
X95521552Y-28855528D01*
X95504885Y-28900500D01*
X95486399Y-28944556D01*
X95466512Y-28987407D01*
X95445316Y-29029086D01*
X95422814Y-29069593D01*
X95399004Y-29108928D01*
X95373887Y-29147090D01*
X95347463Y-29184081D01*
X95319731Y-29219899D01*
X95290692Y-29254546D01*
X95260346Y-29288020D01*
X95228692Y-29320323D01*
X95206863Y-29341206D01*
X95173274Y-29371480D01*
X95138542Y-29400431D01*
X95102669Y-29428060D01*
X95065653Y-29454367D01*
X95027495Y-29479351D01*
X94988195Y-29503013D01*
X94947754Y-29525353D01*
X94906170Y-29546370D01*
X94863444Y-29566065D01*
X94819576Y-29584438D01*
X94789697Y-29595952D01*
X94744233Y-29611993D01*
X94698244Y-29626456D01*
X94651729Y-29639341D01*
X94604688Y-29650649D01*
X94557122Y-29660378D01*
X94509029Y-29668530D01*
X94460410Y-29675105D01*
X94411265Y-29680101D01*
X94361595Y-29683520D01*
X94311398Y-29685360D01*
X94277642Y-29685711D01*
X94226942Y-29684922D01*
X94176783Y-29682555D01*
X94127165Y-29678611D01*
X94078087Y-29673089D01*
X94029551Y-29665988D01*
X93981556Y-29657311D01*
X93934102Y-29647055D01*
X93887189Y-29635221D01*
X93840817Y-29621810D01*
X93794985Y-29606821D01*
X93764732Y-29595952D01*
X93720095Y-29578461D01*
X93676585Y-29559647D01*
X93634202Y-29539512D01*
X93592947Y-29518053D01*
X93552818Y-29495273D01*
X93513816Y-29471170D01*
X93475942Y-29445745D01*
X93439194Y-29418998D01*
X93403573Y-29390928D01*
X93369080Y-29361536D01*
X93346710Y-29341206D01*
X93314330Y-29309685D01*
X93283227Y-29276992D01*
X93253402Y-29243127D01*
X93224854Y-29208090D01*
X93197583Y-29171881D01*
X93171589Y-29134500D01*
X93146873Y-29095946D01*
X93123434Y-29056221D01*
X93101272Y-29015323D01*
X93080387Y-28973254D01*
X93067174Y-28944556D01*
X93048841Y-28900500D01*
X93032312Y-28855528D01*
X93017586Y-28809639D01*
X93004663Y-28762834D01*
X92993543Y-28715111D01*
X92984227Y-28666473D01*
X92976713Y-28616917D01*
X92971003Y-28566445D01*
X92968198Y-28532288D01*
X92966195Y-28497723D01*
X92964993Y-28462751D01*
X92964592Y-28427372D01*
X93610859Y-28427372D01*
X93611944Y-28467213D01*
X93615200Y-28506596D01*
X93620626Y-28545519D01*
X93628223Y-28583983D01*
X93637990Y-28621988D01*
X93649928Y-28659534D01*
X93655311Y-28674423D01*
X93670492Y-28710642D01*
X93687718Y-28745566D01*
X93706990Y-28779197D01*
X93728307Y-28811533D01*
X93751669Y-28842576D01*
X93777077Y-28872324D01*
X93787812Y-28883862D01*
X93815937Y-28911302D01*
X93845815Y-28936989D01*
X93877447Y-28960923D01*
X93910831Y-28983104D01*
X93945968Y-29003532D01*
X93982859Y-29022207D01*
X93998106Y-29029186D01*
X94037388Y-29044947D01*
X94069986Y-29055633D01*
X94103625Y-29064609D01*
X94138307Y-29071875D01*
X94174030Y-29077432D01*
X94210795Y-29081279D01*
X94248602Y-29083416D01*
X94277642Y-29083897D01*
X94316230Y-29083042D01*
X94353777Y-29080477D01*
X94390281Y-29076203D01*
X94425744Y-29070219D01*
X94460165Y-29062525D01*
X94493545Y-29053122D01*
X94533803Y-29038963D01*
X94557177Y-29029186D01*
X94594769Y-29011213D01*
X94630608Y-28991486D01*
X94664693Y-28970006D01*
X94697026Y-28946773D01*
X94727605Y-28921787D01*
X94756431Y-28895048D01*
X94767471Y-28883862D01*
X94793675Y-28854631D01*
X94817793Y-28824106D01*
X94839824Y-28792287D01*
X94859768Y-28759174D01*
X94877624Y-28724767D01*
X94893394Y-28689066D01*
X94899117Y-28674423D01*
X94912170Y-28637061D01*
X94923010Y-28599240D01*
X94931638Y-28560960D01*
X94938053Y-28522220D01*
X94942256Y-28483021D01*
X94944248Y-28443363D01*
X94944424Y-28427372D01*
X94943318Y-28387551D01*
X94940000Y-28348231D01*
X94934469Y-28309412D01*
X94926726Y-28271094D01*
X94916771Y-28233277D01*
X94904604Y-28195961D01*
X94899117Y-28181175D01*
X94884183Y-28144731D01*
X94867161Y-28109665D01*
X94848052Y-28075976D01*
X94826856Y-28043664D01*
X94803573Y-28012730D01*
X94778203Y-27983174D01*
X94767471Y-27971737D01*
X94739346Y-27944050D01*
X94709468Y-27918158D01*
X94677837Y-27894061D01*
X94644452Y-27871759D01*
X94609315Y-27851252D01*
X94572424Y-27832540D01*
X94557177Y-27825557D01*
X94517895Y-27809796D01*
X94485297Y-27799110D01*
X94451658Y-27790135D01*
X94416976Y-27782868D01*
X94381253Y-27777312D01*
X94344488Y-27773465D01*
X94306681Y-27771328D01*
X94277642Y-27770847D01*
X94239053Y-27771702D01*
X94201506Y-27774266D01*
X94165002Y-27778541D01*
X94129539Y-27784525D01*
X94095118Y-27792218D01*
X94061738Y-27801622D01*
X94021480Y-27815780D01*
X93998106Y-27825557D01*
X93960514Y-27843552D01*
X93924675Y-27863341D01*
X93890590Y-27884925D01*
X93858257Y-27908304D01*
X93827678Y-27933478D01*
X93798852Y-27960447D01*
X93787812Y-27971737D01*
X93761587Y-28000742D01*
X93737406Y-28031125D01*
X93715271Y-28062886D01*
X93695181Y-28096024D01*
X93677137Y-28130539D01*
X93661138Y-28166432D01*
X93655311Y-28181175D01*
X93642505Y-28218291D01*
X93631869Y-28255908D01*
X93623404Y-28294025D01*
X93617110Y-28332644D01*
X93612986Y-28371763D01*
X93611032Y-28411383D01*
X93610859Y-28427372D01*
X92964592Y-28427372D01*
X92964993Y-28391996D01*
X92966195Y-28357034D01*
X92968198Y-28322486D01*
X92971003Y-28288352D01*
X92976713Y-28237927D01*
X92984227Y-28188435D01*
X92993543Y-28139873D01*
X93004663Y-28092244D01*
X93017586Y-28045546D01*
X93032312Y-27999780D01*
X93048841Y-27954945D01*
X93067174Y-27911042D01*
X93087207Y-27868039D01*
X93108517Y-27826222D01*
X93131105Y-27785592D01*
X93154970Y-27746150D01*
X93180112Y-27707894D01*
X93206531Y-27670826D01*
X93234228Y-27634945D01*
X93263202Y-27600251D01*
X93293453Y-27566744D01*
X93324981Y-27534424D01*
X93346710Y-27513537D01*
X93380452Y-27483263D01*
X93415322Y-27454312D01*
X93451318Y-27426683D01*
X93488441Y-27400376D01*
X93526692Y-27375392D01*
X93566069Y-27351730D01*
X93606573Y-27329390D01*
X93648205Y-27308373D01*
X93690963Y-27288678D01*
X93734849Y-27270306D01*
X93764732Y-27258792D01*
X93810202Y-27242751D01*
X93856214Y-27228288D01*
X93902766Y-27215402D01*
X93949860Y-27204095D01*
X93997494Y-27194365D01*
X94045670Y-27186213D01*
X94094386Y-27179639D01*
X94143644Y-27174643D01*
X94193442Y-27171224D01*
X94243781Y-27169383D01*
X94277642Y-27169033D01*
X94328189Y-27169822D01*
G37*
G36*
X97195318Y-27169949D02*
G01*
X97242662Y-27172699D01*
X97289405Y-27177282D01*
X97335547Y-27183699D01*
X97381087Y-27191948D01*
X97426027Y-27202031D01*
X97470366Y-27213947D01*
X97514103Y-27227697D01*
X97557240Y-27243279D01*
X97599775Y-27260695D01*
X97627799Y-27273324D01*
X97668861Y-27293968D01*
X97708061Y-27316791D01*
X97745397Y-27341793D01*
X97780870Y-27368974D01*
X97814480Y-27398334D01*
X97846226Y-27429872D01*
X97876109Y-27463589D01*
X97904129Y-27499486D01*
X97930285Y-27537561D01*
X97954578Y-27577815D01*
X97959112Y-27586202D01*
X97942383Y-27223743D01*
X98558730Y-27223743D01*
X98558730Y-29409594D01*
X98558416Y-29449963D01*
X98557475Y-29489857D01*
X98555905Y-29529277D01*
X98553708Y-29568222D01*
X98550883Y-29606694D01*
X98547430Y-29644691D01*
X98543350Y-29682215D01*
X98538641Y-29719264D01*
X98533305Y-29755839D01*
X98527341Y-29791939D01*
X98520749Y-29827566D01*
X98513530Y-29862718D01*
X98505683Y-29897396D01*
X98497208Y-29931600D01*
X98488105Y-29965330D01*
X98478374Y-29998586D01*
X98468086Y-30031294D01*
X98451339Y-30079191D01*
X98433014Y-30125691D01*
X98413111Y-30170794D01*
X98391630Y-30214499D01*
X98368572Y-30256807D01*
X98343936Y-30297717D01*
X98317722Y-30337229D01*
X98289930Y-30375344D01*
X98260560Y-30412062D01*
X98229613Y-30447382D01*
X98197103Y-30481420D01*
X98163045Y-30513970D01*
X98127439Y-30545033D01*
X98090286Y-30574608D01*
X98051585Y-30602695D01*
X98011336Y-30629295D01*
X97969539Y-30654407D01*
X97926195Y-30678031D01*
X97881302Y-30700168D01*
X97834863Y-30720817D01*
X97803043Y-30733757D01*
X97770622Y-30745972D01*
X97737473Y-30757399D01*
X97703596Y-30768038D01*
X97668992Y-30777889D01*
X97633659Y-30786951D01*
X97597598Y-30795226D01*
X97560810Y-30802713D01*
X97523293Y-30809411D01*
X97485049Y-30815322D01*
X97446076Y-30820444D01*
X97406376Y-30824778D01*
X97365947Y-30828325D01*
X97324791Y-30831083D01*
X97282907Y-30833053D01*
X97240294Y-30834235D01*
X97196954Y-30834629D01*
X97155307Y-30834289D01*
X97113927Y-30833267D01*
X97072814Y-30831564D01*
X97031968Y-30829180D01*
X96991389Y-30826114D01*
X96951078Y-30822367D01*
X96911034Y-30817940D01*
X96871256Y-30812831D01*
X96831746Y-30807040D01*
X96792503Y-30800569D01*
X96753527Y-30793416D01*
X96714819Y-30785582D01*
X96676377Y-30777067D01*
X96638203Y-30767871D01*
X96600296Y-30757993D01*
X96562655Y-30747435D01*
X96525249Y-30735901D01*
X96488043Y-30723098D01*
X96451037Y-30709026D01*
X96414232Y-30693686D01*
X96377627Y-30677076D01*
X96341223Y-30659198D01*
X96305018Y-30640051D01*
X96269015Y-30619634D01*
X96233211Y-30597949D01*
X96197608Y-30574995D01*
X96162205Y-30550772D01*
X96127003Y-30525280D01*
X96092000Y-30498520D01*
X96057199Y-30470490D01*
X96022597Y-30441191D01*
X95988196Y-30410624D01*
X96375443Y-29879762D01*
X96412226Y-29912755D01*
X96448844Y-29944096D01*
X96485296Y-29973784D01*
X96521583Y-30001818D01*
X96557704Y-30028200D01*
X96593660Y-30052929D01*
X96629451Y-30076005D01*
X96665077Y-30097428D01*
X96700538Y-30117198D01*
X96735833Y-30135315D01*
X96759271Y-30146475D01*
X96795029Y-30161905D01*
X96831780Y-30175817D01*
X96869522Y-30188212D01*
X96908255Y-30199088D01*
X96947981Y-30208447D01*
X96988698Y-30216289D01*
X97030407Y-30222613D01*
X97073108Y-30227419D01*
X97116800Y-30230707D01*
X97161485Y-30232478D01*
X97191825Y-30232815D01*
X97230020Y-30232319D01*
X97267028Y-30230831D01*
X97302850Y-30228352D01*
X97337483Y-30224881D01*
X97381815Y-30218710D01*
X97424037Y-30210776D01*
X97464148Y-30201079D01*
X97502149Y-30189618D01*
X97538039Y-30176395D01*
X97572180Y-30161649D01*
X97604504Y-30145620D01*
X97635011Y-30128309D01*
X97670591Y-30104868D01*
X97703333Y-30079423D01*
X97733236Y-30051974D01*
X97760300Y-30022522D01*
X97784798Y-29991045D01*
X97807000Y-29957523D01*
X97826906Y-29921956D01*
X97844516Y-29884343D01*
X97859831Y-29844685D01*
X97870430Y-29811487D01*
X97877415Y-29785728D01*
X97885830Y-29750386D01*
X97893123Y-29714028D01*
X97899294Y-29676655D01*
X97904342Y-29638267D01*
X97908269Y-29598863D01*
X97911074Y-29558445D01*
X97912757Y-29517012D01*
X97913318Y-29474563D01*
X97927345Y-29342708D01*
X97917217Y-29356842D01*
X97892047Y-29388043D01*
X97865165Y-29417710D01*
X97836569Y-29445845D01*
X97806260Y-29472448D01*
X97774238Y-29497517D01*
X97740503Y-29521054D01*
X97705056Y-29543058D01*
X97667895Y-29563529D01*
X97629021Y-29582468D01*
X97602153Y-29594242D01*
X97561205Y-29610588D01*
X97520107Y-29625327D01*
X97478859Y-29638458D01*
X97437461Y-29649981D01*
X97395912Y-29659896D01*
X97354213Y-29668203D01*
X97312364Y-29674903D01*
X97270364Y-29679994D01*
X97228215Y-29683478D01*
X97185915Y-29685354D01*
X97157631Y-29685711D01*
X97107096Y-29684847D01*
X97057433Y-29682255D01*
X97008642Y-29677935D01*
X96960722Y-29671886D01*
X96913673Y-29664110D01*
X96867496Y-29654606D01*
X96822191Y-29643373D01*
X96777757Y-29630413D01*
X96734195Y-29615724D01*
X96691504Y-29599308D01*
X96663528Y-29587403D01*
X96622563Y-29568217D01*
X96582694Y-29547843D01*
X96543923Y-29526282D01*
X96506249Y-29503534D01*
X96469671Y-29479599D01*
X96434191Y-29454477D01*
X96399807Y-29428168D01*
X96366521Y-29400672D01*
X96334331Y-29371988D01*
X96303239Y-29342118D01*
X96283120Y-29321545D01*
X96253953Y-29289603D01*
X96226078Y-29256610D01*
X96199496Y-29222564D01*
X96174206Y-29187467D01*
X96150209Y-29151318D01*
X96127503Y-29114117D01*
X96106090Y-29075864D01*
X96085970Y-29036559D01*
X96067141Y-28996203D01*
X96049605Y-28954794D01*
X96038632Y-28926604D01*
X96023355Y-28883706D01*
X96009581Y-28840281D01*
X95997309Y-28796331D01*
X95986540Y-28751854D01*
X95977274Y-28706852D01*
X95969510Y-28661323D01*
X95963249Y-28615269D01*
X95958490Y-28568689D01*
X95955234Y-28521583D01*
X95953481Y-28473951D01*
X95953147Y-28441904D01*
X95953220Y-28436775D01*
X96599414Y-28436775D01*
X96600624Y-28478545D01*
X96604256Y-28519438D01*
X96610308Y-28559455D01*
X96618782Y-28598596D01*
X96629676Y-28636859D01*
X96642991Y-28674246D01*
X96648995Y-28688956D01*
X96665470Y-28724598D01*
X96683907Y-28758863D01*
X96704306Y-28791751D01*
X96726666Y-28823261D01*
X96750989Y-28853393D01*
X96777273Y-28882149D01*
X96788336Y-28893265D01*
X96817179Y-28919883D01*
X96847608Y-28944706D01*
X96879623Y-28967735D01*
X96913224Y-28988968D01*
X96948412Y-29008407D01*
X96985185Y-29026051D01*
X97000339Y-29032606D01*
X97039287Y-29047382D01*
X97079195Y-29059654D01*
X97120064Y-29069421D01*
X97161892Y-29076684D01*
X97196046Y-29080691D01*
X97230814Y-29083095D01*
X97266197Y-29083897D01*
X97305013Y-29083095D01*
X97342813Y-29080691D01*
X97379598Y-29076684D01*
X97415368Y-29071074D01*
X97450123Y-29063861D01*
X97483863Y-29055045D01*
X97516588Y-29044627D01*
X97548297Y-29032606D01*
X97586628Y-29015742D01*
X97623080Y-28997209D01*
X97657654Y-28977007D01*
X97690349Y-28955135D01*
X97721167Y-28931593D01*
X97750106Y-28906382D01*
X97761155Y-28895830D01*
X97787423Y-28868014D01*
X97811728Y-28838528D01*
X97834072Y-28807373D01*
X97854454Y-28774548D01*
X97872874Y-28740053D01*
X97889333Y-28703889D01*
X97895367Y-28688956D01*
X97908911Y-28650563D01*
X97920161Y-28611251D01*
X97929114Y-28571022D01*
X97935772Y-28529874D01*
X97940133Y-28487807D01*
X97941970Y-28453493D01*
X97942383Y-28427372D01*
X97941682Y-28391054D01*
X97939578Y-28355618D01*
X97936072Y-28321063D01*
X97928183Y-28270884D01*
X97917139Y-28222689D01*
X97902938Y-28176477D01*
X97885583Y-28132248D01*
X97865071Y-28090003D01*
X97841404Y-28049742D01*
X97814582Y-28011464D01*
X97784603Y-27975169D01*
X97762865Y-27952075D01*
X97728186Y-27919688D01*
X97691148Y-27890486D01*
X97651750Y-27864470D01*
X97609994Y-27841639D01*
X97565878Y-27821994D01*
X97519403Y-27805535D01*
X97470569Y-27792262D01*
X97436702Y-27785182D01*
X97401787Y-27779519D01*
X97365823Y-27775271D01*
X97328811Y-27772440D01*
X97290750Y-27771024D01*
X97271326Y-27770847D01*
X97233539Y-27771608D01*
X97196687Y-27773892D01*
X97160770Y-27777699D01*
X97125788Y-27783029D01*
X97091741Y-27789881D01*
X97050497Y-27800587D01*
X97010714Y-27813673D01*
X96995210Y-27819573D01*
X96957864Y-27835719D01*
X96922230Y-27853701D01*
X96888307Y-27873519D01*
X96856096Y-27895174D01*
X96825596Y-27918666D01*
X96796808Y-27943994D01*
X96785771Y-27954640D01*
X96759441Y-27982293D01*
X96734948Y-28011825D01*
X96712291Y-28043234D01*
X96691471Y-28076523D01*
X96672487Y-28111689D01*
X96655340Y-28148734D01*
X96648995Y-28164078D01*
X96634712Y-28203193D01*
X96622849Y-28243602D01*
X96613407Y-28285306D01*
X96607597Y-28319600D01*
X96603336Y-28354722D01*
X96600624Y-28390672D01*
X96599462Y-28427451D01*
X96599414Y-28436775D01*
X95953220Y-28436775D01*
X95953854Y-28392349D01*
X95955972Y-28343379D01*
X95959504Y-28294996D01*
X95964447Y-28247199D01*
X95970804Y-28199988D01*
X95978573Y-28153362D01*
X95987754Y-28107323D01*
X95998348Y-28061870D01*
X96010354Y-28017003D01*
X96023773Y-27972722D01*
X96033503Y-27943527D01*
X96049239Y-27900463D01*
X96066312Y-27858466D01*
X96084722Y-27817536D01*
X96104469Y-27777672D01*
X96125554Y-27738876D01*
X96147976Y-27701147D01*
X96171736Y-27664484D01*
X96196833Y-27628888D01*
X96223268Y-27594360D01*
X96251039Y-27560898D01*
X96270297Y-27539183D01*
X96300330Y-27507604D01*
X96331445Y-27477303D01*
X96363642Y-27448279D01*
X96396921Y-27420532D01*
X96431282Y-27394063D01*
X96466725Y-27368870D01*
X96503250Y-27344956D01*
X96540857Y-27322318D01*
X96579545Y-27300957D01*
X96619316Y-27280874D01*
X96646431Y-27268195D01*
X96688165Y-27250474D01*
X96730981Y-27234495D01*
X96774879Y-27220260D01*
X96819858Y-27207768D01*
X96865920Y-27197019D01*
X96913064Y-27188013D01*
X96961289Y-27180750D01*
X97010597Y-27175230D01*
X97060986Y-27171454D01*
X97095180Y-27169904D01*
X97129855Y-27169129D01*
X97147373Y-27169033D01*
X97195318Y-27169949D01*
G37*
G36*
X99156270Y-29280512D02*
G01*
X99158207Y-29238731D01*
X99164017Y-29198446D01*
X99173701Y-29159658D01*
X99187259Y-29122365D01*
X99204689Y-29086568D01*
X99225994Y-29052267D01*
X99251172Y-29019462D01*
X99280224Y-28988153D01*
X99311987Y-28959302D01*
X99345299Y-28934298D01*
X99380161Y-28913140D01*
X99416572Y-28895830D01*
X99454533Y-28882366D01*
X99494043Y-28872749D01*
X99535102Y-28866978D01*
X99577711Y-28865055D01*
X99619145Y-28866885D01*
X99659243Y-28872375D01*
X99698005Y-28881524D01*
X99735431Y-28894334D01*
X99771522Y-28910803D01*
X99806277Y-28930932D01*
X99839696Y-28954721D01*
X99871780Y-28982169D01*
X99901432Y-29012289D01*
X99927131Y-29044093D01*
X99948876Y-29077579D01*
X99966668Y-29112748D01*
X99980506Y-29149600D01*
X99990390Y-29188135D01*
X99996321Y-29228353D01*
X99998297Y-29270254D01*
X99996361Y-29312048D01*
X99990550Y-29352373D01*
X99980867Y-29391228D01*
X99967309Y-29428615D01*
X99949878Y-29464532D01*
X99928574Y-29498980D01*
X99903396Y-29531958D01*
X99874344Y-29563467D01*
X99842595Y-29592118D01*
X99809322Y-29616949D01*
X99774527Y-29637960D01*
X99738209Y-29655150D01*
X99700369Y-29668520D01*
X99661006Y-29678071D01*
X99620120Y-29683801D01*
X99577711Y-29685711D01*
X99541054Y-29684156D01*
X99505133Y-29679493D01*
X99469948Y-29671721D01*
X99435499Y-29660840D01*
X99416145Y-29653227D01*
X99383759Y-29638366D01*
X99353173Y-29621460D01*
X99324387Y-29602509D01*
X99293692Y-29578346D01*
X99282788Y-29568596D01*
X99255540Y-29540760D01*
X99233976Y-29514212D01*
X99214540Y-29485619D01*
X99197231Y-29454981D01*
X99190464Y-29441224D01*
X99177141Y-29407821D01*
X99167089Y-29373437D01*
X99160311Y-29338071D01*
X99156805Y-29301723D01*
X99156270Y-29280512D01*
G37*
G36*
X101233556Y-27587054D02*
G01*
X101224152Y-27581925D01*
X101240207Y-27543457D01*
X101260163Y-27505843D01*
X101284019Y-27469085D01*
X101311774Y-27433181D01*
X101335151Y-27406814D01*
X101360721Y-27380929D01*
X101388486Y-27355523D01*
X101418444Y-27330599D01*
X101450596Y-27306156D01*
X101461801Y-27298115D01*
X101496843Y-27275047D01*
X101533688Y-27254247D01*
X101572337Y-27235717D01*
X101612788Y-27219455D01*
X101655043Y-27205463D01*
X101699102Y-27193740D01*
X101744963Y-27184285D01*
X101792628Y-27177100D01*
X101842095Y-27172184D01*
X101893366Y-27169537D01*
X101928549Y-27169033D01*
X101973278Y-27169746D01*
X102016745Y-27171888D01*
X102058950Y-27175456D01*
X102099893Y-27180453D01*
X102139573Y-27186877D01*
X102177991Y-27194728D01*
X102215147Y-27204007D01*
X102251041Y-27214714D01*
X102285672Y-27226848D01*
X102319041Y-27240409D01*
X102340586Y-27250243D01*
X102372080Y-27265768D01*
X102402446Y-27282210D01*
X102441182Y-27305558D01*
X102477913Y-27330536D01*
X102512642Y-27357143D01*
X102545366Y-27385380D01*
X102576088Y-27415246D01*
X102604805Y-27446742D01*
X102618413Y-27463101D01*
X102644365Y-27496627D01*
X102668368Y-27531382D01*
X102690420Y-27567366D01*
X102710523Y-27604579D01*
X102728675Y-27643020D01*
X102744877Y-27682691D01*
X102759129Y-27723590D01*
X102771431Y-27765718D01*
X102782250Y-27808674D01*
X102791627Y-27852058D01*
X102799561Y-27895869D01*
X102806052Y-27940107D01*
X102811101Y-27984773D01*
X102814708Y-28029867D01*
X102816871Y-28075387D01*
X102817548Y-28109808D01*
X102817593Y-28121335D01*
X102817593Y-29631001D01*
X102171326Y-29631001D01*
X102171326Y-28426517D01*
X102170996Y-28389892D01*
X102170004Y-28351824D01*
X102168351Y-28312314D01*
X102166037Y-28271362D01*
X102163603Y-28236132D01*
X102161923Y-28214514D01*
X102158233Y-28178621D01*
X102153040Y-28143605D01*
X102146345Y-28109465D01*
X102138147Y-28076202D01*
X102126326Y-28037443D01*
X102112341Y-27999947D01*
X102095802Y-27963963D01*
X102076318Y-27930383D01*
X102053888Y-27899208D01*
X102028513Y-27870437D01*
X102000192Y-27844070D01*
X101990098Y-27835816D01*
X101957450Y-27813736D01*
X101920414Y-27796225D01*
X101886199Y-27785122D01*
X101848937Y-27777192D01*
X101808628Y-27772433D01*
X101774187Y-27770910D01*
X101765272Y-27770847D01*
X101730718Y-27771568D01*
X101689515Y-27774498D01*
X101650525Y-27779683D01*
X101613748Y-27787121D01*
X101579182Y-27796813D01*
X101546829Y-27808759D01*
X101528479Y-27817009D01*
X101494008Y-27835141D01*
X101461761Y-27855557D01*
X101431737Y-27878258D01*
X101403938Y-27903242D01*
X101378363Y-27930510D01*
X101370332Y-27940107D01*
X101348132Y-27970121D01*
X101328337Y-28001817D01*
X101310946Y-28035196D01*
X101295960Y-28070258D01*
X101283377Y-28107003D01*
X101279718Y-28119626D01*
X101270131Y-28158164D01*
X101262527Y-28197484D01*
X101256907Y-28237585D01*
X101253271Y-28278468D01*
X101251755Y-28313133D01*
X101251508Y-28334193D01*
X101251508Y-29631001D01*
X100606096Y-29631001D01*
X100606096Y-25879919D01*
X101251508Y-25879919D01*
X101233556Y-27587054D01*
G37*
G36*
X103426246Y-27223743D02*
G01*
X104071658Y-27223743D01*
X104071658Y-29631001D01*
X103426246Y-29631001D01*
X103426246Y-27223743D01*
G37*
G36*
X103342471Y-26457797D02*
G01*
X103344247Y-26419757D01*
X103349576Y-26382998D01*
X103358459Y-26347522D01*
X103370894Y-26313328D01*
X103386883Y-26280416D01*
X103406424Y-26248787D01*
X103429518Y-26218439D01*
X103456166Y-26189375D01*
X103485725Y-26162527D01*
X103517127Y-26139259D01*
X103550373Y-26119571D01*
X103585462Y-26103462D01*
X103622394Y-26090933D01*
X103661169Y-26081984D01*
X103701788Y-26076614D01*
X103744250Y-26074825D01*
X103786578Y-26076534D01*
X103827224Y-26081663D01*
X103866186Y-26090212D01*
X103903466Y-26102180D01*
X103939062Y-26117567D01*
X103972976Y-26136374D01*
X104005206Y-26158600D01*
X104035754Y-26184245D01*
X104063804Y-26212268D01*
X104088113Y-26242055D01*
X104108683Y-26273604D01*
X104125513Y-26306916D01*
X104138603Y-26341992D01*
X104147953Y-26378831D01*
X104153563Y-26417432D01*
X104155433Y-26457797D01*
X104153563Y-26498176D01*
X104147953Y-26536818D01*
X104138603Y-26573723D01*
X104125513Y-26608892D01*
X104108683Y-26642325D01*
X104088113Y-26674021D01*
X104063804Y-26703981D01*
X104035754Y-26732204D01*
X104005206Y-26757649D01*
X103972976Y-26779702D01*
X103939062Y-26798362D01*
X103903466Y-26813629D01*
X103866186Y-26825503D01*
X103827224Y-26833985D01*
X103786578Y-26839074D01*
X103744250Y-26840770D01*
X103701788Y-26838994D01*
X103661169Y-26833664D01*
X103622394Y-26824782D01*
X103585462Y-26812346D01*
X103550373Y-26796358D01*
X103517127Y-26776817D01*
X103485725Y-26753722D01*
X103456166Y-26727075D01*
X103429518Y-26697810D01*
X103406424Y-26667289D01*
X103386883Y-26635513D01*
X103370894Y-26602481D01*
X103358459Y-26568193D01*
X103349576Y-26532650D01*
X103344247Y-26495852D01*
X103342471Y-26457797D01*
G37*
G36*
X104688859Y-27223743D02*
G01*
X105334271Y-27223743D01*
X105316319Y-27609280D01*
X105306916Y-27603296D01*
X105324159Y-27565479D01*
X105343190Y-27529285D01*
X105364010Y-27494714D01*
X105386617Y-27461765D01*
X105411013Y-27430440D01*
X105437197Y-27400737D01*
X105465169Y-27372657D01*
X105494929Y-27346200D01*
X105526478Y-27321366D01*
X105559814Y-27298155D01*
X105583032Y-27283582D01*
X105618936Y-27263111D01*
X105655801Y-27244653D01*
X105693629Y-27228209D01*
X105732417Y-27213779D01*
X105772168Y-27201362D01*
X105812880Y-27190958D01*
X105854554Y-27182568D01*
X105897190Y-27176192D01*
X105940787Y-27171829D01*
X105985346Y-27169480D01*
X106015586Y-27169033D01*
X106052796Y-27169033D01*
X106089197Y-27169033D01*
X106121588Y-27169033D01*
X106157017Y-27169033D01*
X106193757Y-27169033D01*
X106230276Y-27169033D01*
X106254944Y-27169033D01*
X106254944Y-27835816D01*
X106222224Y-27825364D01*
X106185439Y-27814144D01*
X106151358Y-27804366D01*
X106115016Y-27794783D01*
X106077990Y-27786234D01*
X106043529Y-27779502D01*
X106009389Y-27774694D01*
X105971364Y-27771583D01*
X105942069Y-27770847D01*
X105905422Y-27771486D01*
X105870172Y-27773402D01*
X105825346Y-27777943D01*
X105783004Y-27784755D01*
X105743146Y-27793838D01*
X105705773Y-27805191D01*
X105670885Y-27818815D01*
X105638481Y-27834710D01*
X105623210Y-27843509D01*
X105594172Y-27862009D01*
X105560354Y-27886072D01*
X105529290Y-27911179D01*
X105500982Y-27937330D01*
X105475428Y-27964524D01*
X105452629Y-27992762D01*
X105440272Y-28010205D01*
X105421527Y-28039611D01*
X105401731Y-28074954D01*
X105384882Y-28110357D01*
X105370977Y-28145820D01*
X105360017Y-28181343D01*
X105355642Y-28199127D01*
X105348379Y-28232706D01*
X105341805Y-28267628D01*
X105336796Y-28301929D01*
X105334292Y-28336390D01*
X105334271Y-28339322D01*
X105334271Y-29631001D01*
X104688859Y-29631001D01*
X104688859Y-27223743D01*
G37*
G36*
X106637917Y-27223743D02*
G01*
X107253409Y-27223743D01*
X107236312Y-27635781D01*
X107226054Y-27629797D01*
X107240457Y-27595887D01*
X107256738Y-27562758D01*
X107274898Y-27530410D01*
X107294936Y-27498844D01*
X107316853Y-27468060D01*
X107340647Y-27438057D01*
X107366320Y-27408835D01*
X107393872Y-27380394D01*
X107423301Y-27352735D01*
X107454609Y-27325857D01*
X107476525Y-27308373D01*
X107511136Y-27283471D01*
X107547972Y-27261019D01*
X107587031Y-27241016D01*
X107628314Y-27223463D01*
X107671821Y-27208358D01*
X107717553Y-27195703D01*
X107765508Y-27185498D01*
X107815687Y-27177741D01*
X107850375Y-27173931D01*
X107886052Y-27171210D01*
X107922717Y-27169577D01*
X107960370Y-27169033D01*
X108005099Y-27169746D01*
X108048567Y-27171888D01*
X108090771Y-27175456D01*
X108131714Y-27180453D01*
X108171394Y-27186877D01*
X108209813Y-27194728D01*
X108246969Y-27204007D01*
X108282862Y-27214714D01*
X108317494Y-27226848D01*
X108350863Y-27240409D01*
X108372408Y-27250243D01*
X108403901Y-27265768D01*
X108434267Y-27282210D01*
X108473003Y-27305558D01*
X108509735Y-27330536D01*
X108544463Y-27357143D01*
X108577188Y-27385380D01*
X108607909Y-27415246D01*
X108636626Y-27446742D01*
X108650234Y-27463101D01*
X108676187Y-27496627D01*
X108700189Y-27531382D01*
X108722242Y-27567366D01*
X108742344Y-27604579D01*
X108760496Y-27643020D01*
X108776698Y-27682691D01*
X108790950Y-27723590D01*
X108803252Y-27765718D01*
X108814071Y-27808674D01*
X108823448Y-27852058D01*
X108831382Y-27895869D01*
X108837874Y-27940107D01*
X108842922Y-27984773D01*
X108846529Y-28029867D01*
X108848693Y-28075387D01*
X108849369Y-28109808D01*
X108849414Y-28121335D01*
X108849414Y-29631001D01*
X108203147Y-29631001D01*
X108203147Y-28426517D01*
X108202817Y-28389892D01*
X108201825Y-28351824D01*
X108200172Y-28312314D01*
X108197858Y-28271362D01*
X108195425Y-28236132D01*
X108193744Y-28214514D01*
X108190054Y-28178621D01*
X108184862Y-28143605D01*
X108178166Y-28109465D01*
X108169969Y-28076202D01*
X108158148Y-28037443D01*
X108144163Y-27999947D01*
X108127623Y-27963963D01*
X108108139Y-27930383D01*
X108085709Y-27899208D01*
X108060334Y-27870437D01*
X108032014Y-27844070D01*
X108021919Y-27835816D01*
X107989271Y-27813736D01*
X107952236Y-27796225D01*
X107918021Y-27785122D01*
X107880759Y-27777192D01*
X107840450Y-27772433D01*
X107806009Y-27770910D01*
X107797094Y-27770847D01*
X107762539Y-27771568D01*
X107721337Y-27774498D01*
X107682347Y-27779683D01*
X107645569Y-27787121D01*
X107611004Y-27796813D01*
X107578650Y-27808759D01*
X107560300Y-27817009D01*
X107525829Y-27835141D01*
X107493582Y-27855557D01*
X107463559Y-27878258D01*
X107435759Y-27903242D01*
X107410184Y-27930510D01*
X107402153Y-27940107D01*
X107379954Y-27970121D01*
X107360159Y-28001817D01*
X107342768Y-28035196D01*
X107327781Y-28070258D01*
X107315199Y-28107003D01*
X107311539Y-28119626D01*
X107301952Y-28158164D01*
X107294348Y-28197484D01*
X107288728Y-28237585D01*
X107285092Y-28278468D01*
X107283577Y-28313133D01*
X107283329Y-28334193D01*
X107283329Y-29631001D01*
X106637917Y-29631001D01*
X106637917Y-27223743D01*
G37*
G36*
X110776246Y-27970882D02*
G01*
X110753218Y-27940034D01*
X110729443Y-27911176D01*
X110704919Y-27884308D01*
X110679648Y-27859431D01*
X110653628Y-27836544D01*
X110613197Y-27805944D01*
X110571082Y-27779823D01*
X110527284Y-27758180D01*
X110481803Y-27741014D01*
X110434640Y-27728327D01*
X110385793Y-27720117D01*
X110335263Y-27716385D01*
X110318046Y-27716137D01*
X110283506Y-27717431D01*
X110249341Y-27721312D01*
X110215552Y-27727782D01*
X110182138Y-27736840D01*
X110149101Y-27748486D01*
X110116439Y-27762719D01*
X110103479Y-27769137D01*
X110073926Y-27787161D01*
X110045075Y-27812646D01*
X110023437Y-27842339D01*
X110009011Y-27876239D01*
X110001799Y-27914347D01*
X110000897Y-27934978D01*
X110004947Y-27972039D01*
X110017096Y-28004682D01*
X110037344Y-28032907D01*
X110065692Y-28056714D01*
X110085527Y-28068335D01*
X110119247Y-28084323D01*
X110156934Y-28099590D01*
X110191370Y-28111762D01*
X110228561Y-28123433D01*
X110268507Y-28134602D01*
X110302447Y-28143178D01*
X110311207Y-28145271D01*
X110346857Y-28153659D01*
X110383282Y-28162155D01*
X110420481Y-28170756D01*
X110458455Y-28179465D01*
X110497204Y-28188281D01*
X110536728Y-28197203D01*
X110577026Y-28206233D01*
X110618099Y-28215369D01*
X110659465Y-28225186D01*
X110700218Y-28236259D01*
X110740355Y-28248588D01*
X110779879Y-28262172D01*
X110818788Y-28277012D01*
X110857083Y-28293107D01*
X110894763Y-28310458D01*
X110931829Y-28329064D01*
X110968013Y-28349233D01*
X111002621Y-28371272D01*
X111035653Y-28395181D01*
X111067109Y-28420960D01*
X111096988Y-28448609D01*
X111125292Y-28478128D01*
X111152019Y-28509517D01*
X111177170Y-28542776D01*
X111200211Y-28578507D01*
X111220180Y-28617309D01*
X111237077Y-28659183D01*
X111247733Y-28692605D01*
X111256661Y-28727755D01*
X111263862Y-28764633D01*
X111269334Y-28803239D01*
X111273078Y-28843573D01*
X111275094Y-28885635D01*
X111275478Y-28914636D01*
X111274644Y-28954442D01*
X111272142Y-28993075D01*
X111267972Y-29030537D01*
X111262135Y-29066826D01*
X111254629Y-29101944D01*
X111245455Y-29135889D01*
X111234613Y-29168662D01*
X111217563Y-29210536D01*
X111197547Y-29250327D01*
X111180590Y-29278802D01*
X111156000Y-29315067D01*
X111129673Y-29349488D01*
X111101610Y-29382066D01*
X111071810Y-29412800D01*
X111040274Y-29441691D01*
X111007002Y-29468739D01*
X110971993Y-29493944D01*
X110935248Y-29517305D01*
X110897274Y-29538957D01*
X110858151Y-29559033D01*
X110817880Y-29577532D01*
X110776460Y-29594456D01*
X110733891Y-29609803D01*
X110701210Y-29620279D01*
X110667884Y-29629868D01*
X110633911Y-29638571D01*
X110599292Y-29646388D01*
X110564518Y-29653415D01*
X110529759Y-29659752D01*
X110495014Y-29665397D01*
X110460285Y-29670350D01*
X110425571Y-29674613D01*
X110390872Y-29678184D01*
X110356188Y-29681064D01*
X110321519Y-29683253D01*
X110286865Y-29684751D01*
X110252226Y-29685557D01*
X110229142Y-29685711D01*
X110194260Y-29685360D01*
X110159712Y-29684308D01*
X110125498Y-29682555D01*
X110074803Y-29678611D01*
X110024859Y-29673089D01*
X109975667Y-29665988D01*
X109927226Y-29657311D01*
X109879537Y-29647055D01*
X109832598Y-29635221D01*
X109786411Y-29621810D01*
X109740976Y-29606821D01*
X109711103Y-29595952D01*
X109666859Y-29577664D01*
X109623247Y-29556462D01*
X109580266Y-29532344D01*
X109537916Y-29505311D01*
X109496197Y-29475363D01*
X109468734Y-29453778D01*
X109441553Y-29430897D01*
X109414652Y-29406721D01*
X109388031Y-29381249D01*
X109361691Y-29354482D01*
X109335632Y-29326418D01*
X109309853Y-29297060D01*
X109284354Y-29266405D01*
X109271710Y-29250592D01*
X109704264Y-28835990D01*
X109728437Y-28862805D01*
X109752550Y-28888433D01*
X109776602Y-28912874D01*
X109808579Y-28943615D01*
X109840449Y-28972246D01*
X109872212Y-28998766D01*
X109903868Y-29023176D01*
X109935417Y-29045476D01*
X109959009Y-29060816D01*
X109991253Y-29079048D01*
X110025153Y-29094849D01*
X110060710Y-29108220D01*
X110097922Y-29119159D01*
X110136791Y-29127668D01*
X110177317Y-29133745D01*
X110219498Y-29137391D01*
X110263336Y-29138607D01*
X110298295Y-29137593D01*
X110333931Y-29134550D01*
X110370243Y-29129478D01*
X110390709Y-29125784D01*
X110426788Y-29116738D01*
X110460973Y-29104987D01*
X110493265Y-29090532D01*
X110510387Y-29081332D01*
X110539404Y-29063007D01*
X110567521Y-29040267D01*
X110591296Y-29015022D01*
X110597582Y-29006960D01*
X110616077Y-28974783D01*
X110626894Y-28939373D01*
X110630066Y-28904378D01*
X110627061Y-28867392D01*
X110618045Y-28834013D01*
X110599930Y-28799629D01*
X110573633Y-28770153D01*
X110544581Y-28748795D01*
X110510862Y-28729842D01*
X110479731Y-28714965D01*
X110445846Y-28700924D01*
X110409206Y-28687717D01*
X110369811Y-28675345D01*
X110336312Y-28666049D01*
X110318901Y-28661601D01*
X110283438Y-28652905D01*
X110247147Y-28644343D01*
X110210028Y-28635915D01*
X110172081Y-28627620D01*
X110133305Y-28619459D01*
X110093702Y-28611432D01*
X110053270Y-28603538D01*
X110012010Y-28595777D01*
X109970830Y-28587255D01*
X109930212Y-28577505D01*
X109890154Y-28566525D01*
X109850657Y-28554317D01*
X109811721Y-28540880D01*
X109773347Y-28526214D01*
X109735533Y-28510319D01*
X109698280Y-28493195D01*
X109662283Y-28474348D01*
X109627808Y-28453712D01*
X109594857Y-28431285D01*
X109563427Y-28407069D01*
X109533521Y-28381063D01*
X109505137Y-28353267D01*
X109478276Y-28323681D01*
X109452938Y-28292305D01*
X109429897Y-28258285D01*
X109409928Y-28221193D01*
X109393032Y-28181028D01*
X109379207Y-28137791D01*
X109370855Y-28103348D01*
X109364231Y-28067176D01*
X109359335Y-28029276D01*
X109356166Y-27989648D01*
X109354726Y-27948293D01*
X109354630Y-27934123D01*
X109355374Y-27897403D01*
X109357606Y-27861615D01*
X109361325Y-27826758D01*
X109366531Y-27792833D01*
X109375788Y-27749048D01*
X109387689Y-27706920D01*
X109402235Y-27666448D01*
X109419425Y-27627633D01*
X109439260Y-27590474D01*
X109461246Y-27554744D01*
X109484888Y-27520643D01*
X109510186Y-27488172D01*
X109537141Y-27457331D01*
X109565752Y-27428119D01*
X109596019Y-27400537D01*
X109627942Y-27374584D01*
X109661521Y-27350261D01*
X109696731Y-27327540D01*
X109733115Y-27306396D01*
X109770675Y-27286828D01*
X109809411Y-27268836D01*
X109849321Y-27252421D01*
X109890408Y-27237581D01*
X109932669Y-27224317D01*
X109976106Y-27212630D01*
X110020198Y-27202412D01*
X110064423Y-27193556D01*
X110108782Y-27186063D01*
X110153274Y-27179932D01*
X110197900Y-27175163D01*
X110242659Y-27171757D01*
X110287552Y-27169714D01*
X110332579Y-27169033D01*
X110377894Y-27169799D01*
X110423119Y-27172098D01*
X110468254Y-27175930D01*
X110513299Y-27181294D01*
X110558254Y-27188192D01*
X110603119Y-27196622D01*
X110647893Y-27206584D01*
X110692577Y-27218080D01*
X110737172Y-27231108D01*
X110781675Y-27245669D01*
X110811295Y-27256227D01*
X110855185Y-27273701D01*
X110897738Y-27293744D01*
X110938954Y-27316356D01*
X110978832Y-27341539D01*
X111017373Y-27369290D01*
X111054576Y-27399612D01*
X111090442Y-27432503D01*
X111124971Y-27467963D01*
X111158163Y-27505993D01*
X111179547Y-27532774D01*
X111200337Y-27560697D01*
X111210510Y-27575086D01*
X110776246Y-27970882D01*
G37*
G36*
X113310021Y-28019608D02*
G01*
X113280075Y-27989194D01*
X113250502Y-27960784D01*
X113221304Y-27934377D01*
X113192479Y-27909974D01*
X113164029Y-27887574D01*
X113135952Y-27867178D01*
X113101383Y-27844500D01*
X113080921Y-27832396D01*
X113047178Y-27814665D01*
X113013268Y-27799939D01*
X112979191Y-27788218D01*
X112944947Y-27779502D01*
X112910536Y-27773792D01*
X112875958Y-27771087D01*
X112862080Y-27770847D01*
X112823491Y-27771702D01*
X112785945Y-27774266D01*
X112749440Y-27778541D01*
X112713977Y-27784525D01*
X112679556Y-27792218D01*
X112646177Y-27801622D01*
X112605918Y-27815780D01*
X112582544Y-27825557D01*
X112544952Y-27843552D01*
X112509114Y-27863341D01*
X112475028Y-27884925D01*
X112442696Y-27908304D01*
X112412116Y-27933478D01*
X112383290Y-27960447D01*
X112372251Y-27971737D01*
X112346025Y-28000742D01*
X112321845Y-28031125D01*
X112299710Y-28062886D01*
X112279620Y-28096024D01*
X112261575Y-28130539D01*
X112245576Y-28166432D01*
X112239749Y-28181175D01*
X112226943Y-28218291D01*
X112216307Y-28255908D01*
X112207842Y-28294025D01*
X112201548Y-28332644D01*
X112197424Y-28371763D01*
X112195470Y-28411383D01*
X112195297Y-28427372D01*
X112196382Y-28467213D01*
X112199638Y-28506596D01*
X112205064Y-28545519D01*
X112212661Y-28583983D01*
X112222428Y-28621988D01*
X112234366Y-28659534D01*
X112239749Y-28674423D01*
X112254930Y-28710642D01*
X112272156Y-28745566D01*
X112291428Y-28779197D01*
X112312745Y-28811533D01*
X112336107Y-28842576D01*
X112361515Y-28872324D01*
X112372251Y-28883862D01*
X112400376Y-28911302D01*
X112430254Y-28936989D01*
X112461885Y-28960923D01*
X112495269Y-28983104D01*
X112530406Y-29003532D01*
X112567297Y-29022207D01*
X112582544Y-29029186D01*
X112621826Y-29044947D01*
X112654424Y-29055633D01*
X112688064Y-29064609D01*
X112722745Y-29071875D01*
X112758468Y-29077432D01*
X112795234Y-29081279D01*
X112833041Y-29083416D01*
X112862080Y-29083897D01*
X112902739Y-29082582D01*
X112942439Y-29078637D01*
X112981179Y-29072063D01*
X113018958Y-29062859D01*
X113055778Y-29051026D01*
X113091637Y-29036563D01*
X113105712Y-29030041D01*
X113140641Y-29011375D01*
X113174901Y-28989035D01*
X113208494Y-28963022D01*
X113234888Y-28939567D01*
X113260854Y-28913761D01*
X113286393Y-28885605D01*
X113311504Y-28855097D01*
X113317715Y-28847103D01*
X113751124Y-29319835D01*
X113723822Y-29347337D01*
X113696200Y-29373424D01*
X113668257Y-29398094D01*
X113639993Y-29421349D01*
X113611409Y-29443187D01*
X113582505Y-29463610D01*
X113553279Y-29482617D01*
X113523734Y-29500208D01*
X113486559Y-29520440D01*
X113449302Y-29539461D01*
X113411960Y-29557272D01*
X113374536Y-29573872D01*
X113337027Y-29589262D01*
X113299436Y-29603442D01*
X113284376Y-29608774D01*
X113246959Y-29621034D01*
X113210044Y-29632166D01*
X113173629Y-29642171D01*
X113137715Y-29651049D01*
X113102303Y-29658801D01*
X113067391Y-29665425D01*
X113053566Y-29667759D01*
X113013235Y-29673860D01*
X112974947Y-29678698D01*
X112938702Y-29682275D01*
X112904502Y-29684589D01*
X112867184Y-29685693D01*
X112862080Y-29685711D01*
X112811533Y-29684922D01*
X112761511Y-29682555D01*
X112712016Y-29678611D01*
X112663047Y-29673089D01*
X112614603Y-29665988D01*
X112566686Y-29657311D01*
X112519294Y-29647055D01*
X112472428Y-29635221D01*
X112426089Y-29621810D01*
X112380275Y-29606821D01*
X112350025Y-29595952D01*
X112305388Y-29578461D01*
X112261878Y-29559647D01*
X112219496Y-29539512D01*
X112178240Y-29518053D01*
X112138111Y-29495273D01*
X112099109Y-29471170D01*
X112061235Y-29445745D01*
X112024487Y-29418998D01*
X111988866Y-29390928D01*
X111954373Y-29361536D01*
X111932003Y-29341206D01*
X111899470Y-29309685D01*
X111868230Y-29276992D01*
X111838282Y-29243127D01*
X111809626Y-29208090D01*
X111782262Y-29171881D01*
X111756191Y-29134500D01*
X111731412Y-29095946D01*
X111707925Y-29056221D01*
X111685731Y-29015323D01*
X111664829Y-28973254D01*
X111651612Y-28944556D01*
X111633280Y-28900500D01*
X111616750Y-28855528D01*
X111602024Y-28809639D01*
X111589101Y-28762834D01*
X111577982Y-28715111D01*
X111568665Y-28666473D01*
X111561152Y-28616917D01*
X111555442Y-28566445D01*
X111552637Y-28532288D01*
X111550633Y-28497723D01*
X111549431Y-28462751D01*
X111549030Y-28427372D01*
X111549431Y-28391996D01*
X111550633Y-28357034D01*
X111552637Y-28322486D01*
X111555442Y-28288352D01*
X111561152Y-28237927D01*
X111568665Y-28188435D01*
X111577982Y-28139873D01*
X111589101Y-28092244D01*
X111602024Y-28045546D01*
X111616750Y-27999780D01*
X111633280Y-27954945D01*
X111651612Y-27911042D01*
X111671653Y-27868039D01*
X111692986Y-27826222D01*
X111715611Y-27785592D01*
X111739528Y-27746150D01*
X111764738Y-27707894D01*
X111791240Y-27670826D01*
X111819034Y-27634945D01*
X111848121Y-27600251D01*
X111878500Y-27566744D01*
X111910171Y-27534424D01*
X111932003Y-27513537D01*
X111965745Y-27483263D01*
X112000615Y-27454312D01*
X112036611Y-27426683D01*
X112073734Y-27400376D01*
X112111985Y-27375392D01*
X112151362Y-27351730D01*
X112191867Y-27329390D01*
X112233498Y-27308373D01*
X112276256Y-27288678D01*
X112320142Y-27270306D01*
X112350025Y-27258792D01*
X112395488Y-27242751D01*
X112441477Y-27228288D01*
X112487992Y-27215402D01*
X112535033Y-27204095D01*
X112582600Y-27194365D01*
X112630693Y-27186213D01*
X112679311Y-27179639D01*
X112728456Y-27174643D01*
X112778127Y-27171224D01*
X112828323Y-27169383D01*
X112862080Y-27169033D01*
X112905539Y-27169829D01*
X112949044Y-27172218D01*
X112992594Y-27176200D01*
X113036189Y-27181775D01*
X113079829Y-27188943D01*
X113123514Y-27197703D01*
X113167244Y-27208057D01*
X113211019Y-27220003D01*
X113254839Y-27233542D01*
X113298704Y-27248674D01*
X113327973Y-27259647D01*
X113371538Y-27277749D01*
X113414396Y-27298075D01*
X113456549Y-27320625D01*
X113497995Y-27345399D01*
X113538734Y-27372397D01*
X113578768Y-27401619D01*
X113618095Y-27433064D01*
X113656716Y-27466734D01*
X113682071Y-27490416D01*
X113707112Y-27515087D01*
X113731840Y-27540745D01*
X113756253Y-27567393D01*
X113310021Y-28019608D01*
G37*
G36*
X114654700Y-27587054D02*
G01*
X114645297Y-27581925D01*
X114661352Y-27543457D01*
X114681307Y-27505843D01*
X114705163Y-27469085D01*
X114732919Y-27433181D01*
X114756295Y-27406814D01*
X114781866Y-27380929D01*
X114809630Y-27355523D01*
X114839588Y-27330599D01*
X114871740Y-27306156D01*
X114882945Y-27298115D01*
X114917987Y-27275047D01*
X114954833Y-27254247D01*
X114993481Y-27235717D01*
X115033933Y-27219455D01*
X115076188Y-27205463D01*
X115120246Y-27193740D01*
X115166107Y-27184285D01*
X115213772Y-27177100D01*
X115263240Y-27172184D01*
X115314511Y-27169537D01*
X115349693Y-27169033D01*
X115394423Y-27169746D01*
X115437890Y-27171888D01*
X115480095Y-27175456D01*
X115521037Y-27180453D01*
X115560718Y-27186877D01*
X115599136Y-27194728D01*
X115636292Y-27204007D01*
X115672185Y-27214714D01*
X115706817Y-27226848D01*
X115740186Y-27240409D01*
X115761731Y-27250243D01*
X115793224Y-27265768D01*
X115823591Y-27282210D01*
X115862326Y-27305558D01*
X115899058Y-27330536D01*
X115933786Y-27357143D01*
X115966511Y-27385380D01*
X115997232Y-27415246D01*
X116025950Y-27446742D01*
X116039557Y-27463101D01*
X116065510Y-27496627D01*
X116089512Y-27531382D01*
X116111565Y-27567366D01*
X116131667Y-27604579D01*
X116149819Y-27643020D01*
X116166021Y-27682691D01*
X116180273Y-27723590D01*
X116192575Y-27765718D01*
X116203394Y-27808674D01*
X116212771Y-27852058D01*
X116220705Y-27895869D01*
X116227197Y-27940107D01*
X116232246Y-27984773D01*
X116235852Y-28029867D01*
X116238016Y-28075387D01*
X116238692Y-28109808D01*
X116238737Y-28121335D01*
X116238737Y-29631001D01*
X115592471Y-29631001D01*
X115592471Y-28426517D01*
X115592140Y-28389892D01*
X115591148Y-28351824D01*
X115589495Y-28312314D01*
X115587181Y-28271362D01*
X115584748Y-28236132D01*
X115583067Y-28214514D01*
X115579377Y-28178621D01*
X115574185Y-28143605D01*
X115567490Y-28109465D01*
X115559292Y-28076202D01*
X115547471Y-28037443D01*
X115533486Y-27999947D01*
X115516947Y-27963963D01*
X115497462Y-27930383D01*
X115475032Y-27899208D01*
X115449657Y-27870437D01*
X115421337Y-27844070D01*
X115411242Y-27835816D01*
X115378594Y-27813736D01*
X115341559Y-27796225D01*
X115307344Y-27785122D01*
X115270082Y-27777192D01*
X115229773Y-27772433D01*
X115195332Y-27770910D01*
X115186417Y-27770847D01*
X115151862Y-27771568D01*
X115110660Y-27774498D01*
X115071670Y-27779683D01*
X115034892Y-27787121D01*
X115000327Y-27796813D01*
X114967973Y-27808759D01*
X114949623Y-27817009D01*
X114915152Y-27835141D01*
X114882905Y-27855557D01*
X114852882Y-27878258D01*
X114825082Y-27903242D01*
X114799507Y-27930510D01*
X114791476Y-27940107D01*
X114769277Y-27970121D01*
X114749482Y-28001817D01*
X114732091Y-28035196D01*
X114717104Y-28070258D01*
X114704522Y-28107003D01*
X114700862Y-28119626D01*
X114691275Y-28158164D01*
X114683672Y-28197484D01*
X114678052Y-28237585D01*
X114674415Y-28278468D01*
X114672900Y-28313133D01*
X114672652Y-28334193D01*
X114672652Y-29631001D01*
X114027240Y-29631001D01*
X114027240Y-25879919D01*
X114672652Y-25879919D01*
X114654700Y-27587054D01*
G37*
G36*
X117911888Y-27169544D02*
G01*
X117957717Y-27171076D01*
X118002148Y-27173631D01*
X118045182Y-27177207D01*
X118086818Y-27181805D01*
X118127057Y-27187425D01*
X118165899Y-27194067D01*
X118203343Y-27201731D01*
X118239389Y-27210416D01*
X118274038Y-27220123D01*
X118296361Y-27227162D01*
X118329014Y-27238202D01*
X118370915Y-27253856D01*
X118410946Y-27270579D01*
X118449107Y-27288371D01*
X118485398Y-27307231D01*
X118519819Y-27327160D01*
X118552370Y-27348157D01*
X118583051Y-27370223D01*
X118590429Y-27375906D01*
X118619067Y-27399214D01*
X118645995Y-27423404D01*
X118671213Y-27448475D01*
X118694721Y-27474428D01*
X118716520Y-27501262D01*
X118736609Y-27528978D01*
X118759316Y-27564862D01*
X118771658Y-27587054D01*
X118790796Y-27624229D01*
X118808139Y-27661486D01*
X118823687Y-27698828D01*
X118837441Y-27736252D01*
X118849400Y-27773760D01*
X118859564Y-27811352D01*
X118863127Y-27826412D01*
X118871379Y-27863624D01*
X118878504Y-27900460D01*
X118884502Y-27936921D01*
X118889373Y-27973006D01*
X118893117Y-28008715D01*
X118895734Y-28044048D01*
X118896466Y-28058077D01*
X118898209Y-28098789D01*
X118899591Y-28137578D01*
X118900613Y-28174443D01*
X118901274Y-28209385D01*
X118901590Y-28247720D01*
X118901595Y-28252982D01*
X118901595Y-29631001D01*
X118315168Y-29631001D01*
X118325927Y-29285932D01*
X118318583Y-29298167D01*
X118293245Y-29336064D01*
X118266511Y-29371978D01*
X118238378Y-29405908D01*
X118208848Y-29437854D01*
X118177921Y-29467818D01*
X118145596Y-29495797D01*
X118111874Y-29521793D01*
X118076754Y-29545806D01*
X118040237Y-29567835D01*
X118015115Y-29581419D01*
X117976622Y-29600057D01*
X117937438Y-29616862D01*
X117897562Y-29631834D01*
X117856995Y-29644972D01*
X117815737Y-29656277D01*
X117773787Y-29665749D01*
X117731147Y-29673387D01*
X117687815Y-29679193D01*
X117643792Y-29683165D01*
X117599077Y-29685304D01*
X117568884Y-29685711D01*
X117527517Y-29684990D01*
X117486337Y-29682826D01*
X117445344Y-29679219D01*
X117404539Y-29674170D01*
X117363920Y-29667679D01*
X117323488Y-29659745D01*
X117283244Y-29650368D01*
X117243186Y-29639549D01*
X117203956Y-29627501D01*
X117165768Y-29614010D01*
X117128623Y-29599077D01*
X117092519Y-29582701D01*
X117057456Y-29564883D01*
X117023436Y-29545622D01*
X116990457Y-29524919D01*
X116958521Y-29502773D01*
X116928067Y-29479171D01*
X116899109Y-29454100D01*
X116871647Y-29427560D01*
X116845681Y-29399550D01*
X116821211Y-29370071D01*
X116798236Y-29339123D01*
X116776758Y-29306705D01*
X116756776Y-29272818D01*
X116738744Y-29237275D01*
X116723116Y-29200316D01*
X116709893Y-29161942D01*
X116699074Y-29122151D01*
X116690659Y-29080945D01*
X116684648Y-29038322D01*
X116681042Y-28994284D01*
X116679840Y-28948830D01*
X116680471Y-28912148D01*
X116681700Y-28888991D01*
X117326106Y-28888991D01*
X117328676Y-28924739D01*
X117337558Y-28960336D01*
X117352785Y-28991591D01*
X117358591Y-29000121D01*
X117381064Y-29026735D01*
X117407878Y-29051012D01*
X117435722Y-29070862D01*
X117445785Y-29077058D01*
X117477777Y-29093910D01*
X117512203Y-29107922D01*
X117549063Y-29119095D01*
X117570593Y-29124074D01*
X117605749Y-29130432D01*
X117641118Y-29134974D01*
X117676702Y-29137699D01*
X117712498Y-29138607D01*
X117748643Y-29138133D01*
X117783558Y-29136710D01*
X117833627Y-29132798D01*
X117880931Y-29126753D01*
X117925470Y-29118573D01*
X117967244Y-29108260D01*
X118006253Y-29095813D01*
X118042497Y-29081232D01*
X118075977Y-29064517D01*
X118106691Y-29045669D01*
X118134641Y-29024686D01*
X118143343Y-29017218D01*
X118175400Y-28985255D01*
X118203182Y-28950486D01*
X118226691Y-28912913D01*
X118245925Y-28872535D01*
X118260885Y-28829352D01*
X118269300Y-28795123D01*
X118275310Y-28759317D01*
X118278917Y-28721934D01*
X118280119Y-28682972D01*
X118280119Y-28591503D01*
X118184376Y-28591503D01*
X118145465Y-28591733D01*
X118105135Y-28592421D01*
X118063386Y-28593569D01*
X118028965Y-28594818D01*
X117993636Y-28596361D01*
X117957398Y-28598197D01*
X117920252Y-28600328D01*
X117910824Y-28600906D01*
X117873504Y-28603417D01*
X117836772Y-28606677D01*
X117800628Y-28610684D01*
X117765072Y-28615439D01*
X117730103Y-28620942D01*
X117695722Y-28627193D01*
X117661929Y-28634192D01*
X117628723Y-28641939D01*
X117588711Y-28652470D01*
X117550952Y-28664295D01*
X117515447Y-28677415D01*
X117482197Y-28691828D01*
X117451200Y-28707535D01*
X117416979Y-28728091D01*
X117411591Y-28731698D01*
X117382540Y-28754940D01*
X117359499Y-28781066D01*
X117340215Y-28815193D01*
X117329112Y-28853247D01*
X117326106Y-28888991D01*
X116681700Y-28888991D01*
X116682364Y-28876472D01*
X116685520Y-28841803D01*
X116691691Y-28797144D01*
X116700106Y-28754274D01*
X116710765Y-28713195D01*
X116723667Y-28673905D01*
X116738814Y-28636405D01*
X116751647Y-28609455D01*
X116770347Y-28574927D01*
X116790543Y-28541868D01*
X116812235Y-28510279D01*
X116835422Y-28480159D01*
X116860106Y-28451508D01*
X116886286Y-28424326D01*
X116913962Y-28398614D01*
X116943133Y-28374371D01*
X116973614Y-28351277D01*
X117005217Y-28329438D01*
X117037942Y-28308855D01*
X117071788Y-28289527D01*
X117106757Y-28271455D01*
X117142848Y-28254639D01*
X117180060Y-28239078D01*
X117218395Y-28224772D01*
X117257665Y-28211322D01*
X117297255Y-28198753D01*
X117337166Y-28187065D01*
X117377397Y-28176260D01*
X117417949Y-28166335D01*
X117458822Y-28157293D01*
X117500015Y-28149131D01*
X117541528Y-28141852D01*
X117583429Y-28135133D01*
X117625357Y-28129083D01*
X117667312Y-28123700D01*
X117709293Y-28118985D01*
X117751301Y-28114937D01*
X117793335Y-28111558D01*
X117835396Y-28108847D01*
X117877484Y-28106803D01*
X117919279Y-28105000D01*
X117960458Y-28103437D01*
X118001024Y-28102115D01*
X118040975Y-28101033D01*
X118080311Y-28100191D01*
X118119033Y-28099590D01*
X118157141Y-28099230D01*
X118194634Y-28099109D01*
X118315168Y-28099109D01*
X118315168Y-28070899D01*
X118312937Y-28028424D01*
X118306245Y-27988620D01*
X118295092Y-27951487D01*
X118279478Y-27917026D01*
X118259402Y-27885237D01*
X118234865Y-27856118D01*
X118205867Y-27829671D01*
X118172408Y-27805896D01*
X118135369Y-27784859D01*
X118095632Y-27766626D01*
X118053196Y-27751199D01*
X118019599Y-27741469D01*
X117984484Y-27733317D01*
X117947852Y-27726743D01*
X117909702Y-27721747D01*
X117870034Y-27718328D01*
X117828848Y-27716487D01*
X117800548Y-27716137D01*
X117755415Y-27717152D01*
X117711056Y-27720197D01*
X117667472Y-27725273D01*
X117624663Y-27732379D01*
X117582628Y-27741515D01*
X117541368Y-27752681D01*
X117500883Y-27765878D01*
X117461173Y-27781105D01*
X117422210Y-27798135D01*
X117383969Y-27817169D01*
X117346449Y-27838206D01*
X117309650Y-27861247D01*
X117273573Y-27886292D01*
X117238217Y-27913340D01*
X117203582Y-27942391D01*
X117178079Y-27965495D01*
X117169669Y-27973446D01*
X116822600Y-27618684D01*
X116850048Y-27588170D01*
X116877898Y-27558817D01*
X116906148Y-27530627D01*
X116934799Y-27503600D01*
X116963850Y-27477734D01*
X116993302Y-27453030D01*
X117023155Y-27429488D01*
X117053409Y-27407108D01*
X117084064Y-27385891D01*
X117115119Y-27365835D01*
X117146574Y-27346942D01*
X117178431Y-27329210D01*
X117210688Y-27312641D01*
X117243346Y-27297233D01*
X117276405Y-27282988D01*
X117309864Y-27269905D01*
X117343587Y-27257690D01*
X117377437Y-27246263D01*
X117411414Y-27235624D01*
X117445518Y-27225773D01*
X117479749Y-27216711D01*
X117514106Y-27208436D01*
X117548591Y-27200949D01*
X117583202Y-27194251D01*
X117617941Y-27188340D01*
X117652806Y-27183218D01*
X117687798Y-27178883D01*
X117722917Y-27175337D01*
X117758163Y-27172579D01*
X117793536Y-27170609D01*
X117829035Y-27169427D01*
X117864662Y-27169033D01*
X117911888Y-27169544D01*
G37*
G36*
X119476909Y-25853419D02*
G01*
X120122321Y-25853419D01*
X120122321Y-29631001D01*
X119476909Y-29631001D01*
X119476909Y-25853419D01*
G37*
G36*
X120752345Y-25853419D02*
G01*
X121397757Y-25853419D01*
X121397757Y-29631001D01*
X120752345Y-29631001D01*
X120752345Y-25853419D01*
G37*
G36*
X122018378Y-29280512D02*
G01*
X122020314Y-29238731D01*
X122026125Y-29198446D01*
X122035809Y-29159658D01*
X122049366Y-29122365D01*
X122066797Y-29086568D01*
X122088101Y-29052267D01*
X122113279Y-29019462D01*
X122142331Y-28988153D01*
X122174094Y-28959302D01*
X122207406Y-28934298D01*
X122242268Y-28913140D01*
X122278680Y-28895830D01*
X122316640Y-28882366D01*
X122356150Y-28872749D01*
X122397210Y-28866978D01*
X122439819Y-28865055D01*
X122481252Y-28866885D01*
X122521350Y-28872375D01*
X122560112Y-28881524D01*
X122597539Y-28894334D01*
X122633629Y-28910803D01*
X122668384Y-28930932D01*
X122701804Y-28954721D01*
X122733887Y-28982169D01*
X122763540Y-29012289D01*
X122789239Y-29044093D01*
X122810984Y-29077579D01*
X122828775Y-29112748D01*
X122842613Y-29149600D01*
X122852498Y-29188135D01*
X122858428Y-29228353D01*
X122860405Y-29270254D01*
X122858468Y-29312048D01*
X122852658Y-29352373D01*
X122842974Y-29391228D01*
X122829417Y-29428615D01*
X122811986Y-29464532D01*
X122790681Y-29498980D01*
X122765503Y-29531958D01*
X122736452Y-29563467D01*
X122704702Y-29592118D01*
X122671430Y-29616949D01*
X122636635Y-29637960D01*
X122600317Y-29655150D01*
X122562476Y-29668520D01*
X122523113Y-29678071D01*
X122482227Y-29683801D01*
X122439819Y-29685711D01*
X122403161Y-29684156D01*
X122367240Y-29679493D01*
X122332055Y-29671721D01*
X122297606Y-29660840D01*
X122278252Y-29653227D01*
X122245866Y-29638366D01*
X122215280Y-29621460D01*
X122186494Y-29602509D01*
X122155800Y-29578346D01*
X122144896Y-29568596D01*
X122117647Y-29540760D01*
X122096084Y-29514212D01*
X122076648Y-29485619D01*
X122059339Y-29454981D01*
X122052572Y-29441224D01*
X122039248Y-29407821D01*
X122029197Y-29373437D01*
X122022418Y-29338071D01*
X122018912Y-29301723D01*
X122018378Y-29280512D01*
G37*
G36*
X123468203Y-27223743D02*
G01*
X124083695Y-27223743D01*
X124066598Y-27635781D01*
X124056340Y-27629797D01*
X124070743Y-27595887D01*
X124087024Y-27562758D01*
X124105184Y-27530410D01*
X124125222Y-27498844D01*
X124147139Y-27468060D01*
X124170933Y-27438057D01*
X124196606Y-27408835D01*
X124224158Y-27380394D01*
X124253587Y-27352735D01*
X124284896Y-27325857D01*
X124306811Y-27308373D01*
X124341422Y-27283471D01*
X124378258Y-27261019D01*
X124417317Y-27241016D01*
X124458600Y-27223463D01*
X124502108Y-27208358D01*
X124547839Y-27195703D01*
X124595794Y-27185498D01*
X124645973Y-27177741D01*
X124680661Y-27173931D01*
X124716338Y-27171210D01*
X124753003Y-27169577D01*
X124790656Y-27169033D01*
X124835386Y-27169746D01*
X124878853Y-27171888D01*
X124921058Y-27175456D01*
X124962000Y-27180453D01*
X125001681Y-27186877D01*
X125040099Y-27194728D01*
X125077255Y-27204007D01*
X125113148Y-27214714D01*
X125147780Y-27226848D01*
X125181149Y-27240409D01*
X125202694Y-27250243D01*
X125234187Y-27265768D01*
X125264554Y-27282210D01*
X125303289Y-27305558D01*
X125340021Y-27330536D01*
X125374749Y-27357143D01*
X125407474Y-27385380D01*
X125438195Y-27415246D01*
X125466913Y-27446742D01*
X125480520Y-27463101D01*
X125506473Y-27496627D01*
X125530475Y-27531382D01*
X125552528Y-27567366D01*
X125572630Y-27604579D01*
X125590782Y-27643020D01*
X125606984Y-27682691D01*
X125621236Y-27723590D01*
X125633538Y-27765718D01*
X125644357Y-27808674D01*
X125653734Y-27852058D01*
X125661668Y-27895869D01*
X125668160Y-27940107D01*
X125673209Y-27984773D01*
X125676815Y-28029867D01*
X125678979Y-28075387D01*
X125679655Y-28109808D01*
X125679700Y-28121335D01*
X125679700Y-29631001D01*
X125033434Y-29631001D01*
X125033434Y-28426517D01*
X125033103Y-28389892D01*
X125032111Y-28351824D01*
X125030458Y-28312314D01*
X125028144Y-28271362D01*
X125025711Y-28236132D01*
X125024030Y-28214514D01*
X125020340Y-28178621D01*
X125015148Y-28143605D01*
X125008453Y-28109465D01*
X125000255Y-28076202D01*
X124988434Y-28037443D01*
X124974449Y-27999947D01*
X124957910Y-27963963D01*
X124938425Y-27930383D01*
X124915995Y-27899208D01*
X124890620Y-27870437D01*
X124862300Y-27844070D01*
X124852205Y-27835816D01*
X124819557Y-27813736D01*
X124782522Y-27796225D01*
X124748307Y-27785122D01*
X124711045Y-27777192D01*
X124670736Y-27772433D01*
X124636295Y-27770910D01*
X124627380Y-27770847D01*
X124592825Y-27771568D01*
X124551623Y-27774498D01*
X124512633Y-27779683D01*
X124475855Y-27787121D01*
X124441290Y-27796813D01*
X124408936Y-27808759D01*
X124390586Y-27817009D01*
X124356115Y-27835141D01*
X124323868Y-27855557D01*
X124293845Y-27878258D01*
X124266045Y-27903242D01*
X124240470Y-27930510D01*
X124232439Y-27940107D01*
X124210240Y-27970121D01*
X124190445Y-28001817D01*
X124173054Y-28035196D01*
X124158067Y-28070258D01*
X124145485Y-28107003D01*
X124141825Y-28119626D01*
X124132238Y-28158164D01*
X124124635Y-28197484D01*
X124119015Y-28237585D01*
X124115378Y-28278468D01*
X124113863Y-28313133D01*
X124113615Y-28334193D01*
X124113615Y-29631001D01*
X123468203Y-29631001D01*
X123468203Y-27223743D01*
G37*
G36*
X127520084Y-27169829D02*
G01*
X127566240Y-27172218D01*
X127611646Y-27176200D01*
X127656300Y-27181775D01*
X127700203Y-27188943D01*
X127743355Y-27197703D01*
X127785755Y-27208057D01*
X127827404Y-27220003D01*
X127868301Y-27233542D01*
X127908448Y-27248674D01*
X127934794Y-27259647D01*
X127973531Y-27277190D01*
X128011200Y-27296161D01*
X128047802Y-27316560D01*
X128083338Y-27338386D01*
X128117807Y-27361640D01*
X128151208Y-27386321D01*
X128183543Y-27412430D01*
X128214811Y-27439967D01*
X128245012Y-27468930D01*
X128274146Y-27499322D01*
X128292976Y-27520376D01*
X128320440Y-27552964D01*
X128346732Y-27586934D01*
X128371851Y-27622287D01*
X128395799Y-27659022D01*
X128418574Y-27697140D01*
X128440178Y-27736640D01*
X128460609Y-27777522D01*
X128479868Y-27819787D01*
X128497955Y-27863435D01*
X128514870Y-27908464D01*
X128525496Y-27939252D01*
X128540314Y-27986374D01*
X128553676Y-28034772D01*
X128565579Y-28084448D01*
X128572705Y-28118274D01*
X128579183Y-28152669D01*
X128585014Y-28187631D01*
X128590196Y-28223160D01*
X128594731Y-28259258D01*
X128598618Y-28295923D01*
X128601857Y-28333155D01*
X128604448Y-28370956D01*
X128606392Y-28409324D01*
X128607687Y-28448260D01*
X128608335Y-28487763D01*
X128608416Y-28507728D01*
X128608416Y-28700924D01*
X126809812Y-28700924D01*
X126815569Y-28736081D01*
X126823867Y-28770066D01*
X126834703Y-28802880D01*
X126848080Y-28834521D01*
X126863995Y-28864990D01*
X126882451Y-28894287D01*
X126903445Y-28922412D01*
X126926980Y-28949365D01*
X126953053Y-28975145D01*
X126981667Y-28999754D01*
X127002153Y-29015509D01*
X127034535Y-29037508D01*
X127068210Y-29057343D01*
X127103177Y-29075014D01*
X127139437Y-29090522D01*
X127176988Y-29103865D01*
X127215832Y-29115045D01*
X127255968Y-29124061D01*
X127297397Y-29130913D01*
X127340118Y-29135602D01*
X127384131Y-29138126D01*
X127414191Y-29138607D01*
X127453653Y-29137833D01*
X127491899Y-29135511D01*
X127528927Y-29131642D01*
X127564738Y-29126225D01*
X127599332Y-29119260D01*
X127632708Y-29110747D01*
X127675317Y-29096990D01*
X127715762Y-29080480D01*
X127754044Y-29061220D01*
X127772373Y-29050557D01*
X127808423Y-29027516D01*
X127843913Y-29002419D01*
X127878842Y-28975264D01*
X127913209Y-28946052D01*
X127938617Y-28922793D01*
X127963709Y-28898377D01*
X127988485Y-28872805D01*
X128012946Y-28846075D01*
X128037092Y-28818188D01*
X128045070Y-28808635D01*
X128510963Y-29160833D01*
X128482302Y-29196894D01*
X128453381Y-29231558D01*
X128424199Y-29264828D01*
X128394757Y-29296701D01*
X128365054Y-29327178D01*
X128335091Y-29356260D01*
X128304868Y-29383946D01*
X128274383Y-29410235D01*
X128243639Y-29435130D01*
X128212634Y-29458628D01*
X128181368Y-29480731D01*
X128149843Y-29501437D01*
X128118056Y-29520748D01*
X128086009Y-29538663D01*
X128053702Y-29555183D01*
X128021134Y-29570306D01*
X127988339Y-29584281D01*
X127955351Y-29597354D01*
X127922169Y-29609526D01*
X127888793Y-29620796D01*
X127855223Y-29631164D01*
X127821460Y-29640631D01*
X127787503Y-29649196D01*
X127753352Y-29656860D01*
X127719008Y-29663622D01*
X127684470Y-29669482D01*
X127649739Y-29674441D01*
X127614813Y-29678498D01*
X127579694Y-29681654D01*
X127544382Y-29683908D01*
X127508875Y-29685260D01*
X127473175Y-29685711D01*
X127422628Y-29684922D01*
X127372607Y-29682555D01*
X127323112Y-29678611D01*
X127274142Y-29673089D01*
X127225699Y-29665988D01*
X127177781Y-29657311D01*
X127130390Y-29647055D01*
X127083524Y-29635221D01*
X127037184Y-29621810D01*
X126991371Y-29606821D01*
X126961120Y-29595952D01*
X126916484Y-29578461D01*
X126872974Y-29559647D01*
X126830591Y-29539512D01*
X126789335Y-29518053D01*
X126749207Y-29495273D01*
X126710205Y-29471170D01*
X126672330Y-29445745D01*
X126635583Y-29418998D01*
X126599962Y-29390928D01*
X126565468Y-29361536D01*
X126543099Y-29341206D01*
X126510566Y-29309685D01*
X126479325Y-29276992D01*
X126449377Y-29243127D01*
X126420721Y-29208090D01*
X126393358Y-29171881D01*
X126367287Y-29134500D01*
X126342508Y-29095946D01*
X126319021Y-29056221D01*
X126296827Y-29015323D01*
X126275925Y-28973254D01*
X126262708Y-28944556D01*
X126244375Y-28900500D01*
X126227846Y-28855528D01*
X126213120Y-28809639D01*
X126200197Y-28762834D01*
X126189077Y-28715111D01*
X126179761Y-28666473D01*
X126172247Y-28616917D01*
X126166537Y-28566445D01*
X126163732Y-28532288D01*
X126161729Y-28497723D01*
X126160527Y-28462751D01*
X126160126Y-28427372D01*
X126160527Y-28391996D01*
X126161729Y-28357034D01*
X126163732Y-28322486D01*
X126166537Y-28288352D01*
X126172247Y-28237927D01*
X126179761Y-28188435D01*
X126186401Y-28153820D01*
X126810667Y-28153820D01*
X127962150Y-28153820D01*
X127960078Y-28118968D01*
X127953366Y-28074275D01*
X127942140Y-28031613D01*
X127926399Y-27990981D01*
X127906143Y-27952379D01*
X127881372Y-27915807D01*
X127852087Y-27881266D01*
X127827160Y-27856693D01*
X127809131Y-27840945D01*
X127780168Y-27818640D01*
X127749055Y-27798529D01*
X127715793Y-27780613D01*
X127680383Y-27764890D01*
X127642824Y-27751361D01*
X127603116Y-27740026D01*
X127561259Y-27730884D01*
X127517254Y-27723937D01*
X127471099Y-27719184D01*
X127422796Y-27716624D01*
X127389400Y-27716137D01*
X127342422Y-27717256D01*
X127297337Y-27720615D01*
X127254145Y-27726212D01*
X127212847Y-27734048D01*
X127173442Y-27744124D01*
X127135930Y-27756438D01*
X127100312Y-27770991D01*
X127066587Y-27787784D01*
X127034756Y-27806815D01*
X127004818Y-27828085D01*
X126985911Y-27843509D01*
X126959386Y-27867880D01*
X126934950Y-27893227D01*
X126912603Y-27919552D01*
X126886056Y-27956170D01*
X126863222Y-27994525D01*
X126844102Y-28034616D01*
X126828694Y-28076443D01*
X126817000Y-28120007D01*
X126810667Y-28153820D01*
X126186401Y-28153820D01*
X126189077Y-28139873D01*
X126200197Y-28092244D01*
X126213120Y-28045546D01*
X126227846Y-27999780D01*
X126244375Y-27954945D01*
X126262708Y-27911042D01*
X126282748Y-27868039D01*
X126304081Y-27826222D01*
X126326706Y-27785592D01*
X126350624Y-27746150D01*
X126375834Y-27707894D01*
X126402336Y-27670826D01*
X126430130Y-27634945D01*
X126459216Y-27600251D01*
X126489595Y-27566744D01*
X126521267Y-27534424D01*
X126543099Y-27513537D01*
X126576841Y-27483263D01*
X126611710Y-27454312D01*
X126647707Y-27426683D01*
X126684830Y-27400376D01*
X126723080Y-27375392D01*
X126762458Y-27351730D01*
X126802962Y-27329390D01*
X126844593Y-27308373D01*
X126887352Y-27288678D01*
X126931237Y-27270306D01*
X126961120Y-27258792D01*
X127006583Y-27242751D01*
X127052572Y-27228288D01*
X127099088Y-27215402D01*
X127146128Y-27204095D01*
X127193695Y-27194365D01*
X127241788Y-27186213D01*
X127290407Y-27179639D01*
X127339552Y-27174643D01*
X127389222Y-27171224D01*
X127439419Y-27169383D01*
X127473175Y-27169033D01*
X127520084Y-27169829D01*
G37*
G36*
X128813580Y-27825557D02*
G01*
X128813580Y-27223743D01*
X129300845Y-27223743D01*
X129300845Y-26539863D01*
X129947111Y-26539863D01*
X129947111Y-27223743D01*
X130596797Y-27223743D01*
X130596797Y-27825557D01*
X129947111Y-27825557D01*
X129947111Y-28755634D01*
X129948046Y-28793448D01*
X129950851Y-28829098D01*
X129956987Y-28870617D01*
X129966045Y-28908756D01*
X129978024Y-28943513D01*
X129992926Y-28974890D01*
X130006951Y-28997557D01*
X130033688Y-29026899D01*
X130062535Y-29046713D01*
X130097351Y-29062312D01*
X130138136Y-29073694D01*
X130175061Y-29079765D01*
X130215807Y-29083138D01*
X130248873Y-29083897D01*
X130283894Y-29083610D01*
X130320143Y-29082751D01*
X130357619Y-29081319D01*
X130396321Y-29079315D01*
X130418988Y-29077913D01*
X130453369Y-29075128D01*
X130492873Y-29070511D01*
X130531722Y-29064422D01*
X130569916Y-29056860D01*
X130596797Y-29050557D01*
X130596797Y-29596807D01*
X130560662Y-29612739D01*
X130523317Y-29626877D01*
X130484761Y-29639219D01*
X130444994Y-29649767D01*
X130404018Y-29658520D01*
X130361830Y-29665478D01*
X130344616Y-29667759D01*
X130302400Y-29672931D01*
X130261769Y-29677226D01*
X130222725Y-29680644D01*
X130185267Y-29683186D01*
X130149395Y-29684852D01*
X130115109Y-29685641D01*
X130101839Y-29685711D01*
X130057535Y-29685253D01*
X130014704Y-29683878D01*
X129973346Y-29681586D01*
X129933460Y-29678378D01*
X129895047Y-29674253D01*
X129858107Y-29669212D01*
X129822639Y-29663254D01*
X129788643Y-29656379D01*
X129745607Y-29645787D01*
X129705189Y-29633565D01*
X129667094Y-29619847D01*
X129631030Y-29604340D01*
X129596997Y-29587043D01*
X129564993Y-29567955D01*
X129535020Y-29547078D01*
X129507077Y-29524411D01*
X129481164Y-29499955D01*
X129457282Y-29473708D01*
X129435524Y-29445805D01*
X129415555Y-29416380D01*
X129397376Y-29385431D01*
X129380987Y-29352961D01*
X129366388Y-29318967D01*
X129353578Y-29283451D01*
X129342559Y-29246412D01*
X129333329Y-29207850D01*
X129325715Y-29167805D01*
X129319117Y-29126318D01*
X129313534Y-29083389D01*
X129308966Y-29039017D01*
X129306206Y-29004791D01*
X129304017Y-28969754D01*
X129302399Y-28933905D01*
X129301352Y-28897245D01*
X129300876Y-28859774D01*
X129300845Y-28847103D01*
X129300845Y-27825557D01*
X128813580Y-27825557D01*
G37*
X140183082Y-139175400D02*
X140397368Y-139246828D01*
X140397368Y-139246828D02*
X140754510Y-139246828D01*
X140754510Y-139246828D02*
X140897368Y-139175400D01*
X140897368Y-139175400D02*
X140968796Y-139103971D01*
X140968796Y-139103971D02*
X141040225Y-138961114D01*
X141040225Y-138961114D02*
X141040225Y-138818257D01*
X141040225Y-138818257D02*
X140968796Y-138675400D01*
X140968796Y-138675400D02*
X140897368Y-138603971D01*
X140897368Y-138603971D02*
X140754510Y-138532542D01*
X140754510Y-138532542D02*
X140468796Y-138461114D01*
X140468796Y-138461114D02*
X140325939Y-138389685D01*
X140325939Y-138389685D02*
X140254510Y-138318257D01*
X140254510Y-138318257D02*
X140183082Y-138175400D01*
X140183082Y-138175400D02*
X140183082Y-138032542D01*
X140183082Y-138032542D02*
X140254510Y-137889685D01*
X140254510Y-137889685D02*
X140325939Y-137818257D01*
X140325939Y-137818257D02*
X140468796Y-137746828D01*
X140468796Y-137746828D02*
X140825939Y-137746828D01*
X140825939Y-137746828D02*
X141040225Y-137818257D01*
X141611653Y-138818257D02*
X142325939Y-138818257D01*
X141468796Y-139246828D02*
X141968796Y-137746828D01*
X141968796Y-137746828D02*
X142468796Y-139246828D01*
X142754510Y-137746828D02*
X143611653Y-137746828D01*
X143183081Y-139246828D02*
X143183081Y-137746828D01*
X144040224Y-138818257D02*
X144754510Y-138818257D01*
X143897367Y-139246828D02*
X144397367Y-137746828D01*
X144397367Y-137746828D02*
X144897367Y-139246828D01*
X145040224Y-139389685D02*
X146183081Y-139389685D01*
X147183081Y-138246828D02*
X147183081Y-139246828D01*
X146825938Y-137675400D02*
X146468795Y-138746828D01*
X146468795Y-138746828D02*
X147397366Y-138746828D01*
X104877082Y-139175400D02*
X105091368Y-139246828D01*
X105091368Y-139246828D02*
X105448510Y-139246828D01*
X105448510Y-139246828D02*
X105591368Y-139175400D01*
X105591368Y-139175400D02*
X105662796Y-139103971D01*
X105662796Y-139103971D02*
X105734225Y-138961114D01*
X105734225Y-138961114D02*
X105734225Y-138818257D01*
X105734225Y-138818257D02*
X105662796Y-138675400D01*
X105662796Y-138675400D02*
X105591368Y-138603971D01*
X105591368Y-138603971D02*
X105448510Y-138532542D01*
X105448510Y-138532542D02*
X105162796Y-138461114D01*
X105162796Y-138461114D02*
X105019939Y-138389685D01*
X105019939Y-138389685D02*
X104948510Y-138318257D01*
X104948510Y-138318257D02*
X104877082Y-138175400D01*
X104877082Y-138175400D02*
X104877082Y-138032542D01*
X104877082Y-138032542D02*
X104948510Y-137889685D01*
X104948510Y-137889685D02*
X105019939Y-137818257D01*
X105019939Y-137818257D02*
X105162796Y-137746828D01*
X105162796Y-137746828D02*
X105519939Y-137746828D01*
X105519939Y-137746828D02*
X105734225Y-137818257D01*
X106305653Y-138818257D02*
X107019939Y-138818257D01*
X106162796Y-139246828D02*
X106662796Y-137746828D01*
X106662796Y-137746828D02*
X107162796Y-139246828D01*
X107448510Y-137746828D02*
X108305653Y-137746828D01*
X107877081Y-139246828D02*
X107877081Y-137746828D01*
X108734224Y-138818257D02*
X109448510Y-138818257D01*
X108591367Y-139246828D02*
X109091367Y-137746828D01*
X109091367Y-137746828D02*
X109591367Y-139246828D01*
X109734224Y-139389685D02*
X110877081Y-139389685D01*
X111091366Y-137746828D02*
X112019938Y-137746828D01*
X112019938Y-137746828D02*
X111519938Y-138318257D01*
X111519938Y-138318257D02*
X111734223Y-138318257D01*
X111734223Y-138318257D02*
X111877081Y-138389685D01*
X111877081Y-138389685D02*
X111948509Y-138461114D01*
X111948509Y-138461114D02*
X112019938Y-138603971D01*
X112019938Y-138603971D02*
X112019938Y-138961114D01*
X112019938Y-138961114D02*
X111948509Y-139103971D01*
X111948509Y-139103971D02*
X111877081Y-139175400D01*
X111877081Y-139175400D02*
X111734223Y-139246828D01*
X111734223Y-139246828D02*
X111305652Y-139246828D01*
X111305652Y-139246828D02*
X111162795Y-139175400D01*
X111162795Y-139175400D02*
X111091366Y-139103971D01*
X69317082Y-139175400D02*
X69531368Y-139246828D01*
X69531368Y-139246828D02*
X69888510Y-139246828D01*
X69888510Y-139246828D02*
X70031368Y-139175400D01*
X70031368Y-139175400D02*
X70102796Y-139103971D01*
X70102796Y-139103971D02*
X70174225Y-138961114D01*
X70174225Y-138961114D02*
X70174225Y-138818257D01*
X70174225Y-138818257D02*
X70102796Y-138675400D01*
X70102796Y-138675400D02*
X70031368Y-138603971D01*
X70031368Y-138603971D02*
X69888510Y-138532542D01*
X69888510Y-138532542D02*
X69602796Y-138461114D01*
X69602796Y-138461114D02*
X69459939Y-138389685D01*
X69459939Y-138389685D02*
X69388510Y-138318257D01*
X69388510Y-138318257D02*
X69317082Y-138175400D01*
X69317082Y-138175400D02*
X69317082Y-138032542D01*
X69317082Y-138032542D02*
X69388510Y-137889685D01*
X69388510Y-137889685D02*
X69459939Y-137818257D01*
X69459939Y-137818257D02*
X69602796Y-137746828D01*
X69602796Y-137746828D02*
X69959939Y-137746828D01*
X69959939Y-137746828D02*
X70174225Y-137818257D01*
X70745653Y-138818257D02*
X71459939Y-138818257D01*
X70602796Y-139246828D02*
X71102796Y-137746828D01*
X71102796Y-137746828D02*
X71602796Y-139246828D01*
X71888510Y-137746828D02*
X72745653Y-137746828D01*
X72317081Y-139246828D02*
X72317081Y-137746828D01*
X73174224Y-138818257D02*
X73888510Y-138818257D01*
X73031367Y-139246828D02*
X73531367Y-137746828D01*
X73531367Y-137746828D02*
X74031367Y-139246828D01*
X74174224Y-139389685D02*
X75317081Y-139389685D01*
X75602795Y-137889685D02*
X75674223Y-137818257D01*
X75674223Y-137818257D02*
X75817081Y-137746828D01*
X75817081Y-137746828D02*
X76174223Y-137746828D01*
X76174223Y-137746828D02*
X76317081Y-137818257D01*
X76317081Y-137818257D02*
X76388509Y-137889685D01*
X76388509Y-137889685D02*
X76459938Y-138032542D01*
X76459938Y-138032542D02*
X76459938Y-138175400D01*
X76459938Y-138175400D02*
X76388509Y-138389685D01*
X76388509Y-138389685D02*
X75531366Y-139246828D01*
X75531366Y-139246828D02*
X76459938Y-139246828D01*
X34011082Y-139175400D02*
X34225368Y-139246828D01*
X34225368Y-139246828D02*
X34582510Y-139246828D01*
X34582510Y-139246828D02*
X34725368Y-139175400D01*
X34725368Y-139175400D02*
X34796796Y-139103971D01*
X34796796Y-139103971D02*
X34868225Y-138961114D01*
X34868225Y-138961114D02*
X34868225Y-138818257D01*
X34868225Y-138818257D02*
X34796796Y-138675400D01*
X34796796Y-138675400D02*
X34725368Y-138603971D01*
X34725368Y-138603971D02*
X34582510Y-138532542D01*
X34582510Y-138532542D02*
X34296796Y-138461114D01*
X34296796Y-138461114D02*
X34153939Y-138389685D01*
X34153939Y-138389685D02*
X34082510Y-138318257D01*
X34082510Y-138318257D02*
X34011082Y-138175400D01*
X34011082Y-138175400D02*
X34011082Y-138032542D01*
X34011082Y-138032542D02*
X34082510Y-137889685D01*
X34082510Y-137889685D02*
X34153939Y-137818257D01*
X34153939Y-137818257D02*
X34296796Y-137746828D01*
X34296796Y-137746828D02*
X34653939Y-137746828D01*
X34653939Y-137746828D02*
X34868225Y-137818257D01*
X35439653Y-138818257D02*
X36153939Y-138818257D01*
X35296796Y-139246828D02*
X35796796Y-137746828D01*
X35796796Y-137746828D02*
X36296796Y-139246828D01*
X36582510Y-137746828D02*
X37439653Y-137746828D01*
X37011081Y-139246828D02*
X37011081Y-137746828D01*
X37868224Y-138818257D02*
X38582510Y-138818257D01*
X37725367Y-139246828D02*
X38225367Y-137746828D01*
X38225367Y-137746828D02*
X38725367Y-139246828D01*
X38868224Y-139389685D02*
X40011081Y-139389685D01*
X41153938Y-139246828D02*
X40296795Y-139246828D01*
X40725366Y-139246828D02*
X40725366Y-137746828D01*
X40725366Y-137746828D02*
X40582509Y-137961114D01*
X40582509Y-137961114D02*
X40439652Y-138103971D01*
X40439652Y-138103971D02*
X40296795Y-138175400D01*
D11*
X134378000Y-34000000D02*
G75*
G03*
X133378000Y-35000000I0J-1000000D01*
G01*
X153698000Y-35000000D02*
G75*
G03*
X152698000Y-34000000I-1000000J0D01*
G01*
X134378000Y-34000000D02*
X152698000Y-34000000D01*
X133378000Y-134600000D02*
G75*
G03*
X134378000Y-135600000I1000000J0D01*
G01*
X133378000Y-134600000D02*
X133378000Y-35000000D01*
X152698000Y-135600000D02*
G75*
G03*
X153698000Y-134600000I0J1000000D01*
G01*
X153698000Y-35000000D02*
X153698000Y-134600000D01*
X152698000Y-135600000D02*
X134378000Y-135600000D01*
X97978000Y-134600000D02*
G75*
G03*
X98978000Y-135600000I1000000J0D01*
G01*
X117298000Y-135600000D02*
G75*
G03*
X118298000Y-134600000I0J1000000D01*
G01*
X117298000Y-135600000D02*
X98978000Y-135600000D01*
X98978000Y-34000000D02*
G75*
G03*
X97978000Y-35000000I0J-1000000D01*
G01*
X97978000Y-134600000D02*
X97978000Y-35000000D01*
X118298000Y-35000000D02*
G75*
G03*
X117298000Y-34000000I-1000000J0D01*
G01*
X118298000Y-35000000D02*
X118298000Y-134600000D01*
X98978000Y-34000000D02*
X117298000Y-34000000D01*
X63578000Y-34000000D02*
G75*
G03*
X62578000Y-35000000I0J-1000000D01*
G01*
X62578000Y-134600000D02*
G75*
G03*
X63578000Y-135600000I1000000J0D01*
G01*
X62578000Y-134600000D02*
X62578000Y-35000000D01*
X82898000Y-35000000D02*
G75*
G03*
X81898000Y-34000000I-1000000J0D01*
G01*
X63578000Y-34000000D02*
X81898000Y-34000000D01*
X81898000Y-135600000D02*
G75*
G03*
X82898000Y-134600000I0J1000000D01*
G01*
X81898000Y-135600000D02*
X63578000Y-135600000D01*
X82898000Y-35000000D02*
X82898000Y-134600000D01*
X27178000Y-134600000D02*
G75*
G03*
X28178000Y-135600000I1000000J0D01*
G01*
X46498000Y-135600000D02*
G75*
G03*
X47498000Y-134600000I0J1000000D01*
G01*
X46498000Y-135600000D02*
X28178000Y-135600000D01*
X28178000Y-34000000D02*
G75*
G03*
X27178000Y-35000000I0J-1000000D01*
G01*
X27178000Y-134600000D02*
X27178000Y-35000000D01*
X47498000Y-35000000D02*
G75*
G03*
X46498000Y-34000000I-1000000J0D01*
G01*
X47498000Y-35000000D02*
X47498000Y-134600000D01*
X28178000Y-34000000D02*
X46498000Y-34000000D01*
D12*
X66415232Y-132702857D02*
X66415232Y-129702857D01*
X66415232Y-131131428D02*
X68129518Y-131131428D01*
X68129518Y-132702857D02*
X68129518Y-129702857D01*
X69558089Y-132702857D02*
X69558089Y-129702857D01*
X69558089Y-129702857D02*
X70272375Y-129702857D01*
X70272375Y-129702857D02*
X70700946Y-129845714D01*
X70700946Y-129845714D02*
X70986661Y-130131428D01*
X70986661Y-130131428D02*
X71129518Y-130417142D01*
X71129518Y-130417142D02*
X71272375Y-130988571D01*
X71272375Y-130988571D02*
X71272375Y-131417142D01*
X71272375Y-131417142D02*
X71129518Y-131988571D01*
X71129518Y-131988571D02*
X70986661Y-132274285D01*
X70986661Y-132274285D02*
X70700946Y-132560000D01*
X70700946Y-132560000D02*
X70272375Y-132702857D01*
X70272375Y-132702857D02*
X69558089Y-132702857D01*
X72558089Y-132702857D02*
X72558089Y-129702857D01*
X72558089Y-129702857D02*
X73272375Y-129702857D01*
X73272375Y-129702857D02*
X73700946Y-129845714D01*
X73700946Y-129845714D02*
X73986661Y-130131428D01*
X73986661Y-130131428D02*
X74129518Y-130417142D01*
X74129518Y-130417142D02*
X74272375Y-130988571D01*
X74272375Y-130988571D02*
X74272375Y-131417142D01*
X74272375Y-131417142D02*
X74129518Y-131988571D01*
X74129518Y-131988571D02*
X73986661Y-132274285D01*
X73986661Y-132274285D02*
X73700946Y-132560000D01*
X73700946Y-132560000D02*
X73272375Y-132702857D01*
X73272375Y-132702857D02*
X72558089Y-132702857D01*
X74843804Y-132988571D02*
X77129518Y-132988571D01*
X77700946Y-129988571D02*
X77843803Y-129845714D01*
X77843803Y-129845714D02*
X78129518Y-129702857D01*
X78129518Y-129702857D02*
X78843803Y-129702857D01*
X78843803Y-129702857D02*
X79129518Y-129845714D01*
X79129518Y-129845714D02*
X79272375Y-129988571D01*
X79272375Y-129988571D02*
X79415232Y-130274285D01*
X79415232Y-130274285D02*
X79415232Y-130560000D01*
X79415232Y-130560000D02*
X79272375Y-130988571D01*
X79272375Y-130988571D02*
X77558089Y-132702857D01*
X77558089Y-132702857D02*
X79415232Y-132702857D01*
X31015232Y-132702857D02*
X31015232Y-129702857D01*
X31015232Y-131131428D02*
X32729518Y-131131428D01*
X32729518Y-132702857D02*
X32729518Y-129702857D01*
X34158089Y-132702857D02*
X34158089Y-129702857D01*
X34158089Y-129702857D02*
X34872375Y-129702857D01*
X34872375Y-129702857D02*
X35300946Y-129845714D01*
X35300946Y-129845714D02*
X35586661Y-130131428D01*
X35586661Y-130131428D02*
X35729518Y-130417142D01*
X35729518Y-130417142D02*
X35872375Y-130988571D01*
X35872375Y-130988571D02*
X35872375Y-131417142D01*
X35872375Y-131417142D02*
X35729518Y-131988571D01*
X35729518Y-131988571D02*
X35586661Y-132274285D01*
X35586661Y-132274285D02*
X35300946Y-132560000D01*
X35300946Y-132560000D02*
X34872375Y-132702857D01*
X34872375Y-132702857D02*
X34158089Y-132702857D01*
X37158089Y-132702857D02*
X37158089Y-129702857D01*
X37158089Y-129702857D02*
X37872375Y-129702857D01*
X37872375Y-129702857D02*
X38300946Y-129845714D01*
X38300946Y-129845714D02*
X38586661Y-130131428D01*
X38586661Y-130131428D02*
X38729518Y-130417142D01*
X38729518Y-130417142D02*
X38872375Y-130988571D01*
X38872375Y-130988571D02*
X38872375Y-131417142D01*
X38872375Y-131417142D02*
X38729518Y-131988571D01*
X38729518Y-131988571D02*
X38586661Y-132274285D01*
X38586661Y-132274285D02*
X38300946Y-132560000D01*
X38300946Y-132560000D02*
X37872375Y-132702857D01*
X37872375Y-132702857D02*
X37158089Y-132702857D01*
X39443804Y-132988571D02*
X41729518Y-132988571D01*
X44015232Y-132702857D02*
X42300946Y-132702857D01*
X43158089Y-132702857D02*
X43158089Y-129702857D01*
X43158089Y-129702857D02*
X42872375Y-130131428D01*
X42872375Y-130131428D02*
X42586660Y-130417142D01*
X42586660Y-130417142D02*
X42300946Y-130560000D01*
X137215232Y-132702857D02*
X137215232Y-129702857D01*
X137215232Y-131131428D02*
X138929518Y-131131428D01*
X138929518Y-132702857D02*
X138929518Y-129702857D01*
X140358089Y-132702857D02*
X140358089Y-129702857D01*
X140358089Y-129702857D02*
X141072375Y-129702857D01*
X141072375Y-129702857D02*
X141500946Y-129845714D01*
X141500946Y-129845714D02*
X141786661Y-130131428D01*
X141786661Y-130131428D02*
X141929518Y-130417142D01*
X141929518Y-130417142D02*
X142072375Y-130988571D01*
X142072375Y-130988571D02*
X142072375Y-131417142D01*
X142072375Y-131417142D02*
X141929518Y-131988571D01*
X141929518Y-131988571D02*
X141786661Y-132274285D01*
X141786661Y-132274285D02*
X141500946Y-132560000D01*
X141500946Y-132560000D02*
X141072375Y-132702857D01*
X141072375Y-132702857D02*
X140358089Y-132702857D01*
X143358089Y-132702857D02*
X143358089Y-129702857D01*
X143358089Y-129702857D02*
X144072375Y-129702857D01*
X144072375Y-129702857D02*
X144500946Y-129845714D01*
X144500946Y-129845714D02*
X144786661Y-130131428D01*
X144786661Y-130131428D02*
X144929518Y-130417142D01*
X144929518Y-130417142D02*
X145072375Y-130988571D01*
X145072375Y-130988571D02*
X145072375Y-131417142D01*
X145072375Y-131417142D02*
X144929518Y-131988571D01*
X144929518Y-131988571D02*
X144786661Y-132274285D01*
X144786661Y-132274285D02*
X144500946Y-132560000D01*
X144500946Y-132560000D02*
X144072375Y-132702857D01*
X144072375Y-132702857D02*
X143358089Y-132702857D01*
X145643804Y-132988571D02*
X147929518Y-132988571D01*
X149929518Y-130702857D02*
X149929518Y-132702857D01*
X149215232Y-129560000D02*
X148500946Y-131702857D01*
X148500946Y-131702857D02*
X150358089Y-131702857D01*
X101815232Y-132702857D02*
X101815232Y-129702857D01*
X101815232Y-131131428D02*
X103529518Y-131131428D01*
X103529518Y-132702857D02*
X103529518Y-129702857D01*
X104958089Y-132702857D02*
X104958089Y-129702857D01*
X104958089Y-129702857D02*
X105672375Y-129702857D01*
X105672375Y-129702857D02*
X106100946Y-129845714D01*
X106100946Y-129845714D02*
X106386661Y-130131428D01*
X106386661Y-130131428D02*
X106529518Y-130417142D01*
X106529518Y-130417142D02*
X106672375Y-130988571D01*
X106672375Y-130988571D02*
X106672375Y-131417142D01*
X106672375Y-131417142D02*
X106529518Y-131988571D01*
X106529518Y-131988571D02*
X106386661Y-132274285D01*
X106386661Y-132274285D02*
X106100946Y-132560000D01*
X106100946Y-132560000D02*
X105672375Y-132702857D01*
X105672375Y-132702857D02*
X104958089Y-132702857D01*
X107958089Y-132702857D02*
X107958089Y-129702857D01*
X107958089Y-129702857D02*
X108672375Y-129702857D01*
X108672375Y-129702857D02*
X109100946Y-129845714D01*
X109100946Y-129845714D02*
X109386661Y-130131428D01*
X109386661Y-130131428D02*
X109529518Y-130417142D01*
X109529518Y-130417142D02*
X109672375Y-130988571D01*
X109672375Y-130988571D02*
X109672375Y-131417142D01*
X109672375Y-131417142D02*
X109529518Y-131988571D01*
X109529518Y-131988571D02*
X109386661Y-132274285D01*
X109386661Y-132274285D02*
X109100946Y-132560000D01*
X109100946Y-132560000D02*
X108672375Y-132702857D01*
X108672375Y-132702857D02*
X107958089Y-132702857D01*
X110243804Y-132988571D02*
X112529518Y-132988571D01*
X112958089Y-129702857D02*
X114815232Y-129702857D01*
X114815232Y-129702857D02*
X113815232Y-130845714D01*
X113815232Y-130845714D02*
X114243803Y-130845714D01*
X114243803Y-130845714D02*
X114529518Y-130988571D01*
X114529518Y-130988571D02*
X114672375Y-131131428D01*
X114672375Y-131131428D02*
X114815232Y-131417142D01*
X114815232Y-131417142D02*
X114815232Y-132131428D01*
X114815232Y-132131428D02*
X114672375Y-132417142D01*
X114672375Y-132417142D02*
X114529518Y-132560000D01*
X114529518Y-132560000D02*
X114243803Y-132702857D01*
X114243803Y-132702857D02*
X113386660Y-132702857D01*
X113386660Y-132702857D02*
X113100946Y-132560000D01*
X113100946Y-132560000D02*
X112958089Y-132417142D01*
D13*
X149540419Y-66881333D02*
X150254704Y-66881333D01*
X150254704Y-66881333D02*
X150397561Y-66928952D01*
X150397561Y-66928952D02*
X150492800Y-67024190D01*
X150492800Y-67024190D02*
X150540419Y-67167047D01*
X150540419Y-67167047D02*
X150540419Y-67262285D01*
X149540419Y-66500380D02*
X149540419Y-65833714D01*
X149540419Y-65833714D02*
X150540419Y-66262285D01*
X114265419Y-66881333D02*
X114979704Y-66881333D01*
X114979704Y-66881333D02*
X115122561Y-66928952D01*
X115122561Y-66928952D02*
X115217800Y-67024190D01*
X115217800Y-67024190D02*
X115265419Y-67167047D01*
X115265419Y-67167047D02*
X115265419Y-67262285D01*
X114265419Y-65928952D02*
X114265419Y-66405142D01*
X114265419Y-66405142D02*
X114741609Y-66452761D01*
X114741609Y-66452761D02*
X114693990Y-66405142D01*
X114693990Y-66405142D02*
X114646371Y-66309904D01*
X114646371Y-66309904D02*
X114646371Y-66071809D01*
X114646371Y-66071809D02*
X114693990Y-65976571D01*
X114693990Y-65976571D02*
X114741609Y-65928952D01*
X114741609Y-65928952D02*
X114836847Y-65881333D01*
X114836847Y-65881333D02*
X115074942Y-65881333D01*
X115074942Y-65881333D02*
X115170180Y-65928952D01*
X115170180Y-65928952D02*
X115217800Y-65976571D01*
X115217800Y-65976571D02*
X115265419Y-66071809D01*
X115265419Y-66071809D02*
X115265419Y-66309904D01*
X115265419Y-66309904D02*
X115217800Y-66405142D01*
X115217800Y-66405142D02*
X115170180Y-66452761D01*
X78740419Y-66881333D02*
X79454704Y-66881333D01*
X79454704Y-66881333D02*
X79597561Y-66928952D01*
X79597561Y-66928952D02*
X79692800Y-67024190D01*
X79692800Y-67024190D02*
X79740419Y-67167047D01*
X79740419Y-67167047D02*
X79740419Y-67262285D01*
X78740419Y-66500380D02*
X78740419Y-65881333D01*
X78740419Y-65881333D02*
X79121371Y-66214666D01*
X79121371Y-66214666D02*
X79121371Y-66071809D01*
X79121371Y-66071809D02*
X79168990Y-65976571D01*
X79168990Y-65976571D02*
X79216609Y-65928952D01*
X79216609Y-65928952D02*
X79311847Y-65881333D01*
X79311847Y-65881333D02*
X79549942Y-65881333D01*
X79549942Y-65881333D02*
X79645180Y-65928952D01*
X79645180Y-65928952D02*
X79692800Y-65976571D01*
X79692800Y-65976571D02*
X79740419Y-66071809D01*
X79740419Y-66071809D02*
X79740419Y-66357523D01*
X79740419Y-66357523D02*
X79692800Y-66452761D01*
X79692800Y-66452761D02*
X79645180Y-66500380D01*
X43340419Y-66881333D02*
X44054704Y-66881333D01*
X44054704Y-66881333D02*
X44197561Y-66928952D01*
X44197561Y-66928952D02*
X44292800Y-67024190D01*
X44292800Y-67024190D02*
X44340419Y-67167047D01*
X44340419Y-67167047D02*
X44340419Y-67262285D01*
X44340419Y-65881333D02*
X44340419Y-66452761D01*
X44340419Y-66167047D02*
X43340419Y-66167047D01*
X43340419Y-66167047D02*
X43483276Y-66262285D01*
X43483276Y-66262285D02*
X43578514Y-66357523D01*
X43578514Y-66357523D02*
X43626133Y-66452761D01*
X37004666Y-148575419D02*
X37004666Y-149289704D01*
X37004666Y-149289704D02*
X36957047Y-149432561D01*
X36957047Y-149432561D02*
X36861809Y-149527800D01*
X36861809Y-149527800D02*
X36718952Y-149575419D01*
X36718952Y-149575419D02*
X36623714Y-149575419D01*
X37433238Y-148670657D02*
X37480857Y-148623038D01*
X37480857Y-148623038D02*
X37576095Y-148575419D01*
X37576095Y-148575419D02*
X37814190Y-148575419D01*
X37814190Y-148575419D02*
X37909428Y-148623038D01*
X37909428Y-148623038D02*
X37957047Y-148670657D01*
X37957047Y-148670657D02*
X38004666Y-148765895D01*
X38004666Y-148765895D02*
X38004666Y-148861133D01*
X38004666Y-148861133D02*
X37957047Y-149003990D01*
X37957047Y-149003990D02*
X37385619Y-149575419D01*
X37385619Y-149575419D02*
X38004666Y-149575419D01*
X107804666Y-148575419D02*
X107804666Y-149289704D01*
X107804666Y-149289704D02*
X107757047Y-149432561D01*
X107757047Y-149432561D02*
X107661809Y-149527800D01*
X107661809Y-149527800D02*
X107518952Y-149575419D01*
X107518952Y-149575419D02*
X107423714Y-149575419D01*
X108709428Y-148575419D02*
X108518952Y-148575419D01*
X108518952Y-148575419D02*
X108423714Y-148623038D01*
X108423714Y-148623038D02*
X108376095Y-148670657D01*
X108376095Y-148670657D02*
X108280857Y-148813514D01*
X108280857Y-148813514D02*
X108233238Y-149003990D01*
X108233238Y-149003990D02*
X108233238Y-149384942D01*
X108233238Y-149384942D02*
X108280857Y-149480180D01*
X108280857Y-149480180D02*
X108328476Y-149527800D01*
X108328476Y-149527800D02*
X108423714Y-149575419D01*
X108423714Y-149575419D02*
X108614190Y-149575419D01*
X108614190Y-149575419D02*
X108709428Y-149527800D01*
X108709428Y-149527800D02*
X108757047Y-149480180D01*
X108757047Y-149480180D02*
X108804666Y-149384942D01*
X108804666Y-149384942D02*
X108804666Y-149146847D01*
X108804666Y-149146847D02*
X108757047Y-149051609D01*
X108757047Y-149051609D02*
X108709428Y-149003990D01*
X108709428Y-149003990D02*
X108614190Y-148956371D01*
X108614190Y-148956371D02*
X108423714Y-148956371D01*
X108423714Y-148956371D02*
X108328476Y-149003990D01*
X108328476Y-149003990D02*
X108280857Y-149051609D01*
X108280857Y-149051609D02*
X108233238Y-149146847D01*
X72404666Y-148575419D02*
X72404666Y-149289704D01*
X72404666Y-149289704D02*
X72357047Y-149432561D01*
X72357047Y-149432561D02*
X72261809Y-149527800D01*
X72261809Y-149527800D02*
X72118952Y-149575419D01*
X72118952Y-149575419D02*
X72023714Y-149575419D01*
X73309428Y-148908752D02*
X73309428Y-149575419D01*
X73071333Y-148527800D02*
X72833238Y-149242085D01*
X72833238Y-149242085D02*
X73452285Y-149242085D01*
X143204666Y-148595419D02*
X143204666Y-149309704D01*
X143204666Y-149309704D02*
X143157047Y-149452561D01*
X143157047Y-149452561D02*
X143061809Y-149547800D01*
X143061809Y-149547800D02*
X142918952Y-149595419D01*
X142918952Y-149595419D02*
X142823714Y-149595419D01*
X143823714Y-149023990D02*
X143728476Y-148976371D01*
X143728476Y-148976371D02*
X143680857Y-148928752D01*
X143680857Y-148928752D02*
X143633238Y-148833514D01*
X143633238Y-148833514D02*
X143633238Y-148785895D01*
X143633238Y-148785895D02*
X143680857Y-148690657D01*
X143680857Y-148690657D02*
X143728476Y-148643038D01*
X143728476Y-148643038D02*
X143823714Y-148595419D01*
X143823714Y-148595419D02*
X144014190Y-148595419D01*
X144014190Y-148595419D02*
X144109428Y-148643038D01*
X144109428Y-148643038D02*
X144157047Y-148690657D01*
X144157047Y-148690657D02*
X144204666Y-148785895D01*
X144204666Y-148785895D02*
X144204666Y-148833514D01*
X144204666Y-148833514D02*
X144157047Y-148928752D01*
X144157047Y-148928752D02*
X144109428Y-148976371D01*
X144109428Y-148976371D02*
X144014190Y-149023990D01*
X144014190Y-149023990D02*
X143823714Y-149023990D01*
X143823714Y-149023990D02*
X143728476Y-149071609D01*
X143728476Y-149071609D02*
X143680857Y-149119228D01*
X143680857Y-149119228D02*
X143633238Y-149214466D01*
X143633238Y-149214466D02*
X143633238Y-149404942D01*
X143633238Y-149404942D02*
X143680857Y-149500180D01*
X143680857Y-149500180D02*
X143728476Y-149547800D01*
X143728476Y-149547800D02*
X143823714Y-149595419D01*
X143823714Y-149595419D02*
X144014190Y-149595419D01*
X144014190Y-149595419D02*
X144109428Y-149547800D01*
X144109428Y-149547800D02*
X144157047Y-149500180D01*
X144157047Y-149500180D02*
X144204666Y-149404942D01*
X144204666Y-149404942D02*
X144204666Y-149214466D01*
X144204666Y-149214466D02*
X144157047Y-149119228D01*
X144157047Y-149119228D02*
X144109428Y-149071609D01*
X144109428Y-149071609D02*
X144014190Y-149023990D01*
%TO.C,J7*%
X147483000Y-39762000D02*
X153683000Y-39762000D01*
X153683000Y-39762000D02*
X153683000Y-84962000D01*
X153683000Y-84962000D02*
X147483000Y-84962000D01*
X147483000Y-84962000D02*
X147483000Y-39762000D01*
%TO.C,J5*%
X112083000Y-39762000D02*
X118283000Y-39762000D01*
X118283000Y-39762000D02*
X118283000Y-84962000D01*
X118283000Y-84962000D02*
X112083000Y-84962000D01*
X112083000Y-84962000D02*
X112083000Y-39762000D01*
%TO.C,J3*%
X76683000Y-39762000D02*
X82883000Y-39762000D01*
X82883000Y-39762000D02*
X82883000Y-84962000D01*
X82883000Y-84962000D02*
X76683000Y-84962000D01*
X76683000Y-84962000D02*
X76683000Y-39762000D01*
%TO.C,J1*%
X41283000Y-39762000D02*
X47483000Y-39762000D01*
X47483000Y-39762000D02*
X47483000Y-84962000D01*
X47483000Y-84962000D02*
X41283000Y-84962000D01*
X41283000Y-84962000D02*
X41283000Y-39762000D01*
%TO.C,J2*%
X46073000Y-152388000D02*
X28603000Y-152388000D01*
X28603000Y-152388000D02*
X28603000Y-140888000D01*
X28603000Y-140888000D02*
X46073000Y-140888000D01*
X46073000Y-140888000D02*
X46073000Y-152388000D01*
%TO.C,J6*%
X116873000Y-152388000D02*
X99403000Y-152388000D01*
X99403000Y-152388000D02*
X99403000Y-140888000D01*
X99403000Y-140888000D02*
X116873000Y-140888000D01*
X116873000Y-140888000D02*
X116873000Y-152388000D01*
%TO.C,J4*%
X81473000Y-152388000D02*
X64003000Y-152388000D01*
X64003000Y-152388000D02*
X64003000Y-140888000D01*
X64003000Y-140888000D02*
X81473000Y-140888000D01*
X81473000Y-140888000D02*
X81473000Y-152388000D01*
%TO.C,J8*%
X152273000Y-152408000D02*
X134803000Y-152408000D01*
X134803000Y-152408000D02*
X134803000Y-140908000D01*
X134803000Y-140908000D02*
X152273000Y-140908000D01*
X152273000Y-140908000D02*
X152273000Y-152408000D01*
%TD*%
M02*
