%TF.GenerationSoftware,KiCad,Pcbnew,7.0.9*%
%TF.CreationDate,2024-03-30T19:36:49+01:00*%
%TF.ProjectId,8x-sata-backplane,38782d73-6174-4612-9d62-61636b706c61,rev?*%
%TF.SameCoordinates,Original*%
%TF.FileFunction,Copper,L3,Inr*%
%TF.FilePolarity,Positive*%
%FSLAX46Y46*%
G04 Gerber Fmt 4.6, Leading zero omitted, Abs format (unit mm)*
G04 Created by KiCad (PCBNEW 7.0.9) date 2024-03-30 19:36:49*
%MOMM*%
%LPD*%
G01*
G04 APERTURE LIST*
G04 Aperture macros list*
%AMRoundRect*
0 Rectangle with rounded corners*
0 $1 Rounding radius*
0 $2 $3 $4 $5 $6 $7 $8 $9 X,Y pos of 4 corners*
0 Add a 4 corners polygon primitive as box body*
4,1,4,$2,$3,$4,$5,$6,$7,$8,$9,$2,$3,0*
0 Add four circle primitives for the rounded corners*
1,1,$1+$1,$2,$3*
1,1,$1+$1,$4,$5*
1,1,$1+$1,$6,$7*
1,1,$1+$1,$8,$9*
0 Add four rect primitives between the rounded corners*
20,1,$1+$1,$2,$3,$4,$5,0*
20,1,$1+$1,$4,$5,$6,$7,0*
20,1,$1+$1,$6,$7,$8,$9,0*
20,1,$1+$1,$8,$9,$2,$3,0*%
G04 Aperture macros list end*
%TA.AperFunction,ComponentPad*%
%ADD10C,3.200000*%
%TD*%
%TA.AperFunction,ComponentPad*%
%ADD11RoundRect,0.550000X0.550000X0.950000X-0.550000X0.950000X-0.550000X-0.950000X0.550000X-0.950000X0*%
%TD*%
%TA.AperFunction,ViaPad*%
%ADD12C,0.800000*%
%TD*%
G04 APERTURE END LIST*
D10*
%TO.N,12V*%
%TO.C,J9*%
X79502000Y-26554000D03*
%TO.N,GND*%
X74422000Y-26554000D03*
X69342000Y-26554000D03*
%TO.N,5V*%
X64262000Y-26554000D03*
%TD*%
D11*
%TO.N,GND3*%
%TO.C,J6*%
X101768000Y-144038000D03*
X114508000Y-144038000D03*
%TD*%
%TO.N,GND2*%
%TO.C,J4*%
X66368000Y-144038000D03*
X79108000Y-144038000D03*
%TD*%
%TO.N,GND4*%
%TO.C,J8*%
X137168000Y-144058000D03*
X149908000Y-144058000D03*
%TD*%
%TO.N,GND1*%
%TO.C,J2*%
X30968000Y-144038000D03*
X43708000Y-144038000D03*
%TD*%
D12*
%TO.N,5V*%
X38862000Y-36068000D03*
X74168000Y-36068000D03*
X109728000Y-36068000D03*
X145034000Y-36068000D03*
%TO.N,GND*%
X148336000Y-38862000D03*
X113030000Y-38862000D03*
X77470000Y-38862000D03*
X42164000Y-38862000D03*
X40132000Y-54610000D03*
X110998000Y-62230000D03*
X76708000Y-52070000D03*
X75692000Y-52070000D03*
X147574000Y-59690000D03*
X112014000Y-52070000D03*
X40132000Y-60960000D03*
X110998000Y-59690000D03*
X110998000Y-60960000D03*
X76708000Y-60960000D03*
X76708000Y-59690000D03*
X40132000Y-59690000D03*
X146558000Y-52070000D03*
X112014000Y-62230000D03*
X76708000Y-62230000D03*
X75692000Y-59690000D03*
X110998000Y-54610000D03*
X112014000Y-59690000D03*
X147574000Y-52070000D03*
X146558000Y-54610000D03*
X40132000Y-62230000D03*
X41148000Y-60960000D03*
X41148000Y-52096000D03*
X112014000Y-60960000D03*
X147574000Y-60960000D03*
X146558000Y-60960000D03*
X76708000Y-54610000D03*
X146558000Y-62230000D03*
X147574000Y-54610000D03*
X41148000Y-59690000D03*
X75692000Y-62230000D03*
X146558000Y-59690000D03*
X147574000Y-62230000D03*
X75692000Y-54610000D03*
X75692000Y-60960000D03*
X40132000Y-52070000D03*
X110998000Y-52070000D03*
X41148000Y-54636000D03*
X41148000Y-62256000D03*
X112014000Y-54610000D03*
%TO.N,5V*%
X146558000Y-58420000D03*
X110998000Y-57150000D03*
X110998000Y-58420000D03*
X75692000Y-55880000D03*
X41148000Y-58420000D03*
X112014000Y-57150000D03*
X147574000Y-58420000D03*
X76708000Y-58420000D03*
X40132000Y-58420000D03*
X41148000Y-55880000D03*
X147574000Y-57150000D03*
X40132000Y-57150000D03*
X112014000Y-58420000D03*
X76708000Y-55880000D03*
X40132000Y-55880000D03*
X75692000Y-58420000D03*
X146558000Y-57150000D03*
X76708000Y-57150000D03*
X75692000Y-57150000D03*
X146558000Y-55880000D03*
X112014000Y-55880000D03*
X41148000Y-57176000D03*
X147574000Y-55880000D03*
X110998000Y-55880000D03*
%TO.N,12V*%
X147574000Y-48260000D03*
X41148000Y-49530000D03*
X75692000Y-50800000D03*
X147574000Y-50800000D03*
X112014000Y-49530000D03*
X110998000Y-50800000D03*
X40132000Y-49530000D03*
X147574000Y-49530000D03*
X110998000Y-48260000D03*
X110998000Y-49530000D03*
X75692000Y-48260000D03*
X41148000Y-50826000D03*
X76708000Y-48260000D03*
X76708000Y-50800000D03*
X75692000Y-49530000D03*
X146558000Y-50800000D03*
X112014000Y-50800000D03*
X112014000Y-48260000D03*
X40132000Y-48260000D03*
X76708000Y-49530000D03*
X146558000Y-48260000D03*
X146558000Y-49530000D03*
X41148000Y-48260000D03*
X40132000Y-50800000D03*
%TO.N,GND1*%
X37338000Y-140228000D03*
X33528000Y-140228000D03*
X44700500Y-87118500D03*
X41910000Y-72390000D03*
X41910000Y-76200000D03*
X41910000Y-80010000D03*
X41148000Y-140228000D03*
%TO.N,GND2*%
X72738000Y-140228000D03*
X76548000Y-140228000D03*
X77470000Y-72390000D03*
X68928000Y-140228000D03*
X77470000Y-80010000D03*
X80010000Y-87122000D03*
X77470000Y-76200000D03*
%TO.N,GND3*%
X112776000Y-76200000D03*
X104328000Y-140228000D03*
X112776000Y-72390000D03*
X108138000Y-140228000D03*
X111948000Y-140228000D03*
X112776000Y-80010000D03*
X115570000Y-87122000D03*
%TO.N,GND4*%
X148082000Y-80010000D03*
X150876000Y-87122000D03*
X148082000Y-72390000D03*
X143538000Y-140228000D03*
X139728000Y-140228000D03*
X147348000Y-140228000D03*
X148082000Y-76200000D03*
%TD*%
%TA.AperFunction,Conductor*%
%TO.N,12V*%
G36*
X153240788Y-23700613D02*
G01*
X153279656Y-23702964D01*
X153463384Y-23714077D01*
X153470816Y-23714981D01*
X153479307Y-23716537D01*
X153724704Y-23761506D01*
X153731953Y-23763294D01*
X153978382Y-23840084D01*
X153985375Y-23842737D01*
X154220747Y-23948668D01*
X154227374Y-23952145D01*
X154448262Y-24085675D01*
X154454419Y-24089925D01*
X154657593Y-24249101D01*
X154663202Y-24254070D01*
X154845711Y-24436576D01*
X154850680Y-24442185D01*
X155009855Y-24645354D01*
X155014112Y-24651521D01*
X155147638Y-24872396D01*
X155151120Y-24879031D01*
X155257049Y-25114388D01*
X155259706Y-25121395D01*
X155336495Y-25367806D01*
X155338288Y-25375082D01*
X155384816Y-25628957D01*
X155385719Y-25636396D01*
X155401387Y-25895359D01*
X155401500Y-25899104D01*
X155401500Y-66932000D01*
X155381815Y-66999039D01*
X155329011Y-67044794D01*
X155277500Y-67056000D01*
X131224500Y-67056000D01*
X131157461Y-67036315D01*
X131111706Y-66983511D01*
X131100500Y-66932000D01*
X131100500Y-62230000D01*
X145652540Y-62230000D01*
X145672326Y-62418256D01*
X145672327Y-62418259D01*
X145730818Y-62598277D01*
X145730821Y-62598284D01*
X145825467Y-62762216D01*
X145848876Y-62788214D01*
X145952129Y-62902888D01*
X146105265Y-63014148D01*
X146105270Y-63014151D01*
X146278192Y-63091142D01*
X146278197Y-63091144D01*
X146463354Y-63130500D01*
X146463355Y-63130500D01*
X146652644Y-63130500D01*
X146652646Y-63130500D01*
X146837803Y-63091144D01*
X147010730Y-63014151D01*
X147010734Y-63014148D01*
X147015563Y-63011998D01*
X147084813Y-63002712D01*
X147116437Y-63011998D01*
X147121265Y-63014148D01*
X147121270Y-63014151D01*
X147294197Y-63091144D01*
X147479354Y-63130500D01*
X147479355Y-63130500D01*
X147668644Y-63130500D01*
X147668646Y-63130500D01*
X147853803Y-63091144D01*
X148026730Y-63014151D01*
X148179871Y-62902888D01*
X148306533Y-62762216D01*
X148401179Y-62598284D01*
X148459674Y-62418256D01*
X148479460Y-62230000D01*
X148459674Y-62041744D01*
X148401179Y-61861716D01*
X148306533Y-61697784D01*
X148288693Y-61677971D01*
X148258464Y-61614981D01*
X148267089Y-61545646D01*
X148288694Y-61512028D01*
X148306533Y-61492216D01*
X148401179Y-61328284D01*
X148459674Y-61148256D01*
X148479460Y-60960000D01*
X148459674Y-60771744D01*
X148401179Y-60591716D01*
X148306533Y-60427784D01*
X148288693Y-60407971D01*
X148258464Y-60344981D01*
X148267089Y-60275646D01*
X148288694Y-60242028D01*
X148306533Y-60222216D01*
X148401179Y-60058284D01*
X148459674Y-59878256D01*
X148479460Y-59690000D01*
X148459674Y-59501744D01*
X148401179Y-59321716D01*
X148306533Y-59157784D01*
X148288693Y-59137971D01*
X148258464Y-59074981D01*
X148267089Y-59005646D01*
X148288694Y-58972028D01*
X148306533Y-58952216D01*
X148401179Y-58788284D01*
X148459674Y-58608256D01*
X148479460Y-58420000D01*
X148459674Y-58231744D01*
X148401179Y-58051716D01*
X148306533Y-57887784D01*
X148288693Y-57867971D01*
X148258464Y-57804981D01*
X148267089Y-57735646D01*
X148288694Y-57702028D01*
X148306533Y-57682216D01*
X148401179Y-57518284D01*
X148459674Y-57338256D01*
X148479460Y-57150000D01*
X148459674Y-56961744D01*
X148401179Y-56781716D01*
X148306533Y-56617784D01*
X148288693Y-56597971D01*
X148258464Y-56534981D01*
X148267089Y-56465646D01*
X148288694Y-56432028D01*
X148306533Y-56412216D01*
X148401179Y-56248284D01*
X148459674Y-56068256D01*
X148479460Y-55880000D01*
X148459674Y-55691744D01*
X148401179Y-55511716D01*
X148306533Y-55347784D01*
X148288693Y-55327971D01*
X148258464Y-55264981D01*
X148267089Y-55195646D01*
X148288694Y-55162028D01*
X148306533Y-55142216D01*
X148401179Y-54978284D01*
X148459674Y-54798256D01*
X148479460Y-54610000D01*
X148459674Y-54421744D01*
X148401179Y-54241716D01*
X148306533Y-54077784D01*
X148179871Y-53937112D01*
X148179870Y-53937111D01*
X148026734Y-53825851D01*
X148026729Y-53825848D01*
X147853807Y-53748857D01*
X147853802Y-53748855D01*
X147708001Y-53717865D01*
X147668646Y-53709500D01*
X147479354Y-53709500D01*
X147446897Y-53716398D01*
X147294197Y-53748855D01*
X147294192Y-53748857D01*
X147116436Y-53828001D01*
X147047186Y-53837286D01*
X147015564Y-53828001D01*
X146837807Y-53748857D01*
X146837802Y-53748855D01*
X146692001Y-53717865D01*
X146652646Y-53709500D01*
X146463354Y-53709500D01*
X146430897Y-53716398D01*
X146278197Y-53748855D01*
X146278192Y-53748857D01*
X146105270Y-53825848D01*
X146105265Y-53825851D01*
X145952129Y-53937111D01*
X145825466Y-54077785D01*
X145730821Y-54241715D01*
X145730818Y-54241722D01*
X145672327Y-54421740D01*
X145672326Y-54421744D01*
X145652540Y-54610000D01*
X145672326Y-54798256D01*
X145672327Y-54798259D01*
X145730818Y-54978277D01*
X145730821Y-54978284D01*
X145825467Y-55142216D01*
X145835806Y-55153699D01*
X145843307Y-55162030D01*
X145873535Y-55225022D01*
X145864909Y-55294357D01*
X145843307Y-55327970D01*
X145825466Y-55347785D01*
X145730821Y-55511715D01*
X145730818Y-55511722D01*
X145672327Y-55691740D01*
X145672326Y-55691744D01*
X145652540Y-55880000D01*
X145672326Y-56068256D01*
X145672327Y-56068259D01*
X145730818Y-56248277D01*
X145730821Y-56248284D01*
X145825467Y-56412216D01*
X145835806Y-56423699D01*
X145843307Y-56432030D01*
X145873535Y-56495022D01*
X145864909Y-56564357D01*
X145843307Y-56597970D01*
X145825466Y-56617785D01*
X145730821Y-56781715D01*
X145730818Y-56781722D01*
X145672327Y-56961740D01*
X145672326Y-56961744D01*
X145652540Y-57150000D01*
X145672326Y-57338256D01*
X145672327Y-57338259D01*
X145730818Y-57518277D01*
X145730821Y-57518284D01*
X145825467Y-57682216D01*
X145835806Y-57693699D01*
X145843307Y-57702030D01*
X145873535Y-57765022D01*
X145864909Y-57834357D01*
X145843307Y-57867970D01*
X145825466Y-57887785D01*
X145730821Y-58051715D01*
X145730818Y-58051722D01*
X145672327Y-58231740D01*
X145672326Y-58231744D01*
X145652540Y-58420000D01*
X145672326Y-58608256D01*
X145672327Y-58608259D01*
X145730818Y-58788277D01*
X145730821Y-58788284D01*
X145825467Y-58952216D01*
X145835806Y-58963699D01*
X145843307Y-58972030D01*
X145873535Y-59035022D01*
X145864909Y-59104357D01*
X145843307Y-59137970D01*
X145825466Y-59157785D01*
X145730821Y-59321715D01*
X145730818Y-59321722D01*
X145672327Y-59501740D01*
X145672326Y-59501744D01*
X145652540Y-59690000D01*
X145672326Y-59878256D01*
X145672327Y-59878259D01*
X145730818Y-60058277D01*
X145730821Y-60058284D01*
X145825467Y-60222216D01*
X145835806Y-60233699D01*
X145843307Y-60242030D01*
X145873535Y-60305022D01*
X145864909Y-60374357D01*
X145843307Y-60407970D01*
X145825466Y-60427785D01*
X145730821Y-60591715D01*
X145730818Y-60591722D01*
X145672327Y-60771740D01*
X145672326Y-60771744D01*
X145652540Y-60960000D01*
X145672326Y-61148256D01*
X145672327Y-61148259D01*
X145730818Y-61328277D01*
X145730821Y-61328284D01*
X145825467Y-61492216D01*
X145835806Y-61503699D01*
X145843307Y-61512030D01*
X145873535Y-61575022D01*
X145864909Y-61644357D01*
X145843307Y-61677970D01*
X145825466Y-61697785D01*
X145730821Y-61861715D01*
X145730818Y-61861722D01*
X145672327Y-62041740D01*
X145672326Y-62041744D01*
X145652540Y-62230000D01*
X131100500Y-62230000D01*
X131100500Y-52070000D01*
X145652540Y-52070000D01*
X145672326Y-52258256D01*
X145672327Y-52258259D01*
X145730818Y-52438277D01*
X145730821Y-52438284D01*
X145825467Y-52602216D01*
X145848876Y-52628214D01*
X145952129Y-52742888D01*
X146105265Y-52854148D01*
X146105270Y-52854151D01*
X146278192Y-52931142D01*
X146278197Y-52931144D01*
X146463354Y-52970500D01*
X146463355Y-52970500D01*
X146652644Y-52970500D01*
X146652646Y-52970500D01*
X146837803Y-52931144D01*
X147010730Y-52854151D01*
X147010734Y-52854148D01*
X147015563Y-52851998D01*
X147084813Y-52842712D01*
X147116437Y-52851998D01*
X147121265Y-52854148D01*
X147121270Y-52854151D01*
X147294197Y-52931144D01*
X147479354Y-52970500D01*
X147479355Y-52970500D01*
X147668644Y-52970500D01*
X147668646Y-52970500D01*
X147853803Y-52931144D01*
X148026730Y-52854151D01*
X148179871Y-52742888D01*
X148306533Y-52602216D01*
X148401179Y-52438284D01*
X148459674Y-52258256D01*
X148479460Y-52070000D01*
X148459674Y-51881744D01*
X148401179Y-51701716D01*
X148306533Y-51537784D01*
X148179871Y-51397112D01*
X148179870Y-51397111D01*
X148026734Y-51285851D01*
X148026729Y-51285848D01*
X147853807Y-51208857D01*
X147853802Y-51208855D01*
X147708001Y-51177865D01*
X147668646Y-51169500D01*
X147479354Y-51169500D01*
X147446897Y-51176398D01*
X147294197Y-51208855D01*
X147294192Y-51208857D01*
X147116436Y-51288001D01*
X147047186Y-51297286D01*
X147015564Y-51288001D01*
X146837807Y-51208857D01*
X146837802Y-51208855D01*
X146692001Y-51177865D01*
X146652646Y-51169500D01*
X146463354Y-51169500D01*
X146430897Y-51176398D01*
X146278197Y-51208855D01*
X146278192Y-51208857D01*
X146105270Y-51285848D01*
X146105265Y-51285851D01*
X145952129Y-51397111D01*
X145825466Y-51537785D01*
X145730821Y-51701715D01*
X145730818Y-51701722D01*
X145672327Y-51881740D01*
X145672326Y-51881744D01*
X145652540Y-52070000D01*
X131100500Y-52070000D01*
X131100500Y-45676198D01*
X150098757Y-45676198D01*
X150108730Y-45910976D01*
X150108730Y-45910982D01*
X150133711Y-46026890D01*
X150158240Y-46140703D01*
X150245859Y-46358753D01*
X150309077Y-46461425D01*
X150369070Y-46558860D01*
X150524325Y-46735264D01*
X150524329Y-46735268D01*
X150707153Y-46882888D01*
X150707157Y-46882891D01*
X150707160Y-46882893D01*
X150912315Y-46997499D01*
X151133887Y-47075785D01*
X151263131Y-47097946D01*
X151365493Y-47115499D01*
X151365502Y-47115500D01*
X151541645Y-47115500D01*
X151717144Y-47100563D01*
X151717147Y-47100562D01*
X151717149Y-47100562D01*
X151944562Y-47041348D01*
X152075386Y-46982211D01*
X152158691Y-46944556D01*
X152158692Y-46944554D01*
X152158697Y-46944553D01*
X152353393Y-46812962D01*
X152523050Y-46650359D01*
X152662786Y-46461423D01*
X152768582Y-46251589D01*
X152837394Y-46026894D01*
X152867243Y-45793802D01*
X152857269Y-45559018D01*
X152807760Y-45329297D01*
X152720141Y-45111247D01*
X152596931Y-44911141D01*
X152441675Y-44734736D01*
X152441674Y-44734735D01*
X152441670Y-44734731D01*
X152258846Y-44587111D01*
X152258840Y-44587107D01*
X152053684Y-44472500D01*
X151832120Y-44394217D01*
X151832115Y-44394215D01*
X151832113Y-44394215D01*
X151832109Y-44394214D01*
X151832108Y-44394214D01*
X151600506Y-44354500D01*
X151600498Y-44354500D01*
X151424360Y-44354500D01*
X151424355Y-44354500D01*
X151248855Y-44369436D01*
X151021438Y-44428651D01*
X150807308Y-44525443D01*
X150807300Y-44525448D01*
X150612616Y-44657030D01*
X150612607Y-44657038D01*
X150442949Y-44819642D01*
X150303216Y-45008574D01*
X150303213Y-45008578D01*
X150197418Y-45218409D01*
X150128605Y-45443109D01*
X150098757Y-45676198D01*
X131100500Y-45676198D01*
X131100500Y-39759648D01*
X131068477Y-39557465D01*
X131005218Y-39362776D01*
X130937709Y-39230284D01*
X130912287Y-39180390D01*
X130899289Y-39162500D01*
X130791971Y-39014786D01*
X130647213Y-38870028D01*
X130636163Y-38862000D01*
X147430540Y-38862000D01*
X147450326Y-39050256D01*
X147450327Y-39050259D01*
X147508818Y-39230277D01*
X147508821Y-39230284D01*
X147603467Y-39394216D01*
X147674746Y-39473379D01*
X147730129Y-39534888D01*
X147883265Y-39646148D01*
X147883270Y-39646151D01*
X148056192Y-39723142D01*
X148056197Y-39723144D01*
X148241354Y-39762500D01*
X148241355Y-39762500D01*
X148430644Y-39762500D01*
X148430646Y-39762500D01*
X148615803Y-39723144D01*
X148788730Y-39646151D01*
X148941871Y-39534888D01*
X149068533Y-39394216D01*
X149163179Y-39230284D01*
X149221674Y-39050256D01*
X149241460Y-38862000D01*
X149221674Y-38673744D01*
X149163179Y-38493716D01*
X149068533Y-38329784D01*
X148941871Y-38189112D01*
X148941870Y-38189111D01*
X148788734Y-38077851D01*
X148788729Y-38077848D01*
X148615807Y-38000857D01*
X148615802Y-38000855D01*
X148470001Y-37969865D01*
X148430646Y-37961500D01*
X148241354Y-37961500D01*
X148208897Y-37968398D01*
X148056197Y-38000855D01*
X148056192Y-38000857D01*
X147883270Y-38077848D01*
X147883265Y-38077851D01*
X147730129Y-38189111D01*
X147603466Y-38329785D01*
X147508821Y-38493715D01*
X147508818Y-38493722D01*
X147450327Y-38673740D01*
X147450326Y-38673744D01*
X147430540Y-38862000D01*
X130636163Y-38862000D01*
X130481613Y-38749715D01*
X130481612Y-38749714D01*
X130481610Y-38749713D01*
X130424653Y-38720691D01*
X130299223Y-38656781D01*
X130104534Y-38593522D01*
X129929995Y-38565878D01*
X129902352Y-38561500D01*
X129856173Y-38561500D01*
X120181595Y-38561500D01*
X120134000Y-38561500D01*
X120031648Y-38561500D01*
X120007329Y-38565351D01*
X119829465Y-38593522D01*
X119634776Y-38656781D01*
X119452386Y-38749715D01*
X119286786Y-38870028D01*
X119142028Y-39014786D01*
X119021715Y-39180386D01*
X118928781Y-39362776D01*
X118865522Y-39557465D01*
X118833500Y-39759648D01*
X118833500Y-66932000D01*
X118813815Y-66999039D01*
X118761011Y-67044794D01*
X118709500Y-67056000D01*
X95824500Y-67056000D01*
X95757461Y-67036315D01*
X95711706Y-66983511D01*
X95700500Y-66932000D01*
X95700500Y-62230000D01*
X110092540Y-62230000D01*
X110112326Y-62418256D01*
X110112327Y-62418259D01*
X110170818Y-62598277D01*
X110170821Y-62598284D01*
X110265467Y-62762216D01*
X110288876Y-62788214D01*
X110392129Y-62902888D01*
X110545265Y-63014148D01*
X110545270Y-63014151D01*
X110718192Y-63091142D01*
X110718197Y-63091144D01*
X110903354Y-63130500D01*
X110903355Y-63130500D01*
X111092644Y-63130500D01*
X111092646Y-63130500D01*
X111277803Y-63091144D01*
X111450730Y-63014151D01*
X111450734Y-63014148D01*
X111455563Y-63011998D01*
X111524813Y-63002712D01*
X111556437Y-63011998D01*
X111561265Y-63014148D01*
X111561270Y-63014151D01*
X111734197Y-63091144D01*
X111919354Y-63130500D01*
X111919355Y-63130500D01*
X112108644Y-63130500D01*
X112108646Y-63130500D01*
X112293803Y-63091144D01*
X112466730Y-63014151D01*
X112619871Y-62902888D01*
X112746533Y-62762216D01*
X112841179Y-62598284D01*
X112899674Y-62418256D01*
X112919460Y-62230000D01*
X112899674Y-62041744D01*
X112841179Y-61861716D01*
X112746533Y-61697784D01*
X112728693Y-61677971D01*
X112698464Y-61614981D01*
X112707089Y-61545646D01*
X112728694Y-61512028D01*
X112746533Y-61492216D01*
X112841179Y-61328284D01*
X112899674Y-61148256D01*
X112919460Y-60960000D01*
X112899674Y-60771744D01*
X112841179Y-60591716D01*
X112746533Y-60427784D01*
X112728693Y-60407971D01*
X112698464Y-60344981D01*
X112707089Y-60275646D01*
X112728694Y-60242028D01*
X112746533Y-60222216D01*
X112841179Y-60058284D01*
X112899674Y-59878256D01*
X112919460Y-59690000D01*
X112899674Y-59501744D01*
X112841179Y-59321716D01*
X112746533Y-59157784D01*
X112728693Y-59137971D01*
X112698464Y-59074981D01*
X112707089Y-59005646D01*
X112728694Y-58972028D01*
X112746533Y-58952216D01*
X112841179Y-58788284D01*
X112899674Y-58608256D01*
X112919460Y-58420000D01*
X112899674Y-58231744D01*
X112841179Y-58051716D01*
X112746533Y-57887784D01*
X112728693Y-57867971D01*
X112698464Y-57804981D01*
X112707089Y-57735646D01*
X112728694Y-57702028D01*
X112746533Y-57682216D01*
X112841179Y-57518284D01*
X112899674Y-57338256D01*
X112919460Y-57150000D01*
X112899674Y-56961744D01*
X112841179Y-56781716D01*
X112746533Y-56617784D01*
X112728693Y-56597971D01*
X112698464Y-56534981D01*
X112707089Y-56465646D01*
X112728694Y-56432028D01*
X112746533Y-56412216D01*
X112841179Y-56248284D01*
X112899674Y-56068256D01*
X112919460Y-55880000D01*
X112899674Y-55691744D01*
X112841179Y-55511716D01*
X112746533Y-55347784D01*
X112728693Y-55327971D01*
X112698464Y-55264981D01*
X112707089Y-55195646D01*
X112728694Y-55162028D01*
X112746533Y-55142216D01*
X112841179Y-54978284D01*
X112899674Y-54798256D01*
X112919460Y-54610000D01*
X112899674Y-54421744D01*
X112841179Y-54241716D01*
X112746533Y-54077784D01*
X112619871Y-53937112D01*
X112619870Y-53937111D01*
X112466734Y-53825851D01*
X112466729Y-53825848D01*
X112293807Y-53748857D01*
X112293802Y-53748855D01*
X112148001Y-53717865D01*
X112108646Y-53709500D01*
X111919354Y-53709500D01*
X111886897Y-53716398D01*
X111734197Y-53748855D01*
X111734192Y-53748857D01*
X111556436Y-53828001D01*
X111487186Y-53837286D01*
X111455564Y-53828001D01*
X111277807Y-53748857D01*
X111277802Y-53748855D01*
X111132001Y-53717865D01*
X111092646Y-53709500D01*
X110903354Y-53709500D01*
X110870897Y-53716398D01*
X110718197Y-53748855D01*
X110718192Y-53748857D01*
X110545270Y-53825848D01*
X110545265Y-53825851D01*
X110392129Y-53937111D01*
X110265466Y-54077785D01*
X110170821Y-54241715D01*
X110170818Y-54241722D01*
X110112327Y-54421740D01*
X110112326Y-54421744D01*
X110092540Y-54610000D01*
X110112326Y-54798256D01*
X110112327Y-54798259D01*
X110170818Y-54978277D01*
X110170821Y-54978284D01*
X110265467Y-55142216D01*
X110275806Y-55153699D01*
X110283307Y-55162030D01*
X110313535Y-55225022D01*
X110304909Y-55294357D01*
X110283307Y-55327970D01*
X110265466Y-55347785D01*
X110170821Y-55511715D01*
X110170818Y-55511722D01*
X110112327Y-55691740D01*
X110112326Y-55691744D01*
X110092540Y-55880000D01*
X110112326Y-56068256D01*
X110112327Y-56068259D01*
X110170818Y-56248277D01*
X110170821Y-56248284D01*
X110265467Y-56412216D01*
X110275806Y-56423699D01*
X110283307Y-56432030D01*
X110313535Y-56495022D01*
X110304909Y-56564357D01*
X110283307Y-56597970D01*
X110265466Y-56617785D01*
X110170821Y-56781715D01*
X110170818Y-56781722D01*
X110112327Y-56961740D01*
X110112326Y-56961744D01*
X110092540Y-57150000D01*
X110112326Y-57338256D01*
X110112327Y-57338259D01*
X110170818Y-57518277D01*
X110170821Y-57518284D01*
X110265467Y-57682216D01*
X110275806Y-57693699D01*
X110283307Y-57702030D01*
X110313535Y-57765022D01*
X110304909Y-57834357D01*
X110283307Y-57867970D01*
X110265466Y-57887785D01*
X110170821Y-58051715D01*
X110170818Y-58051722D01*
X110112327Y-58231740D01*
X110112326Y-58231744D01*
X110092540Y-58420000D01*
X110112326Y-58608256D01*
X110112327Y-58608259D01*
X110170818Y-58788277D01*
X110170821Y-58788284D01*
X110265467Y-58952216D01*
X110275806Y-58963699D01*
X110283307Y-58972030D01*
X110313535Y-59035022D01*
X110304909Y-59104357D01*
X110283307Y-59137970D01*
X110265466Y-59157785D01*
X110170821Y-59321715D01*
X110170818Y-59321722D01*
X110112327Y-59501740D01*
X110112326Y-59501744D01*
X110092540Y-59690000D01*
X110112326Y-59878256D01*
X110112327Y-59878259D01*
X110170818Y-60058277D01*
X110170821Y-60058284D01*
X110265467Y-60222216D01*
X110275806Y-60233699D01*
X110283307Y-60242030D01*
X110313535Y-60305022D01*
X110304909Y-60374357D01*
X110283307Y-60407970D01*
X110265466Y-60427785D01*
X110170821Y-60591715D01*
X110170818Y-60591722D01*
X110112327Y-60771740D01*
X110112326Y-60771744D01*
X110092540Y-60960000D01*
X110112326Y-61148256D01*
X110112327Y-61148259D01*
X110170818Y-61328277D01*
X110170821Y-61328284D01*
X110265467Y-61492216D01*
X110275806Y-61503699D01*
X110283307Y-61512030D01*
X110313535Y-61575022D01*
X110304909Y-61644357D01*
X110283307Y-61677970D01*
X110265466Y-61697785D01*
X110170821Y-61861715D01*
X110170818Y-61861722D01*
X110112327Y-62041740D01*
X110112326Y-62041744D01*
X110092540Y-62230000D01*
X95700500Y-62230000D01*
X95700500Y-52070000D01*
X110092540Y-52070000D01*
X110112326Y-52258256D01*
X110112327Y-52258259D01*
X110170818Y-52438277D01*
X110170821Y-52438284D01*
X110265467Y-52602216D01*
X110288876Y-52628214D01*
X110392129Y-52742888D01*
X110545265Y-52854148D01*
X110545270Y-52854151D01*
X110718192Y-52931142D01*
X110718197Y-52931144D01*
X110903354Y-52970500D01*
X110903355Y-52970500D01*
X111092644Y-52970500D01*
X111092646Y-52970500D01*
X111277803Y-52931144D01*
X111450730Y-52854151D01*
X111450734Y-52854148D01*
X111455563Y-52851998D01*
X111524813Y-52842712D01*
X111556437Y-52851998D01*
X111561265Y-52854148D01*
X111561270Y-52854151D01*
X111734197Y-52931144D01*
X111919354Y-52970500D01*
X111919355Y-52970500D01*
X112108644Y-52970500D01*
X112108646Y-52970500D01*
X112293803Y-52931144D01*
X112466730Y-52854151D01*
X112619871Y-52742888D01*
X112746533Y-52602216D01*
X112841179Y-52438284D01*
X112899674Y-52258256D01*
X112919460Y-52070000D01*
X112899674Y-51881744D01*
X112841179Y-51701716D01*
X112746533Y-51537784D01*
X112619871Y-51397112D01*
X112619870Y-51397111D01*
X112466734Y-51285851D01*
X112466729Y-51285848D01*
X112293807Y-51208857D01*
X112293802Y-51208855D01*
X112148001Y-51177865D01*
X112108646Y-51169500D01*
X111919354Y-51169500D01*
X111886897Y-51176398D01*
X111734197Y-51208855D01*
X111734192Y-51208857D01*
X111556436Y-51288001D01*
X111487186Y-51297286D01*
X111455564Y-51288001D01*
X111277807Y-51208857D01*
X111277802Y-51208855D01*
X111132001Y-51177865D01*
X111092646Y-51169500D01*
X110903354Y-51169500D01*
X110870897Y-51176398D01*
X110718197Y-51208855D01*
X110718192Y-51208857D01*
X110545270Y-51285848D01*
X110545265Y-51285851D01*
X110392129Y-51397111D01*
X110265466Y-51537785D01*
X110170821Y-51701715D01*
X110170818Y-51701722D01*
X110112327Y-51881740D01*
X110112326Y-51881744D01*
X110092540Y-52070000D01*
X95700500Y-52070000D01*
X95700500Y-45676198D01*
X114698757Y-45676198D01*
X114708730Y-45910976D01*
X114708730Y-45910982D01*
X114733711Y-46026890D01*
X114758240Y-46140703D01*
X114845859Y-46358753D01*
X114909077Y-46461425D01*
X114969070Y-46558860D01*
X115124325Y-46735264D01*
X115124329Y-46735268D01*
X115307153Y-46882888D01*
X115307157Y-46882891D01*
X115307160Y-46882893D01*
X115512315Y-46997499D01*
X115733887Y-47075785D01*
X115863131Y-47097946D01*
X115965493Y-47115499D01*
X115965502Y-47115500D01*
X116141645Y-47115500D01*
X116317144Y-47100563D01*
X116317147Y-47100562D01*
X116317149Y-47100562D01*
X116544562Y-47041348D01*
X116675386Y-46982211D01*
X116758691Y-46944556D01*
X116758692Y-46944554D01*
X116758697Y-46944553D01*
X116953393Y-46812962D01*
X117123050Y-46650359D01*
X117262786Y-46461423D01*
X117368582Y-46251589D01*
X117437394Y-46026894D01*
X117467243Y-45793802D01*
X117457269Y-45559018D01*
X117407760Y-45329297D01*
X117320141Y-45111247D01*
X117196931Y-44911141D01*
X117041675Y-44734736D01*
X117041674Y-44734735D01*
X117041670Y-44734731D01*
X116858846Y-44587111D01*
X116858840Y-44587107D01*
X116653684Y-44472500D01*
X116432120Y-44394217D01*
X116432115Y-44394215D01*
X116432113Y-44394215D01*
X116432109Y-44394214D01*
X116432108Y-44394214D01*
X116200506Y-44354500D01*
X116200498Y-44354500D01*
X116024360Y-44354500D01*
X116024355Y-44354500D01*
X115848855Y-44369436D01*
X115621438Y-44428651D01*
X115407308Y-44525443D01*
X115407300Y-44525448D01*
X115212616Y-44657030D01*
X115212607Y-44657038D01*
X115042949Y-44819642D01*
X114903216Y-45008574D01*
X114903213Y-45008578D01*
X114797418Y-45218409D01*
X114728605Y-45443109D01*
X114698757Y-45676198D01*
X95700500Y-45676198D01*
X95700500Y-39759648D01*
X95668477Y-39557465D01*
X95605218Y-39362776D01*
X95537709Y-39230284D01*
X95512287Y-39180390D01*
X95499289Y-39162500D01*
X95391971Y-39014786D01*
X95247213Y-38870028D01*
X95236163Y-38862000D01*
X112124540Y-38862000D01*
X112144326Y-39050256D01*
X112144327Y-39050259D01*
X112202818Y-39230277D01*
X112202821Y-39230284D01*
X112297467Y-39394216D01*
X112368746Y-39473379D01*
X112424129Y-39534888D01*
X112577265Y-39646148D01*
X112577270Y-39646151D01*
X112750192Y-39723142D01*
X112750197Y-39723144D01*
X112935354Y-39762500D01*
X112935355Y-39762500D01*
X113124644Y-39762500D01*
X113124646Y-39762500D01*
X113309803Y-39723144D01*
X113482730Y-39646151D01*
X113635871Y-39534888D01*
X113762533Y-39394216D01*
X113857179Y-39230284D01*
X113915674Y-39050256D01*
X113935460Y-38862000D01*
X113915674Y-38673744D01*
X113857179Y-38493716D01*
X113762533Y-38329784D01*
X113635871Y-38189112D01*
X113635870Y-38189111D01*
X113482734Y-38077851D01*
X113482729Y-38077848D01*
X113309807Y-38000857D01*
X113309802Y-38000855D01*
X113164001Y-37969865D01*
X113124646Y-37961500D01*
X112935354Y-37961500D01*
X112902897Y-37968398D01*
X112750197Y-38000855D01*
X112750192Y-38000857D01*
X112577270Y-38077848D01*
X112577265Y-38077851D01*
X112424129Y-38189111D01*
X112297466Y-38329785D01*
X112202821Y-38493715D01*
X112202818Y-38493722D01*
X112144327Y-38673740D01*
X112144326Y-38673744D01*
X112124540Y-38862000D01*
X95236163Y-38862000D01*
X95081613Y-38749715D01*
X95081612Y-38749714D01*
X95081610Y-38749713D01*
X95024653Y-38720691D01*
X94899223Y-38656781D01*
X94704534Y-38593522D01*
X94529995Y-38565878D01*
X94502352Y-38561500D01*
X94456173Y-38561500D01*
X84781595Y-38561500D01*
X84734000Y-38561500D01*
X84631648Y-38561500D01*
X84607329Y-38565351D01*
X84429465Y-38593522D01*
X84234776Y-38656781D01*
X84052386Y-38749715D01*
X83886786Y-38870028D01*
X83742028Y-39014786D01*
X83621715Y-39180386D01*
X83528781Y-39362776D01*
X83465522Y-39557465D01*
X83433500Y-39759648D01*
X83433500Y-66932000D01*
X83413815Y-66999039D01*
X83361011Y-67044794D01*
X83309500Y-67056000D01*
X60424500Y-67056000D01*
X60357461Y-67036315D01*
X60311706Y-66983511D01*
X60300500Y-66932000D01*
X60300500Y-62230000D01*
X74786540Y-62230000D01*
X74806326Y-62418256D01*
X74806327Y-62418259D01*
X74864818Y-62598277D01*
X74864821Y-62598284D01*
X74959467Y-62762216D01*
X74982876Y-62788214D01*
X75086129Y-62902888D01*
X75239265Y-63014148D01*
X75239270Y-63014151D01*
X75412192Y-63091142D01*
X75412197Y-63091144D01*
X75597354Y-63130500D01*
X75597355Y-63130500D01*
X75786644Y-63130500D01*
X75786646Y-63130500D01*
X75971803Y-63091144D01*
X76144730Y-63014151D01*
X76144734Y-63014148D01*
X76149563Y-63011998D01*
X76218813Y-63002712D01*
X76250437Y-63011998D01*
X76255265Y-63014148D01*
X76255270Y-63014151D01*
X76428197Y-63091144D01*
X76613354Y-63130500D01*
X76613355Y-63130500D01*
X76802644Y-63130500D01*
X76802646Y-63130500D01*
X76987803Y-63091144D01*
X77160730Y-63014151D01*
X77313871Y-62902888D01*
X77440533Y-62762216D01*
X77535179Y-62598284D01*
X77593674Y-62418256D01*
X77613460Y-62230000D01*
X77593674Y-62041744D01*
X77535179Y-61861716D01*
X77440533Y-61697784D01*
X77422693Y-61677971D01*
X77392464Y-61614981D01*
X77401089Y-61545646D01*
X77422694Y-61512028D01*
X77440533Y-61492216D01*
X77535179Y-61328284D01*
X77593674Y-61148256D01*
X77613460Y-60960000D01*
X77593674Y-60771744D01*
X77535179Y-60591716D01*
X77440533Y-60427784D01*
X77422693Y-60407971D01*
X77392464Y-60344981D01*
X77401089Y-60275646D01*
X77422694Y-60242028D01*
X77440533Y-60222216D01*
X77535179Y-60058284D01*
X77593674Y-59878256D01*
X77613460Y-59690000D01*
X77593674Y-59501744D01*
X77535179Y-59321716D01*
X77440533Y-59157784D01*
X77422693Y-59137971D01*
X77392464Y-59074981D01*
X77401089Y-59005646D01*
X77422694Y-58972028D01*
X77440533Y-58952216D01*
X77535179Y-58788284D01*
X77593674Y-58608256D01*
X77613460Y-58420000D01*
X77593674Y-58231744D01*
X77535179Y-58051716D01*
X77440533Y-57887784D01*
X77422693Y-57867971D01*
X77392464Y-57804981D01*
X77401089Y-57735646D01*
X77422694Y-57702028D01*
X77440533Y-57682216D01*
X77535179Y-57518284D01*
X77593674Y-57338256D01*
X77613460Y-57150000D01*
X77593674Y-56961744D01*
X77535179Y-56781716D01*
X77440533Y-56617784D01*
X77422693Y-56597971D01*
X77392464Y-56534981D01*
X77401089Y-56465646D01*
X77422694Y-56432028D01*
X77440533Y-56412216D01*
X77535179Y-56248284D01*
X77593674Y-56068256D01*
X77613460Y-55880000D01*
X77593674Y-55691744D01*
X77535179Y-55511716D01*
X77440533Y-55347784D01*
X77422693Y-55327971D01*
X77392464Y-55264981D01*
X77401089Y-55195646D01*
X77422694Y-55162028D01*
X77440533Y-55142216D01*
X77535179Y-54978284D01*
X77593674Y-54798256D01*
X77613460Y-54610000D01*
X77593674Y-54421744D01*
X77535179Y-54241716D01*
X77440533Y-54077784D01*
X77313871Y-53937112D01*
X77313870Y-53937111D01*
X77160734Y-53825851D01*
X77160729Y-53825848D01*
X76987807Y-53748857D01*
X76987802Y-53748855D01*
X76842001Y-53717865D01*
X76802646Y-53709500D01*
X76613354Y-53709500D01*
X76580897Y-53716398D01*
X76428197Y-53748855D01*
X76428192Y-53748857D01*
X76250436Y-53828001D01*
X76181186Y-53837286D01*
X76149564Y-53828001D01*
X75971807Y-53748857D01*
X75971802Y-53748855D01*
X75826001Y-53717865D01*
X75786646Y-53709500D01*
X75597354Y-53709500D01*
X75564897Y-53716398D01*
X75412197Y-53748855D01*
X75412192Y-53748857D01*
X75239270Y-53825848D01*
X75239265Y-53825851D01*
X75086129Y-53937111D01*
X74959466Y-54077785D01*
X74864821Y-54241715D01*
X74864818Y-54241722D01*
X74806327Y-54421740D01*
X74806326Y-54421744D01*
X74786540Y-54610000D01*
X74806326Y-54798256D01*
X74806327Y-54798259D01*
X74864818Y-54978277D01*
X74864821Y-54978284D01*
X74959467Y-55142216D01*
X74969806Y-55153699D01*
X74977307Y-55162030D01*
X75007535Y-55225022D01*
X74998909Y-55294357D01*
X74977307Y-55327970D01*
X74959466Y-55347785D01*
X74864821Y-55511715D01*
X74864818Y-55511722D01*
X74806327Y-55691740D01*
X74806326Y-55691744D01*
X74786540Y-55880000D01*
X74806326Y-56068256D01*
X74806327Y-56068259D01*
X74864818Y-56248277D01*
X74864821Y-56248284D01*
X74959467Y-56412216D01*
X74969806Y-56423699D01*
X74977307Y-56432030D01*
X75007535Y-56495022D01*
X74998909Y-56564357D01*
X74977307Y-56597970D01*
X74959466Y-56617785D01*
X74864821Y-56781715D01*
X74864818Y-56781722D01*
X74806327Y-56961740D01*
X74806326Y-56961744D01*
X74786540Y-57150000D01*
X74806326Y-57338256D01*
X74806327Y-57338259D01*
X74864818Y-57518277D01*
X74864821Y-57518284D01*
X74959467Y-57682216D01*
X74969806Y-57693699D01*
X74977307Y-57702030D01*
X75007535Y-57765022D01*
X74998909Y-57834357D01*
X74977307Y-57867970D01*
X74959466Y-57887785D01*
X74864821Y-58051715D01*
X74864818Y-58051722D01*
X74806327Y-58231740D01*
X74806326Y-58231744D01*
X74786540Y-58420000D01*
X74806326Y-58608256D01*
X74806327Y-58608259D01*
X74864818Y-58788277D01*
X74864821Y-58788284D01*
X74959467Y-58952216D01*
X74969806Y-58963699D01*
X74977307Y-58972030D01*
X75007535Y-59035022D01*
X74998909Y-59104357D01*
X74977307Y-59137970D01*
X74959466Y-59157785D01*
X74864821Y-59321715D01*
X74864818Y-59321722D01*
X74806327Y-59501740D01*
X74806326Y-59501744D01*
X74786540Y-59690000D01*
X74806326Y-59878256D01*
X74806327Y-59878259D01*
X74864818Y-60058277D01*
X74864821Y-60058284D01*
X74959467Y-60222216D01*
X74969806Y-60233699D01*
X74977307Y-60242030D01*
X75007535Y-60305022D01*
X74998909Y-60374357D01*
X74977307Y-60407970D01*
X74959466Y-60427785D01*
X74864821Y-60591715D01*
X74864818Y-60591722D01*
X74806327Y-60771740D01*
X74806326Y-60771744D01*
X74786540Y-60960000D01*
X74806326Y-61148256D01*
X74806327Y-61148259D01*
X74864818Y-61328277D01*
X74864821Y-61328284D01*
X74959467Y-61492216D01*
X74969806Y-61503699D01*
X74977307Y-61512030D01*
X75007535Y-61575022D01*
X74998909Y-61644357D01*
X74977307Y-61677970D01*
X74959466Y-61697785D01*
X74864821Y-61861715D01*
X74864818Y-61861722D01*
X74806327Y-62041740D01*
X74806326Y-62041744D01*
X74786540Y-62230000D01*
X60300500Y-62230000D01*
X60300500Y-52070000D01*
X74786540Y-52070000D01*
X74806326Y-52258256D01*
X74806327Y-52258259D01*
X74864818Y-52438277D01*
X74864821Y-52438284D01*
X74959467Y-52602216D01*
X74982876Y-52628214D01*
X75086129Y-52742888D01*
X75239265Y-52854148D01*
X75239270Y-52854151D01*
X75412192Y-52931142D01*
X75412197Y-52931144D01*
X75597354Y-52970500D01*
X75597355Y-52970500D01*
X75786644Y-52970500D01*
X75786646Y-52970500D01*
X75971803Y-52931144D01*
X76144730Y-52854151D01*
X76144734Y-52854148D01*
X76149563Y-52851998D01*
X76218813Y-52842712D01*
X76250437Y-52851998D01*
X76255265Y-52854148D01*
X76255270Y-52854151D01*
X76428197Y-52931144D01*
X76613354Y-52970500D01*
X76613355Y-52970500D01*
X76802644Y-52970500D01*
X76802646Y-52970500D01*
X76987803Y-52931144D01*
X77160730Y-52854151D01*
X77313871Y-52742888D01*
X77440533Y-52602216D01*
X77535179Y-52438284D01*
X77593674Y-52258256D01*
X77613460Y-52070000D01*
X77593674Y-51881744D01*
X77535179Y-51701716D01*
X77440533Y-51537784D01*
X77313871Y-51397112D01*
X77313870Y-51397111D01*
X77160734Y-51285851D01*
X77160729Y-51285848D01*
X76987807Y-51208857D01*
X76987802Y-51208855D01*
X76842001Y-51177865D01*
X76802646Y-51169500D01*
X76613354Y-51169500D01*
X76580897Y-51176398D01*
X76428197Y-51208855D01*
X76428192Y-51208857D01*
X76250436Y-51288001D01*
X76181186Y-51297286D01*
X76149564Y-51288001D01*
X75971807Y-51208857D01*
X75971802Y-51208855D01*
X75826001Y-51177865D01*
X75786646Y-51169500D01*
X75597354Y-51169500D01*
X75564897Y-51176398D01*
X75412197Y-51208855D01*
X75412192Y-51208857D01*
X75239270Y-51285848D01*
X75239265Y-51285851D01*
X75086129Y-51397111D01*
X74959466Y-51537785D01*
X74864821Y-51701715D01*
X74864818Y-51701722D01*
X74806327Y-51881740D01*
X74806326Y-51881744D01*
X74786540Y-52070000D01*
X60300500Y-52070000D01*
X60300500Y-45676198D01*
X79298757Y-45676198D01*
X79308730Y-45910976D01*
X79308730Y-45910982D01*
X79333711Y-46026890D01*
X79358240Y-46140703D01*
X79445859Y-46358753D01*
X79509077Y-46461425D01*
X79569070Y-46558860D01*
X79724325Y-46735264D01*
X79724329Y-46735268D01*
X79907153Y-46882888D01*
X79907157Y-46882891D01*
X79907160Y-46882893D01*
X80112315Y-46997499D01*
X80333887Y-47075785D01*
X80463131Y-47097946D01*
X80565493Y-47115499D01*
X80565502Y-47115500D01*
X80741645Y-47115500D01*
X80917144Y-47100563D01*
X80917147Y-47100562D01*
X80917149Y-47100562D01*
X81144562Y-47041348D01*
X81275386Y-46982211D01*
X81358691Y-46944556D01*
X81358692Y-46944554D01*
X81358697Y-46944553D01*
X81553393Y-46812962D01*
X81723050Y-46650359D01*
X81862786Y-46461423D01*
X81968582Y-46251589D01*
X82037394Y-46026894D01*
X82067243Y-45793802D01*
X82057269Y-45559018D01*
X82007760Y-45329297D01*
X81920141Y-45111247D01*
X81796931Y-44911141D01*
X81641675Y-44734736D01*
X81641674Y-44734735D01*
X81641670Y-44734731D01*
X81458846Y-44587111D01*
X81458840Y-44587107D01*
X81253684Y-44472500D01*
X81032120Y-44394217D01*
X81032115Y-44394215D01*
X81032113Y-44394215D01*
X81032109Y-44394214D01*
X81032108Y-44394214D01*
X80800506Y-44354500D01*
X80800498Y-44354500D01*
X80624360Y-44354500D01*
X80624355Y-44354500D01*
X80448855Y-44369436D01*
X80221438Y-44428651D01*
X80007308Y-44525443D01*
X80007300Y-44525448D01*
X79812616Y-44657030D01*
X79812607Y-44657038D01*
X79642949Y-44819642D01*
X79503216Y-45008574D01*
X79503213Y-45008578D01*
X79397418Y-45218409D01*
X79328605Y-45443109D01*
X79298757Y-45676198D01*
X60300500Y-45676198D01*
X60300500Y-39759648D01*
X60268477Y-39557465D01*
X60205218Y-39362776D01*
X60137709Y-39230284D01*
X60112287Y-39180390D01*
X60099289Y-39162500D01*
X59991971Y-39014786D01*
X59847213Y-38870028D01*
X59836163Y-38862000D01*
X76564540Y-38862000D01*
X76584326Y-39050256D01*
X76584327Y-39050259D01*
X76642818Y-39230277D01*
X76642821Y-39230284D01*
X76737467Y-39394216D01*
X76808746Y-39473379D01*
X76864129Y-39534888D01*
X77017265Y-39646148D01*
X77017270Y-39646151D01*
X77190192Y-39723142D01*
X77190197Y-39723144D01*
X77375354Y-39762500D01*
X77375355Y-39762500D01*
X77564644Y-39762500D01*
X77564646Y-39762500D01*
X77749803Y-39723144D01*
X77922730Y-39646151D01*
X78075871Y-39534888D01*
X78202533Y-39394216D01*
X78297179Y-39230284D01*
X78355674Y-39050256D01*
X78375460Y-38862000D01*
X78355674Y-38673744D01*
X78297179Y-38493716D01*
X78202533Y-38329784D01*
X78075871Y-38189112D01*
X78075870Y-38189111D01*
X77922734Y-38077851D01*
X77922729Y-38077848D01*
X77749807Y-38000857D01*
X77749802Y-38000855D01*
X77604001Y-37969865D01*
X77564646Y-37961500D01*
X77375354Y-37961500D01*
X77342897Y-37968398D01*
X77190197Y-38000855D01*
X77190192Y-38000857D01*
X77017270Y-38077848D01*
X77017265Y-38077851D01*
X76864129Y-38189111D01*
X76737466Y-38329785D01*
X76642821Y-38493715D01*
X76642818Y-38493722D01*
X76584327Y-38673740D01*
X76584326Y-38673744D01*
X76564540Y-38862000D01*
X59836163Y-38862000D01*
X59681613Y-38749715D01*
X59681612Y-38749714D01*
X59681610Y-38749713D01*
X59624653Y-38720691D01*
X59499223Y-38656781D01*
X59304534Y-38593522D01*
X59129995Y-38565878D01*
X59102352Y-38561500D01*
X59056173Y-38561500D01*
X49381595Y-38561500D01*
X49334000Y-38561500D01*
X49231648Y-38561500D01*
X49207329Y-38565351D01*
X49029465Y-38593522D01*
X48834776Y-38656781D01*
X48652386Y-38749715D01*
X48486786Y-38870028D01*
X48342028Y-39014786D01*
X48221715Y-39180386D01*
X48128781Y-39362776D01*
X48065522Y-39557465D01*
X48033500Y-39759648D01*
X48033500Y-66932000D01*
X48013815Y-66999039D01*
X47961011Y-67044794D01*
X47909500Y-67056000D01*
X25078500Y-67056000D01*
X25011461Y-67036315D01*
X24965706Y-66983511D01*
X24954500Y-66932000D01*
X24954500Y-62230000D01*
X39226540Y-62230000D01*
X39246326Y-62418256D01*
X39246327Y-62418259D01*
X39304818Y-62598277D01*
X39304821Y-62598284D01*
X39399467Y-62762216D01*
X39422876Y-62788214D01*
X39526129Y-62902888D01*
X39679265Y-63014148D01*
X39679270Y-63014151D01*
X39852192Y-63091142D01*
X39852197Y-63091144D01*
X40037354Y-63130500D01*
X40037355Y-63130500D01*
X40226644Y-63130500D01*
X40226646Y-63130500D01*
X40411803Y-63091144D01*
X40565677Y-63022633D01*
X40634927Y-63013349D01*
X40688997Y-63035594D01*
X40695266Y-63040148D01*
X40695270Y-63040151D01*
X40868192Y-63117142D01*
X40868197Y-63117144D01*
X41053354Y-63156500D01*
X41053355Y-63156500D01*
X41242644Y-63156500D01*
X41242646Y-63156500D01*
X41427803Y-63117144D01*
X41600730Y-63040151D01*
X41753871Y-62928888D01*
X41880533Y-62788216D01*
X41975179Y-62624284D01*
X42033674Y-62444256D01*
X42053460Y-62256000D01*
X42033674Y-62067744D01*
X41975179Y-61887716D01*
X41880533Y-61723784D01*
X41850988Y-61690971D01*
X41820759Y-61627982D01*
X41829383Y-61558647D01*
X41850987Y-61525029D01*
X41880533Y-61492216D01*
X41975179Y-61328284D01*
X42033674Y-61148256D01*
X42053460Y-60960000D01*
X42033674Y-60771744D01*
X41975179Y-60591716D01*
X41880533Y-60427784D01*
X41862693Y-60407971D01*
X41832464Y-60344981D01*
X41841089Y-60275646D01*
X41862694Y-60242028D01*
X41880533Y-60222216D01*
X41975179Y-60058284D01*
X42033674Y-59878256D01*
X42053460Y-59690000D01*
X42033674Y-59501744D01*
X41975179Y-59321716D01*
X41880533Y-59157784D01*
X41862693Y-59137971D01*
X41832464Y-59074981D01*
X41841089Y-59005646D01*
X41862694Y-58972028D01*
X41880533Y-58952216D01*
X41975179Y-58788284D01*
X42033674Y-58608256D01*
X42053460Y-58420000D01*
X42033674Y-58231744D01*
X41975179Y-58051716D01*
X41880533Y-57887784D01*
X41874400Y-57880973D01*
X41844170Y-57817983D01*
X41852793Y-57748647D01*
X41874401Y-57715026D01*
X41880533Y-57708216D01*
X41975179Y-57544284D01*
X42033674Y-57364256D01*
X42053460Y-57176000D01*
X42033674Y-56987744D01*
X41975179Y-56807716D01*
X41880533Y-56643784D01*
X41850988Y-56610971D01*
X41820759Y-56547982D01*
X41829383Y-56478647D01*
X41850987Y-56445029D01*
X41880533Y-56412216D01*
X41975179Y-56248284D01*
X42033674Y-56068256D01*
X42053460Y-55880000D01*
X42033674Y-55691744D01*
X41975179Y-55511716D01*
X41880533Y-55347784D01*
X41874400Y-55340973D01*
X41844170Y-55277983D01*
X41852793Y-55208647D01*
X41874401Y-55175026D01*
X41880533Y-55168216D01*
X41975179Y-55004284D01*
X42033674Y-54824256D01*
X42053460Y-54636000D01*
X42033674Y-54447744D01*
X41975179Y-54267716D01*
X41880533Y-54103784D01*
X41753871Y-53963112D01*
X41753870Y-53963111D01*
X41600734Y-53851851D01*
X41600729Y-53851848D01*
X41427807Y-53774857D01*
X41427802Y-53774855D01*
X41282001Y-53743865D01*
X41242646Y-53735500D01*
X41053354Y-53735500D01*
X41020897Y-53742398D01*
X40868197Y-53774855D01*
X40868192Y-53774857D01*
X40714322Y-53843366D01*
X40645072Y-53852651D01*
X40591002Y-53830406D01*
X40584729Y-53825848D01*
X40411807Y-53748857D01*
X40411802Y-53748855D01*
X40266001Y-53717865D01*
X40226646Y-53709500D01*
X40037354Y-53709500D01*
X40004897Y-53716398D01*
X39852197Y-53748855D01*
X39852192Y-53748857D01*
X39679270Y-53825848D01*
X39679265Y-53825851D01*
X39526129Y-53937111D01*
X39399466Y-54077785D01*
X39304821Y-54241715D01*
X39304818Y-54241722D01*
X39246327Y-54421740D01*
X39246326Y-54421744D01*
X39226540Y-54610000D01*
X39246326Y-54798256D01*
X39246327Y-54798259D01*
X39304818Y-54978277D01*
X39304821Y-54978284D01*
X39399467Y-55142216D01*
X39409806Y-55153699D01*
X39417307Y-55162030D01*
X39447535Y-55225022D01*
X39438909Y-55294357D01*
X39417307Y-55327970D01*
X39399466Y-55347785D01*
X39304821Y-55511715D01*
X39304818Y-55511722D01*
X39246327Y-55691740D01*
X39246326Y-55691744D01*
X39226540Y-55880000D01*
X39246326Y-56068256D01*
X39246327Y-56068259D01*
X39304818Y-56248277D01*
X39304821Y-56248284D01*
X39399467Y-56412216D01*
X39409806Y-56423699D01*
X39417307Y-56432030D01*
X39447535Y-56495022D01*
X39438909Y-56564357D01*
X39417307Y-56597970D01*
X39399466Y-56617785D01*
X39304821Y-56781715D01*
X39304818Y-56781722D01*
X39246327Y-56961740D01*
X39246326Y-56961744D01*
X39226540Y-57150000D01*
X39246326Y-57338256D01*
X39246327Y-57338259D01*
X39304818Y-57518277D01*
X39304821Y-57518284D01*
X39399467Y-57682216D01*
X39409806Y-57693699D01*
X39417307Y-57702030D01*
X39447535Y-57765022D01*
X39438909Y-57834357D01*
X39417307Y-57867970D01*
X39399466Y-57887785D01*
X39304821Y-58051715D01*
X39304818Y-58051722D01*
X39246327Y-58231740D01*
X39246326Y-58231744D01*
X39226540Y-58420000D01*
X39246326Y-58608256D01*
X39246327Y-58608259D01*
X39304818Y-58788277D01*
X39304821Y-58788284D01*
X39399467Y-58952216D01*
X39409806Y-58963699D01*
X39417307Y-58972030D01*
X39447535Y-59035022D01*
X39438909Y-59104357D01*
X39417307Y-59137970D01*
X39399466Y-59157785D01*
X39304821Y-59321715D01*
X39304818Y-59321722D01*
X39246327Y-59501740D01*
X39246326Y-59501744D01*
X39226540Y-59690000D01*
X39246326Y-59878256D01*
X39246327Y-59878259D01*
X39304818Y-60058277D01*
X39304821Y-60058284D01*
X39399467Y-60222216D01*
X39409806Y-60233699D01*
X39417307Y-60242030D01*
X39447535Y-60305022D01*
X39438909Y-60374357D01*
X39417307Y-60407970D01*
X39399466Y-60427785D01*
X39304821Y-60591715D01*
X39304818Y-60591722D01*
X39246327Y-60771740D01*
X39246326Y-60771744D01*
X39226540Y-60960000D01*
X39246326Y-61148256D01*
X39246327Y-61148259D01*
X39304818Y-61328277D01*
X39304821Y-61328284D01*
X39399467Y-61492216D01*
X39409806Y-61503699D01*
X39417307Y-61512030D01*
X39447535Y-61575022D01*
X39438909Y-61644357D01*
X39417307Y-61677970D01*
X39399466Y-61697785D01*
X39304821Y-61861715D01*
X39304818Y-61861722D01*
X39246327Y-62041740D01*
X39246326Y-62041744D01*
X39226540Y-62230000D01*
X24954500Y-62230000D01*
X24954500Y-52070000D01*
X39226540Y-52070000D01*
X39246326Y-52258256D01*
X39246327Y-52258259D01*
X39304818Y-52438277D01*
X39304821Y-52438284D01*
X39399467Y-52602216D01*
X39422876Y-52628214D01*
X39526129Y-52742888D01*
X39679265Y-52854148D01*
X39679270Y-52854151D01*
X39852192Y-52931142D01*
X39852197Y-52931144D01*
X40037354Y-52970500D01*
X40037355Y-52970500D01*
X40226644Y-52970500D01*
X40226646Y-52970500D01*
X40411803Y-52931144D01*
X40565677Y-52862633D01*
X40634927Y-52853349D01*
X40688997Y-52875594D01*
X40695266Y-52880148D01*
X40695270Y-52880151D01*
X40868192Y-52957142D01*
X40868197Y-52957144D01*
X41053354Y-52996500D01*
X41053355Y-52996500D01*
X41242644Y-52996500D01*
X41242646Y-52996500D01*
X41427803Y-52957144D01*
X41600730Y-52880151D01*
X41753871Y-52768888D01*
X41880533Y-52628216D01*
X41975179Y-52464284D01*
X42033674Y-52284256D01*
X42053460Y-52096000D01*
X42033674Y-51907744D01*
X41975179Y-51727716D01*
X41880533Y-51563784D01*
X41753871Y-51423112D01*
X41753870Y-51423111D01*
X41600734Y-51311851D01*
X41600729Y-51311848D01*
X41427807Y-51234857D01*
X41427802Y-51234855D01*
X41282001Y-51203865D01*
X41242646Y-51195500D01*
X41053354Y-51195500D01*
X41020897Y-51202398D01*
X40868197Y-51234855D01*
X40868192Y-51234857D01*
X40714322Y-51303366D01*
X40645072Y-51312651D01*
X40591002Y-51290406D01*
X40584729Y-51285848D01*
X40411807Y-51208857D01*
X40411802Y-51208855D01*
X40266001Y-51177865D01*
X40226646Y-51169500D01*
X40037354Y-51169500D01*
X40004897Y-51176398D01*
X39852197Y-51208855D01*
X39852192Y-51208857D01*
X39679270Y-51285848D01*
X39679265Y-51285851D01*
X39526129Y-51397111D01*
X39399466Y-51537785D01*
X39304821Y-51701715D01*
X39304818Y-51701722D01*
X39246327Y-51881740D01*
X39246326Y-51881744D01*
X39226540Y-52070000D01*
X24954500Y-52070000D01*
X24954500Y-45676198D01*
X43898757Y-45676198D01*
X43908730Y-45910976D01*
X43908730Y-45910982D01*
X43933711Y-46026890D01*
X43958240Y-46140703D01*
X44045859Y-46358753D01*
X44109077Y-46461425D01*
X44169070Y-46558860D01*
X44324325Y-46735264D01*
X44324329Y-46735268D01*
X44507153Y-46882888D01*
X44507157Y-46882891D01*
X44507160Y-46882893D01*
X44712315Y-46997499D01*
X44933887Y-47075785D01*
X45063131Y-47097946D01*
X45165493Y-47115499D01*
X45165502Y-47115500D01*
X45341645Y-47115500D01*
X45517144Y-47100563D01*
X45517147Y-47100562D01*
X45517149Y-47100562D01*
X45744562Y-47041348D01*
X45875386Y-46982211D01*
X45958691Y-46944556D01*
X45958692Y-46944554D01*
X45958697Y-46944553D01*
X46153393Y-46812962D01*
X46323050Y-46650359D01*
X46462786Y-46461423D01*
X46568582Y-46251589D01*
X46637394Y-46026894D01*
X46667243Y-45793802D01*
X46657269Y-45559018D01*
X46607760Y-45329297D01*
X46520141Y-45111247D01*
X46396931Y-44911141D01*
X46241675Y-44734736D01*
X46241674Y-44734735D01*
X46241670Y-44734731D01*
X46058846Y-44587111D01*
X46058840Y-44587107D01*
X45853684Y-44472500D01*
X45632120Y-44394217D01*
X45632115Y-44394215D01*
X45632113Y-44394215D01*
X45632109Y-44394214D01*
X45632108Y-44394214D01*
X45400506Y-44354500D01*
X45400498Y-44354500D01*
X45224360Y-44354500D01*
X45224355Y-44354500D01*
X45048855Y-44369436D01*
X44821438Y-44428651D01*
X44607308Y-44525443D01*
X44607300Y-44525448D01*
X44412616Y-44657030D01*
X44412607Y-44657038D01*
X44242949Y-44819642D01*
X44103216Y-45008574D01*
X44103213Y-45008578D01*
X43997418Y-45218409D01*
X43928605Y-45443109D01*
X43898757Y-45676198D01*
X24954500Y-45676198D01*
X24954500Y-38862000D01*
X41258540Y-38862000D01*
X41278326Y-39050256D01*
X41278327Y-39050259D01*
X41336818Y-39230277D01*
X41336821Y-39230284D01*
X41431467Y-39394216D01*
X41502746Y-39473379D01*
X41558129Y-39534888D01*
X41711265Y-39646148D01*
X41711270Y-39646151D01*
X41884192Y-39723142D01*
X41884197Y-39723144D01*
X42069354Y-39762500D01*
X42069355Y-39762500D01*
X42258644Y-39762500D01*
X42258646Y-39762500D01*
X42443803Y-39723144D01*
X42616730Y-39646151D01*
X42769871Y-39534888D01*
X42896533Y-39394216D01*
X42991179Y-39230284D01*
X43049674Y-39050256D01*
X43069460Y-38862000D01*
X43049674Y-38673744D01*
X42991179Y-38493716D01*
X42896533Y-38329784D01*
X42769871Y-38189112D01*
X42769870Y-38189111D01*
X42616734Y-38077851D01*
X42616729Y-38077848D01*
X42443807Y-38000857D01*
X42443802Y-38000855D01*
X42298001Y-37969865D01*
X42258646Y-37961500D01*
X42069354Y-37961500D01*
X42036897Y-37968398D01*
X41884197Y-38000855D01*
X41884192Y-38000857D01*
X41711270Y-38077848D01*
X41711265Y-38077851D01*
X41558129Y-38189111D01*
X41431466Y-38329785D01*
X41336821Y-38493715D01*
X41336818Y-38493722D01*
X41278327Y-38673740D01*
X41278326Y-38673744D01*
X41258540Y-38862000D01*
X24954500Y-38862000D01*
X24954500Y-36068000D01*
X37956540Y-36068000D01*
X37976326Y-36256256D01*
X37976327Y-36256259D01*
X38034818Y-36436277D01*
X38034821Y-36436284D01*
X38129467Y-36600216D01*
X38256129Y-36740888D01*
X38409265Y-36852148D01*
X38409270Y-36852151D01*
X38582192Y-36929142D01*
X38582197Y-36929144D01*
X38767354Y-36968500D01*
X38767355Y-36968500D01*
X38956644Y-36968500D01*
X38956646Y-36968500D01*
X39141803Y-36929144D01*
X39314730Y-36852151D01*
X39467871Y-36740888D01*
X39594533Y-36600216D01*
X39689179Y-36436284D01*
X39747674Y-36256256D01*
X39767460Y-36068000D01*
X73262540Y-36068000D01*
X73282326Y-36256256D01*
X73282327Y-36256259D01*
X73340818Y-36436277D01*
X73340821Y-36436284D01*
X73435467Y-36600216D01*
X73562129Y-36740888D01*
X73715265Y-36852148D01*
X73715270Y-36852151D01*
X73888192Y-36929142D01*
X73888197Y-36929144D01*
X74073354Y-36968500D01*
X74073355Y-36968500D01*
X74262644Y-36968500D01*
X74262646Y-36968500D01*
X74447803Y-36929144D01*
X74620730Y-36852151D01*
X74773871Y-36740888D01*
X74900533Y-36600216D01*
X74995179Y-36436284D01*
X75053674Y-36256256D01*
X75073460Y-36068000D01*
X108822540Y-36068000D01*
X108842326Y-36256256D01*
X108842327Y-36256259D01*
X108900818Y-36436277D01*
X108900821Y-36436284D01*
X108995467Y-36600216D01*
X109122129Y-36740888D01*
X109275265Y-36852148D01*
X109275270Y-36852151D01*
X109448192Y-36929142D01*
X109448197Y-36929144D01*
X109633354Y-36968500D01*
X109633355Y-36968500D01*
X109822644Y-36968500D01*
X109822646Y-36968500D01*
X110007803Y-36929144D01*
X110180730Y-36852151D01*
X110333871Y-36740888D01*
X110460533Y-36600216D01*
X110555179Y-36436284D01*
X110613674Y-36256256D01*
X110633460Y-36068000D01*
X144128540Y-36068000D01*
X144148326Y-36256256D01*
X144148327Y-36256259D01*
X144206818Y-36436277D01*
X144206821Y-36436284D01*
X144301467Y-36600216D01*
X144428129Y-36740888D01*
X144581265Y-36852148D01*
X144581270Y-36852151D01*
X144754192Y-36929142D01*
X144754197Y-36929144D01*
X144939354Y-36968500D01*
X144939355Y-36968500D01*
X145128644Y-36968500D01*
X145128646Y-36968500D01*
X145313803Y-36929144D01*
X145486730Y-36852151D01*
X145639871Y-36740888D01*
X145766533Y-36600216D01*
X145861179Y-36436284D01*
X145919674Y-36256256D01*
X145939460Y-36068000D01*
X145919674Y-35879744D01*
X145861179Y-35699716D01*
X145766533Y-35535784D01*
X145639871Y-35395112D01*
X145639870Y-35395111D01*
X145486734Y-35283851D01*
X145486729Y-35283848D01*
X145313807Y-35206857D01*
X145313802Y-35206855D01*
X145168001Y-35175865D01*
X145128646Y-35167500D01*
X144939354Y-35167500D01*
X144906897Y-35174398D01*
X144754197Y-35206855D01*
X144754192Y-35206857D01*
X144581270Y-35283848D01*
X144581265Y-35283851D01*
X144428129Y-35395111D01*
X144301466Y-35535785D01*
X144206821Y-35699715D01*
X144206818Y-35699722D01*
X144148327Y-35879740D01*
X144148326Y-35879744D01*
X144128540Y-36068000D01*
X110633460Y-36068000D01*
X110613674Y-35879744D01*
X110555179Y-35699716D01*
X110460533Y-35535784D01*
X110333871Y-35395112D01*
X110333870Y-35395111D01*
X110180734Y-35283851D01*
X110180729Y-35283848D01*
X110007807Y-35206857D01*
X110007802Y-35206855D01*
X109862001Y-35175865D01*
X109822646Y-35167500D01*
X109633354Y-35167500D01*
X109600897Y-35174398D01*
X109448197Y-35206855D01*
X109448192Y-35206857D01*
X109275270Y-35283848D01*
X109275265Y-35283851D01*
X109122129Y-35395111D01*
X108995466Y-35535785D01*
X108900821Y-35699715D01*
X108900818Y-35699722D01*
X108842327Y-35879740D01*
X108842326Y-35879744D01*
X108822540Y-36068000D01*
X75073460Y-36068000D01*
X75053674Y-35879744D01*
X74995179Y-35699716D01*
X74900533Y-35535784D01*
X74773871Y-35395112D01*
X74773870Y-35395111D01*
X74620734Y-35283851D01*
X74620729Y-35283848D01*
X74447807Y-35206857D01*
X74447802Y-35206855D01*
X74302001Y-35175865D01*
X74262646Y-35167500D01*
X74073354Y-35167500D01*
X74040897Y-35174398D01*
X73888197Y-35206855D01*
X73888192Y-35206857D01*
X73715270Y-35283848D01*
X73715265Y-35283851D01*
X73562129Y-35395111D01*
X73435466Y-35535785D01*
X73340821Y-35699715D01*
X73340818Y-35699722D01*
X73282327Y-35879740D01*
X73282326Y-35879744D01*
X73262540Y-36068000D01*
X39767460Y-36068000D01*
X39747674Y-35879744D01*
X39689179Y-35699716D01*
X39594533Y-35535784D01*
X39467871Y-35395112D01*
X39467870Y-35395111D01*
X39314734Y-35283851D01*
X39314729Y-35283848D01*
X39141807Y-35206857D01*
X39141802Y-35206855D01*
X38996001Y-35175865D01*
X38956646Y-35167500D01*
X38767354Y-35167500D01*
X38734897Y-35174398D01*
X38582197Y-35206855D01*
X38582192Y-35206857D01*
X38409270Y-35283848D01*
X38409265Y-35283851D01*
X38256129Y-35395111D01*
X38129466Y-35535785D01*
X38034821Y-35699715D01*
X38034818Y-35699722D01*
X37976327Y-35879740D01*
X37976326Y-35879744D01*
X37956540Y-36068000D01*
X24954500Y-36068000D01*
X24954500Y-32126676D01*
X58401500Y-32126676D01*
X58441884Y-32368690D01*
X58521548Y-32600740D01*
X58521554Y-32600754D01*
X58638323Y-32816526D01*
X58638329Y-32816535D01*
X58789022Y-33010145D01*
X58789025Y-33010149D01*
X58969544Y-33176329D01*
X59174943Y-33310522D01*
X59174945Y-33310523D01*
X59399635Y-33409082D01*
X59637483Y-33469313D01*
X59820765Y-33484500D01*
X59820767Y-33484500D01*
X59943233Y-33484500D01*
X59943235Y-33484500D01*
X60126517Y-33469313D01*
X60364365Y-33409082D01*
X60589055Y-33310523D01*
X60794458Y-33176327D01*
X60974972Y-33010152D01*
X61125673Y-32816532D01*
X61242449Y-32600748D01*
X61322116Y-32368687D01*
X61362500Y-32126678D01*
X61362500Y-32126676D01*
X82401500Y-32126676D01*
X82441884Y-32368690D01*
X82521548Y-32600740D01*
X82521554Y-32600754D01*
X82638323Y-32816526D01*
X82638329Y-32816535D01*
X82789022Y-33010145D01*
X82789025Y-33010149D01*
X82969544Y-33176329D01*
X83174943Y-33310522D01*
X83174945Y-33310523D01*
X83399635Y-33409082D01*
X83637483Y-33469313D01*
X83820765Y-33484500D01*
X83820767Y-33484500D01*
X83943233Y-33484500D01*
X83943235Y-33484500D01*
X84126517Y-33469313D01*
X84364365Y-33409082D01*
X84589055Y-33310523D01*
X84794458Y-33176327D01*
X84974972Y-33010152D01*
X85125673Y-32816532D01*
X85242449Y-32600748D01*
X85322116Y-32368687D01*
X85362500Y-32126678D01*
X85362500Y-31881322D01*
X85322116Y-31639313D01*
X85242449Y-31407252D01*
X85125673Y-31191468D01*
X84974972Y-30997848D01*
X84794458Y-30831673D01*
X84794455Y-30831670D01*
X84589056Y-30697477D01*
X84458438Y-30640182D01*
X84364365Y-30598918D01*
X84364363Y-30598917D01*
X84364362Y-30598917D01*
X84126513Y-30538686D01*
X83979640Y-30526516D01*
X83943235Y-30523500D01*
X83820765Y-30523500D01*
X83787648Y-30526244D01*
X83637486Y-30538686D01*
X83399637Y-30598917D01*
X83174943Y-30697477D01*
X82969544Y-30831670D01*
X82789025Y-30997850D01*
X82789022Y-30997854D01*
X82638329Y-31191464D01*
X82638323Y-31191473D01*
X82521554Y-31407245D01*
X82521548Y-31407259D01*
X82441884Y-31639309D01*
X82401500Y-31881323D01*
X82401500Y-32126676D01*
X61362500Y-32126676D01*
X61362500Y-31881322D01*
X61322116Y-31639313D01*
X61242449Y-31407252D01*
X61125673Y-31191468D01*
X60974972Y-30997848D01*
X60794458Y-30831673D01*
X60794455Y-30831670D01*
X60589056Y-30697477D01*
X60458438Y-30640182D01*
X60364365Y-30598918D01*
X60364363Y-30598917D01*
X60364362Y-30598917D01*
X60126513Y-30538686D01*
X59979640Y-30526516D01*
X59943235Y-30523500D01*
X59820765Y-30523500D01*
X59787648Y-30526244D01*
X59637486Y-30538686D01*
X59399637Y-30598917D01*
X59174943Y-30697477D01*
X58969544Y-30831670D01*
X58789025Y-30997850D01*
X58789022Y-30997854D01*
X58638329Y-31191464D01*
X58638323Y-31191473D01*
X58521554Y-31407245D01*
X58521548Y-31407259D01*
X58441884Y-31639309D01*
X58401500Y-31881323D01*
X58401500Y-32126676D01*
X24954500Y-32126676D01*
X24954500Y-28000001D01*
X35402569Y-28000001D01*
X35422269Y-28275442D01*
X35422270Y-28275449D01*
X35480966Y-28545267D01*
X35480968Y-28545274D01*
X35507113Y-28615371D01*
X35577470Y-28804008D01*
X35577472Y-28804012D01*
X35709808Y-29046367D01*
X35709813Y-29046375D01*
X35875292Y-29267430D01*
X35875308Y-29267448D01*
X36070551Y-29462691D01*
X36070569Y-29462707D01*
X36291624Y-29628186D01*
X36291632Y-29628191D01*
X36533987Y-29760527D01*
X36533991Y-29760529D01*
X36533993Y-29760530D01*
X36792726Y-29857032D01*
X37062559Y-29915731D01*
X37269056Y-29930500D01*
X37406944Y-29930500D01*
X37613441Y-29915731D01*
X37883274Y-29857032D01*
X38142007Y-29760530D01*
X38384373Y-29628188D01*
X38605438Y-29462701D01*
X38800701Y-29267438D01*
X38966188Y-29046373D01*
X39098530Y-28804007D01*
X39195032Y-28545274D01*
X39253731Y-28275441D01*
X39273431Y-28000000D01*
X39253731Y-27724559D01*
X39195032Y-27454726D01*
X39098530Y-27195993D01*
X39058145Y-27122034D01*
X38966191Y-26953632D01*
X38966186Y-26953624D01*
X38800707Y-26732569D01*
X38800691Y-26732551D01*
X38622140Y-26554000D01*
X62156592Y-26554000D01*
X62176201Y-26840680D01*
X62234666Y-27122034D01*
X62234667Y-27122037D01*
X62330894Y-27392793D01*
X62330893Y-27392793D01*
X62463098Y-27647935D01*
X62628812Y-27882700D01*
X62713923Y-27973831D01*
X62824947Y-28092708D01*
X63047853Y-28274055D01*
X63293382Y-28423365D01*
X63480237Y-28504526D01*
X63556942Y-28537844D01*
X63833642Y-28615371D01*
X64083920Y-28649771D01*
X64118321Y-28654500D01*
X64118322Y-28654500D01*
X64405679Y-28654500D01*
X64436370Y-28650281D01*
X64690358Y-28615371D01*
X64967058Y-28537844D01*
X65080015Y-28488779D01*
X65230617Y-28423365D01*
X65230620Y-28423363D01*
X65230625Y-28423361D01*
X65476147Y-28274055D01*
X65699053Y-28092708D01*
X65895189Y-27882698D01*
X66060901Y-27647936D01*
X66193104Y-27392797D01*
X66289334Y-27122032D01*
X66347798Y-26840686D01*
X66367408Y-26554000D01*
X67236592Y-26554000D01*
X67256201Y-26840680D01*
X67314666Y-27122034D01*
X67314667Y-27122037D01*
X67410894Y-27392793D01*
X67410893Y-27392793D01*
X67543098Y-27647935D01*
X67708812Y-27882700D01*
X67793923Y-27973831D01*
X67904947Y-28092708D01*
X68127853Y-28274055D01*
X68373382Y-28423365D01*
X68560237Y-28504526D01*
X68636942Y-28537844D01*
X68913642Y-28615371D01*
X69163920Y-28649771D01*
X69198321Y-28654500D01*
X69198322Y-28654500D01*
X69485679Y-28654500D01*
X69516370Y-28650281D01*
X69770358Y-28615371D01*
X70047058Y-28537844D01*
X70160015Y-28488779D01*
X70310617Y-28423365D01*
X70310620Y-28423363D01*
X70310625Y-28423361D01*
X70556147Y-28274055D01*
X70779053Y-28092708D01*
X70975189Y-27882698D01*
X71140901Y-27647936D01*
X71273104Y-27392797D01*
X71369334Y-27122032D01*
X71427798Y-26840686D01*
X71447408Y-26554000D01*
X72316592Y-26554000D01*
X72336201Y-26840680D01*
X72394666Y-27122034D01*
X72394667Y-27122037D01*
X72490894Y-27392793D01*
X72490893Y-27392793D01*
X72623098Y-27647935D01*
X72788812Y-27882700D01*
X72873923Y-27973831D01*
X72984947Y-28092708D01*
X73207853Y-28274055D01*
X73453382Y-28423365D01*
X73640237Y-28504526D01*
X73716942Y-28537844D01*
X73993642Y-28615371D01*
X74243920Y-28649771D01*
X74278321Y-28654500D01*
X74278322Y-28654500D01*
X74565679Y-28654500D01*
X74596370Y-28650281D01*
X74850358Y-28615371D01*
X75127058Y-28537844D01*
X75240015Y-28488779D01*
X75390617Y-28423365D01*
X75390620Y-28423363D01*
X75390625Y-28423361D01*
X75636147Y-28274055D01*
X75859053Y-28092708D01*
X75945635Y-28000001D01*
X141602569Y-28000001D01*
X141622269Y-28275442D01*
X141622270Y-28275449D01*
X141680966Y-28545267D01*
X141680968Y-28545274D01*
X141707113Y-28615371D01*
X141777470Y-28804008D01*
X141777472Y-28804012D01*
X141909808Y-29046367D01*
X141909813Y-29046375D01*
X142075292Y-29267430D01*
X142075308Y-29267448D01*
X142270551Y-29462691D01*
X142270569Y-29462707D01*
X142491624Y-29628186D01*
X142491632Y-29628191D01*
X142733987Y-29760527D01*
X142733991Y-29760529D01*
X142733993Y-29760530D01*
X142992726Y-29857032D01*
X143262559Y-29915731D01*
X143469056Y-29930500D01*
X143606944Y-29930500D01*
X143813441Y-29915731D01*
X144083274Y-29857032D01*
X144342007Y-29760530D01*
X144584373Y-29628188D01*
X144805438Y-29462701D01*
X145000701Y-29267438D01*
X145166188Y-29046373D01*
X145298530Y-28804007D01*
X145395032Y-28545274D01*
X145453731Y-28275441D01*
X145473431Y-28000000D01*
X145453731Y-27724559D01*
X145395032Y-27454726D01*
X145298530Y-27195993D01*
X145258145Y-27122034D01*
X145166191Y-26953632D01*
X145166186Y-26953624D01*
X145000707Y-26732569D01*
X145000691Y-26732551D01*
X144805448Y-26537308D01*
X144805430Y-26537292D01*
X144584375Y-26371813D01*
X144584367Y-26371808D01*
X144342012Y-26239472D01*
X144342008Y-26239470D01*
X144243917Y-26202884D01*
X144083274Y-26142968D01*
X144083270Y-26142967D01*
X144083267Y-26142966D01*
X143813449Y-26084270D01*
X143813442Y-26084269D01*
X143606944Y-26069500D01*
X143469056Y-26069500D01*
X143262557Y-26084269D01*
X143262550Y-26084270D01*
X142992732Y-26142966D01*
X142992727Y-26142967D01*
X142992726Y-26142968D01*
X142930172Y-26166299D01*
X142733991Y-26239470D01*
X142733987Y-26239472D01*
X142491632Y-26371808D01*
X142491624Y-26371813D01*
X142270569Y-26537292D01*
X142270551Y-26537308D01*
X142075308Y-26732551D01*
X142075292Y-26732569D01*
X141909813Y-26953624D01*
X141909808Y-26953632D01*
X141777472Y-27195987D01*
X141777470Y-27195991D01*
X141680966Y-27454732D01*
X141622270Y-27724550D01*
X141622269Y-27724557D01*
X141602569Y-27999998D01*
X141602569Y-28000001D01*
X75945635Y-28000001D01*
X76055189Y-27882698D01*
X76220901Y-27647936D01*
X76353104Y-27392797D01*
X76449334Y-27122032D01*
X76507798Y-26840686D01*
X76527408Y-26554000D01*
X76507798Y-26267314D01*
X76449334Y-25985968D01*
X76418462Y-25899104D01*
X76353105Y-25715206D01*
X76353106Y-25715206D01*
X76220901Y-25460064D01*
X76055187Y-25225299D01*
X75976554Y-25141105D01*
X75859053Y-25015292D01*
X75636147Y-24833945D01*
X75636146Y-24833944D01*
X75390617Y-24684634D01*
X75127063Y-24570158D01*
X75127061Y-24570157D01*
X75127058Y-24570156D01*
X74997578Y-24533877D01*
X74850364Y-24492630D01*
X74850359Y-24492629D01*
X74850358Y-24492629D01*
X74708018Y-24473064D01*
X74565679Y-24453500D01*
X74565678Y-24453500D01*
X74278322Y-24453500D01*
X74278321Y-24453500D01*
X73993642Y-24492629D01*
X73993635Y-24492630D01*
X73785861Y-24550845D01*
X73716942Y-24570156D01*
X73716939Y-24570156D01*
X73716936Y-24570158D01*
X73716935Y-24570158D01*
X73453382Y-24684634D01*
X73207853Y-24833944D01*
X72984950Y-25015289D01*
X72788812Y-25225299D01*
X72623098Y-25460064D01*
X72490894Y-25715206D01*
X72394667Y-25985962D01*
X72394666Y-25985965D01*
X72336201Y-26267319D01*
X72316592Y-26554000D01*
X71447408Y-26554000D01*
X71427798Y-26267314D01*
X71369334Y-25985968D01*
X71338462Y-25899104D01*
X71273105Y-25715206D01*
X71273106Y-25715206D01*
X71140901Y-25460064D01*
X70975187Y-25225299D01*
X70896554Y-25141105D01*
X70779053Y-25015292D01*
X70556147Y-24833945D01*
X70556146Y-24833944D01*
X70310617Y-24684634D01*
X70047063Y-24570158D01*
X70047061Y-24570157D01*
X70047058Y-24570156D01*
X69917578Y-24533877D01*
X69770364Y-24492630D01*
X69770359Y-24492629D01*
X69770358Y-24492629D01*
X69628018Y-24473064D01*
X69485679Y-24453500D01*
X69485678Y-24453500D01*
X69198322Y-24453500D01*
X69198321Y-24453500D01*
X68913642Y-24492629D01*
X68913635Y-24492630D01*
X68705861Y-24550845D01*
X68636942Y-24570156D01*
X68636939Y-24570156D01*
X68636936Y-24570158D01*
X68636935Y-24570158D01*
X68373382Y-24684634D01*
X68127853Y-24833944D01*
X67904950Y-25015289D01*
X67708812Y-25225299D01*
X67543098Y-25460064D01*
X67410894Y-25715206D01*
X67314667Y-25985962D01*
X67314666Y-25985965D01*
X67256201Y-26267319D01*
X67236592Y-26554000D01*
X66367408Y-26554000D01*
X66347798Y-26267314D01*
X66289334Y-25985968D01*
X66258462Y-25899104D01*
X66193105Y-25715206D01*
X66193106Y-25715206D01*
X66060901Y-25460064D01*
X65895187Y-25225299D01*
X65816554Y-25141105D01*
X65699053Y-25015292D01*
X65476147Y-24833945D01*
X65476146Y-24833944D01*
X65230617Y-24684634D01*
X64967063Y-24570158D01*
X64967061Y-24570157D01*
X64967058Y-24570156D01*
X64837578Y-24533877D01*
X64690364Y-24492630D01*
X64690359Y-24492629D01*
X64690358Y-24492629D01*
X64548018Y-24473064D01*
X64405679Y-24453500D01*
X64405678Y-24453500D01*
X64118322Y-24453500D01*
X64118321Y-24453500D01*
X63833642Y-24492629D01*
X63833635Y-24492630D01*
X63625861Y-24550845D01*
X63556942Y-24570156D01*
X63556939Y-24570156D01*
X63556936Y-24570158D01*
X63556935Y-24570158D01*
X63293382Y-24684634D01*
X63047853Y-24833944D01*
X62824950Y-25015289D01*
X62628812Y-25225299D01*
X62463098Y-25460064D01*
X62330894Y-25715206D01*
X62234667Y-25985962D01*
X62234666Y-25985965D01*
X62176201Y-26267319D01*
X62156592Y-26554000D01*
X38622140Y-26554000D01*
X38605448Y-26537308D01*
X38605430Y-26537292D01*
X38384375Y-26371813D01*
X38384367Y-26371808D01*
X38142012Y-26239472D01*
X38142008Y-26239470D01*
X38043917Y-26202884D01*
X37883274Y-26142968D01*
X37883270Y-26142967D01*
X37883267Y-26142966D01*
X37613449Y-26084270D01*
X37613442Y-26084269D01*
X37406944Y-26069500D01*
X37269056Y-26069500D01*
X37062557Y-26084269D01*
X37062550Y-26084270D01*
X36792732Y-26142966D01*
X36792727Y-26142967D01*
X36792726Y-26142968D01*
X36730172Y-26166299D01*
X36533991Y-26239470D01*
X36533987Y-26239472D01*
X36291632Y-26371808D01*
X36291624Y-26371813D01*
X36070569Y-26537292D01*
X36070551Y-26537308D01*
X35875308Y-26732551D01*
X35875292Y-26732569D01*
X35709813Y-26953624D01*
X35709808Y-26953632D01*
X35577472Y-27195987D01*
X35577470Y-27195991D01*
X35480966Y-27454732D01*
X35422270Y-27724550D01*
X35422269Y-27724557D01*
X35402569Y-27999998D01*
X35402569Y-28000001D01*
X24954500Y-28000001D01*
X24954500Y-25901877D01*
X24954613Y-25898133D01*
X24964013Y-25742727D01*
X24970311Y-25638615D01*
X24971214Y-25631185D01*
X24971622Y-25628957D01*
X25017739Y-25377302D01*
X25019530Y-25370039D01*
X25020226Y-25367806D01*
X25096319Y-25123615D01*
X25098971Y-25116628D01*
X25204899Y-24881263D01*
X25208382Y-24874628D01*
X25303691Y-24716966D01*
X25341907Y-24653750D01*
X25346155Y-24647595D01*
X25505346Y-24444402D01*
X25510291Y-24438821D01*
X25692821Y-24256291D01*
X25698402Y-24251346D01*
X25901595Y-24092155D01*
X25907754Y-24087905D01*
X25911455Y-24085668D01*
X26001959Y-24030956D01*
X26128628Y-23954382D01*
X26135263Y-23950899D01*
X26370628Y-23844971D01*
X26377615Y-23842319D01*
X26624046Y-23765528D01*
X26631302Y-23763739D01*
X26885186Y-23717213D01*
X26892615Y-23716311D01*
X27101921Y-23703650D01*
X27152134Y-23700613D01*
X27155878Y-23700500D01*
X153237044Y-23700500D01*
X153240788Y-23700613D01*
G37*
%TD.AperFunction*%
%TD*%
M02*
