%TF.GenerationSoftware,KiCad,Pcbnew,7.0.9*%
%TF.CreationDate,2024-03-25T15:38:11+01:00*%
%TF.ProjectId,8x-sata-backplane,38782d73-6174-4612-9d62-61636b706c61,rev?*%
%TF.SameCoordinates,Original*%
%TF.FileFunction,Copper,L3,Inr*%
%TF.FilePolarity,Positive*%
%FSLAX46Y46*%
G04 Gerber Fmt 4.6, Leading zero omitted, Abs format (unit mm)*
G04 Created by KiCad (PCBNEW 7.0.9) date 2024-03-25 15:38:11*
%MOMM*%
%LPD*%
G01*
G04 APERTURE LIST*
G04 Aperture macros list*
%AMRoundRect*
0 Rectangle with rounded corners*
0 $1 Rounding radius*
0 $2 $3 $4 $5 $6 $7 $8 $9 X,Y pos of 4 corners*
0 Add a 4 corners polygon primitive as box body*
4,1,4,$2,$3,$4,$5,$6,$7,$8,$9,$2,$3,0*
0 Add four circle primitives for the rounded corners*
1,1,$1+$1,$2,$3*
1,1,$1+$1,$4,$5*
1,1,$1+$1,$6,$7*
1,1,$1+$1,$8,$9*
0 Add four rect primitives between the rounded corners*
20,1,$1+$1,$2,$3,$4,$5,0*
20,1,$1+$1,$4,$5,$6,$7,0*
20,1,$1+$1,$6,$7,$8,$9,0*
20,1,$1+$1,$8,$9,$2,$3,0*%
G04 Aperture macros list end*
%TA.AperFunction,ComponentPad*%
%ADD10C,0.800000*%
%TD*%
%TA.AperFunction,ComponentPad*%
%ADD11C,6.400000*%
%TD*%
%TA.AperFunction,ComponentPad*%
%ADD12RoundRect,0.550000X0.550000X0.950000X-0.550000X0.950000X-0.550000X-0.950000X0.550000X-0.950000X0*%
%TD*%
%TA.AperFunction,ComponentPad*%
%ADD13C,3.500000*%
%TD*%
%TA.AperFunction,ComponentPad*%
%ADD14C,3.200000*%
%TD*%
%TA.AperFunction,ViaPad*%
%ADD15C,0.800000*%
%TD*%
G04 APERTURE END LIST*
D10*
%TO.N,N/C*%
%TO.C,REF\u002A\u002A*%
X57438000Y-144000000D03*
X56735056Y-145697056D03*
X56735056Y-142302944D03*
X55038000Y-146400000D03*
D11*
X55038000Y-144000000D03*
D10*
X55038000Y-141600000D03*
X53340944Y-145697056D03*
X53340944Y-142302944D03*
X52638000Y-144000000D03*
%TD*%
%TO.N,N/C*%
%TO.C,REF\u002A\u002A*%
X123438000Y-144000000D03*
X124140944Y-142302944D03*
X124140944Y-145697056D03*
X125838000Y-141600000D03*
D11*
X125838000Y-144000000D03*
D10*
X125838000Y-146400000D03*
X127535056Y-142302944D03*
X127535056Y-145697056D03*
X128238000Y-144000000D03*
%TD*%
%TO.N,N/C*%
%TO.C,REF\u002A\u002A*%
X141138000Y-29000000D03*
X141840944Y-27302944D03*
X141840944Y-30697056D03*
X143538000Y-26600000D03*
D11*
X143538000Y-29000000D03*
D10*
X143538000Y-31400000D03*
X145235056Y-27302944D03*
X145235056Y-30697056D03*
X145938000Y-29000000D03*
%TD*%
%TO.N,N/C*%
%TO.C,REF\u002A\u002A*%
X34938000Y-29000000D03*
X35640944Y-27302944D03*
X35640944Y-30697056D03*
X37338000Y-26600000D03*
D11*
X37338000Y-29000000D03*
D10*
X37338000Y-31400000D03*
X39035056Y-27302944D03*
X39035056Y-30697056D03*
X39738000Y-29000000D03*
%TD*%
D12*
%TO.N,unconnected-(J2-C2-Pad9)*%
%TO.C,J2*%
X43708000Y-144038000D03*
%TO.N,unconnected-(J2-C1-Pad8)*%
X30968000Y-144038000D03*
%TD*%
%TO.N,unconnected-(J6-C1-Pad8)*%
%TO.C,J6*%
X101768000Y-144038000D03*
%TO.N,unconnected-(J6-C2-Pad9)*%
X114508000Y-144038000D03*
%TD*%
%TO.N,unconnected-(J4-C1-Pad8)*%
%TO.C,J4*%
X66368000Y-144038000D03*
%TO.N,unconnected-(J4-C2-Pad9)*%
X79108000Y-144038000D03*
%TD*%
%TO.N,unconnected-(J8-C1-Pad8)*%
%TO.C,J8*%
X137168000Y-144058000D03*
%TO.N,unconnected-(J8-C2-Pad9)*%
X149908000Y-144058000D03*
%TD*%
D13*
%TO.N,N/C*%
%TO.C,J9*%
X59882000Y-32004000D03*
X83882000Y-32004000D03*
D14*
%TO.N,5V*%
X64262000Y-26554000D03*
%TO.N,GND*%
X69342000Y-26554000D03*
X74422000Y-26554000D03*
%TO.N,12V*%
X79502000Y-26554000D03*
%TD*%
D15*
%TO.N,GND*%
X146558000Y-60452000D03*
X146558000Y-59182000D03*
X146558000Y-57912000D03*
%TO.N,5V*%
X146558000Y-56642000D03*
X146558000Y-55372000D03*
X146558000Y-54102000D03*
%TO.N,GND*%
X146558000Y-52832000D03*
X146558000Y-51562000D03*
X146558000Y-50292000D03*
%TO.N,12V*%
X146558000Y-49022000D03*
X146558000Y-47752000D03*
X146558000Y-46482000D03*
%TO.N,GND*%
X110998000Y-60452000D03*
X110998000Y-59182000D03*
X110998000Y-57912000D03*
%TO.N,5V*%
X110998000Y-56642000D03*
X110998000Y-55372000D03*
X110998000Y-54102000D03*
%TO.N,GND*%
X110998000Y-52832000D03*
X110998000Y-51562000D03*
X110998000Y-50292000D03*
%TO.N,12V*%
X110998000Y-49022000D03*
X110998000Y-47752000D03*
X110998000Y-46482000D03*
%TO.N,GND*%
X75692000Y-60452000D03*
X75692000Y-59182000D03*
X75692000Y-57912000D03*
%TO.N,5V*%
X75692000Y-56642000D03*
X75692000Y-55372000D03*
X75692000Y-54102000D03*
%TO.N,GND*%
X75692000Y-52832000D03*
X75692000Y-51562000D03*
X75692000Y-50292000D03*
%TO.N,12V*%
X75692000Y-49022000D03*
X75692000Y-47752000D03*
X75692000Y-46482000D03*
%TO.N,GND*%
X40132000Y-60452000D03*
X40132000Y-59182000D03*
X40132000Y-57912000D03*
%TO.N,5V*%
X40132000Y-56642000D03*
X40132000Y-55372000D03*
X40132000Y-54102000D03*
%TO.N,GND*%
X40132000Y-52832000D03*
X40132000Y-51562000D03*
X40132000Y-50292000D03*
%TO.N,12V*%
X40132000Y-49022000D03*
X40132000Y-47752000D03*
X40132000Y-46482000D03*
%TO.N,GND*%
X76708000Y-50292000D03*
X147574000Y-57912000D03*
X112014000Y-51562000D03*
X112014000Y-50292000D03*
%TO.N,/GND4*%
X148082000Y-78232000D03*
%TO.N,GND*%
X76708000Y-59182000D03*
X76708000Y-57912000D03*
X112014000Y-60452000D03*
%TO.N,/GND3*%
X112776000Y-74422000D03*
%TO.N,/GND2*%
X72738000Y-140228000D03*
%TO.N,GND*%
X76708000Y-60452000D03*
%TO.N,/GND2*%
X76548000Y-140228000D03*
%TO.N,GND*%
X112014000Y-57912000D03*
%TO.N,/GND1*%
X37338000Y-140228000D03*
%TO.N,GND*%
X147574000Y-50292000D03*
%TO.N,/GND1*%
X33528000Y-140228000D03*
%TO.N,/GND4*%
X148082000Y-70612000D03*
%TO.N,/GND1*%
X41910000Y-70612000D03*
%TO.N,/GND4*%
X143538000Y-140228000D03*
%TO.N,/GND2*%
X77470000Y-70612000D03*
%TO.N,/GND3*%
X104328000Y-140228000D03*
X112776000Y-70612000D03*
X108138000Y-140228000D03*
%TO.N,GND*%
X41148000Y-59182000D03*
%TO.N,/GND2*%
X68928000Y-140228000D03*
%TO.N,/GND3*%
X111948000Y-140228000D03*
%TO.N,/GND2*%
X77470000Y-78232000D03*
%TO.N,GND*%
X41148000Y-50318000D03*
%TO.N,/GND4*%
X139728000Y-140228000D03*
%TO.N,/GND3*%
X112776000Y-78232000D03*
%TO.N,GND*%
X112014000Y-59182000D03*
%TO.N,/GND1*%
X41910000Y-74422000D03*
%TO.N,GND*%
X147574000Y-59182000D03*
%TO.N,/GND1*%
X41910000Y-78232000D03*
%TO.N,GND*%
X76708000Y-52832000D03*
X147574000Y-52832000D03*
X41148000Y-51588000D03*
X41148000Y-57912000D03*
X147574000Y-60452000D03*
%TO.N,/GND4*%
X147348000Y-140228000D03*
X148082000Y-74422000D03*
%TO.N,/GND2*%
X77470000Y-74422000D03*
%TO.N,/GND1*%
X41148000Y-140228000D03*
%TO.N,GND*%
X147574000Y-51562000D03*
X41148000Y-52858000D03*
X41148000Y-60478000D03*
X112014000Y-52832000D03*
X76708000Y-51562000D03*
%TO.N,5V*%
X41148000Y-56642000D03*
X112014000Y-55372000D03*
X147574000Y-56642000D03*
X76708000Y-56642000D03*
X41148000Y-54102000D03*
X147574000Y-55372000D03*
X112014000Y-56642000D03*
X76708000Y-54102000D03*
X76708000Y-55372000D03*
X112014000Y-54102000D03*
X41148000Y-55398000D03*
X147574000Y-54102000D03*
%TO.N,12V*%
X147574000Y-46482000D03*
X41148000Y-47752000D03*
X147574000Y-49022000D03*
X112014000Y-47752000D03*
X147574000Y-47752000D03*
X41148000Y-49048000D03*
X76708000Y-46482000D03*
X76708000Y-49022000D03*
X112014000Y-49022000D03*
X112014000Y-46482000D03*
X76708000Y-47752000D03*
X41148000Y-46482000D03*
%TD*%
%TA.AperFunction,Conductor*%
%TO.N,12V*%
G36*
X152696025Y-23800632D02*
G01*
X152963993Y-23818196D01*
X152972022Y-23819254D01*
X153233405Y-23871246D01*
X153241231Y-23873342D01*
X153493588Y-23959006D01*
X153501082Y-23962109D01*
X153740107Y-24079983D01*
X153747129Y-24084038D01*
X153968717Y-24232098D01*
X153975145Y-24237030D01*
X154175512Y-24412746D01*
X154181251Y-24418485D01*
X154356967Y-24618852D01*
X154361903Y-24625284D01*
X154435932Y-24736077D01*
X154509960Y-24846868D01*
X154514019Y-24853898D01*
X154631887Y-25092910D01*
X154634993Y-25100411D01*
X154720653Y-25352755D01*
X154722754Y-25360598D01*
X154774744Y-25621970D01*
X154775804Y-25630019D01*
X154786347Y-25790875D01*
X154793367Y-25897965D01*
X154793500Y-25902022D01*
X154793500Y-64392000D01*
X154773815Y-64459039D01*
X154721011Y-64504794D01*
X154669500Y-64516000D01*
X131324500Y-64516000D01*
X131257461Y-64496315D01*
X131211706Y-64443511D01*
X131200500Y-64392000D01*
X131200500Y-60452000D01*
X145652540Y-60452000D01*
X145672326Y-60640256D01*
X145672327Y-60640259D01*
X145730818Y-60820277D01*
X145730821Y-60820284D01*
X145825467Y-60984216D01*
X145848876Y-61010214D01*
X145952129Y-61124888D01*
X146105265Y-61236148D01*
X146105270Y-61236151D01*
X146278192Y-61313142D01*
X146278197Y-61313144D01*
X146463354Y-61352500D01*
X146463355Y-61352500D01*
X146652644Y-61352500D01*
X146652646Y-61352500D01*
X146837803Y-61313144D01*
X147010730Y-61236151D01*
X147010734Y-61236148D01*
X147015563Y-61233998D01*
X147084813Y-61224712D01*
X147116437Y-61233998D01*
X147121265Y-61236148D01*
X147121270Y-61236151D01*
X147294197Y-61313144D01*
X147479354Y-61352500D01*
X147479355Y-61352500D01*
X147668644Y-61352500D01*
X147668646Y-61352500D01*
X147853803Y-61313144D01*
X148026730Y-61236151D01*
X148179871Y-61124888D01*
X148306533Y-60984216D01*
X148401179Y-60820284D01*
X148459674Y-60640256D01*
X148479460Y-60452000D01*
X148459674Y-60263744D01*
X148401179Y-60083716D01*
X148306533Y-59919784D01*
X148288693Y-59899971D01*
X148258464Y-59836981D01*
X148267089Y-59767646D01*
X148288694Y-59734028D01*
X148306533Y-59714216D01*
X148401179Y-59550284D01*
X148459674Y-59370256D01*
X148479460Y-59182000D01*
X148459674Y-58993744D01*
X148401179Y-58813716D01*
X148306533Y-58649784D01*
X148288693Y-58629971D01*
X148258464Y-58566981D01*
X148267089Y-58497646D01*
X148288694Y-58464028D01*
X148306533Y-58444216D01*
X148401179Y-58280284D01*
X148459674Y-58100256D01*
X148479460Y-57912000D01*
X148459674Y-57723744D01*
X148401179Y-57543716D01*
X148306533Y-57379784D01*
X148288693Y-57359971D01*
X148258464Y-57296981D01*
X148267089Y-57227646D01*
X148288694Y-57194028D01*
X148306533Y-57174216D01*
X148401179Y-57010284D01*
X148459674Y-56830256D01*
X148479460Y-56642000D01*
X148459674Y-56453744D01*
X148401179Y-56273716D01*
X148306533Y-56109784D01*
X148288693Y-56089971D01*
X148258464Y-56026981D01*
X148267089Y-55957646D01*
X148288694Y-55924028D01*
X148306533Y-55904216D01*
X148401179Y-55740284D01*
X148459674Y-55560256D01*
X148479460Y-55372000D01*
X148459674Y-55183744D01*
X148401179Y-55003716D01*
X148306533Y-54839784D01*
X148288693Y-54819971D01*
X148258464Y-54756981D01*
X148267089Y-54687646D01*
X148288694Y-54654028D01*
X148306533Y-54634216D01*
X148401179Y-54470284D01*
X148459674Y-54290256D01*
X148479460Y-54102000D01*
X148459674Y-53913744D01*
X148401179Y-53733716D01*
X148306533Y-53569784D01*
X148288693Y-53549971D01*
X148258464Y-53486981D01*
X148267089Y-53417646D01*
X148288694Y-53384028D01*
X148306533Y-53364216D01*
X148401179Y-53200284D01*
X148459674Y-53020256D01*
X148479460Y-52832000D01*
X148459674Y-52643744D01*
X148401179Y-52463716D01*
X148306533Y-52299784D01*
X148288693Y-52279971D01*
X148258464Y-52216981D01*
X148267089Y-52147646D01*
X148288694Y-52114028D01*
X148306533Y-52094216D01*
X148401179Y-51930284D01*
X148459674Y-51750256D01*
X148479460Y-51562000D01*
X148459674Y-51373744D01*
X148401179Y-51193716D01*
X148306533Y-51029784D01*
X148288693Y-51009971D01*
X148258464Y-50946981D01*
X148267089Y-50877646D01*
X148288694Y-50844028D01*
X148306533Y-50824216D01*
X148401179Y-50660284D01*
X148459674Y-50480256D01*
X148479460Y-50292000D01*
X148459674Y-50103744D01*
X148401179Y-49923716D01*
X148306533Y-49759784D01*
X148179871Y-49619112D01*
X148179870Y-49619111D01*
X148026734Y-49507851D01*
X148026729Y-49507848D01*
X147853807Y-49430857D01*
X147853802Y-49430855D01*
X147708001Y-49399865D01*
X147668646Y-49391500D01*
X147479354Y-49391500D01*
X147446897Y-49398398D01*
X147294197Y-49430855D01*
X147294192Y-49430857D01*
X147116436Y-49510001D01*
X147047186Y-49519286D01*
X147015564Y-49510001D01*
X146837807Y-49430857D01*
X146837802Y-49430855D01*
X146692001Y-49399865D01*
X146652646Y-49391500D01*
X146463354Y-49391500D01*
X146430897Y-49398398D01*
X146278197Y-49430855D01*
X146278192Y-49430857D01*
X146105270Y-49507848D01*
X146105265Y-49507851D01*
X145952129Y-49619111D01*
X145825466Y-49759785D01*
X145730821Y-49923715D01*
X145730818Y-49923722D01*
X145672327Y-50103740D01*
X145672326Y-50103744D01*
X145652540Y-50292000D01*
X145672326Y-50480256D01*
X145672327Y-50480259D01*
X145730818Y-50660277D01*
X145730821Y-50660284D01*
X145825467Y-50824216D01*
X145835806Y-50835699D01*
X145843307Y-50844030D01*
X145873535Y-50907022D01*
X145864909Y-50976357D01*
X145843307Y-51009970D01*
X145825466Y-51029785D01*
X145730821Y-51193715D01*
X145730818Y-51193722D01*
X145672327Y-51373740D01*
X145672326Y-51373744D01*
X145652540Y-51562000D01*
X145672326Y-51750256D01*
X145672327Y-51750259D01*
X145730818Y-51930277D01*
X145730821Y-51930284D01*
X145825467Y-52094216D01*
X145835806Y-52105699D01*
X145843307Y-52114030D01*
X145873535Y-52177022D01*
X145864909Y-52246357D01*
X145843307Y-52279970D01*
X145825466Y-52299785D01*
X145730821Y-52463715D01*
X145730818Y-52463722D01*
X145672327Y-52643740D01*
X145672326Y-52643744D01*
X145652540Y-52832000D01*
X145672326Y-53020256D01*
X145672327Y-53020259D01*
X145730818Y-53200277D01*
X145730821Y-53200284D01*
X145825467Y-53364216D01*
X145835806Y-53375699D01*
X145843307Y-53384030D01*
X145873535Y-53447022D01*
X145864909Y-53516357D01*
X145843307Y-53549970D01*
X145825466Y-53569785D01*
X145730821Y-53733715D01*
X145730818Y-53733722D01*
X145672327Y-53913740D01*
X145672326Y-53913744D01*
X145652540Y-54102000D01*
X145672326Y-54290256D01*
X145672327Y-54290259D01*
X145730818Y-54470277D01*
X145730821Y-54470284D01*
X145825467Y-54634216D01*
X145835806Y-54645699D01*
X145843307Y-54654030D01*
X145873535Y-54717022D01*
X145864909Y-54786357D01*
X145843307Y-54819970D01*
X145825466Y-54839785D01*
X145730821Y-55003715D01*
X145730818Y-55003722D01*
X145672327Y-55183740D01*
X145672326Y-55183744D01*
X145652540Y-55372000D01*
X145672326Y-55560256D01*
X145672327Y-55560259D01*
X145730818Y-55740277D01*
X145730821Y-55740284D01*
X145825467Y-55904216D01*
X145835806Y-55915699D01*
X145843307Y-55924030D01*
X145873535Y-55987022D01*
X145864909Y-56056357D01*
X145843307Y-56089970D01*
X145825466Y-56109785D01*
X145730821Y-56273715D01*
X145730818Y-56273722D01*
X145672327Y-56453740D01*
X145672326Y-56453744D01*
X145652540Y-56642000D01*
X145672326Y-56830256D01*
X145672327Y-56830259D01*
X145730818Y-57010277D01*
X145730821Y-57010284D01*
X145825467Y-57174216D01*
X145835806Y-57185699D01*
X145843307Y-57194030D01*
X145873535Y-57257022D01*
X145864909Y-57326357D01*
X145843307Y-57359970D01*
X145825466Y-57379785D01*
X145730821Y-57543715D01*
X145730818Y-57543722D01*
X145672327Y-57723740D01*
X145672326Y-57723744D01*
X145652540Y-57912000D01*
X145672326Y-58100256D01*
X145672327Y-58100259D01*
X145730818Y-58280277D01*
X145730821Y-58280284D01*
X145825467Y-58444216D01*
X145835806Y-58455699D01*
X145843307Y-58464030D01*
X145873535Y-58527022D01*
X145864909Y-58596357D01*
X145843307Y-58629970D01*
X145825466Y-58649785D01*
X145730821Y-58813715D01*
X145730818Y-58813722D01*
X145672327Y-58993740D01*
X145672326Y-58993744D01*
X145652540Y-59182000D01*
X145672326Y-59370256D01*
X145672327Y-59370259D01*
X145730818Y-59550277D01*
X145730821Y-59550284D01*
X145825467Y-59714216D01*
X145835806Y-59725699D01*
X145843307Y-59734030D01*
X145873535Y-59797022D01*
X145864909Y-59866357D01*
X145843307Y-59899970D01*
X145825466Y-59919785D01*
X145730821Y-60083715D01*
X145730818Y-60083722D01*
X145672327Y-60263740D01*
X145672326Y-60263744D01*
X145652540Y-60452000D01*
X131200500Y-60452000D01*
X131200500Y-43898198D01*
X150098757Y-43898198D01*
X150108730Y-44132976D01*
X150108730Y-44132982D01*
X150133711Y-44248890D01*
X150158240Y-44362703D01*
X150245859Y-44580753D01*
X150309077Y-44683425D01*
X150369070Y-44780860D01*
X150524325Y-44957264D01*
X150524329Y-44957268D01*
X150707153Y-45104888D01*
X150707157Y-45104891D01*
X150707160Y-45104893D01*
X150912315Y-45219499D01*
X151133887Y-45297785D01*
X151263131Y-45319946D01*
X151365493Y-45337499D01*
X151365502Y-45337500D01*
X151541645Y-45337500D01*
X151717144Y-45322563D01*
X151717147Y-45322562D01*
X151717149Y-45322562D01*
X151944562Y-45263348D01*
X152075386Y-45204211D01*
X152158691Y-45166556D01*
X152158692Y-45166554D01*
X152158697Y-45166553D01*
X152353393Y-45034962D01*
X152523050Y-44872359D01*
X152662786Y-44683423D01*
X152768582Y-44473589D01*
X152837394Y-44248894D01*
X152867243Y-44015802D01*
X152857269Y-43781018D01*
X152807760Y-43551297D01*
X152720141Y-43333247D01*
X152596931Y-43133141D01*
X152441675Y-42956736D01*
X152441674Y-42956735D01*
X152441670Y-42956731D01*
X152258846Y-42809111D01*
X152258840Y-42809107D01*
X152053684Y-42694500D01*
X151832120Y-42616217D01*
X151832115Y-42616215D01*
X151832113Y-42616215D01*
X151832109Y-42616214D01*
X151832108Y-42616214D01*
X151600506Y-42576500D01*
X151600498Y-42576500D01*
X151424360Y-42576500D01*
X151424355Y-42576500D01*
X151248855Y-42591436D01*
X151021438Y-42650651D01*
X150807308Y-42747443D01*
X150807300Y-42747448D01*
X150612616Y-42879030D01*
X150612607Y-42879038D01*
X150442949Y-43041642D01*
X150303216Y-43230574D01*
X150303213Y-43230578D01*
X150197418Y-43440409D01*
X150128605Y-43665109D01*
X150098757Y-43898198D01*
X131200500Y-43898198D01*
X131200500Y-39751778D01*
X131196829Y-39728599D01*
X131166015Y-39534049D01*
X131097895Y-39324394D01*
X131097895Y-39324393D01*
X131063237Y-39256375D01*
X130997815Y-39127978D01*
X130981260Y-39105192D01*
X130868247Y-38949641D01*
X130868243Y-38949636D01*
X130712363Y-38793756D01*
X130712358Y-38793752D01*
X130534025Y-38664187D01*
X130534024Y-38664186D01*
X130534022Y-38664185D01*
X130471096Y-38632122D01*
X130337606Y-38564104D01*
X130337603Y-38564103D01*
X130127952Y-38495985D01*
X130019086Y-38478742D01*
X129910222Y-38461500D01*
X129831519Y-38461500D01*
X120191583Y-38461500D01*
X120134000Y-38461500D01*
X120023778Y-38461500D01*
X119951201Y-38472995D01*
X119806047Y-38495985D01*
X119596396Y-38564103D01*
X119596393Y-38564104D01*
X119399974Y-38664187D01*
X119221641Y-38793752D01*
X119221636Y-38793756D01*
X119065756Y-38949636D01*
X119065752Y-38949641D01*
X118936187Y-39127974D01*
X118836104Y-39324393D01*
X118836103Y-39324396D01*
X118767985Y-39534047D01*
X118733500Y-39751778D01*
X118733500Y-64392000D01*
X118713815Y-64459039D01*
X118661011Y-64504794D01*
X118609500Y-64516000D01*
X95924500Y-64516000D01*
X95857461Y-64496315D01*
X95811706Y-64443511D01*
X95800500Y-64392000D01*
X95800500Y-60452000D01*
X110092540Y-60452000D01*
X110112326Y-60640256D01*
X110112327Y-60640259D01*
X110170818Y-60820277D01*
X110170821Y-60820284D01*
X110265467Y-60984216D01*
X110288876Y-61010214D01*
X110392129Y-61124888D01*
X110545265Y-61236148D01*
X110545270Y-61236151D01*
X110718192Y-61313142D01*
X110718197Y-61313144D01*
X110903354Y-61352500D01*
X110903355Y-61352500D01*
X111092644Y-61352500D01*
X111092646Y-61352500D01*
X111277803Y-61313144D01*
X111450730Y-61236151D01*
X111450734Y-61236148D01*
X111455563Y-61233998D01*
X111524813Y-61224712D01*
X111556437Y-61233998D01*
X111561265Y-61236148D01*
X111561270Y-61236151D01*
X111734197Y-61313144D01*
X111919354Y-61352500D01*
X111919355Y-61352500D01*
X112108644Y-61352500D01*
X112108646Y-61352500D01*
X112293803Y-61313144D01*
X112466730Y-61236151D01*
X112619871Y-61124888D01*
X112746533Y-60984216D01*
X112841179Y-60820284D01*
X112899674Y-60640256D01*
X112919460Y-60452000D01*
X112899674Y-60263744D01*
X112841179Y-60083716D01*
X112746533Y-59919784D01*
X112728693Y-59899971D01*
X112698464Y-59836981D01*
X112707089Y-59767646D01*
X112728694Y-59734028D01*
X112746533Y-59714216D01*
X112841179Y-59550284D01*
X112899674Y-59370256D01*
X112919460Y-59182000D01*
X112899674Y-58993744D01*
X112841179Y-58813716D01*
X112746533Y-58649784D01*
X112728693Y-58629971D01*
X112698464Y-58566981D01*
X112707089Y-58497646D01*
X112728694Y-58464028D01*
X112746533Y-58444216D01*
X112841179Y-58280284D01*
X112899674Y-58100256D01*
X112919460Y-57912000D01*
X112899674Y-57723744D01*
X112841179Y-57543716D01*
X112746533Y-57379784D01*
X112728693Y-57359971D01*
X112698464Y-57296981D01*
X112707089Y-57227646D01*
X112728694Y-57194028D01*
X112746533Y-57174216D01*
X112841179Y-57010284D01*
X112899674Y-56830256D01*
X112919460Y-56642000D01*
X112899674Y-56453744D01*
X112841179Y-56273716D01*
X112746533Y-56109784D01*
X112728693Y-56089971D01*
X112698464Y-56026981D01*
X112707089Y-55957646D01*
X112728694Y-55924028D01*
X112746533Y-55904216D01*
X112841179Y-55740284D01*
X112899674Y-55560256D01*
X112919460Y-55372000D01*
X112899674Y-55183744D01*
X112841179Y-55003716D01*
X112746533Y-54839784D01*
X112728693Y-54819971D01*
X112698464Y-54756981D01*
X112707089Y-54687646D01*
X112728694Y-54654028D01*
X112746533Y-54634216D01*
X112841179Y-54470284D01*
X112899674Y-54290256D01*
X112919460Y-54102000D01*
X112899674Y-53913744D01*
X112841179Y-53733716D01*
X112746533Y-53569784D01*
X112728693Y-53549971D01*
X112698464Y-53486981D01*
X112707089Y-53417646D01*
X112728694Y-53384028D01*
X112746533Y-53364216D01*
X112841179Y-53200284D01*
X112899674Y-53020256D01*
X112919460Y-52832000D01*
X112899674Y-52643744D01*
X112841179Y-52463716D01*
X112746533Y-52299784D01*
X112728693Y-52279971D01*
X112698464Y-52216981D01*
X112707089Y-52147646D01*
X112728694Y-52114028D01*
X112746533Y-52094216D01*
X112841179Y-51930284D01*
X112899674Y-51750256D01*
X112919460Y-51562000D01*
X112899674Y-51373744D01*
X112841179Y-51193716D01*
X112746533Y-51029784D01*
X112728693Y-51009971D01*
X112698464Y-50946981D01*
X112707089Y-50877646D01*
X112728694Y-50844028D01*
X112746533Y-50824216D01*
X112841179Y-50660284D01*
X112899674Y-50480256D01*
X112919460Y-50292000D01*
X112899674Y-50103744D01*
X112841179Y-49923716D01*
X112746533Y-49759784D01*
X112619871Y-49619112D01*
X112619870Y-49619111D01*
X112466734Y-49507851D01*
X112466729Y-49507848D01*
X112293807Y-49430857D01*
X112293802Y-49430855D01*
X112148001Y-49399865D01*
X112108646Y-49391500D01*
X111919354Y-49391500D01*
X111886897Y-49398398D01*
X111734197Y-49430855D01*
X111734192Y-49430857D01*
X111556436Y-49510001D01*
X111487186Y-49519286D01*
X111455564Y-49510001D01*
X111277807Y-49430857D01*
X111277802Y-49430855D01*
X111132001Y-49399865D01*
X111092646Y-49391500D01*
X110903354Y-49391500D01*
X110870897Y-49398398D01*
X110718197Y-49430855D01*
X110718192Y-49430857D01*
X110545270Y-49507848D01*
X110545265Y-49507851D01*
X110392129Y-49619111D01*
X110265466Y-49759785D01*
X110170821Y-49923715D01*
X110170818Y-49923722D01*
X110112327Y-50103740D01*
X110112326Y-50103744D01*
X110092540Y-50292000D01*
X110112326Y-50480256D01*
X110112327Y-50480259D01*
X110170818Y-50660277D01*
X110170821Y-50660284D01*
X110265467Y-50824216D01*
X110275806Y-50835699D01*
X110283307Y-50844030D01*
X110313535Y-50907022D01*
X110304909Y-50976357D01*
X110283307Y-51009970D01*
X110265466Y-51029785D01*
X110170821Y-51193715D01*
X110170818Y-51193722D01*
X110112327Y-51373740D01*
X110112326Y-51373744D01*
X110092540Y-51562000D01*
X110112326Y-51750256D01*
X110112327Y-51750259D01*
X110170818Y-51930277D01*
X110170821Y-51930284D01*
X110265467Y-52094216D01*
X110275806Y-52105699D01*
X110283307Y-52114030D01*
X110313535Y-52177022D01*
X110304909Y-52246357D01*
X110283307Y-52279970D01*
X110265466Y-52299785D01*
X110170821Y-52463715D01*
X110170818Y-52463722D01*
X110112327Y-52643740D01*
X110112326Y-52643744D01*
X110092540Y-52832000D01*
X110112326Y-53020256D01*
X110112327Y-53020259D01*
X110170818Y-53200277D01*
X110170821Y-53200284D01*
X110265467Y-53364216D01*
X110275806Y-53375699D01*
X110283307Y-53384030D01*
X110313535Y-53447022D01*
X110304909Y-53516357D01*
X110283307Y-53549970D01*
X110265466Y-53569785D01*
X110170821Y-53733715D01*
X110170818Y-53733722D01*
X110112327Y-53913740D01*
X110112326Y-53913744D01*
X110092540Y-54102000D01*
X110112326Y-54290256D01*
X110112327Y-54290259D01*
X110170818Y-54470277D01*
X110170821Y-54470284D01*
X110265467Y-54634216D01*
X110275806Y-54645699D01*
X110283307Y-54654030D01*
X110313535Y-54717022D01*
X110304909Y-54786357D01*
X110283307Y-54819970D01*
X110265466Y-54839785D01*
X110170821Y-55003715D01*
X110170818Y-55003722D01*
X110112327Y-55183740D01*
X110112326Y-55183744D01*
X110092540Y-55372000D01*
X110112326Y-55560256D01*
X110112327Y-55560259D01*
X110170818Y-55740277D01*
X110170821Y-55740284D01*
X110265467Y-55904216D01*
X110275806Y-55915699D01*
X110283307Y-55924030D01*
X110313535Y-55987022D01*
X110304909Y-56056357D01*
X110283307Y-56089970D01*
X110265466Y-56109785D01*
X110170821Y-56273715D01*
X110170818Y-56273722D01*
X110112327Y-56453740D01*
X110112326Y-56453744D01*
X110092540Y-56642000D01*
X110112326Y-56830256D01*
X110112327Y-56830259D01*
X110170818Y-57010277D01*
X110170821Y-57010284D01*
X110265467Y-57174216D01*
X110275806Y-57185699D01*
X110283307Y-57194030D01*
X110313535Y-57257022D01*
X110304909Y-57326357D01*
X110283307Y-57359970D01*
X110265466Y-57379785D01*
X110170821Y-57543715D01*
X110170818Y-57543722D01*
X110112327Y-57723740D01*
X110112326Y-57723744D01*
X110092540Y-57912000D01*
X110112326Y-58100256D01*
X110112327Y-58100259D01*
X110170818Y-58280277D01*
X110170821Y-58280284D01*
X110265467Y-58444216D01*
X110275806Y-58455699D01*
X110283307Y-58464030D01*
X110313535Y-58527022D01*
X110304909Y-58596357D01*
X110283307Y-58629970D01*
X110265466Y-58649785D01*
X110170821Y-58813715D01*
X110170818Y-58813722D01*
X110112327Y-58993740D01*
X110112326Y-58993744D01*
X110092540Y-59182000D01*
X110112326Y-59370256D01*
X110112327Y-59370259D01*
X110170818Y-59550277D01*
X110170821Y-59550284D01*
X110265467Y-59714216D01*
X110275806Y-59725699D01*
X110283307Y-59734030D01*
X110313535Y-59797022D01*
X110304909Y-59866357D01*
X110283307Y-59899970D01*
X110265466Y-59919785D01*
X110170821Y-60083715D01*
X110170818Y-60083722D01*
X110112327Y-60263740D01*
X110112326Y-60263744D01*
X110092540Y-60452000D01*
X95800500Y-60452000D01*
X95800500Y-43898198D01*
X114698757Y-43898198D01*
X114708730Y-44132976D01*
X114708730Y-44132982D01*
X114733711Y-44248890D01*
X114758240Y-44362703D01*
X114845859Y-44580753D01*
X114909077Y-44683425D01*
X114969070Y-44780860D01*
X115124325Y-44957264D01*
X115124329Y-44957268D01*
X115307153Y-45104888D01*
X115307157Y-45104891D01*
X115307160Y-45104893D01*
X115512315Y-45219499D01*
X115733887Y-45297785D01*
X115863131Y-45319946D01*
X115965493Y-45337499D01*
X115965502Y-45337500D01*
X116141645Y-45337500D01*
X116317144Y-45322563D01*
X116317147Y-45322562D01*
X116317149Y-45322562D01*
X116544562Y-45263348D01*
X116675386Y-45204211D01*
X116758691Y-45166556D01*
X116758692Y-45166554D01*
X116758697Y-45166553D01*
X116953393Y-45034962D01*
X117123050Y-44872359D01*
X117262786Y-44683423D01*
X117368582Y-44473589D01*
X117437394Y-44248894D01*
X117467243Y-44015802D01*
X117457269Y-43781018D01*
X117407760Y-43551297D01*
X117320141Y-43333247D01*
X117196931Y-43133141D01*
X117041675Y-42956736D01*
X117041674Y-42956735D01*
X117041670Y-42956731D01*
X116858846Y-42809111D01*
X116858840Y-42809107D01*
X116653684Y-42694500D01*
X116432120Y-42616217D01*
X116432115Y-42616215D01*
X116432113Y-42616215D01*
X116432109Y-42616214D01*
X116432108Y-42616214D01*
X116200506Y-42576500D01*
X116200498Y-42576500D01*
X116024360Y-42576500D01*
X116024355Y-42576500D01*
X115848855Y-42591436D01*
X115621438Y-42650651D01*
X115407308Y-42747443D01*
X115407300Y-42747448D01*
X115212616Y-42879030D01*
X115212607Y-42879038D01*
X115042949Y-43041642D01*
X114903216Y-43230574D01*
X114903213Y-43230578D01*
X114797418Y-43440409D01*
X114728605Y-43665109D01*
X114698757Y-43898198D01*
X95800500Y-43898198D01*
X95800500Y-39751778D01*
X95796829Y-39728599D01*
X95766015Y-39534049D01*
X95697895Y-39324394D01*
X95697895Y-39324393D01*
X95663237Y-39256375D01*
X95597815Y-39127978D01*
X95581260Y-39105192D01*
X95468247Y-38949641D01*
X95468243Y-38949636D01*
X95312363Y-38793756D01*
X95312358Y-38793752D01*
X95134025Y-38664187D01*
X95134024Y-38664186D01*
X95134022Y-38664185D01*
X95071096Y-38632122D01*
X94937606Y-38564104D01*
X94937603Y-38564103D01*
X94727952Y-38495985D01*
X94619086Y-38478742D01*
X94510222Y-38461500D01*
X94431519Y-38461500D01*
X84791583Y-38461500D01*
X84734000Y-38461500D01*
X84623778Y-38461500D01*
X84551201Y-38472995D01*
X84406047Y-38495985D01*
X84196396Y-38564103D01*
X84196393Y-38564104D01*
X83999974Y-38664187D01*
X83821641Y-38793752D01*
X83821636Y-38793756D01*
X83665756Y-38949636D01*
X83665752Y-38949641D01*
X83536187Y-39127974D01*
X83436104Y-39324393D01*
X83436103Y-39324396D01*
X83367985Y-39534047D01*
X83333500Y-39751778D01*
X83333500Y-64392000D01*
X83313815Y-64459039D01*
X83261011Y-64504794D01*
X83209500Y-64516000D01*
X60524500Y-64516000D01*
X60457461Y-64496315D01*
X60411706Y-64443511D01*
X60400500Y-64392000D01*
X60400500Y-60452000D01*
X74786540Y-60452000D01*
X74806326Y-60640256D01*
X74806327Y-60640259D01*
X74864818Y-60820277D01*
X74864821Y-60820284D01*
X74959467Y-60984216D01*
X74982876Y-61010214D01*
X75086129Y-61124888D01*
X75239265Y-61236148D01*
X75239270Y-61236151D01*
X75412192Y-61313142D01*
X75412197Y-61313144D01*
X75597354Y-61352500D01*
X75597355Y-61352500D01*
X75786644Y-61352500D01*
X75786646Y-61352500D01*
X75971803Y-61313144D01*
X76144730Y-61236151D01*
X76144734Y-61236148D01*
X76149563Y-61233998D01*
X76218813Y-61224712D01*
X76250437Y-61233998D01*
X76255265Y-61236148D01*
X76255270Y-61236151D01*
X76428197Y-61313144D01*
X76613354Y-61352500D01*
X76613355Y-61352500D01*
X76802644Y-61352500D01*
X76802646Y-61352500D01*
X76987803Y-61313144D01*
X77160730Y-61236151D01*
X77313871Y-61124888D01*
X77440533Y-60984216D01*
X77535179Y-60820284D01*
X77593674Y-60640256D01*
X77613460Y-60452000D01*
X77593674Y-60263744D01*
X77535179Y-60083716D01*
X77440533Y-59919784D01*
X77422693Y-59899971D01*
X77392464Y-59836981D01*
X77401089Y-59767646D01*
X77422694Y-59734028D01*
X77440533Y-59714216D01*
X77535179Y-59550284D01*
X77593674Y-59370256D01*
X77613460Y-59182000D01*
X77593674Y-58993744D01*
X77535179Y-58813716D01*
X77440533Y-58649784D01*
X77422693Y-58629971D01*
X77392464Y-58566981D01*
X77401089Y-58497646D01*
X77422694Y-58464028D01*
X77440533Y-58444216D01*
X77535179Y-58280284D01*
X77593674Y-58100256D01*
X77613460Y-57912000D01*
X77593674Y-57723744D01*
X77535179Y-57543716D01*
X77440533Y-57379784D01*
X77422693Y-57359971D01*
X77392464Y-57296981D01*
X77401089Y-57227646D01*
X77422694Y-57194028D01*
X77440533Y-57174216D01*
X77535179Y-57010284D01*
X77593674Y-56830256D01*
X77613460Y-56642000D01*
X77593674Y-56453744D01*
X77535179Y-56273716D01*
X77440533Y-56109784D01*
X77422693Y-56089971D01*
X77392464Y-56026981D01*
X77401089Y-55957646D01*
X77422694Y-55924028D01*
X77440533Y-55904216D01*
X77535179Y-55740284D01*
X77593674Y-55560256D01*
X77613460Y-55372000D01*
X77593674Y-55183744D01*
X77535179Y-55003716D01*
X77440533Y-54839784D01*
X77422693Y-54819971D01*
X77392464Y-54756981D01*
X77401089Y-54687646D01*
X77422694Y-54654028D01*
X77440533Y-54634216D01*
X77535179Y-54470284D01*
X77593674Y-54290256D01*
X77613460Y-54102000D01*
X77593674Y-53913744D01*
X77535179Y-53733716D01*
X77440533Y-53569784D01*
X77422693Y-53549971D01*
X77392464Y-53486981D01*
X77401089Y-53417646D01*
X77422694Y-53384028D01*
X77440533Y-53364216D01*
X77535179Y-53200284D01*
X77593674Y-53020256D01*
X77613460Y-52832000D01*
X77593674Y-52643744D01*
X77535179Y-52463716D01*
X77440533Y-52299784D01*
X77422693Y-52279971D01*
X77392464Y-52216981D01*
X77401089Y-52147646D01*
X77422694Y-52114028D01*
X77440533Y-52094216D01*
X77535179Y-51930284D01*
X77593674Y-51750256D01*
X77613460Y-51562000D01*
X77593674Y-51373744D01*
X77535179Y-51193716D01*
X77440533Y-51029784D01*
X77422693Y-51009971D01*
X77392464Y-50946981D01*
X77401089Y-50877646D01*
X77422694Y-50844028D01*
X77440533Y-50824216D01*
X77535179Y-50660284D01*
X77593674Y-50480256D01*
X77613460Y-50292000D01*
X77593674Y-50103744D01*
X77535179Y-49923716D01*
X77440533Y-49759784D01*
X77313871Y-49619112D01*
X77313870Y-49619111D01*
X77160734Y-49507851D01*
X77160729Y-49507848D01*
X76987807Y-49430857D01*
X76987802Y-49430855D01*
X76842001Y-49399865D01*
X76802646Y-49391500D01*
X76613354Y-49391500D01*
X76580897Y-49398398D01*
X76428197Y-49430855D01*
X76428192Y-49430857D01*
X76250436Y-49510001D01*
X76181186Y-49519286D01*
X76149564Y-49510001D01*
X75971807Y-49430857D01*
X75971802Y-49430855D01*
X75826001Y-49399865D01*
X75786646Y-49391500D01*
X75597354Y-49391500D01*
X75564897Y-49398398D01*
X75412197Y-49430855D01*
X75412192Y-49430857D01*
X75239270Y-49507848D01*
X75239265Y-49507851D01*
X75086129Y-49619111D01*
X74959466Y-49759785D01*
X74864821Y-49923715D01*
X74864818Y-49923722D01*
X74806327Y-50103740D01*
X74806326Y-50103744D01*
X74786540Y-50292000D01*
X74806326Y-50480256D01*
X74806327Y-50480259D01*
X74864818Y-50660277D01*
X74864821Y-50660284D01*
X74959467Y-50824216D01*
X74969806Y-50835699D01*
X74977307Y-50844030D01*
X75007535Y-50907022D01*
X74998909Y-50976357D01*
X74977307Y-51009970D01*
X74959466Y-51029785D01*
X74864821Y-51193715D01*
X74864818Y-51193722D01*
X74806327Y-51373740D01*
X74806326Y-51373744D01*
X74786540Y-51562000D01*
X74806326Y-51750256D01*
X74806327Y-51750259D01*
X74864818Y-51930277D01*
X74864821Y-51930284D01*
X74959467Y-52094216D01*
X74969806Y-52105699D01*
X74977307Y-52114030D01*
X75007535Y-52177022D01*
X74998909Y-52246357D01*
X74977307Y-52279970D01*
X74959466Y-52299785D01*
X74864821Y-52463715D01*
X74864818Y-52463722D01*
X74806327Y-52643740D01*
X74806326Y-52643744D01*
X74786540Y-52832000D01*
X74806326Y-53020256D01*
X74806327Y-53020259D01*
X74864818Y-53200277D01*
X74864821Y-53200284D01*
X74959467Y-53364216D01*
X74969806Y-53375699D01*
X74977307Y-53384030D01*
X75007535Y-53447022D01*
X74998909Y-53516357D01*
X74977307Y-53549970D01*
X74959466Y-53569785D01*
X74864821Y-53733715D01*
X74864818Y-53733722D01*
X74806327Y-53913740D01*
X74806326Y-53913744D01*
X74786540Y-54102000D01*
X74806326Y-54290256D01*
X74806327Y-54290259D01*
X74864818Y-54470277D01*
X74864821Y-54470284D01*
X74959467Y-54634216D01*
X74969806Y-54645699D01*
X74977307Y-54654030D01*
X75007535Y-54717022D01*
X74998909Y-54786357D01*
X74977307Y-54819970D01*
X74959466Y-54839785D01*
X74864821Y-55003715D01*
X74864818Y-55003722D01*
X74806327Y-55183740D01*
X74806326Y-55183744D01*
X74786540Y-55372000D01*
X74806326Y-55560256D01*
X74806327Y-55560259D01*
X74864818Y-55740277D01*
X74864821Y-55740284D01*
X74959467Y-55904216D01*
X74969806Y-55915699D01*
X74977307Y-55924030D01*
X75007535Y-55987022D01*
X74998909Y-56056357D01*
X74977307Y-56089970D01*
X74959466Y-56109785D01*
X74864821Y-56273715D01*
X74864818Y-56273722D01*
X74806327Y-56453740D01*
X74806326Y-56453744D01*
X74786540Y-56642000D01*
X74806326Y-56830256D01*
X74806327Y-56830259D01*
X74864818Y-57010277D01*
X74864821Y-57010284D01*
X74959467Y-57174216D01*
X74969806Y-57185699D01*
X74977307Y-57194030D01*
X75007535Y-57257022D01*
X74998909Y-57326357D01*
X74977307Y-57359970D01*
X74959466Y-57379785D01*
X74864821Y-57543715D01*
X74864818Y-57543722D01*
X74806327Y-57723740D01*
X74806326Y-57723744D01*
X74786540Y-57912000D01*
X74806326Y-58100256D01*
X74806327Y-58100259D01*
X74864818Y-58280277D01*
X74864821Y-58280284D01*
X74959467Y-58444216D01*
X74969806Y-58455699D01*
X74977307Y-58464030D01*
X75007535Y-58527022D01*
X74998909Y-58596357D01*
X74977307Y-58629970D01*
X74959466Y-58649785D01*
X74864821Y-58813715D01*
X74864818Y-58813722D01*
X74806327Y-58993740D01*
X74806326Y-58993744D01*
X74786540Y-59182000D01*
X74806326Y-59370256D01*
X74806327Y-59370259D01*
X74864818Y-59550277D01*
X74864821Y-59550284D01*
X74959467Y-59714216D01*
X74969806Y-59725699D01*
X74977307Y-59734030D01*
X75007535Y-59797022D01*
X74998909Y-59866357D01*
X74977307Y-59899970D01*
X74959466Y-59919785D01*
X74864821Y-60083715D01*
X74864818Y-60083722D01*
X74806327Y-60263740D01*
X74806326Y-60263744D01*
X74786540Y-60452000D01*
X60400500Y-60452000D01*
X60400500Y-43898198D01*
X79298757Y-43898198D01*
X79308730Y-44132976D01*
X79308730Y-44132982D01*
X79333711Y-44248890D01*
X79358240Y-44362703D01*
X79445859Y-44580753D01*
X79509077Y-44683425D01*
X79569070Y-44780860D01*
X79724325Y-44957264D01*
X79724329Y-44957268D01*
X79907153Y-45104888D01*
X79907157Y-45104891D01*
X79907160Y-45104893D01*
X80112315Y-45219499D01*
X80333887Y-45297785D01*
X80463131Y-45319946D01*
X80565493Y-45337499D01*
X80565502Y-45337500D01*
X80741645Y-45337500D01*
X80917144Y-45322563D01*
X80917147Y-45322562D01*
X80917149Y-45322562D01*
X81144562Y-45263348D01*
X81275386Y-45204211D01*
X81358691Y-45166556D01*
X81358692Y-45166554D01*
X81358697Y-45166553D01*
X81553393Y-45034962D01*
X81723050Y-44872359D01*
X81862786Y-44683423D01*
X81968582Y-44473589D01*
X82037394Y-44248894D01*
X82067243Y-44015802D01*
X82057269Y-43781018D01*
X82007760Y-43551297D01*
X81920141Y-43333247D01*
X81796931Y-43133141D01*
X81641675Y-42956736D01*
X81641674Y-42956735D01*
X81641670Y-42956731D01*
X81458846Y-42809111D01*
X81458840Y-42809107D01*
X81253684Y-42694500D01*
X81032120Y-42616217D01*
X81032115Y-42616215D01*
X81032113Y-42616215D01*
X81032109Y-42616214D01*
X81032108Y-42616214D01*
X80800506Y-42576500D01*
X80800498Y-42576500D01*
X80624360Y-42576500D01*
X80624355Y-42576500D01*
X80448855Y-42591436D01*
X80221438Y-42650651D01*
X80007308Y-42747443D01*
X80007300Y-42747448D01*
X79812616Y-42879030D01*
X79812607Y-42879038D01*
X79642949Y-43041642D01*
X79503216Y-43230574D01*
X79503213Y-43230578D01*
X79397418Y-43440409D01*
X79328605Y-43665109D01*
X79298757Y-43898198D01*
X60400500Y-43898198D01*
X60400500Y-39751778D01*
X60396829Y-39728599D01*
X60366015Y-39534049D01*
X60297895Y-39324394D01*
X60297895Y-39324393D01*
X60263237Y-39256375D01*
X60197815Y-39127978D01*
X60181260Y-39105192D01*
X60068247Y-38949641D01*
X60068243Y-38949636D01*
X59912363Y-38793756D01*
X59912358Y-38793752D01*
X59734025Y-38664187D01*
X59734024Y-38664186D01*
X59734022Y-38664185D01*
X59671096Y-38632122D01*
X59537606Y-38564104D01*
X59537603Y-38564103D01*
X59327952Y-38495985D01*
X59219086Y-38478742D01*
X59110222Y-38461500D01*
X59031519Y-38461500D01*
X49391583Y-38461500D01*
X49334000Y-38461500D01*
X49223778Y-38461500D01*
X49151201Y-38472995D01*
X49006047Y-38495985D01*
X48796396Y-38564103D01*
X48796393Y-38564104D01*
X48599974Y-38664187D01*
X48421641Y-38793752D01*
X48421636Y-38793756D01*
X48265756Y-38949636D01*
X48265752Y-38949641D01*
X48136187Y-39127974D01*
X48036104Y-39324393D01*
X48036103Y-39324396D01*
X47967985Y-39534047D01*
X47933500Y-39751778D01*
X47933500Y-64392000D01*
X47913815Y-64459039D01*
X47861011Y-64504794D01*
X47809500Y-64516000D01*
X25924500Y-64516000D01*
X25857461Y-64496315D01*
X25811706Y-64443511D01*
X25800500Y-64392000D01*
X25800500Y-60452000D01*
X39226540Y-60452000D01*
X39246326Y-60640256D01*
X39246327Y-60640259D01*
X39304818Y-60820277D01*
X39304821Y-60820284D01*
X39399467Y-60984216D01*
X39422876Y-61010214D01*
X39526129Y-61124888D01*
X39679265Y-61236148D01*
X39679270Y-61236151D01*
X39852192Y-61313142D01*
X39852197Y-61313144D01*
X40037354Y-61352500D01*
X40037355Y-61352500D01*
X40226644Y-61352500D01*
X40226646Y-61352500D01*
X40411803Y-61313144D01*
X40565677Y-61244633D01*
X40634927Y-61235349D01*
X40688997Y-61257594D01*
X40695266Y-61262148D01*
X40695270Y-61262151D01*
X40868192Y-61339142D01*
X40868197Y-61339144D01*
X41053354Y-61378500D01*
X41053355Y-61378500D01*
X41242644Y-61378500D01*
X41242646Y-61378500D01*
X41427803Y-61339144D01*
X41600730Y-61262151D01*
X41753871Y-61150888D01*
X41880533Y-61010216D01*
X41975179Y-60846284D01*
X42033674Y-60666256D01*
X42053460Y-60478000D01*
X42033674Y-60289744D01*
X41975179Y-60109716D01*
X41880533Y-59945784D01*
X41850988Y-59912971D01*
X41820759Y-59849982D01*
X41829383Y-59780647D01*
X41850987Y-59747029D01*
X41880533Y-59714216D01*
X41975179Y-59550284D01*
X42033674Y-59370256D01*
X42053460Y-59182000D01*
X42033674Y-58993744D01*
X41975179Y-58813716D01*
X41880533Y-58649784D01*
X41862693Y-58629971D01*
X41832464Y-58566981D01*
X41841089Y-58497646D01*
X41862694Y-58464028D01*
X41880533Y-58444216D01*
X41975179Y-58280284D01*
X42033674Y-58100256D01*
X42053460Y-57912000D01*
X42033674Y-57723744D01*
X41975179Y-57543716D01*
X41880533Y-57379784D01*
X41862693Y-57359971D01*
X41832464Y-57296981D01*
X41841089Y-57227646D01*
X41862694Y-57194028D01*
X41880533Y-57174216D01*
X41975179Y-57010284D01*
X42033674Y-56830256D01*
X42053460Y-56642000D01*
X42033674Y-56453744D01*
X41975179Y-56273716D01*
X41880533Y-56109784D01*
X41874400Y-56102973D01*
X41844170Y-56039983D01*
X41852793Y-55970647D01*
X41874401Y-55937026D01*
X41880533Y-55930216D01*
X41975179Y-55766284D01*
X42033674Y-55586256D01*
X42053460Y-55398000D01*
X42033674Y-55209744D01*
X41975179Y-55029716D01*
X41880533Y-54865784D01*
X41850988Y-54832971D01*
X41820759Y-54769982D01*
X41829383Y-54700647D01*
X41850987Y-54667029D01*
X41880533Y-54634216D01*
X41975179Y-54470284D01*
X42033674Y-54290256D01*
X42053460Y-54102000D01*
X42033674Y-53913744D01*
X41975179Y-53733716D01*
X41880533Y-53569784D01*
X41874400Y-53562973D01*
X41844170Y-53499983D01*
X41852793Y-53430647D01*
X41874401Y-53397026D01*
X41880533Y-53390216D01*
X41975179Y-53226284D01*
X42033674Y-53046256D01*
X42053460Y-52858000D01*
X42033674Y-52669744D01*
X41975179Y-52489716D01*
X41880533Y-52325784D01*
X41862693Y-52305971D01*
X41832464Y-52242981D01*
X41841089Y-52173646D01*
X41862694Y-52140028D01*
X41880533Y-52120216D01*
X41975179Y-51956284D01*
X42033674Y-51776256D01*
X42053460Y-51588000D01*
X42033674Y-51399744D01*
X41975179Y-51219716D01*
X41880533Y-51055784D01*
X41862693Y-51035971D01*
X41832464Y-50972981D01*
X41841089Y-50903646D01*
X41862694Y-50870028D01*
X41880533Y-50850216D01*
X41975179Y-50686284D01*
X42033674Y-50506256D01*
X42053460Y-50318000D01*
X42033674Y-50129744D01*
X41975179Y-49949716D01*
X41880533Y-49785784D01*
X41753871Y-49645112D01*
X41753870Y-49645111D01*
X41600734Y-49533851D01*
X41600729Y-49533848D01*
X41427807Y-49456857D01*
X41427802Y-49456855D01*
X41282001Y-49425865D01*
X41242646Y-49417500D01*
X41053354Y-49417500D01*
X41020897Y-49424398D01*
X40868197Y-49456855D01*
X40868192Y-49456857D01*
X40714322Y-49525366D01*
X40645072Y-49534651D01*
X40591002Y-49512406D01*
X40584729Y-49507848D01*
X40411807Y-49430857D01*
X40411802Y-49430855D01*
X40266001Y-49399865D01*
X40226646Y-49391500D01*
X40037354Y-49391500D01*
X40004897Y-49398398D01*
X39852197Y-49430855D01*
X39852192Y-49430857D01*
X39679270Y-49507848D01*
X39679265Y-49507851D01*
X39526129Y-49619111D01*
X39399466Y-49759785D01*
X39304821Y-49923715D01*
X39304818Y-49923722D01*
X39246327Y-50103740D01*
X39246326Y-50103744D01*
X39226540Y-50292000D01*
X39246326Y-50480256D01*
X39246327Y-50480259D01*
X39304818Y-50660277D01*
X39304821Y-50660284D01*
X39399467Y-50824216D01*
X39409806Y-50835699D01*
X39417307Y-50844030D01*
X39447535Y-50907022D01*
X39438909Y-50976357D01*
X39417307Y-51009970D01*
X39399466Y-51029785D01*
X39304821Y-51193715D01*
X39304818Y-51193722D01*
X39246327Y-51373740D01*
X39246326Y-51373744D01*
X39226540Y-51562000D01*
X39246326Y-51750256D01*
X39246327Y-51750259D01*
X39304818Y-51930277D01*
X39304821Y-51930284D01*
X39399467Y-52094216D01*
X39409806Y-52105699D01*
X39417307Y-52114030D01*
X39447535Y-52177022D01*
X39438909Y-52246357D01*
X39417307Y-52279970D01*
X39399466Y-52299785D01*
X39304821Y-52463715D01*
X39304818Y-52463722D01*
X39246327Y-52643740D01*
X39246326Y-52643744D01*
X39226540Y-52832000D01*
X39246326Y-53020256D01*
X39246327Y-53020259D01*
X39304818Y-53200277D01*
X39304821Y-53200284D01*
X39399467Y-53364216D01*
X39409806Y-53375699D01*
X39417307Y-53384030D01*
X39447535Y-53447022D01*
X39438909Y-53516357D01*
X39417307Y-53549970D01*
X39399466Y-53569785D01*
X39304821Y-53733715D01*
X39304818Y-53733722D01*
X39246327Y-53913740D01*
X39246326Y-53913744D01*
X39226540Y-54102000D01*
X39246326Y-54290256D01*
X39246327Y-54290259D01*
X39304818Y-54470277D01*
X39304821Y-54470284D01*
X39399467Y-54634216D01*
X39409806Y-54645699D01*
X39417307Y-54654030D01*
X39447535Y-54717022D01*
X39438909Y-54786357D01*
X39417307Y-54819970D01*
X39399466Y-54839785D01*
X39304821Y-55003715D01*
X39304818Y-55003722D01*
X39246327Y-55183740D01*
X39246326Y-55183744D01*
X39226540Y-55372000D01*
X39246326Y-55560256D01*
X39246327Y-55560259D01*
X39304818Y-55740277D01*
X39304821Y-55740284D01*
X39399467Y-55904216D01*
X39409806Y-55915699D01*
X39417307Y-55924030D01*
X39447535Y-55987022D01*
X39438909Y-56056357D01*
X39417307Y-56089970D01*
X39399466Y-56109785D01*
X39304821Y-56273715D01*
X39304818Y-56273722D01*
X39246327Y-56453740D01*
X39246326Y-56453744D01*
X39226540Y-56642000D01*
X39246326Y-56830256D01*
X39246327Y-56830259D01*
X39304818Y-57010277D01*
X39304821Y-57010284D01*
X39399467Y-57174216D01*
X39409806Y-57185699D01*
X39417307Y-57194030D01*
X39447535Y-57257022D01*
X39438909Y-57326357D01*
X39417307Y-57359970D01*
X39399466Y-57379785D01*
X39304821Y-57543715D01*
X39304818Y-57543722D01*
X39246327Y-57723740D01*
X39246326Y-57723744D01*
X39226540Y-57912000D01*
X39246326Y-58100256D01*
X39246327Y-58100259D01*
X39304818Y-58280277D01*
X39304821Y-58280284D01*
X39399467Y-58444216D01*
X39409806Y-58455699D01*
X39417307Y-58464030D01*
X39447535Y-58527022D01*
X39438909Y-58596357D01*
X39417307Y-58629970D01*
X39399466Y-58649785D01*
X39304821Y-58813715D01*
X39304818Y-58813722D01*
X39246327Y-58993740D01*
X39246326Y-58993744D01*
X39226540Y-59182000D01*
X39246326Y-59370256D01*
X39246327Y-59370259D01*
X39304818Y-59550277D01*
X39304821Y-59550284D01*
X39399467Y-59714216D01*
X39409806Y-59725699D01*
X39417307Y-59734030D01*
X39447535Y-59797022D01*
X39438909Y-59866357D01*
X39417307Y-59899970D01*
X39399466Y-59919785D01*
X39304821Y-60083715D01*
X39304818Y-60083722D01*
X39246327Y-60263740D01*
X39246326Y-60263744D01*
X39226540Y-60452000D01*
X25800500Y-60452000D01*
X25800500Y-43898198D01*
X43898757Y-43898198D01*
X43908730Y-44132976D01*
X43908730Y-44132982D01*
X43933711Y-44248890D01*
X43958240Y-44362703D01*
X44045859Y-44580753D01*
X44109077Y-44683425D01*
X44169070Y-44780860D01*
X44324325Y-44957264D01*
X44324329Y-44957268D01*
X44507153Y-45104888D01*
X44507157Y-45104891D01*
X44507160Y-45104893D01*
X44712315Y-45219499D01*
X44933887Y-45297785D01*
X45063131Y-45319946D01*
X45165493Y-45337499D01*
X45165502Y-45337500D01*
X45341645Y-45337500D01*
X45517144Y-45322563D01*
X45517147Y-45322562D01*
X45517149Y-45322562D01*
X45744562Y-45263348D01*
X45875386Y-45204211D01*
X45958691Y-45166556D01*
X45958692Y-45166554D01*
X45958697Y-45166553D01*
X46153393Y-45034962D01*
X46323050Y-44872359D01*
X46462786Y-44683423D01*
X46568582Y-44473589D01*
X46637394Y-44248894D01*
X46667243Y-44015802D01*
X46657269Y-43781018D01*
X46607760Y-43551297D01*
X46520141Y-43333247D01*
X46396931Y-43133141D01*
X46241675Y-42956736D01*
X46241674Y-42956735D01*
X46241670Y-42956731D01*
X46058846Y-42809111D01*
X46058840Y-42809107D01*
X45853684Y-42694500D01*
X45632120Y-42616217D01*
X45632115Y-42616215D01*
X45632113Y-42616215D01*
X45632109Y-42616214D01*
X45632108Y-42616214D01*
X45400506Y-42576500D01*
X45400498Y-42576500D01*
X45224360Y-42576500D01*
X45224355Y-42576500D01*
X45048855Y-42591436D01*
X44821438Y-42650651D01*
X44607308Y-42747443D01*
X44607300Y-42747448D01*
X44412616Y-42879030D01*
X44412607Y-42879038D01*
X44242949Y-43041642D01*
X44103216Y-43230574D01*
X44103213Y-43230578D01*
X43997418Y-43440409D01*
X43928605Y-43665109D01*
X43898757Y-43898198D01*
X25800500Y-43898198D01*
X25800500Y-29000000D01*
X33632422Y-29000000D01*
X33652722Y-29387338D01*
X33713398Y-29770433D01*
X33788529Y-30050828D01*
X33813788Y-30145094D01*
X33952787Y-30507197D01*
X34128877Y-30852793D01*
X34340122Y-31178082D01*
X34340124Y-31178084D01*
X34584219Y-31479516D01*
X34858484Y-31753781D01*
X34858488Y-31753784D01*
X35159917Y-31997877D01*
X35485206Y-32209122D01*
X35485211Y-32209125D01*
X35830806Y-32385214D01*
X36192913Y-32524214D01*
X36567567Y-32624602D01*
X36950662Y-32685278D01*
X37316576Y-32704455D01*
X37337999Y-32705578D01*
X37338000Y-32705578D01*
X37338001Y-32705578D01*
X37358301Y-32704514D01*
X37725338Y-32685278D01*
X38108433Y-32624602D01*
X38483087Y-32524214D01*
X38845194Y-32385214D01*
X39190789Y-32209125D01*
X39506643Y-32004007D01*
X57626671Y-32004007D01*
X57645964Y-32298363D01*
X57645965Y-32298373D01*
X57645966Y-32298380D01*
X57645968Y-32298390D01*
X57703518Y-32587716D01*
X57703521Y-32587730D01*
X57798349Y-32867080D01*
X57928825Y-33131660D01*
X57928829Y-33131667D01*
X58092725Y-33376955D01*
X58287241Y-33598758D01*
X58509043Y-33793273D01*
X58754335Y-33957172D01*
X59018923Y-34087652D01*
X59298278Y-34182481D01*
X59587620Y-34240034D01*
X59615888Y-34241886D01*
X59881993Y-34259329D01*
X59882000Y-34259329D01*
X59882007Y-34259329D01*
X60117675Y-34243881D01*
X60176380Y-34240034D01*
X60465722Y-34182481D01*
X60745077Y-34087652D01*
X61009665Y-33957172D01*
X61254957Y-33793273D01*
X61476758Y-33598758D01*
X61671273Y-33376957D01*
X61835172Y-33131665D01*
X61965652Y-32867077D01*
X62060481Y-32587722D01*
X62118034Y-32298380D01*
X62137329Y-32004007D01*
X81626671Y-32004007D01*
X81645964Y-32298363D01*
X81645965Y-32298373D01*
X81645966Y-32298380D01*
X81645968Y-32298390D01*
X81703518Y-32587716D01*
X81703521Y-32587730D01*
X81798349Y-32867080D01*
X81928825Y-33131660D01*
X81928829Y-33131667D01*
X82092725Y-33376955D01*
X82287241Y-33598758D01*
X82509043Y-33793273D01*
X82754335Y-33957172D01*
X83018923Y-34087652D01*
X83298278Y-34182481D01*
X83587620Y-34240034D01*
X83615888Y-34241886D01*
X83881993Y-34259329D01*
X83882000Y-34259329D01*
X83882007Y-34259329D01*
X84117675Y-34243881D01*
X84176380Y-34240034D01*
X84465722Y-34182481D01*
X84745077Y-34087652D01*
X85009665Y-33957172D01*
X85254957Y-33793273D01*
X85476758Y-33598758D01*
X85671273Y-33376957D01*
X85835172Y-33131665D01*
X85965652Y-32867077D01*
X86060481Y-32587722D01*
X86118034Y-32298380D01*
X86137329Y-32004000D01*
X86137329Y-32003992D01*
X86118035Y-31709636D01*
X86118034Y-31709620D01*
X86060481Y-31420278D01*
X85965652Y-31140923D01*
X85835172Y-30876336D01*
X85819438Y-30852789D01*
X85780042Y-30793829D01*
X85671273Y-30631043D01*
X85562660Y-30507194D01*
X85476758Y-30409241D01*
X85254955Y-30214725D01*
X85009667Y-30050829D01*
X85009660Y-30050825D01*
X84745080Y-29920349D01*
X84465730Y-29825521D01*
X84465724Y-29825519D01*
X84465722Y-29825519D01*
X84176380Y-29767966D01*
X84176373Y-29767965D01*
X84176363Y-29767964D01*
X83882007Y-29748671D01*
X83881993Y-29748671D01*
X83587636Y-29767964D01*
X83587624Y-29767965D01*
X83587620Y-29767966D01*
X83587612Y-29767967D01*
X83587609Y-29767968D01*
X83298283Y-29825518D01*
X83298269Y-29825521D01*
X83018919Y-29920349D01*
X82754334Y-30050828D01*
X82509041Y-30214728D01*
X82287241Y-30409241D01*
X82092728Y-30631041D01*
X81928828Y-30876334D01*
X81798349Y-31140919D01*
X81703521Y-31420269D01*
X81703518Y-31420283D01*
X81645968Y-31709609D01*
X81645964Y-31709636D01*
X81626671Y-32003992D01*
X81626671Y-32004007D01*
X62137329Y-32004007D01*
X62137329Y-32004000D01*
X62137329Y-32003992D01*
X62118035Y-31709636D01*
X62118034Y-31709620D01*
X62060481Y-31420278D01*
X61965652Y-31140923D01*
X61835172Y-30876336D01*
X61819438Y-30852789D01*
X61780042Y-30793829D01*
X61671273Y-30631043D01*
X61562660Y-30507194D01*
X61476758Y-30409241D01*
X61254955Y-30214725D01*
X61009667Y-30050829D01*
X61009660Y-30050825D01*
X60745080Y-29920349D01*
X60465730Y-29825521D01*
X60465724Y-29825519D01*
X60465722Y-29825519D01*
X60176380Y-29767966D01*
X60176373Y-29767965D01*
X60176363Y-29767964D01*
X59882007Y-29748671D01*
X59881993Y-29748671D01*
X59587636Y-29767964D01*
X59587624Y-29767965D01*
X59587620Y-29767966D01*
X59587612Y-29767967D01*
X59587609Y-29767968D01*
X59298283Y-29825518D01*
X59298269Y-29825521D01*
X59018919Y-29920349D01*
X58754334Y-30050828D01*
X58509041Y-30214728D01*
X58287241Y-30409241D01*
X58092728Y-30631041D01*
X57928828Y-30876334D01*
X57798349Y-31140919D01*
X57703521Y-31420269D01*
X57703518Y-31420283D01*
X57645968Y-31709609D01*
X57645964Y-31709636D01*
X57626671Y-32003992D01*
X57626671Y-32004007D01*
X39506643Y-32004007D01*
X39516084Y-31997876D01*
X39817516Y-31753781D01*
X40091781Y-31479516D01*
X40335876Y-31178084D01*
X40547125Y-30852789D01*
X40723214Y-30507194D01*
X40862214Y-30145087D01*
X40962602Y-29770433D01*
X41023278Y-29387338D01*
X41043578Y-29000000D01*
X139832422Y-29000000D01*
X139852722Y-29387338D01*
X139913398Y-29770433D01*
X139988529Y-30050828D01*
X140013788Y-30145094D01*
X140152787Y-30507197D01*
X140328877Y-30852793D01*
X140540122Y-31178082D01*
X140540124Y-31178084D01*
X140784219Y-31479516D01*
X141058484Y-31753781D01*
X141058488Y-31753784D01*
X141359917Y-31997877D01*
X141685206Y-32209122D01*
X141685211Y-32209125D01*
X142030806Y-32385214D01*
X142392913Y-32524214D01*
X142767567Y-32624602D01*
X143150662Y-32685278D01*
X143516576Y-32704455D01*
X143537999Y-32705578D01*
X143538000Y-32705578D01*
X143538001Y-32705578D01*
X143558301Y-32704514D01*
X143925338Y-32685278D01*
X144308433Y-32624602D01*
X144683087Y-32524214D01*
X145045194Y-32385214D01*
X145390789Y-32209125D01*
X145716084Y-31997876D01*
X146017516Y-31753781D01*
X146291781Y-31479516D01*
X146535876Y-31178084D01*
X146747125Y-30852789D01*
X146923214Y-30507194D01*
X147062214Y-30145087D01*
X147162602Y-29770433D01*
X147223278Y-29387338D01*
X147243578Y-29000000D01*
X147223278Y-28612662D01*
X147162602Y-28229567D01*
X147062214Y-27854913D01*
X146923214Y-27492806D01*
X146747125Y-27147211D01*
X146730774Y-27122032D01*
X146535877Y-26821917D01*
X146291784Y-26520488D01*
X146291781Y-26520484D01*
X146017516Y-26246219D01*
X145716084Y-26002124D01*
X145716082Y-26002122D01*
X145390793Y-25790877D01*
X145045197Y-25614787D01*
X144683094Y-25475788D01*
X144683087Y-25475786D01*
X144308433Y-25375398D01*
X144308429Y-25375397D01*
X144308428Y-25375397D01*
X143925339Y-25314722D01*
X143538001Y-25294422D01*
X143537999Y-25294422D01*
X143150660Y-25314722D01*
X142767572Y-25375397D01*
X142767570Y-25375397D01*
X142392905Y-25475788D01*
X142030802Y-25614787D01*
X141685206Y-25790877D01*
X141359917Y-26002122D01*
X141058488Y-26246215D01*
X141058480Y-26246222D01*
X140784222Y-26520480D01*
X140784215Y-26520488D01*
X140540122Y-26821917D01*
X140328877Y-27147206D01*
X140152787Y-27492802D01*
X140013788Y-27854905D01*
X139913397Y-28229570D01*
X139913397Y-28229572D01*
X139882704Y-28423365D01*
X139852722Y-28612662D01*
X139832422Y-29000000D01*
X41043578Y-29000000D01*
X41023278Y-28612662D01*
X40962602Y-28229567D01*
X40862214Y-27854913D01*
X40723214Y-27492806D01*
X40547125Y-27147211D01*
X40530774Y-27122032D01*
X40335877Y-26821917D01*
X40118922Y-26554000D01*
X62156592Y-26554000D01*
X62176201Y-26840680D01*
X62234666Y-27122034D01*
X62234667Y-27122037D01*
X62330894Y-27392793D01*
X62330893Y-27392793D01*
X62463098Y-27647935D01*
X62628812Y-27882700D01*
X62713923Y-27973831D01*
X62824947Y-28092708D01*
X62993176Y-28229572D01*
X63047853Y-28274055D01*
X63293382Y-28423365D01*
X63480237Y-28504526D01*
X63556942Y-28537844D01*
X63833642Y-28615371D01*
X64083920Y-28649771D01*
X64118321Y-28654500D01*
X64118322Y-28654500D01*
X64405679Y-28654500D01*
X64436370Y-28650281D01*
X64690358Y-28615371D01*
X64967058Y-28537844D01*
X65080015Y-28488779D01*
X65230617Y-28423365D01*
X65230620Y-28423363D01*
X65230625Y-28423361D01*
X65476147Y-28274055D01*
X65699053Y-28092708D01*
X65895189Y-27882698D01*
X66060901Y-27647936D01*
X66193104Y-27392797D01*
X66289334Y-27122032D01*
X66347798Y-26840686D01*
X66367408Y-26554000D01*
X67236592Y-26554000D01*
X67256201Y-26840680D01*
X67314666Y-27122034D01*
X67314667Y-27122037D01*
X67410894Y-27392793D01*
X67410893Y-27392793D01*
X67543098Y-27647935D01*
X67708812Y-27882700D01*
X67793923Y-27973831D01*
X67904947Y-28092708D01*
X68073176Y-28229572D01*
X68127853Y-28274055D01*
X68373382Y-28423365D01*
X68560237Y-28504526D01*
X68636942Y-28537844D01*
X68913642Y-28615371D01*
X69163920Y-28649771D01*
X69198321Y-28654500D01*
X69198322Y-28654500D01*
X69485679Y-28654500D01*
X69516370Y-28650281D01*
X69770358Y-28615371D01*
X70047058Y-28537844D01*
X70160015Y-28488779D01*
X70310617Y-28423365D01*
X70310620Y-28423363D01*
X70310625Y-28423361D01*
X70556147Y-28274055D01*
X70779053Y-28092708D01*
X70975189Y-27882698D01*
X71140901Y-27647936D01*
X71273104Y-27392797D01*
X71369334Y-27122032D01*
X71427798Y-26840686D01*
X71447408Y-26554000D01*
X72316592Y-26554000D01*
X72336201Y-26840680D01*
X72394666Y-27122034D01*
X72394667Y-27122037D01*
X72490894Y-27392793D01*
X72490893Y-27392793D01*
X72623098Y-27647935D01*
X72788812Y-27882700D01*
X72873923Y-27973831D01*
X72984947Y-28092708D01*
X73153176Y-28229572D01*
X73207853Y-28274055D01*
X73453382Y-28423365D01*
X73640237Y-28504526D01*
X73716942Y-28537844D01*
X73993642Y-28615371D01*
X74243920Y-28649771D01*
X74278321Y-28654500D01*
X74278322Y-28654500D01*
X74565679Y-28654500D01*
X74596370Y-28650281D01*
X74850358Y-28615371D01*
X75127058Y-28537844D01*
X75240015Y-28488779D01*
X75390617Y-28423365D01*
X75390620Y-28423363D01*
X75390625Y-28423361D01*
X75636147Y-28274055D01*
X75859053Y-28092708D01*
X76055189Y-27882698D01*
X76220901Y-27647936D01*
X76353104Y-27392797D01*
X76449334Y-27122032D01*
X76507798Y-26840686D01*
X76527408Y-26554000D01*
X76507798Y-26267314D01*
X76449334Y-25985968D01*
X76353105Y-25715206D01*
X76353106Y-25715206D01*
X76220901Y-25460064D01*
X76055187Y-25225299D01*
X75976554Y-25141105D01*
X75859053Y-25015292D01*
X75636147Y-24833945D01*
X75636146Y-24833944D01*
X75390617Y-24684634D01*
X75127063Y-24570158D01*
X75127061Y-24570157D01*
X75127058Y-24570156D01*
X74997578Y-24533877D01*
X74850364Y-24492630D01*
X74850359Y-24492629D01*
X74850358Y-24492629D01*
X74708018Y-24473064D01*
X74565679Y-24453500D01*
X74565678Y-24453500D01*
X74278322Y-24453500D01*
X74278321Y-24453500D01*
X73993642Y-24492629D01*
X73993635Y-24492630D01*
X73785861Y-24550845D01*
X73716942Y-24570156D01*
X73716939Y-24570156D01*
X73716936Y-24570158D01*
X73716935Y-24570158D01*
X73453382Y-24684634D01*
X73207853Y-24833944D01*
X72984950Y-25015289D01*
X72788812Y-25225299D01*
X72623098Y-25460064D01*
X72490894Y-25715206D01*
X72394667Y-25985962D01*
X72394666Y-25985965D01*
X72336201Y-26267319D01*
X72316592Y-26554000D01*
X71447408Y-26554000D01*
X71427798Y-26267314D01*
X71369334Y-25985968D01*
X71273105Y-25715206D01*
X71273106Y-25715206D01*
X71140901Y-25460064D01*
X70975187Y-25225299D01*
X70896554Y-25141105D01*
X70779053Y-25015292D01*
X70556147Y-24833945D01*
X70556146Y-24833944D01*
X70310617Y-24684634D01*
X70047063Y-24570158D01*
X70047061Y-24570157D01*
X70047058Y-24570156D01*
X69917578Y-24533877D01*
X69770364Y-24492630D01*
X69770359Y-24492629D01*
X69770358Y-24492629D01*
X69628018Y-24473064D01*
X69485679Y-24453500D01*
X69485678Y-24453500D01*
X69198322Y-24453500D01*
X69198321Y-24453500D01*
X68913642Y-24492629D01*
X68913635Y-24492630D01*
X68705861Y-24550845D01*
X68636942Y-24570156D01*
X68636939Y-24570156D01*
X68636936Y-24570158D01*
X68636935Y-24570158D01*
X68373382Y-24684634D01*
X68127853Y-24833944D01*
X67904950Y-25015289D01*
X67708812Y-25225299D01*
X67543098Y-25460064D01*
X67410894Y-25715206D01*
X67314667Y-25985962D01*
X67314666Y-25985965D01*
X67256201Y-26267319D01*
X67236592Y-26554000D01*
X66367408Y-26554000D01*
X66347798Y-26267314D01*
X66289334Y-25985968D01*
X66193105Y-25715206D01*
X66193106Y-25715206D01*
X66060901Y-25460064D01*
X65895187Y-25225299D01*
X65816554Y-25141105D01*
X65699053Y-25015292D01*
X65476147Y-24833945D01*
X65476146Y-24833944D01*
X65230617Y-24684634D01*
X64967063Y-24570158D01*
X64967061Y-24570157D01*
X64967058Y-24570156D01*
X64837578Y-24533877D01*
X64690364Y-24492630D01*
X64690359Y-24492629D01*
X64690358Y-24492629D01*
X64548018Y-24473064D01*
X64405679Y-24453500D01*
X64405678Y-24453500D01*
X64118322Y-24453500D01*
X64118321Y-24453500D01*
X63833642Y-24492629D01*
X63833635Y-24492630D01*
X63625861Y-24550845D01*
X63556942Y-24570156D01*
X63556939Y-24570156D01*
X63556936Y-24570158D01*
X63556935Y-24570158D01*
X63293382Y-24684634D01*
X63047853Y-24833944D01*
X62824950Y-25015289D01*
X62628812Y-25225299D01*
X62463098Y-25460064D01*
X62330894Y-25715206D01*
X62234667Y-25985962D01*
X62234666Y-25985965D01*
X62176201Y-26267319D01*
X62156592Y-26554000D01*
X40118922Y-26554000D01*
X40091784Y-26520488D01*
X40091781Y-26520484D01*
X39817516Y-26246219D01*
X39516084Y-26002124D01*
X39516082Y-26002122D01*
X39190793Y-25790877D01*
X38845197Y-25614787D01*
X38483094Y-25475788D01*
X38483087Y-25475786D01*
X38108433Y-25375398D01*
X38108429Y-25375397D01*
X38108428Y-25375397D01*
X37725339Y-25314722D01*
X37338001Y-25294422D01*
X37337999Y-25294422D01*
X36950660Y-25314722D01*
X36567572Y-25375397D01*
X36567570Y-25375397D01*
X36192905Y-25475788D01*
X35830802Y-25614787D01*
X35485206Y-25790877D01*
X35159917Y-26002122D01*
X34858488Y-26246215D01*
X34858480Y-26246222D01*
X34584222Y-26520480D01*
X34584215Y-26520488D01*
X34340122Y-26821917D01*
X34128877Y-27147206D01*
X33952787Y-27492802D01*
X33813788Y-27854905D01*
X33713397Y-28229570D01*
X33713397Y-28229572D01*
X33682704Y-28423365D01*
X33652722Y-28612662D01*
X33632422Y-29000000D01*
X25800500Y-29000000D01*
X25800500Y-25902022D01*
X25800633Y-25897966D01*
X25807652Y-25790877D01*
X25818196Y-25630004D01*
X25819253Y-25621979D01*
X25871247Y-25360590D01*
X25873341Y-25352772D01*
X25959008Y-25100405D01*
X25962106Y-25092922D01*
X26079986Y-24853886D01*
X26084034Y-24846876D01*
X26232103Y-24625274D01*
X26237024Y-24618861D01*
X26412755Y-24418477D01*
X26418477Y-24412755D01*
X26618861Y-24237024D01*
X26625274Y-24232103D01*
X26846876Y-24084034D01*
X26853886Y-24079986D01*
X27092922Y-23962106D01*
X27100405Y-23959008D01*
X27352772Y-23873341D01*
X27360590Y-23871247D01*
X27621979Y-23819253D01*
X27630004Y-23818196D01*
X27897974Y-23800632D01*
X27902023Y-23800500D01*
X27957583Y-23800500D01*
X152636417Y-23800500D01*
X152691977Y-23800500D01*
X152696025Y-23800632D01*
G37*
%TD.AperFunction*%
%TD*%
M02*
