%TF.GenerationSoftware,KiCad,Pcbnew,7.0.9*%
%TF.CreationDate,2024-03-25T15:38:11+01:00*%
%TF.ProjectId,8x-sata-backplane,38782d73-6174-4612-9d62-61636b706c61,rev?*%
%TF.SameCoordinates,Original*%
%TF.FileFunction,Paste,Top*%
%TF.FilePolarity,Positive*%
%FSLAX46Y46*%
G04 Gerber Fmt 4.6, Leading zero omitted, Abs format (unit mm)*
G04 Created by KiCad (PCBNEW 7.0.9) date 2024-03-25 15:38:11*
%MOMM*%
%LPD*%
G01*
G04 APERTURE LIST*
G04 Aperture macros list*
%AMRoundRect*
0 Rectangle with rounded corners*
0 $1 Rounding radius*
0 $2 $3 $4 $5 $6 $7 $8 $9 X,Y pos of 4 corners*
0 Add a 4 corners polygon primitive as box body*
4,1,4,$2,$3,$4,$5,$6,$7,$8,$9,$2,$3,0*
0 Add four circle primitives for the rounded corners*
1,1,$1+$1,$2,$3*
1,1,$1+$1,$4,$5*
1,1,$1+$1,$6,$7*
1,1,$1+$1,$8,$9*
0 Add four rect primitives between the rounded corners*
20,1,$1+$1,$2,$3,$4,$5,0*
20,1,$1+$1,$4,$5,$6,$7,0*
20,1,$1+$1,$6,$7,$8,$9,0*
20,1,$1+$1,$8,$9,$2,$3,0*%
G04 Aperture macros list end*
%ADD10RoundRect,0.150000X1.752500X-0.150000X1.752500X0.150000X-1.752500X0.150000X-1.752500X-0.150000X0*%
%ADD11RoundRect,0.150000X1.117500X-0.150000X1.117500X0.150000X-1.117500X0.150000X-1.117500X-0.150000X0*%
%ADD12RoundRect,0.150000X1.750000X-0.150000X1.750000X0.150000X-1.750000X0.150000X-1.750000X-0.150000X0*%
%ADD13R,4.445000X2.100000*%
%ADD14RoundRect,0.225000X0.225000X0.775000X-0.225000X0.775000X-0.225000X-0.775000X0.225000X-0.775000X0*%
G04 APERTURE END LIST*
D10*
%TO.C,J7*%
X150585500Y-78232000D03*
D11*
X149950500Y-76962000D03*
X149950500Y-75692000D03*
D10*
X150585500Y-74422000D03*
D11*
X149950500Y-73152000D03*
X149950500Y-71882000D03*
D10*
X150585500Y-70612000D03*
D12*
X150583000Y-64262000D03*
X150583000Y-62992000D03*
X150583000Y-61722000D03*
X150583000Y-60452000D03*
X150583000Y-59182000D03*
X150583000Y-57912000D03*
X150583000Y-56642000D03*
X150583000Y-55372000D03*
X150583000Y-54102000D03*
X150583000Y-52832000D03*
X150583000Y-51562000D03*
X150583000Y-50292000D03*
X150583000Y-49022000D03*
X150583000Y-47752000D03*
X150583000Y-46482000D03*
D13*
X150900500Y-83707000D03*
X150900500Y-41007000D03*
%TD*%
D10*
%TO.C,J5*%
X115185500Y-78232000D03*
D11*
X114550500Y-76962000D03*
X114550500Y-75692000D03*
D10*
X115185500Y-74422000D03*
D11*
X114550500Y-73152000D03*
X114550500Y-71882000D03*
D10*
X115185500Y-70612000D03*
D12*
X115183000Y-64262000D03*
X115183000Y-62992000D03*
X115183000Y-61722000D03*
X115183000Y-60452000D03*
X115183000Y-59182000D03*
X115183000Y-57912000D03*
X115183000Y-56642000D03*
X115183000Y-55372000D03*
X115183000Y-54102000D03*
X115183000Y-52832000D03*
X115183000Y-51562000D03*
X115183000Y-50292000D03*
X115183000Y-49022000D03*
X115183000Y-47752000D03*
X115183000Y-46482000D03*
D13*
X115500500Y-83707000D03*
X115500500Y-41007000D03*
%TD*%
D10*
%TO.C,J3*%
X79785500Y-78232000D03*
D11*
X79150500Y-76962000D03*
X79150500Y-75692000D03*
D10*
X79785500Y-74422000D03*
D11*
X79150500Y-73152000D03*
X79150500Y-71882000D03*
D10*
X79785500Y-70612000D03*
D12*
X79783000Y-64262000D03*
X79783000Y-62992000D03*
X79783000Y-61722000D03*
X79783000Y-60452000D03*
X79783000Y-59182000D03*
X79783000Y-57912000D03*
X79783000Y-56642000D03*
X79783000Y-55372000D03*
X79783000Y-54102000D03*
X79783000Y-52832000D03*
X79783000Y-51562000D03*
X79783000Y-50292000D03*
X79783000Y-49022000D03*
X79783000Y-47752000D03*
X79783000Y-46482000D03*
D13*
X80100500Y-83707000D03*
X80100500Y-41007000D03*
%TD*%
D10*
%TO.C,J1*%
X44385500Y-78232000D03*
D11*
X43750500Y-76962000D03*
X43750500Y-75692000D03*
D10*
X44385500Y-74422000D03*
D11*
X43750500Y-73152000D03*
X43750500Y-71882000D03*
D10*
X44385500Y-70612000D03*
D12*
X44383000Y-64262000D03*
X44383000Y-62992000D03*
X44383000Y-61722000D03*
X44383000Y-60452000D03*
X44383000Y-59182000D03*
X44383000Y-57912000D03*
X44383000Y-56642000D03*
X44383000Y-55372000D03*
X44383000Y-54102000D03*
X44383000Y-52832000D03*
X44383000Y-51562000D03*
X44383000Y-50292000D03*
X44383000Y-49022000D03*
X44383000Y-47752000D03*
X44383000Y-46482000D03*
D13*
X44700500Y-83707000D03*
X44700500Y-41007000D03*
%TD*%
D14*
%TO.C,J2*%
X33528000Y-141678000D03*
X34798000Y-141678000D03*
X36068000Y-141678000D03*
X37338000Y-141678000D03*
X38608000Y-141678000D03*
X39878000Y-141678000D03*
X41148000Y-141678000D03*
%TD*%
%TO.C,J6*%
X111948000Y-141678000D03*
X110678000Y-141678000D03*
X109408000Y-141678000D03*
X108138000Y-141678000D03*
X106868000Y-141678000D03*
X105598000Y-141678000D03*
X104328000Y-141678000D03*
%TD*%
%TO.C,J4*%
X76548000Y-141678000D03*
X75278000Y-141678000D03*
X74008000Y-141678000D03*
X72738000Y-141678000D03*
X71468000Y-141678000D03*
X70198000Y-141678000D03*
X68928000Y-141678000D03*
%TD*%
%TO.C,J8*%
X147348000Y-141698000D03*
X146078000Y-141698000D03*
X144808000Y-141698000D03*
X143538000Y-141698000D03*
X142268000Y-141698000D03*
X140998000Y-141698000D03*
X139728000Y-141698000D03*
%TD*%
M02*
