%TF.GenerationSoftware,KiCad,Pcbnew,7.0.9*%
%TF.CreationDate,2024-03-25T15:38:08+01:00*%
%TF.ProjectId,8x-sata-backplane,38782d73-6174-4612-9d62-61636b706c61,rev?*%
%TF.SameCoordinates,Original*%
%TF.FileFunction,Drillmap*%
%TF.FilePolarity,Positive*%
%FSLAX45Y45*%
G04 Gerber Fmt 4.5, Leading zero omitted, Abs format (unit mm)*
G04 Created by KiCad (PCBNEW 7.0.9) date 2024-03-25 15:38:08*
%MOMM*%
%LPD*%
G01*
G04 APERTURE LIST*
%ADD10C,0.100000*%
%ADD11C,0.200000*%
%ADD12C,0.150000*%
%ADD13C,0.230000*%
%ADD14C,0.320000*%
G04 APERTURE END LIST*
D10*
X11913400Y-13463600D02*
G75*
G03*
X12013400Y-13563600I100000J0D01*
G01*
X12980000Y-13563600D02*
G75*
G03*
X13080000Y-13463600I0J100000D01*
G01*
X12980000Y-13563600D02*
X12013400Y-13563600D01*
X12013400Y-3886200D02*
G75*
G03*
X11913400Y-3986200I0J-100000D01*
G01*
X11913400Y-13463600D02*
X11913400Y-3986200D01*
X13080000Y-3986200D02*
G75*
G03*
X12980000Y-3886200I-100000J0D01*
G01*
X13080000Y-3986200D02*
X13080000Y-13463600D01*
X12013400Y-3886200D02*
X12980000Y-3886200D01*
X8473400Y-3886200D02*
G75*
G03*
X8373400Y-3986200I0J-100000D01*
G01*
X8373400Y-13463600D02*
G75*
G03*
X8473400Y-13563600I100000J0D01*
G01*
X8373400Y-13463600D02*
X8373400Y-3986200D01*
X9540000Y-3986200D02*
G75*
G03*
X9440000Y-3886200I-100000J0D01*
G01*
X8473400Y-3886200D02*
X9440000Y-3886200D01*
X9440000Y-13563600D02*
G75*
G03*
X9540000Y-13463600I0J100000D01*
G01*
X9440000Y-13563600D02*
X8473400Y-13563600D01*
X9540000Y-3986200D02*
X9540000Y-13463600D01*
X6000000Y-3986200D02*
G75*
G03*
X5900000Y-3886200I-100000J0D01*
G01*
X5900000Y-13563600D02*
G75*
G03*
X6000000Y-13463600I0J100000D01*
G01*
X6000000Y-3986200D02*
X6000000Y-13463600D01*
X4933400Y-3886200D02*
G75*
G03*
X4833400Y-3986200I0J-100000D01*
G01*
X4933400Y-3886200D02*
X5900000Y-3886200D01*
X4833400Y-13463600D02*
G75*
G03*
X4933400Y-13563600I100000J0D01*
G01*
X5900000Y-13563600D02*
X4933400Y-13563600D01*
X4833400Y-13463600D02*
X4833400Y-3986200D01*
X2540000Y-14990000D02*
G75*
G03*
X2790000Y-15240000I250000J0D01*
G01*
X15269400Y-15240000D02*
G75*
G03*
X15519400Y-14990000I0J250000D01*
G01*
X15269400Y-15240000D02*
X2790000Y-15240000D01*
X2790000Y-2340000D02*
G75*
G03*
X2540000Y-2590000I0J-250000D01*
G01*
X2540000Y-14990000D02*
X2540000Y-2590000D01*
X15519400Y-2590000D02*
G75*
G03*
X15269400Y-2340000I-250000J0D01*
G01*
X15519400Y-2590000D02*
X15519400Y-14990000D01*
X2790000Y-2340000D02*
X15269400Y-2340000D01*
D11*
D10*
X3332800Y-14002800D02*
X3372800Y-14042800D01*
X3372800Y-14002800D02*
X3332800Y-14042800D01*
X3713800Y-14002800D02*
X3753800Y-14042800D01*
X3753800Y-14002800D02*
X3713800Y-14042800D01*
X3993200Y-4628200D02*
X4033200Y-4668200D01*
X4033200Y-4628200D02*
X3993200Y-4668200D01*
X3993200Y-4755200D02*
X4033200Y-4795200D01*
X4033200Y-4755200D02*
X3993200Y-4795200D01*
X3993200Y-4882200D02*
X4033200Y-4922200D01*
X4033200Y-4882200D02*
X3993200Y-4922200D01*
X3993200Y-5009200D02*
X4033200Y-5049200D01*
X4033200Y-5009200D02*
X3993200Y-5049200D01*
X3993200Y-5136200D02*
X4033200Y-5176200D01*
X4033200Y-5136200D02*
X3993200Y-5176200D01*
X3993200Y-5263200D02*
X4033200Y-5303200D01*
X4033200Y-5263200D02*
X3993200Y-5303200D01*
X3993200Y-5390200D02*
X4033200Y-5430200D01*
X4033200Y-5390200D02*
X3993200Y-5430200D01*
X3993200Y-5517200D02*
X4033200Y-5557200D01*
X4033200Y-5517200D02*
X3993200Y-5557200D01*
X3993200Y-5644200D02*
X4033200Y-5684200D01*
X4033200Y-5644200D02*
X3993200Y-5684200D01*
X3993200Y-5771200D02*
X4033200Y-5811200D01*
X4033200Y-5771200D02*
X3993200Y-5811200D01*
X3993200Y-5898200D02*
X4033200Y-5938200D01*
X4033200Y-5898200D02*
X3993200Y-5938200D01*
X3993200Y-6025200D02*
X4033200Y-6065200D01*
X4033200Y-6025200D02*
X3993200Y-6065200D01*
X4094800Y-4628200D02*
X4134800Y-4668200D01*
X4134800Y-4628200D02*
X4094800Y-4668200D01*
X4094800Y-4755200D02*
X4134800Y-4795200D01*
X4134800Y-4755200D02*
X4094800Y-4795200D01*
X4094800Y-4884800D02*
X4134800Y-4924800D01*
X4134800Y-4884800D02*
X4094800Y-4924800D01*
X4094800Y-5011800D02*
X4134800Y-5051800D01*
X4134800Y-5011800D02*
X4094800Y-5051800D01*
X4094800Y-5138800D02*
X4134800Y-5178800D01*
X4134800Y-5138800D02*
X4094800Y-5178800D01*
X4094800Y-5265800D02*
X4134800Y-5305800D01*
X4134800Y-5265800D02*
X4094800Y-5305800D01*
X4094800Y-5390200D02*
X4134800Y-5430200D01*
X4134800Y-5390200D02*
X4094800Y-5430200D01*
X4094800Y-5519800D02*
X4134800Y-5559800D01*
X4134800Y-5519800D02*
X4094800Y-5559800D01*
X4094800Y-5644200D02*
X4134800Y-5684200D01*
X4134800Y-5644200D02*
X4094800Y-5684200D01*
X4094800Y-5771200D02*
X4134800Y-5811200D01*
X4134800Y-5771200D02*
X4094800Y-5811200D01*
X4094800Y-5898200D02*
X4134800Y-5938200D01*
X4134800Y-5898200D02*
X4094800Y-5938200D01*
X4094800Y-6027800D02*
X4134800Y-6067800D01*
X4134800Y-6027800D02*
X4094800Y-6067800D01*
X4094800Y-14002800D02*
X4134800Y-14042800D01*
X4134800Y-14002800D02*
X4094800Y-14042800D01*
X4171000Y-7041200D02*
X4211000Y-7081200D01*
X4211000Y-7041200D02*
X4171000Y-7081200D01*
X4171000Y-7422200D02*
X4211000Y-7462200D01*
X4211000Y-7422200D02*
X4171000Y-7462200D01*
X4171000Y-7803200D02*
X4211000Y-7843200D01*
X4211000Y-7803200D02*
X4171000Y-7843200D01*
X6872800Y-14002800D02*
X6912800Y-14042800D01*
X6912800Y-14002800D02*
X6872800Y-14042800D01*
X7253800Y-14002800D02*
X7293800Y-14042800D01*
X7293800Y-14002800D02*
X7253800Y-14042800D01*
X7549200Y-4628200D02*
X7589200Y-4668200D01*
X7589200Y-4628200D02*
X7549200Y-4668200D01*
X7549200Y-4755200D02*
X7589200Y-4795200D01*
X7589200Y-4755200D02*
X7549200Y-4795200D01*
X7549200Y-4882200D02*
X7589200Y-4922200D01*
X7589200Y-4882200D02*
X7549200Y-4922200D01*
X7549200Y-5009200D02*
X7589200Y-5049200D01*
X7589200Y-5009200D02*
X7549200Y-5049200D01*
X7549200Y-5136200D02*
X7589200Y-5176200D01*
X7589200Y-5136200D02*
X7549200Y-5176200D01*
X7549200Y-5263200D02*
X7589200Y-5303200D01*
X7589200Y-5263200D02*
X7549200Y-5303200D01*
X7549200Y-5390200D02*
X7589200Y-5430200D01*
X7589200Y-5390200D02*
X7549200Y-5430200D01*
X7549200Y-5517200D02*
X7589200Y-5557200D01*
X7589200Y-5517200D02*
X7549200Y-5557200D01*
X7549200Y-5644200D02*
X7589200Y-5684200D01*
X7589200Y-5644200D02*
X7549200Y-5684200D01*
X7549200Y-5771200D02*
X7589200Y-5811200D01*
X7589200Y-5771200D02*
X7549200Y-5811200D01*
X7549200Y-5898200D02*
X7589200Y-5938200D01*
X7589200Y-5898200D02*
X7549200Y-5938200D01*
X7549200Y-6025200D02*
X7589200Y-6065200D01*
X7589200Y-6025200D02*
X7549200Y-6065200D01*
X7634800Y-14002800D02*
X7674800Y-14042800D01*
X7674800Y-14002800D02*
X7634800Y-14042800D01*
X7650800Y-4628200D02*
X7690800Y-4668200D01*
X7690800Y-4628200D02*
X7650800Y-4668200D01*
X7650800Y-4755200D02*
X7690800Y-4795200D01*
X7690800Y-4755200D02*
X7650800Y-4795200D01*
X7650800Y-4882200D02*
X7690800Y-4922200D01*
X7690800Y-4882200D02*
X7650800Y-4922200D01*
X7650800Y-5009200D02*
X7690800Y-5049200D01*
X7690800Y-5009200D02*
X7650800Y-5049200D01*
X7650800Y-5136200D02*
X7690800Y-5176200D01*
X7690800Y-5136200D02*
X7650800Y-5176200D01*
X7650800Y-5263200D02*
X7690800Y-5303200D01*
X7690800Y-5263200D02*
X7650800Y-5303200D01*
X7650800Y-5390200D02*
X7690800Y-5430200D01*
X7690800Y-5390200D02*
X7650800Y-5430200D01*
X7650800Y-5517200D02*
X7690800Y-5557200D01*
X7690800Y-5517200D02*
X7650800Y-5557200D01*
X7650800Y-5644200D02*
X7690800Y-5684200D01*
X7690800Y-5644200D02*
X7650800Y-5684200D01*
X7650800Y-5771200D02*
X7690800Y-5811200D01*
X7690800Y-5771200D02*
X7650800Y-5811200D01*
X7650800Y-5898200D02*
X7690800Y-5938200D01*
X7690800Y-5898200D02*
X7650800Y-5938200D01*
X7650800Y-6025200D02*
X7690800Y-6065200D01*
X7690800Y-6025200D02*
X7650800Y-6065200D01*
X7727000Y-7041200D02*
X7767000Y-7081200D01*
X7767000Y-7041200D02*
X7727000Y-7081200D01*
X7727000Y-7422200D02*
X7767000Y-7462200D01*
X7767000Y-7422200D02*
X7727000Y-7462200D01*
X7727000Y-7803200D02*
X7767000Y-7843200D01*
X7767000Y-7803200D02*
X7727000Y-7843200D01*
X10412800Y-14002800D02*
X10452800Y-14042800D01*
X10452800Y-14002800D02*
X10412800Y-14042800D01*
X10793800Y-14002800D02*
X10833800Y-14042800D01*
X10833800Y-14002800D02*
X10793800Y-14042800D01*
X11079800Y-4628200D02*
X11119800Y-4668200D01*
X11119800Y-4628200D02*
X11079800Y-4668200D01*
X11079800Y-4755200D02*
X11119800Y-4795200D01*
X11119800Y-4755200D02*
X11079800Y-4795200D01*
X11079800Y-4882200D02*
X11119800Y-4922200D01*
X11119800Y-4882200D02*
X11079800Y-4922200D01*
X11079800Y-5009200D02*
X11119800Y-5049200D01*
X11119800Y-5009200D02*
X11079800Y-5049200D01*
X11079800Y-5136200D02*
X11119800Y-5176200D01*
X11119800Y-5136200D02*
X11079800Y-5176200D01*
X11079800Y-5263200D02*
X11119800Y-5303200D01*
X11119800Y-5263200D02*
X11079800Y-5303200D01*
X11079800Y-5390200D02*
X11119800Y-5430200D01*
X11119800Y-5390200D02*
X11079800Y-5430200D01*
X11079800Y-5517200D02*
X11119800Y-5557200D01*
X11119800Y-5517200D02*
X11079800Y-5557200D01*
X11079800Y-5644200D02*
X11119800Y-5684200D01*
X11119800Y-5644200D02*
X11079800Y-5684200D01*
X11079800Y-5771200D02*
X11119800Y-5811200D01*
X11119800Y-5771200D02*
X11079800Y-5811200D01*
X11079800Y-5898200D02*
X11119800Y-5938200D01*
X11119800Y-5898200D02*
X11079800Y-5938200D01*
X11079800Y-6025200D02*
X11119800Y-6065200D01*
X11119800Y-6025200D02*
X11079800Y-6065200D01*
X11174800Y-14002800D02*
X11214800Y-14042800D01*
X11214800Y-14002800D02*
X11174800Y-14042800D01*
X11181400Y-4628200D02*
X11221400Y-4668200D01*
X11221400Y-4628200D02*
X11181400Y-4668200D01*
X11181400Y-4755200D02*
X11221400Y-4795200D01*
X11221400Y-4755200D02*
X11181400Y-4795200D01*
X11181400Y-4882200D02*
X11221400Y-4922200D01*
X11221400Y-4882200D02*
X11181400Y-4922200D01*
X11181400Y-5009200D02*
X11221400Y-5049200D01*
X11221400Y-5009200D02*
X11181400Y-5049200D01*
X11181400Y-5136200D02*
X11221400Y-5176200D01*
X11221400Y-5136200D02*
X11181400Y-5176200D01*
X11181400Y-5263200D02*
X11221400Y-5303200D01*
X11221400Y-5263200D02*
X11181400Y-5303200D01*
X11181400Y-5390200D02*
X11221400Y-5430200D01*
X11221400Y-5390200D02*
X11181400Y-5430200D01*
X11181400Y-5517200D02*
X11221400Y-5557200D01*
X11221400Y-5517200D02*
X11181400Y-5557200D01*
X11181400Y-5644200D02*
X11221400Y-5684200D01*
X11221400Y-5644200D02*
X11181400Y-5684200D01*
X11181400Y-5771200D02*
X11221400Y-5811200D01*
X11221400Y-5771200D02*
X11181400Y-5811200D01*
X11181400Y-5898200D02*
X11221400Y-5938200D01*
X11221400Y-5898200D02*
X11181400Y-5938200D01*
X11181400Y-6025200D02*
X11221400Y-6065200D01*
X11221400Y-6025200D02*
X11181400Y-6065200D01*
X11257600Y-7041200D02*
X11297600Y-7081200D01*
X11297600Y-7041200D02*
X11257600Y-7081200D01*
X11257600Y-7422200D02*
X11297600Y-7462200D01*
X11297600Y-7422200D02*
X11257600Y-7462200D01*
X11257600Y-7803200D02*
X11297600Y-7843200D01*
X11297600Y-7803200D02*
X11257600Y-7843200D01*
X13952800Y-14002800D02*
X13992800Y-14042800D01*
X13992800Y-14002800D02*
X13952800Y-14042800D01*
X14333800Y-14002800D02*
X14373800Y-14042800D01*
X14373800Y-14002800D02*
X14333800Y-14042800D01*
X14635800Y-4628200D02*
X14675800Y-4668200D01*
X14675800Y-4628200D02*
X14635800Y-4668200D01*
X14635800Y-4755200D02*
X14675800Y-4795200D01*
X14675800Y-4755200D02*
X14635800Y-4795200D01*
X14635800Y-4882200D02*
X14675800Y-4922200D01*
X14675800Y-4882200D02*
X14635800Y-4922200D01*
X14635800Y-5009200D02*
X14675800Y-5049200D01*
X14675800Y-5009200D02*
X14635800Y-5049200D01*
X14635800Y-5136200D02*
X14675800Y-5176200D01*
X14675800Y-5136200D02*
X14635800Y-5176200D01*
X14635800Y-5263200D02*
X14675800Y-5303200D01*
X14675800Y-5263200D02*
X14635800Y-5303200D01*
X14635800Y-5390200D02*
X14675800Y-5430200D01*
X14675800Y-5390200D02*
X14635800Y-5430200D01*
X14635800Y-5517200D02*
X14675800Y-5557200D01*
X14675800Y-5517200D02*
X14635800Y-5557200D01*
X14635800Y-5644200D02*
X14675800Y-5684200D01*
X14675800Y-5644200D02*
X14635800Y-5684200D01*
X14635800Y-5771200D02*
X14675800Y-5811200D01*
X14675800Y-5771200D02*
X14635800Y-5811200D01*
X14635800Y-5898200D02*
X14675800Y-5938200D01*
X14675800Y-5898200D02*
X14635800Y-5938200D01*
X14635800Y-6025200D02*
X14675800Y-6065200D01*
X14675800Y-6025200D02*
X14635800Y-6065200D01*
X14714800Y-14002800D02*
X14754800Y-14042800D01*
X14754800Y-14002800D02*
X14714800Y-14042800D01*
X14737400Y-4628200D02*
X14777400Y-4668200D01*
X14777400Y-4628200D02*
X14737400Y-4668200D01*
X14737400Y-4755200D02*
X14777400Y-4795200D01*
X14777400Y-4755200D02*
X14737400Y-4795200D01*
X14737400Y-4882200D02*
X14777400Y-4922200D01*
X14777400Y-4882200D02*
X14737400Y-4922200D01*
X14737400Y-5009200D02*
X14777400Y-5049200D01*
X14777400Y-5009200D02*
X14737400Y-5049200D01*
X14737400Y-5136200D02*
X14777400Y-5176200D01*
X14777400Y-5136200D02*
X14737400Y-5176200D01*
X14737400Y-5263200D02*
X14777400Y-5303200D01*
X14777400Y-5263200D02*
X14737400Y-5303200D01*
X14737400Y-5390200D02*
X14777400Y-5430200D01*
X14777400Y-5390200D02*
X14737400Y-5430200D01*
X14737400Y-5517200D02*
X14777400Y-5557200D01*
X14777400Y-5517200D02*
X14737400Y-5557200D01*
X14737400Y-5644200D02*
X14777400Y-5684200D01*
X14777400Y-5644200D02*
X14737400Y-5684200D01*
X14737400Y-5771200D02*
X14777400Y-5811200D01*
X14777400Y-5771200D02*
X14737400Y-5811200D01*
X14737400Y-5898200D02*
X14777400Y-5938200D01*
X14777400Y-5898200D02*
X14737400Y-5938200D01*
X14737400Y-6025200D02*
X14777400Y-6065200D01*
X14777400Y-6025200D02*
X14737400Y-6065200D01*
X14788200Y-7041200D02*
X14828200Y-7081200D01*
X14828200Y-7041200D02*
X14788200Y-7081200D01*
X14788200Y-7422200D02*
X14828200Y-7462200D01*
X14828200Y-7422200D02*
X14788200Y-7462200D01*
X14788200Y-7803200D02*
X14828200Y-7843200D01*
X14828200Y-7803200D02*
X14788200Y-7843200D01*
X3518800Y-2900000D02*
G75*
G03*
X3518800Y-2900000I-25000J0D01*
G01*
X3589094Y-2730294D02*
G75*
G03*
X3589094Y-2730294I-25000J0D01*
G01*
X3589094Y-3069706D02*
G75*
G03*
X3589094Y-3069706I-25000J0D01*
G01*
X3758800Y-2660000D02*
G75*
G03*
X3758800Y-2660000I-25000J0D01*
G01*
X3758800Y-3140000D02*
G75*
G03*
X3758800Y-3140000I-25000J0D01*
G01*
X3928506Y-2730294D02*
G75*
G03*
X3928506Y-2730294I-25000J0D01*
G01*
X3928506Y-3069706D02*
G75*
G03*
X3928506Y-3069706I-25000J0D01*
G01*
X3998800Y-2900000D02*
G75*
G03*
X3998800Y-2900000I-25000J0D01*
G01*
X5288800Y-14400000D02*
G75*
G03*
X5288800Y-14400000I-25000J0D01*
G01*
X5359094Y-14230294D02*
G75*
G03*
X5359094Y-14230294I-25000J0D01*
G01*
X5359094Y-14569706D02*
G75*
G03*
X5359094Y-14569706I-25000J0D01*
G01*
X5528800Y-14160000D02*
G75*
G03*
X5528800Y-14160000I-25000J0D01*
G01*
X5528800Y-14640000D02*
G75*
G03*
X5528800Y-14640000I-25000J0D01*
G01*
X5698506Y-14230294D02*
G75*
G03*
X5698506Y-14230294I-25000J0D01*
G01*
X5698506Y-14569706D02*
G75*
G03*
X5698506Y-14569706I-25000J0D01*
G01*
X5768800Y-14400000D02*
G75*
G03*
X5768800Y-14400000I-25000J0D01*
G01*
X12368800Y-14400000D02*
G75*
G03*
X12368800Y-14400000I-25000J0D01*
G01*
X12439094Y-14230294D02*
G75*
G03*
X12439094Y-14230294I-25000J0D01*
G01*
X12439094Y-14569706D02*
G75*
G03*
X12439094Y-14569706I-25000J0D01*
G01*
X12608800Y-14160000D02*
G75*
G03*
X12608800Y-14160000I-25000J0D01*
G01*
X12608800Y-14640000D02*
G75*
G03*
X12608800Y-14640000I-25000J0D01*
G01*
X12778506Y-14230294D02*
G75*
G03*
X12778506Y-14230294I-25000J0D01*
G01*
X12778506Y-14569706D02*
G75*
G03*
X12778506Y-14569706I-25000J0D01*
G01*
X12848800Y-14400000D02*
G75*
G03*
X12848800Y-14400000I-25000J0D01*
G01*
X14138800Y-2900000D02*
G75*
G03*
X14138800Y-2900000I-25000J0D01*
G01*
X14209094Y-2730294D02*
G75*
G03*
X14209094Y-2730294I-25000J0D01*
G01*
X14209094Y-3069706D02*
G75*
G03*
X14209094Y-3069706I-25000J0D01*
G01*
X14378800Y-2660000D02*
G75*
G03*
X14378800Y-2660000I-25000J0D01*
G01*
X14378800Y-3140000D02*
G75*
G03*
X14378800Y-3140000I-25000J0D01*
G01*
X14548506Y-2730294D02*
G75*
G03*
X14548506Y-2730294I-25000J0D01*
G01*
X14548506Y-3069706D02*
G75*
G03*
X14548506Y-3069706I-25000J0D01*
G01*
X14618800Y-2900000D02*
G75*
G03*
X14618800Y-2900000I-25000J0D01*
G01*
D12*
X3096800Y-14328800D02*
X3096800Y-14478800D01*
X3021800Y-14403800D02*
X3171800Y-14403800D01*
X4370800Y-14328800D02*
X4370800Y-14478800D01*
X4295800Y-14403800D02*
X4445800Y-14403800D01*
X6426200Y-2580400D02*
X6426200Y-2730400D01*
X6351200Y-2655400D02*
X6501200Y-2655400D01*
X6636800Y-14328800D02*
X6636800Y-14478800D01*
X6561800Y-14403800D02*
X6711800Y-14403800D01*
X6934200Y-2580400D02*
X6934200Y-2730400D01*
X6859200Y-2655400D02*
X7009200Y-2655400D01*
X7442200Y-2580400D02*
X7442200Y-2730400D01*
X7367200Y-2655400D02*
X7517200Y-2655400D01*
X7910800Y-14328800D02*
X7910800Y-14478800D01*
X7835800Y-14403800D02*
X7985800Y-14403800D01*
X7950200Y-2580400D02*
X7950200Y-2730400D01*
X7875200Y-2655400D02*
X8025200Y-2655400D01*
X10176800Y-14328800D02*
X10176800Y-14478800D01*
X10101800Y-14403800D02*
X10251800Y-14403800D01*
X11450800Y-14328800D02*
X11450800Y-14478800D01*
X11375800Y-14403800D02*
X11525800Y-14403800D01*
X13716800Y-14330800D02*
X13716800Y-14480800D01*
X13641800Y-14405800D02*
X13791800Y-14405800D01*
X14990800Y-14330800D02*
X14990800Y-14480800D01*
X14915800Y-14405800D02*
X15065800Y-14405800D01*
D13*
X6069518Y-3281718D02*
X6069518Y-3119082D01*
X5906882Y-3119082D01*
X5906882Y-3281718D01*
X6069518Y-3281718D01*
X8469518Y-3281718D02*
X8469518Y-3119082D01*
X8306882Y-3119082D01*
X8306882Y-3281718D01*
X8469518Y-3281718D01*
D14*
X3733800Y-3060000D02*
X3893800Y-2900000D01*
X3733800Y-2740000D01*
X3573800Y-2900000D01*
X3733800Y-3060000D01*
X5503800Y-14560000D02*
X5663800Y-14400000D01*
X5503800Y-14240000D01*
X5343800Y-14400000D01*
X5503800Y-14560000D01*
X12583800Y-14560000D02*
X12743800Y-14400000D01*
X12583800Y-14240000D01*
X12423800Y-14400000D01*
X12583800Y-14560000D01*
X14353800Y-3060000D02*
X14513800Y-2900000D01*
X14353800Y-2740000D01*
X14193800Y-2900000D01*
X14353800Y-3060000D01*
D11*
X2795777Y-15556484D02*
X2795777Y-15356484D01*
X2795777Y-15356484D02*
X2843396Y-15356484D01*
X2843396Y-15356484D02*
X2871967Y-15366008D01*
X2871967Y-15366008D02*
X2891015Y-15385055D01*
X2891015Y-15385055D02*
X2900539Y-15404103D01*
X2900539Y-15404103D02*
X2910062Y-15442198D01*
X2910062Y-15442198D02*
X2910062Y-15470769D01*
X2910062Y-15470769D02*
X2900539Y-15508865D01*
X2900539Y-15508865D02*
X2891015Y-15527912D01*
X2891015Y-15527912D02*
X2871967Y-15546960D01*
X2871967Y-15546960D02*
X2843396Y-15556484D01*
X2843396Y-15556484D02*
X2795777Y-15556484D01*
X2995777Y-15556484D02*
X2995777Y-15423150D01*
X2995777Y-15461246D02*
X3005301Y-15442198D01*
X3005301Y-15442198D02*
X3014824Y-15432674D01*
X3014824Y-15432674D02*
X3033872Y-15423150D01*
X3033872Y-15423150D02*
X3052920Y-15423150D01*
X3119586Y-15556484D02*
X3119586Y-15423150D01*
X3119586Y-15356484D02*
X3110062Y-15366008D01*
X3110062Y-15366008D02*
X3119586Y-15375531D01*
X3119586Y-15375531D02*
X3129110Y-15366008D01*
X3129110Y-15366008D02*
X3119586Y-15356484D01*
X3119586Y-15356484D02*
X3119586Y-15375531D01*
X3243396Y-15556484D02*
X3224348Y-15546960D01*
X3224348Y-15546960D02*
X3214824Y-15527912D01*
X3214824Y-15527912D02*
X3214824Y-15356484D01*
X3348158Y-15556484D02*
X3329110Y-15546960D01*
X3329110Y-15546960D02*
X3319586Y-15527912D01*
X3319586Y-15527912D02*
X3319586Y-15356484D01*
X3576729Y-15556484D02*
X3576729Y-15356484D01*
X3576729Y-15356484D02*
X3643396Y-15499341D01*
X3643396Y-15499341D02*
X3710062Y-15356484D01*
X3710062Y-15356484D02*
X3710062Y-15556484D01*
X3891015Y-15556484D02*
X3891015Y-15451722D01*
X3891015Y-15451722D02*
X3881491Y-15432674D01*
X3881491Y-15432674D02*
X3862443Y-15423150D01*
X3862443Y-15423150D02*
X3824348Y-15423150D01*
X3824348Y-15423150D02*
X3805301Y-15432674D01*
X3891015Y-15546960D02*
X3871967Y-15556484D01*
X3871967Y-15556484D02*
X3824348Y-15556484D01*
X3824348Y-15556484D02*
X3805301Y-15546960D01*
X3805301Y-15546960D02*
X3795777Y-15527912D01*
X3795777Y-15527912D02*
X3795777Y-15508865D01*
X3795777Y-15508865D02*
X3805301Y-15489817D01*
X3805301Y-15489817D02*
X3824348Y-15480293D01*
X3824348Y-15480293D02*
X3871967Y-15480293D01*
X3871967Y-15480293D02*
X3891015Y-15470769D01*
X3986253Y-15423150D02*
X3986253Y-15623150D01*
X3986253Y-15432674D02*
X4005301Y-15423150D01*
X4005301Y-15423150D02*
X4043396Y-15423150D01*
X4043396Y-15423150D02*
X4062443Y-15432674D01*
X4062443Y-15432674D02*
X4071967Y-15442198D01*
X4071967Y-15442198D02*
X4081491Y-15461246D01*
X4081491Y-15461246D02*
X4081491Y-15518388D01*
X4081491Y-15518388D02*
X4071967Y-15537436D01*
X4071967Y-15537436D02*
X4062443Y-15546960D01*
X4062443Y-15546960D02*
X4043396Y-15556484D01*
X4043396Y-15556484D02*
X4005301Y-15556484D01*
X4005301Y-15556484D02*
X3986253Y-15546960D01*
X4167205Y-15537436D02*
X4176729Y-15546960D01*
X4176729Y-15546960D02*
X4167205Y-15556484D01*
X4167205Y-15556484D02*
X4157682Y-15546960D01*
X4157682Y-15546960D02*
X4167205Y-15537436D01*
X4167205Y-15537436D02*
X4167205Y-15556484D01*
X4167205Y-15432674D02*
X4176729Y-15442198D01*
X4176729Y-15442198D02*
X4167205Y-15451722D01*
X4167205Y-15451722D02*
X4157682Y-15442198D01*
X4157682Y-15442198D02*
X4167205Y-15432674D01*
X4167205Y-15432674D02*
X4167205Y-15451722D01*
D10*
X2495000Y-15865000D02*
X2535000Y-15905000D01*
X2535000Y-15865000D02*
X2495000Y-15905000D01*
D11*
X2833872Y-15776484D02*
X2852920Y-15776484D01*
X2852920Y-15776484D02*
X2871967Y-15786008D01*
X2871967Y-15786008D02*
X2881491Y-15795531D01*
X2881491Y-15795531D02*
X2891015Y-15814579D01*
X2891015Y-15814579D02*
X2900539Y-15852674D01*
X2900539Y-15852674D02*
X2900539Y-15900293D01*
X2900539Y-15900293D02*
X2891015Y-15938388D01*
X2891015Y-15938388D02*
X2881491Y-15957436D01*
X2881491Y-15957436D02*
X2871967Y-15966960D01*
X2871967Y-15966960D02*
X2852920Y-15976484D01*
X2852920Y-15976484D02*
X2833872Y-15976484D01*
X2833872Y-15976484D02*
X2814824Y-15966960D01*
X2814824Y-15966960D02*
X2805301Y-15957436D01*
X2805301Y-15957436D02*
X2795777Y-15938388D01*
X2795777Y-15938388D02*
X2786253Y-15900293D01*
X2786253Y-15900293D02*
X2786253Y-15852674D01*
X2786253Y-15852674D02*
X2795777Y-15814579D01*
X2795777Y-15814579D02*
X2805301Y-15795531D01*
X2805301Y-15795531D02*
X2814824Y-15786008D01*
X2814824Y-15786008D02*
X2833872Y-15776484D01*
X2986253Y-15957436D02*
X2995777Y-15966960D01*
X2995777Y-15966960D02*
X2986253Y-15976484D01*
X2986253Y-15976484D02*
X2976729Y-15966960D01*
X2976729Y-15966960D02*
X2986253Y-15957436D01*
X2986253Y-15957436D02*
X2986253Y-15976484D01*
X3167205Y-15843150D02*
X3167205Y-15976484D01*
X3119586Y-15766960D02*
X3071967Y-15909817D01*
X3071967Y-15909817D02*
X3195777Y-15909817D01*
X3310062Y-15776484D02*
X3329110Y-15776484D01*
X3329110Y-15776484D02*
X3348158Y-15786008D01*
X3348158Y-15786008D02*
X3357682Y-15795531D01*
X3357682Y-15795531D02*
X3367205Y-15814579D01*
X3367205Y-15814579D02*
X3376729Y-15852674D01*
X3376729Y-15852674D02*
X3376729Y-15900293D01*
X3376729Y-15900293D02*
X3367205Y-15938388D01*
X3367205Y-15938388D02*
X3357682Y-15957436D01*
X3357682Y-15957436D02*
X3348158Y-15966960D01*
X3348158Y-15966960D02*
X3329110Y-15976484D01*
X3329110Y-15976484D02*
X3310062Y-15976484D01*
X3310062Y-15976484D02*
X3291015Y-15966960D01*
X3291015Y-15966960D02*
X3281491Y-15957436D01*
X3281491Y-15957436D02*
X3271967Y-15938388D01*
X3271967Y-15938388D02*
X3262443Y-15900293D01*
X3262443Y-15900293D02*
X3262443Y-15852674D01*
X3262443Y-15852674D02*
X3271967Y-15814579D01*
X3271967Y-15814579D02*
X3281491Y-15795531D01*
X3281491Y-15795531D02*
X3291015Y-15786008D01*
X3291015Y-15786008D02*
X3310062Y-15776484D01*
X3500539Y-15776484D02*
X3519586Y-15776484D01*
X3519586Y-15776484D02*
X3538634Y-15786008D01*
X3538634Y-15786008D02*
X3548158Y-15795531D01*
X3548158Y-15795531D02*
X3557682Y-15814579D01*
X3557682Y-15814579D02*
X3567205Y-15852674D01*
X3567205Y-15852674D02*
X3567205Y-15900293D01*
X3567205Y-15900293D02*
X3557682Y-15938388D01*
X3557682Y-15938388D02*
X3548158Y-15957436D01*
X3548158Y-15957436D02*
X3538634Y-15966960D01*
X3538634Y-15966960D02*
X3519586Y-15976484D01*
X3519586Y-15976484D02*
X3500539Y-15976484D01*
X3500539Y-15976484D02*
X3481491Y-15966960D01*
X3481491Y-15966960D02*
X3471967Y-15957436D01*
X3471967Y-15957436D02*
X3462443Y-15938388D01*
X3462443Y-15938388D02*
X3452920Y-15900293D01*
X3452920Y-15900293D02*
X3452920Y-15852674D01*
X3452920Y-15852674D02*
X3462443Y-15814579D01*
X3462443Y-15814579D02*
X3471967Y-15795531D01*
X3471967Y-15795531D02*
X3481491Y-15786008D01*
X3481491Y-15786008D02*
X3500539Y-15776484D01*
X3652920Y-15976484D02*
X3652920Y-15843150D01*
X3652920Y-15862198D02*
X3662443Y-15852674D01*
X3662443Y-15852674D02*
X3681491Y-15843150D01*
X3681491Y-15843150D02*
X3710063Y-15843150D01*
X3710063Y-15843150D02*
X3729110Y-15852674D01*
X3729110Y-15852674D02*
X3738634Y-15871722D01*
X3738634Y-15871722D02*
X3738634Y-15976484D01*
X3738634Y-15871722D02*
X3748158Y-15852674D01*
X3748158Y-15852674D02*
X3767205Y-15843150D01*
X3767205Y-15843150D02*
X3795777Y-15843150D01*
X3795777Y-15843150D02*
X3814824Y-15852674D01*
X3814824Y-15852674D02*
X3824348Y-15871722D01*
X3824348Y-15871722D02*
X3824348Y-15976484D01*
X3919586Y-15976484D02*
X3919586Y-15843150D01*
X3919586Y-15862198D02*
X3929110Y-15852674D01*
X3929110Y-15852674D02*
X3948158Y-15843150D01*
X3948158Y-15843150D02*
X3976729Y-15843150D01*
X3976729Y-15843150D02*
X3995777Y-15852674D01*
X3995777Y-15852674D02*
X4005301Y-15871722D01*
X4005301Y-15871722D02*
X4005301Y-15976484D01*
X4005301Y-15871722D02*
X4014824Y-15852674D01*
X4014824Y-15852674D02*
X4033872Y-15843150D01*
X4033872Y-15843150D02*
X4062443Y-15843150D01*
X4062443Y-15843150D02*
X4081491Y-15852674D01*
X4081491Y-15852674D02*
X4091015Y-15871722D01*
X4091015Y-15871722D02*
X4091015Y-15976484D01*
X4481491Y-15766960D02*
X4310063Y-16024103D01*
X4738634Y-15776484D02*
X4757682Y-15776484D01*
X4757682Y-15776484D02*
X4776729Y-15786008D01*
X4776729Y-15786008D02*
X4786253Y-15795531D01*
X4786253Y-15795531D02*
X4795777Y-15814579D01*
X4795777Y-15814579D02*
X4805301Y-15852674D01*
X4805301Y-15852674D02*
X4805301Y-15900293D01*
X4805301Y-15900293D02*
X4795777Y-15938388D01*
X4795777Y-15938388D02*
X4786253Y-15957436D01*
X4786253Y-15957436D02*
X4776729Y-15966960D01*
X4776729Y-15966960D02*
X4757682Y-15976484D01*
X4757682Y-15976484D02*
X4738634Y-15976484D01*
X4738634Y-15976484D02*
X4719587Y-15966960D01*
X4719587Y-15966960D02*
X4710063Y-15957436D01*
X4710063Y-15957436D02*
X4700539Y-15938388D01*
X4700539Y-15938388D02*
X4691015Y-15900293D01*
X4691015Y-15900293D02*
X4691015Y-15852674D01*
X4691015Y-15852674D02*
X4700539Y-15814579D01*
X4700539Y-15814579D02*
X4710063Y-15795531D01*
X4710063Y-15795531D02*
X4719587Y-15786008D01*
X4719587Y-15786008D02*
X4738634Y-15776484D01*
X4891015Y-15957436D02*
X4900539Y-15966960D01*
X4900539Y-15966960D02*
X4891015Y-15976484D01*
X4891015Y-15976484D02*
X4881491Y-15966960D01*
X4881491Y-15966960D02*
X4891015Y-15957436D01*
X4891015Y-15957436D02*
X4891015Y-15976484D01*
X5024348Y-15776484D02*
X5043396Y-15776484D01*
X5043396Y-15776484D02*
X5062444Y-15786008D01*
X5062444Y-15786008D02*
X5071968Y-15795531D01*
X5071968Y-15795531D02*
X5081491Y-15814579D01*
X5081491Y-15814579D02*
X5091015Y-15852674D01*
X5091015Y-15852674D02*
X5091015Y-15900293D01*
X5091015Y-15900293D02*
X5081491Y-15938388D01*
X5081491Y-15938388D02*
X5071968Y-15957436D01*
X5071968Y-15957436D02*
X5062444Y-15966960D01*
X5062444Y-15966960D02*
X5043396Y-15976484D01*
X5043396Y-15976484D02*
X5024348Y-15976484D01*
X5024348Y-15976484D02*
X5005301Y-15966960D01*
X5005301Y-15966960D02*
X4995777Y-15957436D01*
X4995777Y-15957436D02*
X4986253Y-15938388D01*
X4986253Y-15938388D02*
X4976729Y-15900293D01*
X4976729Y-15900293D02*
X4976729Y-15852674D01*
X4976729Y-15852674D02*
X4986253Y-15814579D01*
X4986253Y-15814579D02*
X4995777Y-15795531D01*
X4995777Y-15795531D02*
X5005301Y-15786008D01*
X5005301Y-15786008D02*
X5024348Y-15776484D01*
X5281491Y-15976484D02*
X5167206Y-15976484D01*
X5224348Y-15976484D02*
X5224348Y-15776484D01*
X5224348Y-15776484D02*
X5205301Y-15805055D01*
X5205301Y-15805055D02*
X5186253Y-15824103D01*
X5186253Y-15824103D02*
X5167206Y-15833627D01*
X5462444Y-15776484D02*
X5367206Y-15776484D01*
X5367206Y-15776484D02*
X5357682Y-15871722D01*
X5357682Y-15871722D02*
X5367206Y-15862198D01*
X5367206Y-15862198D02*
X5386253Y-15852674D01*
X5386253Y-15852674D02*
X5433872Y-15852674D01*
X5433872Y-15852674D02*
X5452920Y-15862198D01*
X5452920Y-15862198D02*
X5462444Y-15871722D01*
X5462444Y-15871722D02*
X5471968Y-15890769D01*
X5471968Y-15890769D02*
X5471968Y-15938388D01*
X5471968Y-15938388D02*
X5462444Y-15957436D01*
X5462444Y-15957436D02*
X5452920Y-15966960D01*
X5452920Y-15966960D02*
X5433872Y-15976484D01*
X5433872Y-15976484D02*
X5386253Y-15976484D01*
X5386253Y-15976484D02*
X5367206Y-15966960D01*
X5367206Y-15966960D02*
X5357682Y-15957436D01*
X5538634Y-15776484D02*
X5671967Y-15776484D01*
X5671967Y-15776484D02*
X5586253Y-15976484D01*
X5738634Y-15776484D02*
X5738634Y-15814579D01*
X5814825Y-15776484D02*
X5814825Y-15814579D01*
X6110063Y-16052674D02*
X6100539Y-16043150D01*
X6100539Y-16043150D02*
X6081491Y-16014579D01*
X6081491Y-16014579D02*
X6071968Y-15995531D01*
X6071968Y-15995531D02*
X6062444Y-15966960D01*
X6062444Y-15966960D02*
X6052920Y-15919341D01*
X6052920Y-15919341D02*
X6052920Y-15881246D01*
X6052920Y-15881246D02*
X6062444Y-15833627D01*
X6062444Y-15833627D02*
X6071968Y-15805055D01*
X6071968Y-15805055D02*
X6081491Y-15786008D01*
X6081491Y-15786008D02*
X6100539Y-15757436D01*
X6100539Y-15757436D02*
X6110063Y-15747912D01*
X6291015Y-15976484D02*
X6176729Y-15976484D01*
X6233872Y-15976484D02*
X6233872Y-15776484D01*
X6233872Y-15776484D02*
X6214825Y-15805055D01*
X6214825Y-15805055D02*
X6195777Y-15824103D01*
X6195777Y-15824103D02*
X6176729Y-15833627D01*
X6367206Y-15795531D02*
X6376729Y-15786008D01*
X6376729Y-15786008D02*
X6395777Y-15776484D01*
X6395777Y-15776484D02*
X6443396Y-15776484D01*
X6443396Y-15776484D02*
X6462444Y-15786008D01*
X6462444Y-15786008D02*
X6471968Y-15795531D01*
X6471968Y-15795531D02*
X6481491Y-15814579D01*
X6481491Y-15814579D02*
X6481491Y-15833627D01*
X6481491Y-15833627D02*
X6471968Y-15862198D01*
X6471968Y-15862198D02*
X6357682Y-15976484D01*
X6357682Y-15976484D02*
X6481491Y-15976484D01*
X6605301Y-15776484D02*
X6624349Y-15776484D01*
X6624349Y-15776484D02*
X6643396Y-15786008D01*
X6643396Y-15786008D02*
X6652920Y-15795531D01*
X6652920Y-15795531D02*
X6662444Y-15814579D01*
X6662444Y-15814579D02*
X6671968Y-15852674D01*
X6671968Y-15852674D02*
X6671968Y-15900293D01*
X6671968Y-15900293D02*
X6662444Y-15938388D01*
X6662444Y-15938388D02*
X6652920Y-15957436D01*
X6652920Y-15957436D02*
X6643396Y-15966960D01*
X6643396Y-15966960D02*
X6624349Y-15976484D01*
X6624349Y-15976484D02*
X6605301Y-15976484D01*
X6605301Y-15976484D02*
X6586253Y-15966960D01*
X6586253Y-15966960D02*
X6576729Y-15957436D01*
X6576729Y-15957436D02*
X6567206Y-15938388D01*
X6567206Y-15938388D02*
X6557682Y-15900293D01*
X6557682Y-15900293D02*
X6557682Y-15852674D01*
X6557682Y-15852674D02*
X6567206Y-15814579D01*
X6567206Y-15814579D02*
X6576729Y-15795531D01*
X6576729Y-15795531D02*
X6586253Y-15786008D01*
X6586253Y-15786008D02*
X6605301Y-15776484D01*
X6910063Y-15976484D02*
X6910063Y-15776484D01*
X6995777Y-15976484D02*
X6995777Y-15871722D01*
X6995777Y-15871722D02*
X6986253Y-15852674D01*
X6986253Y-15852674D02*
X6967206Y-15843150D01*
X6967206Y-15843150D02*
X6938634Y-15843150D01*
X6938634Y-15843150D02*
X6919587Y-15852674D01*
X6919587Y-15852674D02*
X6910063Y-15862198D01*
X7119587Y-15976484D02*
X7100539Y-15966960D01*
X7100539Y-15966960D02*
X7091015Y-15957436D01*
X7091015Y-15957436D02*
X7081491Y-15938388D01*
X7081491Y-15938388D02*
X7081491Y-15881246D01*
X7081491Y-15881246D02*
X7091015Y-15862198D01*
X7091015Y-15862198D02*
X7100539Y-15852674D01*
X7100539Y-15852674D02*
X7119587Y-15843150D01*
X7119587Y-15843150D02*
X7148158Y-15843150D01*
X7148158Y-15843150D02*
X7167206Y-15852674D01*
X7167206Y-15852674D02*
X7176730Y-15862198D01*
X7176730Y-15862198D02*
X7186253Y-15881246D01*
X7186253Y-15881246D02*
X7186253Y-15938388D01*
X7186253Y-15938388D02*
X7176730Y-15957436D01*
X7176730Y-15957436D02*
X7167206Y-15966960D01*
X7167206Y-15966960D02*
X7148158Y-15976484D01*
X7148158Y-15976484D02*
X7119587Y-15976484D01*
X7300539Y-15976484D02*
X7281491Y-15966960D01*
X7281491Y-15966960D02*
X7271968Y-15947912D01*
X7271968Y-15947912D02*
X7271968Y-15776484D01*
X7452920Y-15966960D02*
X7433872Y-15976484D01*
X7433872Y-15976484D02*
X7395777Y-15976484D01*
X7395777Y-15976484D02*
X7376730Y-15966960D01*
X7376730Y-15966960D02*
X7367206Y-15947912D01*
X7367206Y-15947912D02*
X7367206Y-15871722D01*
X7367206Y-15871722D02*
X7376730Y-15852674D01*
X7376730Y-15852674D02*
X7395777Y-15843150D01*
X7395777Y-15843150D02*
X7433872Y-15843150D01*
X7433872Y-15843150D02*
X7452920Y-15852674D01*
X7452920Y-15852674D02*
X7462444Y-15871722D01*
X7462444Y-15871722D02*
X7462444Y-15890769D01*
X7462444Y-15890769D02*
X7367206Y-15909817D01*
X7538634Y-15966960D02*
X7557682Y-15976484D01*
X7557682Y-15976484D02*
X7595777Y-15976484D01*
X7595777Y-15976484D02*
X7614825Y-15966960D01*
X7614825Y-15966960D02*
X7624349Y-15947912D01*
X7624349Y-15947912D02*
X7624349Y-15938388D01*
X7624349Y-15938388D02*
X7614825Y-15919341D01*
X7614825Y-15919341D02*
X7595777Y-15909817D01*
X7595777Y-15909817D02*
X7567206Y-15909817D01*
X7567206Y-15909817D02*
X7548158Y-15900293D01*
X7548158Y-15900293D02*
X7538634Y-15881246D01*
X7538634Y-15881246D02*
X7538634Y-15871722D01*
X7538634Y-15871722D02*
X7548158Y-15852674D01*
X7548158Y-15852674D02*
X7567206Y-15843150D01*
X7567206Y-15843150D02*
X7595777Y-15843150D01*
X7595777Y-15843150D02*
X7614825Y-15852674D01*
X7691015Y-16052674D02*
X7700539Y-16043150D01*
X7700539Y-16043150D02*
X7719587Y-16014579D01*
X7719587Y-16014579D02*
X7729111Y-15995531D01*
X7729111Y-15995531D02*
X7738634Y-15966960D01*
X7738634Y-15966960D02*
X7748158Y-15919341D01*
X7748158Y-15919341D02*
X7748158Y-15881246D01*
X7748158Y-15881246D02*
X7738634Y-15833627D01*
X7738634Y-15833627D02*
X7729111Y-15805055D01*
X7729111Y-15805055D02*
X7719587Y-15786008D01*
X7719587Y-15786008D02*
X7700539Y-15757436D01*
X7700539Y-15757436D02*
X7691015Y-15747912D01*
D10*
X2535000Y-16149000D02*
G75*
G03*
X2535000Y-16149000I-25000J0D01*
G01*
D11*
X2833872Y-16040484D02*
X2852920Y-16040484D01*
X2852920Y-16040484D02*
X2871967Y-16050008D01*
X2871967Y-16050008D02*
X2881491Y-16059531D01*
X2881491Y-16059531D02*
X2891015Y-16078579D01*
X2891015Y-16078579D02*
X2900539Y-16116674D01*
X2900539Y-16116674D02*
X2900539Y-16164293D01*
X2900539Y-16164293D02*
X2891015Y-16202388D01*
X2891015Y-16202388D02*
X2881491Y-16221436D01*
X2881491Y-16221436D02*
X2871967Y-16230960D01*
X2871967Y-16230960D02*
X2852920Y-16240484D01*
X2852920Y-16240484D02*
X2833872Y-16240484D01*
X2833872Y-16240484D02*
X2814824Y-16230960D01*
X2814824Y-16230960D02*
X2805301Y-16221436D01*
X2805301Y-16221436D02*
X2795777Y-16202388D01*
X2795777Y-16202388D02*
X2786253Y-16164293D01*
X2786253Y-16164293D02*
X2786253Y-16116674D01*
X2786253Y-16116674D02*
X2795777Y-16078579D01*
X2795777Y-16078579D02*
X2805301Y-16059531D01*
X2805301Y-16059531D02*
X2814824Y-16050008D01*
X2814824Y-16050008D02*
X2833872Y-16040484D01*
X2986253Y-16221436D02*
X2995777Y-16230960D01*
X2995777Y-16230960D02*
X2986253Y-16240484D01*
X2986253Y-16240484D02*
X2976729Y-16230960D01*
X2976729Y-16230960D02*
X2986253Y-16221436D01*
X2986253Y-16221436D02*
X2986253Y-16240484D01*
X3176729Y-16040484D02*
X3081491Y-16040484D01*
X3081491Y-16040484D02*
X3071967Y-16135722D01*
X3071967Y-16135722D02*
X3081491Y-16126198D01*
X3081491Y-16126198D02*
X3100539Y-16116674D01*
X3100539Y-16116674D02*
X3148158Y-16116674D01*
X3148158Y-16116674D02*
X3167205Y-16126198D01*
X3167205Y-16126198D02*
X3176729Y-16135722D01*
X3176729Y-16135722D02*
X3186253Y-16154769D01*
X3186253Y-16154769D02*
X3186253Y-16202388D01*
X3186253Y-16202388D02*
X3176729Y-16221436D01*
X3176729Y-16221436D02*
X3167205Y-16230960D01*
X3167205Y-16230960D02*
X3148158Y-16240484D01*
X3148158Y-16240484D02*
X3100539Y-16240484D01*
X3100539Y-16240484D02*
X3081491Y-16230960D01*
X3081491Y-16230960D02*
X3071967Y-16221436D01*
X3310062Y-16040484D02*
X3329110Y-16040484D01*
X3329110Y-16040484D02*
X3348158Y-16050008D01*
X3348158Y-16050008D02*
X3357682Y-16059531D01*
X3357682Y-16059531D02*
X3367205Y-16078579D01*
X3367205Y-16078579D02*
X3376729Y-16116674D01*
X3376729Y-16116674D02*
X3376729Y-16164293D01*
X3376729Y-16164293D02*
X3367205Y-16202388D01*
X3367205Y-16202388D02*
X3357682Y-16221436D01*
X3357682Y-16221436D02*
X3348158Y-16230960D01*
X3348158Y-16230960D02*
X3329110Y-16240484D01*
X3329110Y-16240484D02*
X3310062Y-16240484D01*
X3310062Y-16240484D02*
X3291015Y-16230960D01*
X3291015Y-16230960D02*
X3281491Y-16221436D01*
X3281491Y-16221436D02*
X3271967Y-16202388D01*
X3271967Y-16202388D02*
X3262443Y-16164293D01*
X3262443Y-16164293D02*
X3262443Y-16116674D01*
X3262443Y-16116674D02*
X3271967Y-16078579D01*
X3271967Y-16078579D02*
X3281491Y-16059531D01*
X3281491Y-16059531D02*
X3291015Y-16050008D01*
X3291015Y-16050008D02*
X3310062Y-16040484D01*
X3500539Y-16040484D02*
X3519586Y-16040484D01*
X3519586Y-16040484D02*
X3538634Y-16050008D01*
X3538634Y-16050008D02*
X3548158Y-16059531D01*
X3548158Y-16059531D02*
X3557682Y-16078579D01*
X3557682Y-16078579D02*
X3567205Y-16116674D01*
X3567205Y-16116674D02*
X3567205Y-16164293D01*
X3567205Y-16164293D02*
X3557682Y-16202388D01*
X3557682Y-16202388D02*
X3548158Y-16221436D01*
X3548158Y-16221436D02*
X3538634Y-16230960D01*
X3538634Y-16230960D02*
X3519586Y-16240484D01*
X3519586Y-16240484D02*
X3500539Y-16240484D01*
X3500539Y-16240484D02*
X3481491Y-16230960D01*
X3481491Y-16230960D02*
X3471967Y-16221436D01*
X3471967Y-16221436D02*
X3462443Y-16202388D01*
X3462443Y-16202388D02*
X3452920Y-16164293D01*
X3452920Y-16164293D02*
X3452920Y-16116674D01*
X3452920Y-16116674D02*
X3462443Y-16078579D01*
X3462443Y-16078579D02*
X3471967Y-16059531D01*
X3471967Y-16059531D02*
X3481491Y-16050008D01*
X3481491Y-16050008D02*
X3500539Y-16040484D01*
X3652920Y-16240484D02*
X3652920Y-16107150D01*
X3652920Y-16126198D02*
X3662443Y-16116674D01*
X3662443Y-16116674D02*
X3681491Y-16107150D01*
X3681491Y-16107150D02*
X3710063Y-16107150D01*
X3710063Y-16107150D02*
X3729110Y-16116674D01*
X3729110Y-16116674D02*
X3738634Y-16135722D01*
X3738634Y-16135722D02*
X3738634Y-16240484D01*
X3738634Y-16135722D02*
X3748158Y-16116674D01*
X3748158Y-16116674D02*
X3767205Y-16107150D01*
X3767205Y-16107150D02*
X3795777Y-16107150D01*
X3795777Y-16107150D02*
X3814824Y-16116674D01*
X3814824Y-16116674D02*
X3824348Y-16135722D01*
X3824348Y-16135722D02*
X3824348Y-16240484D01*
X3919586Y-16240484D02*
X3919586Y-16107150D01*
X3919586Y-16126198D02*
X3929110Y-16116674D01*
X3929110Y-16116674D02*
X3948158Y-16107150D01*
X3948158Y-16107150D02*
X3976729Y-16107150D01*
X3976729Y-16107150D02*
X3995777Y-16116674D01*
X3995777Y-16116674D02*
X4005301Y-16135722D01*
X4005301Y-16135722D02*
X4005301Y-16240484D01*
X4005301Y-16135722D02*
X4014824Y-16116674D01*
X4014824Y-16116674D02*
X4033872Y-16107150D01*
X4033872Y-16107150D02*
X4062443Y-16107150D01*
X4062443Y-16107150D02*
X4081491Y-16116674D01*
X4081491Y-16116674D02*
X4091015Y-16135722D01*
X4091015Y-16135722D02*
X4091015Y-16240484D01*
X4481491Y-16030960D02*
X4310063Y-16288103D01*
X4738634Y-16040484D02*
X4757682Y-16040484D01*
X4757682Y-16040484D02*
X4776729Y-16050008D01*
X4776729Y-16050008D02*
X4786253Y-16059531D01*
X4786253Y-16059531D02*
X4795777Y-16078579D01*
X4795777Y-16078579D02*
X4805301Y-16116674D01*
X4805301Y-16116674D02*
X4805301Y-16164293D01*
X4805301Y-16164293D02*
X4795777Y-16202388D01*
X4795777Y-16202388D02*
X4786253Y-16221436D01*
X4786253Y-16221436D02*
X4776729Y-16230960D01*
X4776729Y-16230960D02*
X4757682Y-16240484D01*
X4757682Y-16240484D02*
X4738634Y-16240484D01*
X4738634Y-16240484D02*
X4719587Y-16230960D01*
X4719587Y-16230960D02*
X4710063Y-16221436D01*
X4710063Y-16221436D02*
X4700539Y-16202388D01*
X4700539Y-16202388D02*
X4691015Y-16164293D01*
X4691015Y-16164293D02*
X4691015Y-16116674D01*
X4691015Y-16116674D02*
X4700539Y-16078579D01*
X4700539Y-16078579D02*
X4710063Y-16059531D01*
X4710063Y-16059531D02*
X4719587Y-16050008D01*
X4719587Y-16050008D02*
X4738634Y-16040484D01*
X4891015Y-16221436D02*
X4900539Y-16230960D01*
X4900539Y-16230960D02*
X4891015Y-16240484D01*
X4891015Y-16240484D02*
X4881491Y-16230960D01*
X4881491Y-16230960D02*
X4891015Y-16221436D01*
X4891015Y-16221436D02*
X4891015Y-16240484D01*
X5024348Y-16040484D02*
X5043396Y-16040484D01*
X5043396Y-16040484D02*
X5062444Y-16050008D01*
X5062444Y-16050008D02*
X5071968Y-16059531D01*
X5071968Y-16059531D02*
X5081491Y-16078579D01*
X5081491Y-16078579D02*
X5091015Y-16116674D01*
X5091015Y-16116674D02*
X5091015Y-16164293D01*
X5091015Y-16164293D02*
X5081491Y-16202388D01*
X5081491Y-16202388D02*
X5071968Y-16221436D01*
X5071968Y-16221436D02*
X5062444Y-16230960D01*
X5062444Y-16230960D02*
X5043396Y-16240484D01*
X5043396Y-16240484D02*
X5024348Y-16240484D01*
X5024348Y-16240484D02*
X5005301Y-16230960D01*
X5005301Y-16230960D02*
X4995777Y-16221436D01*
X4995777Y-16221436D02*
X4986253Y-16202388D01*
X4986253Y-16202388D02*
X4976729Y-16164293D01*
X4976729Y-16164293D02*
X4976729Y-16116674D01*
X4976729Y-16116674D02*
X4986253Y-16078579D01*
X4986253Y-16078579D02*
X4995777Y-16059531D01*
X4995777Y-16059531D02*
X5005301Y-16050008D01*
X5005301Y-16050008D02*
X5024348Y-16040484D01*
X5281491Y-16240484D02*
X5167206Y-16240484D01*
X5224348Y-16240484D02*
X5224348Y-16040484D01*
X5224348Y-16040484D02*
X5205301Y-16069055D01*
X5205301Y-16069055D02*
X5186253Y-16088103D01*
X5186253Y-16088103D02*
X5167206Y-16097627D01*
X5376729Y-16240484D02*
X5414825Y-16240484D01*
X5414825Y-16240484D02*
X5433872Y-16230960D01*
X5433872Y-16230960D02*
X5443396Y-16221436D01*
X5443396Y-16221436D02*
X5462444Y-16192865D01*
X5462444Y-16192865D02*
X5471968Y-16154769D01*
X5471968Y-16154769D02*
X5471968Y-16078579D01*
X5471968Y-16078579D02*
X5462444Y-16059531D01*
X5462444Y-16059531D02*
X5452920Y-16050008D01*
X5452920Y-16050008D02*
X5433872Y-16040484D01*
X5433872Y-16040484D02*
X5395777Y-16040484D01*
X5395777Y-16040484D02*
X5376729Y-16050008D01*
X5376729Y-16050008D02*
X5367206Y-16059531D01*
X5367206Y-16059531D02*
X5357682Y-16078579D01*
X5357682Y-16078579D02*
X5357682Y-16126198D01*
X5357682Y-16126198D02*
X5367206Y-16145246D01*
X5367206Y-16145246D02*
X5376729Y-16154769D01*
X5376729Y-16154769D02*
X5395777Y-16164293D01*
X5395777Y-16164293D02*
X5433872Y-16164293D01*
X5433872Y-16164293D02*
X5452920Y-16154769D01*
X5452920Y-16154769D02*
X5462444Y-16145246D01*
X5462444Y-16145246D02*
X5471968Y-16126198D01*
X5538634Y-16040484D02*
X5671967Y-16040484D01*
X5671967Y-16040484D02*
X5586253Y-16240484D01*
X5738634Y-16040484D02*
X5738634Y-16078579D01*
X5814825Y-16040484D02*
X5814825Y-16078579D01*
X6110063Y-16316674D02*
X6100539Y-16307150D01*
X6100539Y-16307150D02*
X6081491Y-16278579D01*
X6081491Y-16278579D02*
X6071968Y-16259531D01*
X6071968Y-16259531D02*
X6062444Y-16230960D01*
X6062444Y-16230960D02*
X6052920Y-16183341D01*
X6052920Y-16183341D02*
X6052920Y-16145246D01*
X6052920Y-16145246D02*
X6062444Y-16097627D01*
X6062444Y-16097627D02*
X6071968Y-16069055D01*
X6071968Y-16069055D02*
X6081491Y-16050008D01*
X6081491Y-16050008D02*
X6100539Y-16021436D01*
X6100539Y-16021436D02*
X6110063Y-16011912D01*
X6167206Y-16040484D02*
X6291015Y-16040484D01*
X6291015Y-16040484D02*
X6224348Y-16116674D01*
X6224348Y-16116674D02*
X6252920Y-16116674D01*
X6252920Y-16116674D02*
X6271968Y-16126198D01*
X6271968Y-16126198D02*
X6281491Y-16135722D01*
X6281491Y-16135722D02*
X6291015Y-16154769D01*
X6291015Y-16154769D02*
X6291015Y-16202388D01*
X6291015Y-16202388D02*
X6281491Y-16221436D01*
X6281491Y-16221436D02*
X6271968Y-16230960D01*
X6271968Y-16230960D02*
X6252920Y-16240484D01*
X6252920Y-16240484D02*
X6195777Y-16240484D01*
X6195777Y-16240484D02*
X6176729Y-16230960D01*
X6176729Y-16230960D02*
X6167206Y-16221436D01*
X6367206Y-16059531D02*
X6376729Y-16050008D01*
X6376729Y-16050008D02*
X6395777Y-16040484D01*
X6395777Y-16040484D02*
X6443396Y-16040484D01*
X6443396Y-16040484D02*
X6462444Y-16050008D01*
X6462444Y-16050008D02*
X6471968Y-16059531D01*
X6471968Y-16059531D02*
X6481491Y-16078579D01*
X6481491Y-16078579D02*
X6481491Y-16097627D01*
X6481491Y-16097627D02*
X6471968Y-16126198D01*
X6471968Y-16126198D02*
X6357682Y-16240484D01*
X6357682Y-16240484D02*
X6481491Y-16240484D01*
X6719587Y-16240484D02*
X6719587Y-16040484D01*
X6805301Y-16240484D02*
X6805301Y-16135722D01*
X6805301Y-16135722D02*
X6795777Y-16116674D01*
X6795777Y-16116674D02*
X6776730Y-16107150D01*
X6776730Y-16107150D02*
X6748158Y-16107150D01*
X6748158Y-16107150D02*
X6729110Y-16116674D01*
X6729110Y-16116674D02*
X6719587Y-16126198D01*
X6929110Y-16240484D02*
X6910063Y-16230960D01*
X6910063Y-16230960D02*
X6900539Y-16221436D01*
X6900539Y-16221436D02*
X6891015Y-16202388D01*
X6891015Y-16202388D02*
X6891015Y-16145246D01*
X6891015Y-16145246D02*
X6900539Y-16126198D01*
X6900539Y-16126198D02*
X6910063Y-16116674D01*
X6910063Y-16116674D02*
X6929110Y-16107150D01*
X6929110Y-16107150D02*
X6957682Y-16107150D01*
X6957682Y-16107150D02*
X6976730Y-16116674D01*
X6976730Y-16116674D02*
X6986253Y-16126198D01*
X6986253Y-16126198D02*
X6995777Y-16145246D01*
X6995777Y-16145246D02*
X6995777Y-16202388D01*
X6995777Y-16202388D02*
X6986253Y-16221436D01*
X6986253Y-16221436D02*
X6976730Y-16230960D01*
X6976730Y-16230960D02*
X6957682Y-16240484D01*
X6957682Y-16240484D02*
X6929110Y-16240484D01*
X7110063Y-16240484D02*
X7091015Y-16230960D01*
X7091015Y-16230960D02*
X7081491Y-16211912D01*
X7081491Y-16211912D02*
X7081491Y-16040484D01*
X7262444Y-16230960D02*
X7243396Y-16240484D01*
X7243396Y-16240484D02*
X7205301Y-16240484D01*
X7205301Y-16240484D02*
X7186253Y-16230960D01*
X7186253Y-16230960D02*
X7176730Y-16211912D01*
X7176730Y-16211912D02*
X7176730Y-16135722D01*
X7176730Y-16135722D02*
X7186253Y-16116674D01*
X7186253Y-16116674D02*
X7205301Y-16107150D01*
X7205301Y-16107150D02*
X7243396Y-16107150D01*
X7243396Y-16107150D02*
X7262444Y-16116674D01*
X7262444Y-16116674D02*
X7271968Y-16135722D01*
X7271968Y-16135722D02*
X7271968Y-16154769D01*
X7271968Y-16154769D02*
X7176730Y-16173817D01*
X7348158Y-16230960D02*
X7367206Y-16240484D01*
X7367206Y-16240484D02*
X7405301Y-16240484D01*
X7405301Y-16240484D02*
X7424349Y-16230960D01*
X7424349Y-16230960D02*
X7433872Y-16211912D01*
X7433872Y-16211912D02*
X7433872Y-16202388D01*
X7433872Y-16202388D02*
X7424349Y-16183341D01*
X7424349Y-16183341D02*
X7405301Y-16173817D01*
X7405301Y-16173817D02*
X7376730Y-16173817D01*
X7376730Y-16173817D02*
X7357682Y-16164293D01*
X7357682Y-16164293D02*
X7348158Y-16145246D01*
X7348158Y-16145246D02*
X7348158Y-16135722D01*
X7348158Y-16135722D02*
X7357682Y-16116674D01*
X7357682Y-16116674D02*
X7376730Y-16107150D01*
X7376730Y-16107150D02*
X7405301Y-16107150D01*
X7405301Y-16107150D02*
X7424349Y-16116674D01*
X7500539Y-16316674D02*
X7510063Y-16307150D01*
X7510063Y-16307150D02*
X7529111Y-16278579D01*
X7529111Y-16278579D02*
X7538634Y-16259531D01*
X7538634Y-16259531D02*
X7548158Y-16230960D01*
X7548158Y-16230960D02*
X7557682Y-16183341D01*
X7557682Y-16183341D02*
X7557682Y-16145246D01*
X7557682Y-16145246D02*
X7548158Y-16097627D01*
X7548158Y-16097627D02*
X7538634Y-16069055D01*
X7538634Y-16069055D02*
X7529111Y-16050008D01*
X7529111Y-16050008D02*
X7510063Y-16021436D01*
X7510063Y-16021436D02*
X7500539Y-16011912D01*
D12*
X2460000Y-16338000D02*
X2460000Y-16488000D01*
X2385000Y-16413000D02*
X2535000Y-16413000D01*
D11*
X2900539Y-16504484D02*
X2786253Y-16504484D01*
X2843396Y-16504484D02*
X2843396Y-16304484D01*
X2843396Y-16304484D02*
X2824348Y-16333055D01*
X2824348Y-16333055D02*
X2805301Y-16352103D01*
X2805301Y-16352103D02*
X2786253Y-16361627D01*
X2986253Y-16485436D02*
X2995777Y-16494960D01*
X2995777Y-16494960D02*
X2986253Y-16504484D01*
X2986253Y-16504484D02*
X2976729Y-16494960D01*
X2976729Y-16494960D02*
X2986253Y-16485436D01*
X2986253Y-16485436D02*
X2986253Y-16504484D01*
X3176729Y-16304484D02*
X3081491Y-16304484D01*
X3081491Y-16304484D02*
X3071967Y-16399722D01*
X3071967Y-16399722D02*
X3081491Y-16390198D01*
X3081491Y-16390198D02*
X3100539Y-16380674D01*
X3100539Y-16380674D02*
X3148158Y-16380674D01*
X3148158Y-16380674D02*
X3167205Y-16390198D01*
X3167205Y-16390198D02*
X3176729Y-16399722D01*
X3176729Y-16399722D02*
X3186253Y-16418769D01*
X3186253Y-16418769D02*
X3186253Y-16466388D01*
X3186253Y-16466388D02*
X3176729Y-16485436D01*
X3176729Y-16485436D02*
X3167205Y-16494960D01*
X3167205Y-16494960D02*
X3148158Y-16504484D01*
X3148158Y-16504484D02*
X3100539Y-16504484D01*
X3100539Y-16504484D02*
X3081491Y-16494960D01*
X3081491Y-16494960D02*
X3071967Y-16485436D01*
X3310062Y-16304484D02*
X3329110Y-16304484D01*
X3329110Y-16304484D02*
X3348158Y-16314008D01*
X3348158Y-16314008D02*
X3357682Y-16323531D01*
X3357682Y-16323531D02*
X3367205Y-16342579D01*
X3367205Y-16342579D02*
X3376729Y-16380674D01*
X3376729Y-16380674D02*
X3376729Y-16428293D01*
X3376729Y-16428293D02*
X3367205Y-16466388D01*
X3367205Y-16466388D02*
X3357682Y-16485436D01*
X3357682Y-16485436D02*
X3348158Y-16494960D01*
X3348158Y-16494960D02*
X3329110Y-16504484D01*
X3329110Y-16504484D02*
X3310062Y-16504484D01*
X3310062Y-16504484D02*
X3291015Y-16494960D01*
X3291015Y-16494960D02*
X3281491Y-16485436D01*
X3281491Y-16485436D02*
X3271967Y-16466388D01*
X3271967Y-16466388D02*
X3262443Y-16428293D01*
X3262443Y-16428293D02*
X3262443Y-16380674D01*
X3262443Y-16380674D02*
X3271967Y-16342579D01*
X3271967Y-16342579D02*
X3281491Y-16323531D01*
X3281491Y-16323531D02*
X3291015Y-16314008D01*
X3291015Y-16314008D02*
X3310062Y-16304484D01*
X3500539Y-16304484D02*
X3519586Y-16304484D01*
X3519586Y-16304484D02*
X3538634Y-16314008D01*
X3538634Y-16314008D02*
X3548158Y-16323531D01*
X3548158Y-16323531D02*
X3557682Y-16342579D01*
X3557682Y-16342579D02*
X3567205Y-16380674D01*
X3567205Y-16380674D02*
X3567205Y-16428293D01*
X3567205Y-16428293D02*
X3557682Y-16466388D01*
X3557682Y-16466388D02*
X3548158Y-16485436D01*
X3548158Y-16485436D02*
X3538634Y-16494960D01*
X3538634Y-16494960D02*
X3519586Y-16504484D01*
X3519586Y-16504484D02*
X3500539Y-16504484D01*
X3500539Y-16504484D02*
X3481491Y-16494960D01*
X3481491Y-16494960D02*
X3471967Y-16485436D01*
X3471967Y-16485436D02*
X3462443Y-16466388D01*
X3462443Y-16466388D02*
X3452920Y-16428293D01*
X3452920Y-16428293D02*
X3452920Y-16380674D01*
X3452920Y-16380674D02*
X3462443Y-16342579D01*
X3462443Y-16342579D02*
X3471967Y-16323531D01*
X3471967Y-16323531D02*
X3481491Y-16314008D01*
X3481491Y-16314008D02*
X3500539Y-16304484D01*
X3652920Y-16504484D02*
X3652920Y-16371150D01*
X3652920Y-16390198D02*
X3662443Y-16380674D01*
X3662443Y-16380674D02*
X3681491Y-16371150D01*
X3681491Y-16371150D02*
X3710063Y-16371150D01*
X3710063Y-16371150D02*
X3729110Y-16380674D01*
X3729110Y-16380674D02*
X3738634Y-16399722D01*
X3738634Y-16399722D02*
X3738634Y-16504484D01*
X3738634Y-16399722D02*
X3748158Y-16380674D01*
X3748158Y-16380674D02*
X3767205Y-16371150D01*
X3767205Y-16371150D02*
X3795777Y-16371150D01*
X3795777Y-16371150D02*
X3814824Y-16380674D01*
X3814824Y-16380674D02*
X3824348Y-16399722D01*
X3824348Y-16399722D02*
X3824348Y-16504484D01*
X3919586Y-16504484D02*
X3919586Y-16371150D01*
X3919586Y-16390198D02*
X3929110Y-16380674D01*
X3929110Y-16380674D02*
X3948158Y-16371150D01*
X3948158Y-16371150D02*
X3976729Y-16371150D01*
X3976729Y-16371150D02*
X3995777Y-16380674D01*
X3995777Y-16380674D02*
X4005301Y-16399722D01*
X4005301Y-16399722D02*
X4005301Y-16504484D01*
X4005301Y-16399722D02*
X4014824Y-16380674D01*
X4014824Y-16380674D02*
X4033872Y-16371150D01*
X4033872Y-16371150D02*
X4062443Y-16371150D01*
X4062443Y-16371150D02*
X4081491Y-16380674D01*
X4081491Y-16380674D02*
X4091015Y-16399722D01*
X4091015Y-16399722D02*
X4091015Y-16504484D01*
X4481491Y-16294960D02*
X4310063Y-16552103D01*
X4738634Y-16304484D02*
X4757682Y-16304484D01*
X4757682Y-16304484D02*
X4776729Y-16314008D01*
X4776729Y-16314008D02*
X4786253Y-16323531D01*
X4786253Y-16323531D02*
X4795777Y-16342579D01*
X4795777Y-16342579D02*
X4805301Y-16380674D01*
X4805301Y-16380674D02*
X4805301Y-16428293D01*
X4805301Y-16428293D02*
X4795777Y-16466388D01*
X4795777Y-16466388D02*
X4786253Y-16485436D01*
X4786253Y-16485436D02*
X4776729Y-16494960D01*
X4776729Y-16494960D02*
X4757682Y-16504484D01*
X4757682Y-16504484D02*
X4738634Y-16504484D01*
X4738634Y-16504484D02*
X4719587Y-16494960D01*
X4719587Y-16494960D02*
X4710063Y-16485436D01*
X4710063Y-16485436D02*
X4700539Y-16466388D01*
X4700539Y-16466388D02*
X4691015Y-16428293D01*
X4691015Y-16428293D02*
X4691015Y-16380674D01*
X4691015Y-16380674D02*
X4700539Y-16342579D01*
X4700539Y-16342579D02*
X4710063Y-16323531D01*
X4710063Y-16323531D02*
X4719587Y-16314008D01*
X4719587Y-16314008D02*
X4738634Y-16304484D01*
X4891015Y-16485436D02*
X4900539Y-16494960D01*
X4900539Y-16494960D02*
X4891015Y-16504484D01*
X4891015Y-16504484D02*
X4881491Y-16494960D01*
X4881491Y-16494960D02*
X4891015Y-16485436D01*
X4891015Y-16485436D02*
X4891015Y-16504484D01*
X5024348Y-16304484D02*
X5043396Y-16304484D01*
X5043396Y-16304484D02*
X5062444Y-16314008D01*
X5062444Y-16314008D02*
X5071968Y-16323531D01*
X5071968Y-16323531D02*
X5081491Y-16342579D01*
X5081491Y-16342579D02*
X5091015Y-16380674D01*
X5091015Y-16380674D02*
X5091015Y-16428293D01*
X5091015Y-16428293D02*
X5081491Y-16466388D01*
X5081491Y-16466388D02*
X5071968Y-16485436D01*
X5071968Y-16485436D02*
X5062444Y-16494960D01*
X5062444Y-16494960D02*
X5043396Y-16504484D01*
X5043396Y-16504484D02*
X5024348Y-16504484D01*
X5024348Y-16504484D02*
X5005301Y-16494960D01*
X5005301Y-16494960D02*
X4995777Y-16485436D01*
X4995777Y-16485436D02*
X4986253Y-16466388D01*
X4986253Y-16466388D02*
X4976729Y-16428293D01*
X4976729Y-16428293D02*
X4976729Y-16380674D01*
X4976729Y-16380674D02*
X4986253Y-16342579D01*
X4986253Y-16342579D02*
X4995777Y-16323531D01*
X4995777Y-16323531D02*
X5005301Y-16314008D01*
X5005301Y-16314008D02*
X5024348Y-16304484D01*
X5271968Y-16304484D02*
X5176729Y-16304484D01*
X5176729Y-16304484D02*
X5167206Y-16399722D01*
X5167206Y-16399722D02*
X5176729Y-16390198D01*
X5176729Y-16390198D02*
X5195777Y-16380674D01*
X5195777Y-16380674D02*
X5243396Y-16380674D01*
X5243396Y-16380674D02*
X5262444Y-16390198D01*
X5262444Y-16390198D02*
X5271968Y-16399722D01*
X5271968Y-16399722D02*
X5281491Y-16418769D01*
X5281491Y-16418769D02*
X5281491Y-16466388D01*
X5281491Y-16466388D02*
X5271968Y-16485436D01*
X5271968Y-16485436D02*
X5262444Y-16494960D01*
X5262444Y-16494960D02*
X5243396Y-16504484D01*
X5243396Y-16504484D02*
X5195777Y-16504484D01*
X5195777Y-16504484D02*
X5176729Y-16494960D01*
X5176729Y-16494960D02*
X5167206Y-16485436D01*
X5376729Y-16504484D02*
X5414825Y-16504484D01*
X5414825Y-16504484D02*
X5433872Y-16494960D01*
X5433872Y-16494960D02*
X5443396Y-16485436D01*
X5443396Y-16485436D02*
X5462444Y-16456865D01*
X5462444Y-16456865D02*
X5471968Y-16418769D01*
X5471968Y-16418769D02*
X5471968Y-16342579D01*
X5471968Y-16342579D02*
X5462444Y-16323531D01*
X5462444Y-16323531D02*
X5452920Y-16314008D01*
X5452920Y-16314008D02*
X5433872Y-16304484D01*
X5433872Y-16304484D02*
X5395777Y-16304484D01*
X5395777Y-16304484D02*
X5376729Y-16314008D01*
X5376729Y-16314008D02*
X5367206Y-16323531D01*
X5367206Y-16323531D02*
X5357682Y-16342579D01*
X5357682Y-16342579D02*
X5357682Y-16390198D01*
X5357682Y-16390198D02*
X5367206Y-16409246D01*
X5367206Y-16409246D02*
X5376729Y-16418769D01*
X5376729Y-16418769D02*
X5395777Y-16428293D01*
X5395777Y-16428293D02*
X5433872Y-16428293D01*
X5433872Y-16428293D02*
X5452920Y-16418769D01*
X5452920Y-16418769D02*
X5462444Y-16409246D01*
X5462444Y-16409246D02*
X5471968Y-16390198D01*
X5662444Y-16504484D02*
X5548158Y-16504484D01*
X5605301Y-16504484D02*
X5605301Y-16304484D01*
X5605301Y-16304484D02*
X5586253Y-16333055D01*
X5586253Y-16333055D02*
X5567206Y-16352103D01*
X5567206Y-16352103D02*
X5548158Y-16361627D01*
X5738634Y-16304484D02*
X5738634Y-16342579D01*
X5814825Y-16304484D02*
X5814825Y-16342579D01*
X6110063Y-16580674D02*
X6100539Y-16571150D01*
X6100539Y-16571150D02*
X6081491Y-16542579D01*
X6081491Y-16542579D02*
X6071968Y-16523531D01*
X6071968Y-16523531D02*
X6062444Y-16494960D01*
X6062444Y-16494960D02*
X6052920Y-16447341D01*
X6052920Y-16447341D02*
X6052920Y-16409246D01*
X6052920Y-16409246D02*
X6062444Y-16361627D01*
X6062444Y-16361627D02*
X6071968Y-16333055D01*
X6071968Y-16333055D02*
X6081491Y-16314008D01*
X6081491Y-16314008D02*
X6100539Y-16285436D01*
X6100539Y-16285436D02*
X6110063Y-16275912D01*
X6291015Y-16504484D02*
X6176729Y-16504484D01*
X6233872Y-16504484D02*
X6233872Y-16304484D01*
X6233872Y-16304484D02*
X6214825Y-16333055D01*
X6214825Y-16333055D02*
X6195777Y-16352103D01*
X6195777Y-16352103D02*
X6176729Y-16361627D01*
X6367206Y-16323531D02*
X6376729Y-16314008D01*
X6376729Y-16314008D02*
X6395777Y-16304484D01*
X6395777Y-16304484D02*
X6443396Y-16304484D01*
X6443396Y-16304484D02*
X6462444Y-16314008D01*
X6462444Y-16314008D02*
X6471968Y-16323531D01*
X6471968Y-16323531D02*
X6481491Y-16342579D01*
X6481491Y-16342579D02*
X6481491Y-16361627D01*
X6481491Y-16361627D02*
X6471968Y-16390198D01*
X6471968Y-16390198D02*
X6357682Y-16504484D01*
X6357682Y-16504484D02*
X6481491Y-16504484D01*
X6719587Y-16504484D02*
X6719587Y-16304484D01*
X6805301Y-16504484D02*
X6805301Y-16399722D01*
X6805301Y-16399722D02*
X6795777Y-16380674D01*
X6795777Y-16380674D02*
X6776730Y-16371150D01*
X6776730Y-16371150D02*
X6748158Y-16371150D01*
X6748158Y-16371150D02*
X6729110Y-16380674D01*
X6729110Y-16380674D02*
X6719587Y-16390198D01*
X6929110Y-16504484D02*
X6910063Y-16494960D01*
X6910063Y-16494960D02*
X6900539Y-16485436D01*
X6900539Y-16485436D02*
X6891015Y-16466388D01*
X6891015Y-16466388D02*
X6891015Y-16409246D01*
X6891015Y-16409246D02*
X6900539Y-16390198D01*
X6900539Y-16390198D02*
X6910063Y-16380674D01*
X6910063Y-16380674D02*
X6929110Y-16371150D01*
X6929110Y-16371150D02*
X6957682Y-16371150D01*
X6957682Y-16371150D02*
X6976730Y-16380674D01*
X6976730Y-16380674D02*
X6986253Y-16390198D01*
X6986253Y-16390198D02*
X6995777Y-16409246D01*
X6995777Y-16409246D02*
X6995777Y-16466388D01*
X6995777Y-16466388D02*
X6986253Y-16485436D01*
X6986253Y-16485436D02*
X6976730Y-16494960D01*
X6976730Y-16494960D02*
X6957682Y-16504484D01*
X6957682Y-16504484D02*
X6929110Y-16504484D01*
X7110063Y-16504484D02*
X7091015Y-16494960D01*
X7091015Y-16494960D02*
X7081491Y-16475912D01*
X7081491Y-16475912D02*
X7081491Y-16304484D01*
X7262444Y-16494960D02*
X7243396Y-16504484D01*
X7243396Y-16504484D02*
X7205301Y-16504484D01*
X7205301Y-16504484D02*
X7186253Y-16494960D01*
X7186253Y-16494960D02*
X7176730Y-16475912D01*
X7176730Y-16475912D02*
X7176730Y-16399722D01*
X7176730Y-16399722D02*
X7186253Y-16380674D01*
X7186253Y-16380674D02*
X7205301Y-16371150D01*
X7205301Y-16371150D02*
X7243396Y-16371150D01*
X7243396Y-16371150D02*
X7262444Y-16380674D01*
X7262444Y-16380674D02*
X7271968Y-16399722D01*
X7271968Y-16399722D02*
X7271968Y-16418769D01*
X7271968Y-16418769D02*
X7176730Y-16437817D01*
X7348158Y-16494960D02*
X7367206Y-16504484D01*
X7367206Y-16504484D02*
X7405301Y-16504484D01*
X7405301Y-16504484D02*
X7424349Y-16494960D01*
X7424349Y-16494960D02*
X7433872Y-16475912D01*
X7433872Y-16475912D02*
X7433872Y-16466388D01*
X7433872Y-16466388D02*
X7424349Y-16447341D01*
X7424349Y-16447341D02*
X7405301Y-16437817D01*
X7405301Y-16437817D02*
X7376730Y-16437817D01*
X7376730Y-16437817D02*
X7357682Y-16428293D01*
X7357682Y-16428293D02*
X7348158Y-16409246D01*
X7348158Y-16409246D02*
X7348158Y-16399722D01*
X7348158Y-16399722D02*
X7357682Y-16380674D01*
X7357682Y-16380674D02*
X7376730Y-16371150D01*
X7376730Y-16371150D02*
X7405301Y-16371150D01*
X7405301Y-16371150D02*
X7424349Y-16380674D01*
X7500539Y-16580674D02*
X7510063Y-16571150D01*
X7510063Y-16571150D02*
X7529111Y-16542579D01*
X7529111Y-16542579D02*
X7538634Y-16523531D01*
X7538634Y-16523531D02*
X7548158Y-16494960D01*
X7548158Y-16494960D02*
X7557682Y-16447341D01*
X7557682Y-16447341D02*
X7557682Y-16409246D01*
X7557682Y-16409246D02*
X7548158Y-16361627D01*
X7548158Y-16361627D02*
X7538634Y-16333055D01*
X7538634Y-16333055D02*
X7529111Y-16314008D01*
X7529111Y-16314008D02*
X7510063Y-16285436D01*
X7510063Y-16285436D02*
X7500539Y-16275912D01*
X2505711Y-16753711D02*
X2505711Y-16612289D01*
X2364289Y-16612289D01*
X2364289Y-16753711D01*
X2505711Y-16753711D01*
X2786253Y-16593531D02*
X2795777Y-16584008D01*
X2795777Y-16584008D02*
X2814824Y-16574484D01*
X2814824Y-16574484D02*
X2862443Y-16574484D01*
X2862443Y-16574484D02*
X2881491Y-16584008D01*
X2881491Y-16584008D02*
X2891015Y-16593531D01*
X2891015Y-16593531D02*
X2900539Y-16612579D01*
X2900539Y-16612579D02*
X2900539Y-16631627D01*
X2900539Y-16631627D02*
X2891015Y-16660198D01*
X2891015Y-16660198D02*
X2776729Y-16774484D01*
X2776729Y-16774484D02*
X2900539Y-16774484D01*
X2986253Y-16755436D02*
X2995777Y-16764960D01*
X2995777Y-16764960D02*
X2986253Y-16774484D01*
X2986253Y-16774484D02*
X2976729Y-16764960D01*
X2976729Y-16764960D02*
X2986253Y-16755436D01*
X2986253Y-16755436D02*
X2986253Y-16774484D01*
X3062443Y-16574484D02*
X3186253Y-16574484D01*
X3186253Y-16574484D02*
X3119586Y-16650674D01*
X3119586Y-16650674D02*
X3148158Y-16650674D01*
X3148158Y-16650674D02*
X3167205Y-16660198D01*
X3167205Y-16660198D02*
X3176729Y-16669722D01*
X3176729Y-16669722D02*
X3186253Y-16688769D01*
X3186253Y-16688769D02*
X3186253Y-16736388D01*
X3186253Y-16736388D02*
X3176729Y-16755436D01*
X3176729Y-16755436D02*
X3167205Y-16764960D01*
X3167205Y-16764960D02*
X3148158Y-16774484D01*
X3148158Y-16774484D02*
X3091015Y-16774484D01*
X3091015Y-16774484D02*
X3071967Y-16764960D01*
X3071967Y-16764960D02*
X3062443Y-16755436D01*
X3310062Y-16574484D02*
X3329110Y-16574484D01*
X3329110Y-16574484D02*
X3348158Y-16584008D01*
X3348158Y-16584008D02*
X3357682Y-16593531D01*
X3357682Y-16593531D02*
X3367205Y-16612579D01*
X3367205Y-16612579D02*
X3376729Y-16650674D01*
X3376729Y-16650674D02*
X3376729Y-16698293D01*
X3376729Y-16698293D02*
X3367205Y-16736388D01*
X3367205Y-16736388D02*
X3357682Y-16755436D01*
X3357682Y-16755436D02*
X3348158Y-16764960D01*
X3348158Y-16764960D02*
X3329110Y-16774484D01*
X3329110Y-16774484D02*
X3310062Y-16774484D01*
X3310062Y-16774484D02*
X3291015Y-16764960D01*
X3291015Y-16764960D02*
X3281491Y-16755436D01*
X3281491Y-16755436D02*
X3271967Y-16736388D01*
X3271967Y-16736388D02*
X3262443Y-16698293D01*
X3262443Y-16698293D02*
X3262443Y-16650674D01*
X3262443Y-16650674D02*
X3271967Y-16612579D01*
X3271967Y-16612579D02*
X3281491Y-16593531D01*
X3281491Y-16593531D02*
X3291015Y-16584008D01*
X3291015Y-16584008D02*
X3310062Y-16574484D01*
X3500539Y-16574484D02*
X3519586Y-16574484D01*
X3519586Y-16574484D02*
X3538634Y-16584008D01*
X3538634Y-16584008D02*
X3548158Y-16593531D01*
X3548158Y-16593531D02*
X3557682Y-16612579D01*
X3557682Y-16612579D02*
X3567205Y-16650674D01*
X3567205Y-16650674D02*
X3567205Y-16698293D01*
X3567205Y-16698293D02*
X3557682Y-16736388D01*
X3557682Y-16736388D02*
X3548158Y-16755436D01*
X3548158Y-16755436D02*
X3538634Y-16764960D01*
X3538634Y-16764960D02*
X3519586Y-16774484D01*
X3519586Y-16774484D02*
X3500539Y-16774484D01*
X3500539Y-16774484D02*
X3481491Y-16764960D01*
X3481491Y-16764960D02*
X3471967Y-16755436D01*
X3471967Y-16755436D02*
X3462443Y-16736388D01*
X3462443Y-16736388D02*
X3452920Y-16698293D01*
X3452920Y-16698293D02*
X3452920Y-16650674D01*
X3452920Y-16650674D02*
X3462443Y-16612579D01*
X3462443Y-16612579D02*
X3471967Y-16593531D01*
X3471967Y-16593531D02*
X3481491Y-16584008D01*
X3481491Y-16584008D02*
X3500539Y-16574484D01*
X3652920Y-16774484D02*
X3652920Y-16641150D01*
X3652920Y-16660198D02*
X3662443Y-16650674D01*
X3662443Y-16650674D02*
X3681491Y-16641150D01*
X3681491Y-16641150D02*
X3710063Y-16641150D01*
X3710063Y-16641150D02*
X3729110Y-16650674D01*
X3729110Y-16650674D02*
X3738634Y-16669722D01*
X3738634Y-16669722D02*
X3738634Y-16774484D01*
X3738634Y-16669722D02*
X3748158Y-16650674D01*
X3748158Y-16650674D02*
X3767205Y-16641150D01*
X3767205Y-16641150D02*
X3795777Y-16641150D01*
X3795777Y-16641150D02*
X3814824Y-16650674D01*
X3814824Y-16650674D02*
X3824348Y-16669722D01*
X3824348Y-16669722D02*
X3824348Y-16774484D01*
X3919586Y-16774484D02*
X3919586Y-16641150D01*
X3919586Y-16660198D02*
X3929110Y-16650674D01*
X3929110Y-16650674D02*
X3948158Y-16641150D01*
X3948158Y-16641150D02*
X3976729Y-16641150D01*
X3976729Y-16641150D02*
X3995777Y-16650674D01*
X3995777Y-16650674D02*
X4005301Y-16669722D01*
X4005301Y-16669722D02*
X4005301Y-16774484D01*
X4005301Y-16669722D02*
X4014824Y-16650674D01*
X4014824Y-16650674D02*
X4033872Y-16641150D01*
X4033872Y-16641150D02*
X4062443Y-16641150D01*
X4062443Y-16641150D02*
X4081491Y-16650674D01*
X4081491Y-16650674D02*
X4091015Y-16669722D01*
X4091015Y-16669722D02*
X4091015Y-16774484D01*
X4481491Y-16564960D02*
X4310063Y-16822103D01*
X4738634Y-16574484D02*
X4757682Y-16574484D01*
X4757682Y-16574484D02*
X4776729Y-16584008D01*
X4776729Y-16584008D02*
X4786253Y-16593531D01*
X4786253Y-16593531D02*
X4795777Y-16612579D01*
X4795777Y-16612579D02*
X4805301Y-16650674D01*
X4805301Y-16650674D02*
X4805301Y-16698293D01*
X4805301Y-16698293D02*
X4795777Y-16736388D01*
X4795777Y-16736388D02*
X4786253Y-16755436D01*
X4786253Y-16755436D02*
X4776729Y-16764960D01*
X4776729Y-16764960D02*
X4757682Y-16774484D01*
X4757682Y-16774484D02*
X4738634Y-16774484D01*
X4738634Y-16774484D02*
X4719587Y-16764960D01*
X4719587Y-16764960D02*
X4710063Y-16755436D01*
X4710063Y-16755436D02*
X4700539Y-16736388D01*
X4700539Y-16736388D02*
X4691015Y-16698293D01*
X4691015Y-16698293D02*
X4691015Y-16650674D01*
X4691015Y-16650674D02*
X4700539Y-16612579D01*
X4700539Y-16612579D02*
X4710063Y-16593531D01*
X4710063Y-16593531D02*
X4719587Y-16584008D01*
X4719587Y-16584008D02*
X4738634Y-16574484D01*
X4891015Y-16755436D02*
X4900539Y-16764960D01*
X4900539Y-16764960D02*
X4891015Y-16774484D01*
X4891015Y-16774484D02*
X4881491Y-16764960D01*
X4881491Y-16764960D02*
X4891015Y-16755436D01*
X4891015Y-16755436D02*
X4891015Y-16774484D01*
X5024348Y-16574484D02*
X5043396Y-16574484D01*
X5043396Y-16574484D02*
X5062444Y-16584008D01*
X5062444Y-16584008D02*
X5071968Y-16593531D01*
X5071968Y-16593531D02*
X5081491Y-16612579D01*
X5081491Y-16612579D02*
X5091015Y-16650674D01*
X5091015Y-16650674D02*
X5091015Y-16698293D01*
X5091015Y-16698293D02*
X5081491Y-16736388D01*
X5081491Y-16736388D02*
X5071968Y-16755436D01*
X5071968Y-16755436D02*
X5062444Y-16764960D01*
X5062444Y-16764960D02*
X5043396Y-16774484D01*
X5043396Y-16774484D02*
X5024348Y-16774484D01*
X5024348Y-16774484D02*
X5005301Y-16764960D01*
X5005301Y-16764960D02*
X4995777Y-16755436D01*
X4995777Y-16755436D02*
X4986253Y-16736388D01*
X4986253Y-16736388D02*
X4976729Y-16698293D01*
X4976729Y-16698293D02*
X4976729Y-16650674D01*
X4976729Y-16650674D02*
X4986253Y-16612579D01*
X4986253Y-16612579D02*
X4995777Y-16593531D01*
X4995777Y-16593531D02*
X5005301Y-16584008D01*
X5005301Y-16584008D02*
X5024348Y-16574484D01*
X5186253Y-16774484D02*
X5224348Y-16774484D01*
X5224348Y-16774484D02*
X5243396Y-16764960D01*
X5243396Y-16764960D02*
X5252920Y-16755436D01*
X5252920Y-16755436D02*
X5271968Y-16726865D01*
X5271968Y-16726865D02*
X5281491Y-16688769D01*
X5281491Y-16688769D02*
X5281491Y-16612579D01*
X5281491Y-16612579D02*
X5271968Y-16593531D01*
X5271968Y-16593531D02*
X5262444Y-16584008D01*
X5262444Y-16584008D02*
X5243396Y-16574484D01*
X5243396Y-16574484D02*
X5205301Y-16574484D01*
X5205301Y-16574484D02*
X5186253Y-16584008D01*
X5186253Y-16584008D02*
X5176729Y-16593531D01*
X5176729Y-16593531D02*
X5167206Y-16612579D01*
X5167206Y-16612579D02*
X5167206Y-16660198D01*
X5167206Y-16660198D02*
X5176729Y-16679246D01*
X5176729Y-16679246D02*
X5186253Y-16688769D01*
X5186253Y-16688769D02*
X5205301Y-16698293D01*
X5205301Y-16698293D02*
X5243396Y-16698293D01*
X5243396Y-16698293D02*
X5262444Y-16688769D01*
X5262444Y-16688769D02*
X5271968Y-16679246D01*
X5271968Y-16679246D02*
X5281491Y-16660198D01*
X5405301Y-16574484D02*
X5424349Y-16574484D01*
X5424349Y-16574484D02*
X5443396Y-16584008D01*
X5443396Y-16584008D02*
X5452920Y-16593531D01*
X5452920Y-16593531D02*
X5462444Y-16612579D01*
X5462444Y-16612579D02*
X5471968Y-16650674D01*
X5471968Y-16650674D02*
X5471968Y-16698293D01*
X5471968Y-16698293D02*
X5462444Y-16736388D01*
X5462444Y-16736388D02*
X5452920Y-16755436D01*
X5452920Y-16755436D02*
X5443396Y-16764960D01*
X5443396Y-16764960D02*
X5424349Y-16774484D01*
X5424349Y-16774484D02*
X5405301Y-16774484D01*
X5405301Y-16774484D02*
X5386253Y-16764960D01*
X5386253Y-16764960D02*
X5376729Y-16755436D01*
X5376729Y-16755436D02*
X5367206Y-16736388D01*
X5367206Y-16736388D02*
X5357682Y-16698293D01*
X5357682Y-16698293D02*
X5357682Y-16650674D01*
X5357682Y-16650674D02*
X5367206Y-16612579D01*
X5367206Y-16612579D02*
X5376729Y-16593531D01*
X5376729Y-16593531D02*
X5386253Y-16584008D01*
X5386253Y-16584008D02*
X5405301Y-16574484D01*
X5643396Y-16574484D02*
X5605301Y-16574484D01*
X5605301Y-16574484D02*
X5586253Y-16584008D01*
X5586253Y-16584008D02*
X5576729Y-16593531D01*
X5576729Y-16593531D02*
X5557682Y-16622103D01*
X5557682Y-16622103D02*
X5548158Y-16660198D01*
X5548158Y-16660198D02*
X5548158Y-16736388D01*
X5548158Y-16736388D02*
X5557682Y-16755436D01*
X5557682Y-16755436D02*
X5567206Y-16764960D01*
X5567206Y-16764960D02*
X5586253Y-16774484D01*
X5586253Y-16774484D02*
X5624348Y-16774484D01*
X5624348Y-16774484D02*
X5643396Y-16764960D01*
X5643396Y-16764960D02*
X5652920Y-16755436D01*
X5652920Y-16755436D02*
X5662444Y-16736388D01*
X5662444Y-16736388D02*
X5662444Y-16688769D01*
X5662444Y-16688769D02*
X5652920Y-16669722D01*
X5652920Y-16669722D02*
X5643396Y-16660198D01*
X5643396Y-16660198D02*
X5624348Y-16650674D01*
X5624348Y-16650674D02*
X5586253Y-16650674D01*
X5586253Y-16650674D02*
X5567206Y-16660198D01*
X5567206Y-16660198D02*
X5557682Y-16669722D01*
X5557682Y-16669722D02*
X5548158Y-16688769D01*
X5738634Y-16574484D02*
X5738634Y-16612579D01*
X5814825Y-16574484D02*
X5814825Y-16612579D01*
X6110063Y-16850674D02*
X6100539Y-16841150D01*
X6100539Y-16841150D02*
X6081491Y-16812579D01*
X6081491Y-16812579D02*
X6071968Y-16793531D01*
X6071968Y-16793531D02*
X6062444Y-16764960D01*
X6062444Y-16764960D02*
X6052920Y-16717341D01*
X6052920Y-16717341D02*
X6052920Y-16679246D01*
X6052920Y-16679246D02*
X6062444Y-16631627D01*
X6062444Y-16631627D02*
X6071968Y-16603055D01*
X6071968Y-16603055D02*
X6081491Y-16584008D01*
X6081491Y-16584008D02*
X6100539Y-16555436D01*
X6100539Y-16555436D02*
X6110063Y-16545912D01*
X6176729Y-16593531D02*
X6186253Y-16584008D01*
X6186253Y-16584008D02*
X6205301Y-16574484D01*
X6205301Y-16574484D02*
X6252920Y-16574484D01*
X6252920Y-16574484D02*
X6271968Y-16584008D01*
X6271968Y-16584008D02*
X6281491Y-16593531D01*
X6281491Y-16593531D02*
X6291015Y-16612579D01*
X6291015Y-16612579D02*
X6291015Y-16631627D01*
X6291015Y-16631627D02*
X6281491Y-16660198D01*
X6281491Y-16660198D02*
X6167206Y-16774484D01*
X6167206Y-16774484D02*
X6291015Y-16774484D01*
X6529110Y-16774484D02*
X6529110Y-16574484D01*
X6614825Y-16774484D02*
X6614825Y-16669722D01*
X6614825Y-16669722D02*
X6605301Y-16650674D01*
X6605301Y-16650674D02*
X6586253Y-16641150D01*
X6586253Y-16641150D02*
X6557682Y-16641150D01*
X6557682Y-16641150D02*
X6538634Y-16650674D01*
X6538634Y-16650674D02*
X6529110Y-16660198D01*
X6738634Y-16774484D02*
X6719587Y-16764960D01*
X6719587Y-16764960D02*
X6710063Y-16755436D01*
X6710063Y-16755436D02*
X6700539Y-16736388D01*
X6700539Y-16736388D02*
X6700539Y-16679246D01*
X6700539Y-16679246D02*
X6710063Y-16660198D01*
X6710063Y-16660198D02*
X6719587Y-16650674D01*
X6719587Y-16650674D02*
X6738634Y-16641150D01*
X6738634Y-16641150D02*
X6767206Y-16641150D01*
X6767206Y-16641150D02*
X6786253Y-16650674D01*
X6786253Y-16650674D02*
X6795777Y-16660198D01*
X6795777Y-16660198D02*
X6805301Y-16679246D01*
X6805301Y-16679246D02*
X6805301Y-16736388D01*
X6805301Y-16736388D02*
X6795777Y-16755436D01*
X6795777Y-16755436D02*
X6786253Y-16764960D01*
X6786253Y-16764960D02*
X6767206Y-16774484D01*
X6767206Y-16774484D02*
X6738634Y-16774484D01*
X6919587Y-16774484D02*
X6900539Y-16764960D01*
X6900539Y-16764960D02*
X6891015Y-16745912D01*
X6891015Y-16745912D02*
X6891015Y-16574484D01*
X7071968Y-16764960D02*
X7052920Y-16774484D01*
X7052920Y-16774484D02*
X7014825Y-16774484D01*
X7014825Y-16774484D02*
X6995777Y-16764960D01*
X6995777Y-16764960D02*
X6986253Y-16745912D01*
X6986253Y-16745912D02*
X6986253Y-16669722D01*
X6986253Y-16669722D02*
X6995777Y-16650674D01*
X6995777Y-16650674D02*
X7014825Y-16641150D01*
X7014825Y-16641150D02*
X7052920Y-16641150D01*
X7052920Y-16641150D02*
X7071968Y-16650674D01*
X7071968Y-16650674D02*
X7081491Y-16669722D01*
X7081491Y-16669722D02*
X7081491Y-16688769D01*
X7081491Y-16688769D02*
X6986253Y-16707817D01*
X7157682Y-16764960D02*
X7176730Y-16774484D01*
X7176730Y-16774484D02*
X7214825Y-16774484D01*
X7214825Y-16774484D02*
X7233872Y-16764960D01*
X7233872Y-16764960D02*
X7243396Y-16745912D01*
X7243396Y-16745912D02*
X7243396Y-16736388D01*
X7243396Y-16736388D02*
X7233872Y-16717341D01*
X7233872Y-16717341D02*
X7214825Y-16707817D01*
X7214825Y-16707817D02*
X7186253Y-16707817D01*
X7186253Y-16707817D02*
X7167206Y-16698293D01*
X7167206Y-16698293D02*
X7157682Y-16679246D01*
X7157682Y-16679246D02*
X7157682Y-16669722D01*
X7157682Y-16669722D02*
X7167206Y-16650674D01*
X7167206Y-16650674D02*
X7186253Y-16641150D01*
X7186253Y-16641150D02*
X7214825Y-16641150D01*
X7214825Y-16641150D02*
X7233872Y-16650674D01*
X7310063Y-16850674D02*
X7319587Y-16841150D01*
X7319587Y-16841150D02*
X7338634Y-16812579D01*
X7338634Y-16812579D02*
X7348158Y-16793531D01*
X7348158Y-16793531D02*
X7357682Y-16764960D01*
X7357682Y-16764960D02*
X7367206Y-16717341D01*
X7367206Y-16717341D02*
X7367206Y-16679246D01*
X7367206Y-16679246D02*
X7357682Y-16631627D01*
X7357682Y-16631627D02*
X7348158Y-16603055D01*
X7348158Y-16603055D02*
X7338634Y-16584008D01*
X7338634Y-16584008D02*
X7319587Y-16555436D01*
X7319587Y-16555436D02*
X7310063Y-16545912D01*
X2435000Y-17103000D02*
X2535000Y-17003000D01*
X2435000Y-16903000D01*
X2335000Y-17003000D01*
X2435000Y-17103000D01*
X2776729Y-16894484D02*
X2900539Y-16894484D01*
X2900539Y-16894484D02*
X2833872Y-16970674D01*
X2833872Y-16970674D02*
X2862443Y-16970674D01*
X2862443Y-16970674D02*
X2881491Y-16980198D01*
X2881491Y-16980198D02*
X2891015Y-16989722D01*
X2891015Y-16989722D02*
X2900539Y-17008770D01*
X2900539Y-17008770D02*
X2900539Y-17056389D01*
X2900539Y-17056389D02*
X2891015Y-17075436D01*
X2891015Y-17075436D02*
X2881491Y-17084960D01*
X2881491Y-17084960D02*
X2862443Y-17094484D01*
X2862443Y-17094484D02*
X2805301Y-17094484D01*
X2805301Y-17094484D02*
X2786253Y-17084960D01*
X2786253Y-17084960D02*
X2776729Y-17075436D01*
X2986253Y-17075436D02*
X2995777Y-17084960D01*
X2995777Y-17084960D02*
X2986253Y-17094484D01*
X2986253Y-17094484D02*
X2976729Y-17084960D01*
X2976729Y-17084960D02*
X2986253Y-17075436D01*
X2986253Y-17075436D02*
X2986253Y-17094484D01*
X3071967Y-16913531D02*
X3081491Y-16904008D01*
X3081491Y-16904008D02*
X3100539Y-16894484D01*
X3100539Y-16894484D02*
X3148158Y-16894484D01*
X3148158Y-16894484D02*
X3167205Y-16904008D01*
X3167205Y-16904008D02*
X3176729Y-16913531D01*
X3176729Y-16913531D02*
X3186253Y-16932579D01*
X3186253Y-16932579D02*
X3186253Y-16951627D01*
X3186253Y-16951627D02*
X3176729Y-16980198D01*
X3176729Y-16980198D02*
X3062443Y-17094484D01*
X3062443Y-17094484D02*
X3186253Y-17094484D01*
X3310062Y-16894484D02*
X3329110Y-16894484D01*
X3329110Y-16894484D02*
X3348158Y-16904008D01*
X3348158Y-16904008D02*
X3357682Y-16913531D01*
X3357682Y-16913531D02*
X3367205Y-16932579D01*
X3367205Y-16932579D02*
X3376729Y-16970674D01*
X3376729Y-16970674D02*
X3376729Y-17018293D01*
X3376729Y-17018293D02*
X3367205Y-17056389D01*
X3367205Y-17056389D02*
X3357682Y-17075436D01*
X3357682Y-17075436D02*
X3348158Y-17084960D01*
X3348158Y-17084960D02*
X3329110Y-17094484D01*
X3329110Y-17094484D02*
X3310062Y-17094484D01*
X3310062Y-17094484D02*
X3291015Y-17084960D01*
X3291015Y-17084960D02*
X3281491Y-17075436D01*
X3281491Y-17075436D02*
X3271967Y-17056389D01*
X3271967Y-17056389D02*
X3262443Y-17018293D01*
X3262443Y-17018293D02*
X3262443Y-16970674D01*
X3262443Y-16970674D02*
X3271967Y-16932579D01*
X3271967Y-16932579D02*
X3281491Y-16913531D01*
X3281491Y-16913531D02*
X3291015Y-16904008D01*
X3291015Y-16904008D02*
X3310062Y-16894484D01*
X3500539Y-16894484D02*
X3519586Y-16894484D01*
X3519586Y-16894484D02*
X3538634Y-16904008D01*
X3538634Y-16904008D02*
X3548158Y-16913531D01*
X3548158Y-16913531D02*
X3557682Y-16932579D01*
X3557682Y-16932579D02*
X3567205Y-16970674D01*
X3567205Y-16970674D02*
X3567205Y-17018293D01*
X3567205Y-17018293D02*
X3557682Y-17056389D01*
X3557682Y-17056389D02*
X3548158Y-17075436D01*
X3548158Y-17075436D02*
X3538634Y-17084960D01*
X3538634Y-17084960D02*
X3519586Y-17094484D01*
X3519586Y-17094484D02*
X3500539Y-17094484D01*
X3500539Y-17094484D02*
X3481491Y-17084960D01*
X3481491Y-17084960D02*
X3471967Y-17075436D01*
X3471967Y-17075436D02*
X3462443Y-17056389D01*
X3462443Y-17056389D02*
X3452920Y-17018293D01*
X3452920Y-17018293D02*
X3452920Y-16970674D01*
X3452920Y-16970674D02*
X3462443Y-16932579D01*
X3462443Y-16932579D02*
X3471967Y-16913531D01*
X3471967Y-16913531D02*
X3481491Y-16904008D01*
X3481491Y-16904008D02*
X3500539Y-16894484D01*
X3652920Y-17094484D02*
X3652920Y-16961150D01*
X3652920Y-16980198D02*
X3662443Y-16970674D01*
X3662443Y-16970674D02*
X3681491Y-16961150D01*
X3681491Y-16961150D02*
X3710063Y-16961150D01*
X3710063Y-16961150D02*
X3729110Y-16970674D01*
X3729110Y-16970674D02*
X3738634Y-16989722D01*
X3738634Y-16989722D02*
X3738634Y-17094484D01*
X3738634Y-16989722D02*
X3748158Y-16970674D01*
X3748158Y-16970674D02*
X3767205Y-16961150D01*
X3767205Y-16961150D02*
X3795777Y-16961150D01*
X3795777Y-16961150D02*
X3814824Y-16970674D01*
X3814824Y-16970674D02*
X3824348Y-16989722D01*
X3824348Y-16989722D02*
X3824348Y-17094484D01*
X3919586Y-17094484D02*
X3919586Y-16961150D01*
X3919586Y-16980198D02*
X3929110Y-16970674D01*
X3929110Y-16970674D02*
X3948158Y-16961150D01*
X3948158Y-16961150D02*
X3976729Y-16961150D01*
X3976729Y-16961150D02*
X3995777Y-16970674D01*
X3995777Y-16970674D02*
X4005301Y-16989722D01*
X4005301Y-16989722D02*
X4005301Y-17094484D01*
X4005301Y-16989722D02*
X4014824Y-16970674D01*
X4014824Y-16970674D02*
X4033872Y-16961150D01*
X4033872Y-16961150D02*
X4062443Y-16961150D01*
X4062443Y-16961150D02*
X4081491Y-16970674D01*
X4081491Y-16970674D02*
X4091015Y-16989722D01*
X4091015Y-16989722D02*
X4091015Y-17094484D01*
X4481491Y-16884960D02*
X4310063Y-17142103D01*
X4738634Y-16894484D02*
X4757682Y-16894484D01*
X4757682Y-16894484D02*
X4776729Y-16904008D01*
X4776729Y-16904008D02*
X4786253Y-16913531D01*
X4786253Y-16913531D02*
X4795777Y-16932579D01*
X4795777Y-16932579D02*
X4805301Y-16970674D01*
X4805301Y-16970674D02*
X4805301Y-17018293D01*
X4805301Y-17018293D02*
X4795777Y-17056389D01*
X4795777Y-17056389D02*
X4786253Y-17075436D01*
X4786253Y-17075436D02*
X4776729Y-17084960D01*
X4776729Y-17084960D02*
X4757682Y-17094484D01*
X4757682Y-17094484D02*
X4738634Y-17094484D01*
X4738634Y-17094484D02*
X4719587Y-17084960D01*
X4719587Y-17084960D02*
X4710063Y-17075436D01*
X4710063Y-17075436D02*
X4700539Y-17056389D01*
X4700539Y-17056389D02*
X4691015Y-17018293D01*
X4691015Y-17018293D02*
X4691015Y-16970674D01*
X4691015Y-16970674D02*
X4700539Y-16932579D01*
X4700539Y-16932579D02*
X4710063Y-16913531D01*
X4710063Y-16913531D02*
X4719587Y-16904008D01*
X4719587Y-16904008D02*
X4738634Y-16894484D01*
X4891015Y-17075436D02*
X4900539Y-17084960D01*
X4900539Y-17084960D02*
X4891015Y-17094484D01*
X4891015Y-17094484D02*
X4881491Y-17084960D01*
X4881491Y-17084960D02*
X4891015Y-17075436D01*
X4891015Y-17075436D02*
X4891015Y-17094484D01*
X5091015Y-17094484D02*
X4976729Y-17094484D01*
X5033872Y-17094484D02*
X5033872Y-16894484D01*
X5033872Y-16894484D02*
X5014825Y-16923055D01*
X5014825Y-16923055D02*
X4995777Y-16942103D01*
X4995777Y-16942103D02*
X4976729Y-16951627D01*
X5167206Y-16913531D02*
X5176729Y-16904008D01*
X5176729Y-16904008D02*
X5195777Y-16894484D01*
X5195777Y-16894484D02*
X5243396Y-16894484D01*
X5243396Y-16894484D02*
X5262444Y-16904008D01*
X5262444Y-16904008D02*
X5271968Y-16913531D01*
X5271968Y-16913531D02*
X5281491Y-16932579D01*
X5281491Y-16932579D02*
X5281491Y-16951627D01*
X5281491Y-16951627D02*
X5271968Y-16980198D01*
X5271968Y-16980198D02*
X5157682Y-17094484D01*
X5157682Y-17094484D02*
X5281491Y-17094484D01*
X5452920Y-16894484D02*
X5414825Y-16894484D01*
X5414825Y-16894484D02*
X5395777Y-16904008D01*
X5395777Y-16904008D02*
X5386253Y-16913531D01*
X5386253Y-16913531D02*
X5367206Y-16942103D01*
X5367206Y-16942103D02*
X5357682Y-16980198D01*
X5357682Y-16980198D02*
X5357682Y-17056389D01*
X5357682Y-17056389D02*
X5367206Y-17075436D01*
X5367206Y-17075436D02*
X5376729Y-17084960D01*
X5376729Y-17084960D02*
X5395777Y-17094484D01*
X5395777Y-17094484D02*
X5433872Y-17094484D01*
X5433872Y-17094484D02*
X5452920Y-17084960D01*
X5452920Y-17084960D02*
X5462444Y-17075436D01*
X5462444Y-17075436D02*
X5471968Y-17056389D01*
X5471968Y-17056389D02*
X5471968Y-17008770D01*
X5471968Y-17008770D02*
X5462444Y-16989722D01*
X5462444Y-16989722D02*
X5452920Y-16980198D01*
X5452920Y-16980198D02*
X5433872Y-16970674D01*
X5433872Y-16970674D02*
X5395777Y-16970674D01*
X5395777Y-16970674D02*
X5376729Y-16980198D01*
X5376729Y-16980198D02*
X5367206Y-16989722D01*
X5367206Y-16989722D02*
X5357682Y-17008770D01*
X5595777Y-16894484D02*
X5614825Y-16894484D01*
X5614825Y-16894484D02*
X5633872Y-16904008D01*
X5633872Y-16904008D02*
X5643396Y-16913531D01*
X5643396Y-16913531D02*
X5652920Y-16932579D01*
X5652920Y-16932579D02*
X5662444Y-16970674D01*
X5662444Y-16970674D02*
X5662444Y-17018293D01*
X5662444Y-17018293D02*
X5652920Y-17056389D01*
X5652920Y-17056389D02*
X5643396Y-17075436D01*
X5643396Y-17075436D02*
X5633872Y-17084960D01*
X5633872Y-17084960D02*
X5614825Y-17094484D01*
X5614825Y-17094484D02*
X5595777Y-17094484D01*
X5595777Y-17094484D02*
X5576729Y-17084960D01*
X5576729Y-17084960D02*
X5567206Y-17075436D01*
X5567206Y-17075436D02*
X5557682Y-17056389D01*
X5557682Y-17056389D02*
X5548158Y-17018293D01*
X5548158Y-17018293D02*
X5548158Y-16970674D01*
X5548158Y-16970674D02*
X5557682Y-16932579D01*
X5557682Y-16932579D02*
X5567206Y-16913531D01*
X5567206Y-16913531D02*
X5576729Y-16904008D01*
X5576729Y-16904008D02*
X5595777Y-16894484D01*
X5738634Y-16894484D02*
X5738634Y-16932579D01*
X5814825Y-16894484D02*
X5814825Y-16932579D01*
X6110063Y-17170674D02*
X6100539Y-17161150D01*
X6100539Y-17161150D02*
X6081491Y-17132579D01*
X6081491Y-17132579D02*
X6071968Y-17113531D01*
X6071968Y-17113531D02*
X6062444Y-17084960D01*
X6062444Y-17084960D02*
X6052920Y-17037341D01*
X6052920Y-17037341D02*
X6052920Y-16999246D01*
X6052920Y-16999246D02*
X6062444Y-16951627D01*
X6062444Y-16951627D02*
X6071968Y-16923055D01*
X6071968Y-16923055D02*
X6081491Y-16904008D01*
X6081491Y-16904008D02*
X6100539Y-16875436D01*
X6100539Y-16875436D02*
X6110063Y-16865912D01*
X6271968Y-16961150D02*
X6271968Y-17094484D01*
X6224348Y-16884960D02*
X6176729Y-17027817D01*
X6176729Y-17027817D02*
X6300539Y-17027817D01*
X6529110Y-17094484D02*
X6529110Y-16894484D01*
X6614825Y-17094484D02*
X6614825Y-16989722D01*
X6614825Y-16989722D02*
X6605301Y-16970674D01*
X6605301Y-16970674D02*
X6586253Y-16961150D01*
X6586253Y-16961150D02*
X6557682Y-16961150D01*
X6557682Y-16961150D02*
X6538634Y-16970674D01*
X6538634Y-16970674D02*
X6529110Y-16980198D01*
X6738634Y-17094484D02*
X6719587Y-17084960D01*
X6719587Y-17084960D02*
X6710063Y-17075436D01*
X6710063Y-17075436D02*
X6700539Y-17056389D01*
X6700539Y-17056389D02*
X6700539Y-16999246D01*
X6700539Y-16999246D02*
X6710063Y-16980198D01*
X6710063Y-16980198D02*
X6719587Y-16970674D01*
X6719587Y-16970674D02*
X6738634Y-16961150D01*
X6738634Y-16961150D02*
X6767206Y-16961150D01*
X6767206Y-16961150D02*
X6786253Y-16970674D01*
X6786253Y-16970674D02*
X6795777Y-16980198D01*
X6795777Y-16980198D02*
X6805301Y-16999246D01*
X6805301Y-16999246D02*
X6805301Y-17056389D01*
X6805301Y-17056389D02*
X6795777Y-17075436D01*
X6795777Y-17075436D02*
X6786253Y-17084960D01*
X6786253Y-17084960D02*
X6767206Y-17094484D01*
X6767206Y-17094484D02*
X6738634Y-17094484D01*
X6919587Y-17094484D02*
X6900539Y-17084960D01*
X6900539Y-17084960D02*
X6891015Y-17065912D01*
X6891015Y-17065912D02*
X6891015Y-16894484D01*
X7071968Y-17084960D02*
X7052920Y-17094484D01*
X7052920Y-17094484D02*
X7014825Y-17094484D01*
X7014825Y-17094484D02*
X6995777Y-17084960D01*
X6995777Y-17084960D02*
X6986253Y-17065912D01*
X6986253Y-17065912D02*
X6986253Y-16989722D01*
X6986253Y-16989722D02*
X6995777Y-16970674D01*
X6995777Y-16970674D02*
X7014825Y-16961150D01*
X7014825Y-16961150D02*
X7052920Y-16961150D01*
X7052920Y-16961150D02*
X7071968Y-16970674D01*
X7071968Y-16970674D02*
X7081491Y-16989722D01*
X7081491Y-16989722D02*
X7081491Y-17008770D01*
X7081491Y-17008770D02*
X6986253Y-17027817D01*
X7157682Y-17084960D02*
X7176730Y-17094484D01*
X7176730Y-17094484D02*
X7214825Y-17094484D01*
X7214825Y-17094484D02*
X7233872Y-17084960D01*
X7233872Y-17084960D02*
X7243396Y-17065912D01*
X7243396Y-17065912D02*
X7243396Y-17056389D01*
X7243396Y-17056389D02*
X7233872Y-17037341D01*
X7233872Y-17037341D02*
X7214825Y-17027817D01*
X7214825Y-17027817D02*
X7186253Y-17027817D01*
X7186253Y-17027817D02*
X7167206Y-17018293D01*
X7167206Y-17018293D02*
X7157682Y-16999246D01*
X7157682Y-16999246D02*
X7157682Y-16989722D01*
X7157682Y-16989722D02*
X7167206Y-16970674D01*
X7167206Y-16970674D02*
X7186253Y-16961150D01*
X7186253Y-16961150D02*
X7214825Y-16961150D01*
X7214825Y-16961150D02*
X7233872Y-16970674D01*
X7310063Y-17170674D02*
X7319587Y-17161150D01*
X7319587Y-17161150D02*
X7338634Y-17132579D01*
X7338634Y-17132579D02*
X7348158Y-17113531D01*
X7348158Y-17113531D02*
X7357682Y-17084960D01*
X7357682Y-17084960D02*
X7367206Y-17037341D01*
X7367206Y-17037341D02*
X7367206Y-16999246D01*
X7367206Y-16999246D02*
X7357682Y-16951627D01*
X7357682Y-16951627D02*
X7348158Y-16923055D01*
X7348158Y-16923055D02*
X7338634Y-16904008D01*
X7338634Y-16904008D02*
X7319587Y-16875436D01*
X7319587Y-16875436D02*
X7310063Y-16865912D01*
M02*
