%TF.GenerationSoftware,KiCad,Pcbnew,7.0.9*%
%TF.CreationDate,2024-03-25T15:38:11+01:00*%
%TF.ProjectId,8x-sata-backplane,38782d73-6174-4612-9d62-61636b706c61,rev?*%
%TF.SameCoordinates,Original*%
%TF.FileFunction,Soldermask,Top*%
%TF.FilePolarity,Negative*%
%FSLAX46Y46*%
G04 Gerber Fmt 4.6, Leading zero omitted, Abs format (unit mm)*
G04 Created by KiCad (PCBNEW 7.0.9) date 2024-03-25 15:38:11*
%MOMM*%
%LPD*%
G01*
G04 APERTURE LIST*
G04 Aperture macros list*
%AMRoundRect*
0 Rectangle with rounded corners*
0 $1 Rounding radius*
0 $2 $3 $4 $5 $6 $7 $8 $9 X,Y pos of 4 corners*
0 Add a 4 corners polygon primitive as box body*
4,1,4,$2,$3,$4,$5,$6,$7,$8,$9,$2,$3,0*
0 Add four circle primitives for the rounded corners*
1,1,$1+$1,$2,$3*
1,1,$1+$1,$4,$5*
1,1,$1+$1,$6,$7*
1,1,$1+$1,$8,$9*
0 Add four rect primitives between the rounded corners*
20,1,$1+$1,$2,$3,$4,$5,0*
20,1,$1+$1,$4,$5,$6,$7,0*
20,1,$1+$1,$6,$7,$8,$9,0*
20,1,$1+$1,$8,$9,$2,$3,0*%
G04 Aperture macros list end*
%ADD10C,2.100000*%
%ADD11RoundRect,0.150000X1.752500X-0.150000X1.752500X0.150000X-1.752500X0.150000X-1.752500X-0.150000X0*%
%ADD12RoundRect,0.150000X1.117500X-0.150000X1.117500X0.150000X-1.117500X0.150000X-1.117500X-0.150000X0*%
%ADD13RoundRect,0.150000X1.750000X-0.150000X1.750000X0.150000X-1.750000X0.150000X-1.750000X-0.150000X0*%
%ADD14R,4.445000X2.100000*%
%ADD15C,0.800000*%
%ADD16C,6.400000*%
%ADD17RoundRect,0.550000X0.550000X0.950000X-0.550000X0.950000X-0.550000X-0.950000X0.550000X-0.950000X0*%
%ADD18RoundRect,0.225000X0.225000X0.775000X-0.225000X0.775000X-0.225000X-0.775000X0.225000X-0.775000X0*%
%ADD19C,3.500000*%
%ADD20C,3.200000*%
G04 APERTURE END LIST*
D10*
%TO.C,J7*%
X151483000Y-80757000D03*
X151483000Y-43957000D03*
D11*
X150585500Y-78232000D03*
D12*
X149950500Y-76962000D03*
X149950500Y-75692000D03*
D11*
X150585500Y-74422000D03*
D12*
X149950500Y-73152000D03*
X149950500Y-71882000D03*
D11*
X150585500Y-70612000D03*
D13*
X150583000Y-64262000D03*
X150583000Y-62992000D03*
X150583000Y-61722000D03*
X150583000Y-60452000D03*
X150583000Y-59182000D03*
X150583000Y-57912000D03*
X150583000Y-56642000D03*
X150583000Y-55372000D03*
X150583000Y-54102000D03*
X150583000Y-52832000D03*
X150583000Y-51562000D03*
X150583000Y-50292000D03*
X150583000Y-49022000D03*
X150583000Y-47752000D03*
X150583000Y-46482000D03*
D14*
X150900500Y-83707000D03*
X150900500Y-41007000D03*
%TD*%
D10*
%TO.C,J5*%
X116083000Y-80757000D03*
X116083000Y-43957000D03*
D11*
X115185500Y-78232000D03*
D12*
X114550500Y-76962000D03*
X114550500Y-75692000D03*
D11*
X115185500Y-74422000D03*
D12*
X114550500Y-73152000D03*
X114550500Y-71882000D03*
D11*
X115185500Y-70612000D03*
D13*
X115183000Y-64262000D03*
X115183000Y-62992000D03*
X115183000Y-61722000D03*
X115183000Y-60452000D03*
X115183000Y-59182000D03*
X115183000Y-57912000D03*
X115183000Y-56642000D03*
X115183000Y-55372000D03*
X115183000Y-54102000D03*
X115183000Y-52832000D03*
X115183000Y-51562000D03*
X115183000Y-50292000D03*
X115183000Y-49022000D03*
X115183000Y-47752000D03*
X115183000Y-46482000D03*
D14*
X115500500Y-83707000D03*
X115500500Y-41007000D03*
%TD*%
D10*
%TO.C,J3*%
X80683000Y-80757000D03*
X80683000Y-43957000D03*
D11*
X79785500Y-78232000D03*
D12*
X79150500Y-76962000D03*
X79150500Y-75692000D03*
D11*
X79785500Y-74422000D03*
D12*
X79150500Y-73152000D03*
X79150500Y-71882000D03*
D11*
X79785500Y-70612000D03*
D13*
X79783000Y-64262000D03*
X79783000Y-62992000D03*
X79783000Y-61722000D03*
X79783000Y-60452000D03*
X79783000Y-59182000D03*
X79783000Y-57912000D03*
X79783000Y-56642000D03*
X79783000Y-55372000D03*
X79783000Y-54102000D03*
X79783000Y-52832000D03*
X79783000Y-51562000D03*
X79783000Y-50292000D03*
X79783000Y-49022000D03*
X79783000Y-47752000D03*
X79783000Y-46482000D03*
D14*
X80100500Y-83707000D03*
X80100500Y-41007000D03*
%TD*%
D10*
%TO.C,J1*%
X45283000Y-80757000D03*
X45283000Y-43957000D03*
D11*
X44385500Y-78232000D03*
D12*
X43750500Y-76962000D03*
X43750500Y-75692000D03*
D11*
X44385500Y-74422000D03*
D12*
X43750500Y-73152000D03*
X43750500Y-71882000D03*
D11*
X44385500Y-70612000D03*
D13*
X44383000Y-64262000D03*
X44383000Y-62992000D03*
X44383000Y-61722000D03*
X44383000Y-60452000D03*
X44383000Y-59182000D03*
X44383000Y-57912000D03*
X44383000Y-56642000D03*
X44383000Y-55372000D03*
X44383000Y-54102000D03*
X44383000Y-52832000D03*
X44383000Y-51562000D03*
X44383000Y-50292000D03*
X44383000Y-49022000D03*
X44383000Y-47752000D03*
X44383000Y-46482000D03*
D14*
X44700500Y-83707000D03*
X44700500Y-41007000D03*
%TD*%
D15*
%TO.C,REF\u002A\u002A*%
X57438000Y-144000000D03*
X56735056Y-145697056D03*
X56735056Y-142302944D03*
X55038000Y-146400000D03*
D16*
X55038000Y-144000000D03*
D15*
X55038000Y-141600000D03*
X53340944Y-145697056D03*
X53340944Y-142302944D03*
X52638000Y-144000000D03*
%TD*%
%TO.C,REF\u002A\u002A*%
X123438000Y-144000000D03*
X124140944Y-142302944D03*
X124140944Y-145697056D03*
X125838000Y-141600000D03*
D16*
X125838000Y-144000000D03*
D15*
X125838000Y-146400000D03*
X127535056Y-142302944D03*
X127535056Y-145697056D03*
X128238000Y-144000000D03*
%TD*%
%TO.C,REF\u002A\u002A*%
X141138000Y-29000000D03*
X141840944Y-27302944D03*
X141840944Y-30697056D03*
X143538000Y-26600000D03*
D16*
X143538000Y-29000000D03*
D15*
X143538000Y-31400000D03*
X145235056Y-27302944D03*
X145235056Y-30697056D03*
X145938000Y-29000000D03*
%TD*%
%TO.C,REF\u002A\u002A*%
X34938000Y-29000000D03*
X35640944Y-27302944D03*
X35640944Y-30697056D03*
X37338000Y-26600000D03*
D16*
X37338000Y-29000000D03*
D15*
X37338000Y-31400000D03*
X39035056Y-27302944D03*
X39035056Y-30697056D03*
X39738000Y-29000000D03*
%TD*%
D17*
%TO.C,J2*%
X43708000Y-144038000D03*
X30968000Y-144038000D03*
D18*
X33528000Y-141678000D03*
X34798000Y-141678000D03*
X36068000Y-141678000D03*
X37338000Y-141678000D03*
X38608000Y-141678000D03*
X39878000Y-141678000D03*
X41148000Y-141678000D03*
%TD*%
%TO.C,J6*%
X111948000Y-141678000D03*
X110678000Y-141678000D03*
X109408000Y-141678000D03*
X108138000Y-141678000D03*
X106868000Y-141678000D03*
X105598000Y-141678000D03*
X104328000Y-141678000D03*
D17*
X101768000Y-144038000D03*
X114508000Y-144038000D03*
%TD*%
D18*
%TO.C,J4*%
X76548000Y-141678000D03*
X75278000Y-141678000D03*
X74008000Y-141678000D03*
X72738000Y-141678000D03*
X71468000Y-141678000D03*
X70198000Y-141678000D03*
X68928000Y-141678000D03*
D17*
X66368000Y-144038000D03*
X79108000Y-144038000D03*
%TD*%
D18*
%TO.C,J8*%
X147348000Y-141698000D03*
X146078000Y-141698000D03*
X144808000Y-141698000D03*
X143538000Y-141698000D03*
X142268000Y-141698000D03*
X140998000Y-141698000D03*
X139728000Y-141698000D03*
D17*
X137168000Y-144058000D03*
X149908000Y-144058000D03*
%TD*%
D19*
%TO.C,J9*%
X59882000Y-32004000D03*
X83882000Y-32004000D03*
D20*
X64262000Y-26554000D03*
X69342000Y-26554000D03*
X74422000Y-26554000D03*
X79502000Y-26554000D03*
%TD*%
M02*
