%TF.GenerationSoftware,KiCad,Pcbnew,7.0.9*%
%TF.CreationDate,2024-03-25T15:38:08+01:00*%
%TF.ProjectId,8x-sata-backplane,38782d73-6174-4612-9d62-61636b706c61,rev?*%
%TF.SameCoordinates,Original*%
%TF.FileFunction,Drillmap*%
%TF.FilePolarity,Positive*%
%FSLAX45Y45*%
G04 Gerber Fmt 4.5, Leading zero omitted, Abs format (unit mm)*
G04 Created by KiCad (PCBNEW 7.0.9) date 2024-03-25 15:38:08*
%MOMM*%
%LPD*%
G01*
G04 APERTURE LIST*
%ADD10C,0.100000*%
%ADD11C,0.200000*%
%ADD12C,0.210000*%
G04 APERTURE END LIST*
D10*
X11913400Y-13463600D02*
G75*
G03*
X12013400Y-13563600I100000J0D01*
G01*
X12980000Y-13563600D02*
G75*
G03*
X13080000Y-13463600I0J100000D01*
G01*
X12980000Y-13563600D02*
X12013400Y-13563600D01*
X12013400Y-3886200D02*
G75*
G03*
X11913400Y-3986200I0J-100000D01*
G01*
X11913400Y-13463600D02*
X11913400Y-3986200D01*
X13080000Y-3986200D02*
G75*
G03*
X12980000Y-3886200I-100000J0D01*
G01*
X13080000Y-3986200D02*
X13080000Y-13463600D01*
X12013400Y-3886200D02*
X12980000Y-3886200D01*
X8473400Y-3886200D02*
G75*
G03*
X8373400Y-3986200I0J-100000D01*
G01*
X8373400Y-13463600D02*
G75*
G03*
X8473400Y-13563600I100000J0D01*
G01*
X8373400Y-13463600D02*
X8373400Y-3986200D01*
X9540000Y-3986200D02*
G75*
G03*
X9440000Y-3886200I-100000J0D01*
G01*
X8473400Y-3886200D02*
X9440000Y-3886200D01*
X9440000Y-13563600D02*
G75*
G03*
X9540000Y-13463600I0J100000D01*
G01*
X9440000Y-13563600D02*
X8473400Y-13563600D01*
X9540000Y-3986200D02*
X9540000Y-13463600D01*
X6000000Y-3986200D02*
G75*
G03*
X5900000Y-3886200I-100000J0D01*
G01*
X5900000Y-13563600D02*
G75*
G03*
X6000000Y-13463600I0J100000D01*
G01*
X6000000Y-3986200D02*
X6000000Y-13463600D01*
X4933400Y-3886200D02*
G75*
G03*
X4833400Y-3986200I0J-100000D01*
G01*
X4933400Y-3886200D02*
X5900000Y-3886200D01*
X4833400Y-13463600D02*
G75*
G03*
X4933400Y-13563600I100000J0D01*
G01*
X5900000Y-13563600D02*
X4933400Y-13563600D01*
X4833400Y-13463600D02*
X4833400Y-3986200D01*
X2540000Y-14990000D02*
G75*
G03*
X2790000Y-15240000I250000J0D01*
G01*
X15269400Y-15240000D02*
G75*
G03*
X15519400Y-14990000I0J250000D01*
G01*
X15269400Y-15240000D02*
X2790000Y-15240000D01*
X2790000Y-2340000D02*
G75*
G03*
X2540000Y-2590000I0J-250000D01*
G01*
X2540000Y-14990000D02*
X2540000Y-2590000D01*
X15519400Y-2590000D02*
G75*
G03*
X15269400Y-2340000I-250000J0D01*
G01*
X15519400Y-2590000D02*
X15519400Y-14990000D01*
X2790000Y-2340000D02*
X15269400Y-2340000D01*
D11*
D12*
X4423300Y-4290700D02*
X4633300Y-4500700D01*
X4633300Y-4290700D02*
X4423300Y-4500700D01*
X4423300Y-7970700D02*
X4633300Y-8180700D01*
X4633300Y-7970700D02*
X4423300Y-8180700D01*
X7963300Y-4290700D02*
X8173300Y-4500700D01*
X8173300Y-4290700D02*
X7963300Y-4500700D01*
X7963300Y-7970700D02*
X8173300Y-8180700D01*
X8173300Y-7970700D02*
X7963300Y-8180700D01*
X11503300Y-4290700D02*
X11713300Y-4500700D01*
X11713300Y-4290700D02*
X11503300Y-4500700D01*
X11503300Y-7970700D02*
X11713300Y-8180700D01*
X11713300Y-7970700D02*
X11503300Y-8180700D01*
X15043300Y-4290700D02*
X15253300Y-4500700D01*
X15253300Y-4290700D02*
X15043300Y-4500700D01*
X15043300Y-7970700D02*
X15253300Y-8180700D01*
X15253300Y-7970700D02*
X15043300Y-8180700D01*
D11*
X2795777Y-15556484D02*
X2795777Y-15356484D01*
X2795777Y-15356484D02*
X2843396Y-15356484D01*
X2843396Y-15356484D02*
X2871967Y-15366008D01*
X2871967Y-15366008D02*
X2891015Y-15385055D01*
X2891015Y-15385055D02*
X2900539Y-15404103D01*
X2900539Y-15404103D02*
X2910062Y-15442198D01*
X2910062Y-15442198D02*
X2910062Y-15470769D01*
X2910062Y-15470769D02*
X2900539Y-15508865D01*
X2900539Y-15508865D02*
X2891015Y-15527912D01*
X2891015Y-15527912D02*
X2871967Y-15546960D01*
X2871967Y-15546960D02*
X2843396Y-15556484D01*
X2843396Y-15556484D02*
X2795777Y-15556484D01*
X2995777Y-15556484D02*
X2995777Y-15423150D01*
X2995777Y-15461246D02*
X3005301Y-15442198D01*
X3005301Y-15442198D02*
X3014824Y-15432674D01*
X3014824Y-15432674D02*
X3033872Y-15423150D01*
X3033872Y-15423150D02*
X3052920Y-15423150D01*
X3119586Y-15556484D02*
X3119586Y-15423150D01*
X3119586Y-15356484D02*
X3110062Y-15366008D01*
X3110062Y-15366008D02*
X3119586Y-15375531D01*
X3119586Y-15375531D02*
X3129110Y-15366008D01*
X3129110Y-15366008D02*
X3119586Y-15356484D01*
X3119586Y-15356484D02*
X3119586Y-15375531D01*
X3243396Y-15556484D02*
X3224348Y-15546960D01*
X3224348Y-15546960D02*
X3214824Y-15527912D01*
X3214824Y-15527912D02*
X3214824Y-15356484D01*
X3348158Y-15556484D02*
X3329110Y-15546960D01*
X3329110Y-15546960D02*
X3319586Y-15527912D01*
X3319586Y-15527912D02*
X3319586Y-15356484D01*
X3576729Y-15556484D02*
X3576729Y-15356484D01*
X3576729Y-15356484D02*
X3643396Y-15499341D01*
X3643396Y-15499341D02*
X3710062Y-15356484D01*
X3710062Y-15356484D02*
X3710062Y-15556484D01*
X3891015Y-15556484D02*
X3891015Y-15451722D01*
X3891015Y-15451722D02*
X3881491Y-15432674D01*
X3881491Y-15432674D02*
X3862443Y-15423150D01*
X3862443Y-15423150D02*
X3824348Y-15423150D01*
X3824348Y-15423150D02*
X3805301Y-15432674D01*
X3891015Y-15546960D02*
X3871967Y-15556484D01*
X3871967Y-15556484D02*
X3824348Y-15556484D01*
X3824348Y-15556484D02*
X3805301Y-15546960D01*
X3805301Y-15546960D02*
X3795777Y-15527912D01*
X3795777Y-15527912D02*
X3795777Y-15508865D01*
X3795777Y-15508865D02*
X3805301Y-15489817D01*
X3805301Y-15489817D02*
X3824348Y-15480293D01*
X3824348Y-15480293D02*
X3871967Y-15480293D01*
X3871967Y-15480293D02*
X3891015Y-15470769D01*
X3986253Y-15423150D02*
X3986253Y-15623150D01*
X3986253Y-15432674D02*
X4005301Y-15423150D01*
X4005301Y-15423150D02*
X4043396Y-15423150D01*
X4043396Y-15423150D02*
X4062443Y-15432674D01*
X4062443Y-15432674D02*
X4071967Y-15442198D01*
X4071967Y-15442198D02*
X4081491Y-15461246D01*
X4081491Y-15461246D02*
X4081491Y-15518388D01*
X4081491Y-15518388D02*
X4071967Y-15537436D01*
X4071967Y-15537436D02*
X4062443Y-15546960D01*
X4062443Y-15546960D02*
X4043396Y-15556484D01*
X4043396Y-15556484D02*
X4005301Y-15556484D01*
X4005301Y-15556484D02*
X3986253Y-15546960D01*
X4167205Y-15537436D02*
X4176729Y-15546960D01*
X4176729Y-15546960D02*
X4167205Y-15556484D01*
X4167205Y-15556484D02*
X4157682Y-15546960D01*
X4157682Y-15546960D02*
X4167205Y-15537436D01*
X4167205Y-15537436D02*
X4167205Y-15556484D01*
X4167205Y-15432674D02*
X4176729Y-15442198D01*
X4176729Y-15442198D02*
X4167205Y-15451722D01*
X4167205Y-15451722D02*
X4157682Y-15442198D01*
X4157682Y-15442198D02*
X4167205Y-15432674D01*
X4167205Y-15432674D02*
X4167205Y-15451722D01*
X2335000Y-15785000D02*
X2535000Y-15985000D01*
X2535000Y-15785000D02*
X2335000Y-15985000D01*
X2786253Y-15795531D02*
X2795777Y-15786008D01*
X2795777Y-15786008D02*
X2814824Y-15776484D01*
X2814824Y-15776484D02*
X2862443Y-15776484D01*
X2862443Y-15776484D02*
X2881491Y-15786008D01*
X2881491Y-15786008D02*
X2891015Y-15795531D01*
X2891015Y-15795531D02*
X2900539Y-15814579D01*
X2900539Y-15814579D02*
X2900539Y-15833627D01*
X2900539Y-15833627D02*
X2891015Y-15862198D01*
X2891015Y-15862198D02*
X2776729Y-15976484D01*
X2776729Y-15976484D02*
X2900539Y-15976484D01*
X2986253Y-15957436D02*
X2995777Y-15966960D01*
X2995777Y-15966960D02*
X2986253Y-15976484D01*
X2986253Y-15976484D02*
X2976729Y-15966960D01*
X2976729Y-15966960D02*
X2986253Y-15957436D01*
X2986253Y-15957436D02*
X2986253Y-15976484D01*
X3186253Y-15976484D02*
X3071967Y-15976484D01*
X3129110Y-15976484D02*
X3129110Y-15776484D01*
X3129110Y-15776484D02*
X3110062Y-15805055D01*
X3110062Y-15805055D02*
X3091015Y-15824103D01*
X3091015Y-15824103D02*
X3071967Y-15833627D01*
X3310062Y-15776484D02*
X3329110Y-15776484D01*
X3329110Y-15776484D02*
X3348158Y-15786008D01*
X3348158Y-15786008D02*
X3357682Y-15795531D01*
X3357682Y-15795531D02*
X3367205Y-15814579D01*
X3367205Y-15814579D02*
X3376729Y-15852674D01*
X3376729Y-15852674D02*
X3376729Y-15900293D01*
X3376729Y-15900293D02*
X3367205Y-15938388D01*
X3367205Y-15938388D02*
X3357682Y-15957436D01*
X3357682Y-15957436D02*
X3348158Y-15966960D01*
X3348158Y-15966960D02*
X3329110Y-15976484D01*
X3329110Y-15976484D02*
X3310062Y-15976484D01*
X3310062Y-15976484D02*
X3291015Y-15966960D01*
X3291015Y-15966960D02*
X3281491Y-15957436D01*
X3281491Y-15957436D02*
X3271967Y-15938388D01*
X3271967Y-15938388D02*
X3262443Y-15900293D01*
X3262443Y-15900293D02*
X3262443Y-15852674D01*
X3262443Y-15852674D02*
X3271967Y-15814579D01*
X3271967Y-15814579D02*
X3281491Y-15795531D01*
X3281491Y-15795531D02*
X3291015Y-15786008D01*
X3291015Y-15786008D02*
X3310062Y-15776484D01*
X3500539Y-15776484D02*
X3519586Y-15776484D01*
X3519586Y-15776484D02*
X3538634Y-15786008D01*
X3538634Y-15786008D02*
X3548158Y-15795531D01*
X3548158Y-15795531D02*
X3557682Y-15814579D01*
X3557682Y-15814579D02*
X3567205Y-15852674D01*
X3567205Y-15852674D02*
X3567205Y-15900293D01*
X3567205Y-15900293D02*
X3557682Y-15938388D01*
X3557682Y-15938388D02*
X3548158Y-15957436D01*
X3548158Y-15957436D02*
X3538634Y-15966960D01*
X3538634Y-15966960D02*
X3519586Y-15976484D01*
X3519586Y-15976484D02*
X3500539Y-15976484D01*
X3500539Y-15976484D02*
X3481491Y-15966960D01*
X3481491Y-15966960D02*
X3471967Y-15957436D01*
X3471967Y-15957436D02*
X3462443Y-15938388D01*
X3462443Y-15938388D02*
X3452920Y-15900293D01*
X3452920Y-15900293D02*
X3452920Y-15852674D01*
X3452920Y-15852674D02*
X3462443Y-15814579D01*
X3462443Y-15814579D02*
X3471967Y-15795531D01*
X3471967Y-15795531D02*
X3481491Y-15786008D01*
X3481491Y-15786008D02*
X3500539Y-15776484D01*
X3652920Y-15976484D02*
X3652920Y-15843150D01*
X3652920Y-15862198D02*
X3662443Y-15852674D01*
X3662443Y-15852674D02*
X3681491Y-15843150D01*
X3681491Y-15843150D02*
X3710063Y-15843150D01*
X3710063Y-15843150D02*
X3729110Y-15852674D01*
X3729110Y-15852674D02*
X3738634Y-15871722D01*
X3738634Y-15871722D02*
X3738634Y-15976484D01*
X3738634Y-15871722D02*
X3748158Y-15852674D01*
X3748158Y-15852674D02*
X3767205Y-15843150D01*
X3767205Y-15843150D02*
X3795777Y-15843150D01*
X3795777Y-15843150D02*
X3814824Y-15852674D01*
X3814824Y-15852674D02*
X3824348Y-15871722D01*
X3824348Y-15871722D02*
X3824348Y-15976484D01*
X3919586Y-15976484D02*
X3919586Y-15843150D01*
X3919586Y-15862198D02*
X3929110Y-15852674D01*
X3929110Y-15852674D02*
X3948158Y-15843150D01*
X3948158Y-15843150D02*
X3976729Y-15843150D01*
X3976729Y-15843150D02*
X3995777Y-15852674D01*
X3995777Y-15852674D02*
X4005301Y-15871722D01*
X4005301Y-15871722D02*
X4005301Y-15976484D01*
X4005301Y-15871722D02*
X4014824Y-15852674D01*
X4014824Y-15852674D02*
X4033872Y-15843150D01*
X4033872Y-15843150D02*
X4062443Y-15843150D01*
X4062443Y-15843150D02*
X4081491Y-15852674D01*
X4081491Y-15852674D02*
X4091015Y-15871722D01*
X4091015Y-15871722D02*
X4091015Y-15976484D01*
X4481491Y-15766960D02*
X4310063Y-16024103D01*
X4738634Y-15776484D02*
X4757682Y-15776484D01*
X4757682Y-15776484D02*
X4776729Y-15786008D01*
X4776729Y-15786008D02*
X4786253Y-15795531D01*
X4786253Y-15795531D02*
X4795777Y-15814579D01*
X4795777Y-15814579D02*
X4805301Y-15852674D01*
X4805301Y-15852674D02*
X4805301Y-15900293D01*
X4805301Y-15900293D02*
X4795777Y-15938388D01*
X4795777Y-15938388D02*
X4786253Y-15957436D01*
X4786253Y-15957436D02*
X4776729Y-15966960D01*
X4776729Y-15966960D02*
X4757682Y-15976484D01*
X4757682Y-15976484D02*
X4738634Y-15976484D01*
X4738634Y-15976484D02*
X4719587Y-15966960D01*
X4719587Y-15966960D02*
X4710063Y-15957436D01*
X4710063Y-15957436D02*
X4700539Y-15938388D01*
X4700539Y-15938388D02*
X4691015Y-15900293D01*
X4691015Y-15900293D02*
X4691015Y-15852674D01*
X4691015Y-15852674D02*
X4700539Y-15814579D01*
X4700539Y-15814579D02*
X4710063Y-15795531D01*
X4710063Y-15795531D02*
X4719587Y-15786008D01*
X4719587Y-15786008D02*
X4738634Y-15776484D01*
X4891015Y-15957436D02*
X4900539Y-15966960D01*
X4900539Y-15966960D02*
X4891015Y-15976484D01*
X4891015Y-15976484D02*
X4881491Y-15966960D01*
X4881491Y-15966960D02*
X4891015Y-15957436D01*
X4891015Y-15957436D02*
X4891015Y-15976484D01*
X5024348Y-15776484D02*
X5043396Y-15776484D01*
X5043396Y-15776484D02*
X5062444Y-15786008D01*
X5062444Y-15786008D02*
X5071968Y-15795531D01*
X5071968Y-15795531D02*
X5081491Y-15814579D01*
X5081491Y-15814579D02*
X5091015Y-15852674D01*
X5091015Y-15852674D02*
X5091015Y-15900293D01*
X5091015Y-15900293D02*
X5081491Y-15938388D01*
X5081491Y-15938388D02*
X5071968Y-15957436D01*
X5071968Y-15957436D02*
X5062444Y-15966960D01*
X5062444Y-15966960D02*
X5043396Y-15976484D01*
X5043396Y-15976484D02*
X5024348Y-15976484D01*
X5024348Y-15976484D02*
X5005301Y-15966960D01*
X5005301Y-15966960D02*
X4995777Y-15957436D01*
X4995777Y-15957436D02*
X4986253Y-15938388D01*
X4986253Y-15938388D02*
X4976729Y-15900293D01*
X4976729Y-15900293D02*
X4976729Y-15852674D01*
X4976729Y-15852674D02*
X4986253Y-15814579D01*
X4986253Y-15814579D02*
X4995777Y-15795531D01*
X4995777Y-15795531D02*
X5005301Y-15786008D01*
X5005301Y-15786008D02*
X5024348Y-15776484D01*
X5205301Y-15862198D02*
X5186253Y-15852674D01*
X5186253Y-15852674D02*
X5176729Y-15843150D01*
X5176729Y-15843150D02*
X5167206Y-15824103D01*
X5167206Y-15824103D02*
X5167206Y-15814579D01*
X5167206Y-15814579D02*
X5176729Y-15795531D01*
X5176729Y-15795531D02*
X5186253Y-15786008D01*
X5186253Y-15786008D02*
X5205301Y-15776484D01*
X5205301Y-15776484D02*
X5243396Y-15776484D01*
X5243396Y-15776484D02*
X5262444Y-15786008D01*
X5262444Y-15786008D02*
X5271968Y-15795531D01*
X5271968Y-15795531D02*
X5281491Y-15814579D01*
X5281491Y-15814579D02*
X5281491Y-15824103D01*
X5281491Y-15824103D02*
X5271968Y-15843150D01*
X5271968Y-15843150D02*
X5262444Y-15852674D01*
X5262444Y-15852674D02*
X5243396Y-15862198D01*
X5243396Y-15862198D02*
X5205301Y-15862198D01*
X5205301Y-15862198D02*
X5186253Y-15871722D01*
X5186253Y-15871722D02*
X5176729Y-15881246D01*
X5176729Y-15881246D02*
X5167206Y-15900293D01*
X5167206Y-15900293D02*
X5167206Y-15938388D01*
X5167206Y-15938388D02*
X5176729Y-15957436D01*
X5176729Y-15957436D02*
X5186253Y-15966960D01*
X5186253Y-15966960D02*
X5205301Y-15976484D01*
X5205301Y-15976484D02*
X5243396Y-15976484D01*
X5243396Y-15976484D02*
X5262444Y-15966960D01*
X5262444Y-15966960D02*
X5271968Y-15957436D01*
X5271968Y-15957436D02*
X5281491Y-15938388D01*
X5281491Y-15938388D02*
X5281491Y-15900293D01*
X5281491Y-15900293D02*
X5271968Y-15881246D01*
X5271968Y-15881246D02*
X5262444Y-15871722D01*
X5262444Y-15871722D02*
X5243396Y-15862198D01*
X5357682Y-15795531D02*
X5367206Y-15786008D01*
X5367206Y-15786008D02*
X5386253Y-15776484D01*
X5386253Y-15776484D02*
X5433872Y-15776484D01*
X5433872Y-15776484D02*
X5452920Y-15786008D01*
X5452920Y-15786008D02*
X5462444Y-15795531D01*
X5462444Y-15795531D02*
X5471968Y-15814579D01*
X5471968Y-15814579D02*
X5471968Y-15833627D01*
X5471968Y-15833627D02*
X5462444Y-15862198D01*
X5462444Y-15862198D02*
X5348158Y-15976484D01*
X5348158Y-15976484D02*
X5471968Y-15976484D01*
X5538634Y-15776484D02*
X5671967Y-15776484D01*
X5671967Y-15776484D02*
X5586253Y-15976484D01*
X5738634Y-15776484D02*
X5738634Y-15814579D01*
X5814825Y-15776484D02*
X5814825Y-15814579D01*
X6110063Y-16052674D02*
X6100539Y-16043150D01*
X6100539Y-16043150D02*
X6081491Y-16014579D01*
X6081491Y-16014579D02*
X6071968Y-15995531D01*
X6071968Y-15995531D02*
X6062444Y-15966960D01*
X6062444Y-15966960D02*
X6052920Y-15919341D01*
X6052920Y-15919341D02*
X6052920Y-15881246D01*
X6052920Y-15881246D02*
X6062444Y-15833627D01*
X6062444Y-15833627D02*
X6071968Y-15805055D01*
X6071968Y-15805055D02*
X6081491Y-15786008D01*
X6081491Y-15786008D02*
X6100539Y-15757436D01*
X6100539Y-15757436D02*
X6110063Y-15747912D01*
X6214825Y-15862198D02*
X6195777Y-15852674D01*
X6195777Y-15852674D02*
X6186253Y-15843150D01*
X6186253Y-15843150D02*
X6176729Y-15824103D01*
X6176729Y-15824103D02*
X6176729Y-15814579D01*
X6176729Y-15814579D02*
X6186253Y-15795531D01*
X6186253Y-15795531D02*
X6195777Y-15786008D01*
X6195777Y-15786008D02*
X6214825Y-15776484D01*
X6214825Y-15776484D02*
X6252920Y-15776484D01*
X6252920Y-15776484D02*
X6271968Y-15786008D01*
X6271968Y-15786008D02*
X6281491Y-15795531D01*
X6281491Y-15795531D02*
X6291015Y-15814579D01*
X6291015Y-15814579D02*
X6291015Y-15824103D01*
X6291015Y-15824103D02*
X6281491Y-15843150D01*
X6281491Y-15843150D02*
X6271968Y-15852674D01*
X6271968Y-15852674D02*
X6252920Y-15862198D01*
X6252920Y-15862198D02*
X6214825Y-15862198D01*
X6214825Y-15862198D02*
X6195777Y-15871722D01*
X6195777Y-15871722D02*
X6186253Y-15881246D01*
X6186253Y-15881246D02*
X6176729Y-15900293D01*
X6176729Y-15900293D02*
X6176729Y-15938388D01*
X6176729Y-15938388D02*
X6186253Y-15957436D01*
X6186253Y-15957436D02*
X6195777Y-15966960D01*
X6195777Y-15966960D02*
X6214825Y-15976484D01*
X6214825Y-15976484D02*
X6252920Y-15976484D01*
X6252920Y-15976484D02*
X6271968Y-15966960D01*
X6271968Y-15966960D02*
X6281491Y-15957436D01*
X6281491Y-15957436D02*
X6291015Y-15938388D01*
X6291015Y-15938388D02*
X6291015Y-15900293D01*
X6291015Y-15900293D02*
X6281491Y-15881246D01*
X6281491Y-15881246D02*
X6271968Y-15871722D01*
X6271968Y-15871722D02*
X6252920Y-15862198D01*
X6529110Y-15976484D02*
X6529110Y-15776484D01*
X6614825Y-15976484D02*
X6614825Y-15871722D01*
X6614825Y-15871722D02*
X6605301Y-15852674D01*
X6605301Y-15852674D02*
X6586253Y-15843150D01*
X6586253Y-15843150D02*
X6557682Y-15843150D01*
X6557682Y-15843150D02*
X6538634Y-15852674D01*
X6538634Y-15852674D02*
X6529110Y-15862198D01*
X6738634Y-15976484D02*
X6719587Y-15966960D01*
X6719587Y-15966960D02*
X6710063Y-15957436D01*
X6710063Y-15957436D02*
X6700539Y-15938388D01*
X6700539Y-15938388D02*
X6700539Y-15881246D01*
X6700539Y-15881246D02*
X6710063Y-15862198D01*
X6710063Y-15862198D02*
X6719587Y-15852674D01*
X6719587Y-15852674D02*
X6738634Y-15843150D01*
X6738634Y-15843150D02*
X6767206Y-15843150D01*
X6767206Y-15843150D02*
X6786253Y-15852674D01*
X6786253Y-15852674D02*
X6795777Y-15862198D01*
X6795777Y-15862198D02*
X6805301Y-15881246D01*
X6805301Y-15881246D02*
X6805301Y-15938388D01*
X6805301Y-15938388D02*
X6795777Y-15957436D01*
X6795777Y-15957436D02*
X6786253Y-15966960D01*
X6786253Y-15966960D02*
X6767206Y-15976484D01*
X6767206Y-15976484D02*
X6738634Y-15976484D01*
X6919587Y-15976484D02*
X6900539Y-15966960D01*
X6900539Y-15966960D02*
X6891015Y-15947912D01*
X6891015Y-15947912D02*
X6891015Y-15776484D01*
X7071968Y-15966960D02*
X7052920Y-15976484D01*
X7052920Y-15976484D02*
X7014825Y-15976484D01*
X7014825Y-15976484D02*
X6995777Y-15966960D01*
X6995777Y-15966960D02*
X6986253Y-15947912D01*
X6986253Y-15947912D02*
X6986253Y-15871722D01*
X6986253Y-15871722D02*
X6995777Y-15852674D01*
X6995777Y-15852674D02*
X7014825Y-15843150D01*
X7014825Y-15843150D02*
X7052920Y-15843150D01*
X7052920Y-15843150D02*
X7071968Y-15852674D01*
X7071968Y-15852674D02*
X7081491Y-15871722D01*
X7081491Y-15871722D02*
X7081491Y-15890769D01*
X7081491Y-15890769D02*
X6986253Y-15909817D01*
X7157682Y-15966960D02*
X7176730Y-15976484D01*
X7176730Y-15976484D02*
X7214825Y-15976484D01*
X7214825Y-15976484D02*
X7233872Y-15966960D01*
X7233872Y-15966960D02*
X7243396Y-15947912D01*
X7243396Y-15947912D02*
X7243396Y-15938388D01*
X7243396Y-15938388D02*
X7233872Y-15919341D01*
X7233872Y-15919341D02*
X7214825Y-15909817D01*
X7214825Y-15909817D02*
X7186253Y-15909817D01*
X7186253Y-15909817D02*
X7167206Y-15900293D01*
X7167206Y-15900293D02*
X7157682Y-15881246D01*
X7157682Y-15881246D02*
X7157682Y-15871722D01*
X7157682Y-15871722D02*
X7167206Y-15852674D01*
X7167206Y-15852674D02*
X7186253Y-15843150D01*
X7186253Y-15843150D02*
X7214825Y-15843150D01*
X7214825Y-15843150D02*
X7233872Y-15852674D01*
X7310063Y-16052674D02*
X7319587Y-16043150D01*
X7319587Y-16043150D02*
X7338634Y-16014579D01*
X7338634Y-16014579D02*
X7348158Y-15995531D01*
X7348158Y-15995531D02*
X7357682Y-15966960D01*
X7357682Y-15966960D02*
X7367206Y-15919341D01*
X7367206Y-15919341D02*
X7367206Y-15881246D01*
X7367206Y-15881246D02*
X7357682Y-15833627D01*
X7357682Y-15833627D02*
X7348158Y-15805055D01*
X7348158Y-15805055D02*
X7338634Y-15786008D01*
X7338634Y-15786008D02*
X7319587Y-15757436D01*
X7319587Y-15757436D02*
X7310063Y-15747912D01*
X7671968Y-16052674D02*
X7662444Y-16043150D01*
X7662444Y-16043150D02*
X7643396Y-16014579D01*
X7643396Y-16014579D02*
X7633872Y-15995531D01*
X7633872Y-15995531D02*
X7624349Y-15966960D01*
X7624349Y-15966960D02*
X7614825Y-15919341D01*
X7614825Y-15919341D02*
X7614825Y-15881246D01*
X7614825Y-15881246D02*
X7624349Y-15833627D01*
X7624349Y-15833627D02*
X7633872Y-15805055D01*
X7633872Y-15805055D02*
X7643396Y-15786008D01*
X7643396Y-15786008D02*
X7662444Y-15757436D01*
X7662444Y-15757436D02*
X7671968Y-15747912D01*
X7748158Y-15843150D02*
X7748158Y-15976484D01*
X7748158Y-15862198D02*
X7757682Y-15852674D01*
X7757682Y-15852674D02*
X7776730Y-15843150D01*
X7776730Y-15843150D02*
X7805301Y-15843150D01*
X7805301Y-15843150D02*
X7824349Y-15852674D01*
X7824349Y-15852674D02*
X7833872Y-15871722D01*
X7833872Y-15871722D02*
X7833872Y-15976484D01*
X7957682Y-15976484D02*
X7938634Y-15966960D01*
X7938634Y-15966960D02*
X7929111Y-15957436D01*
X7929111Y-15957436D02*
X7919587Y-15938388D01*
X7919587Y-15938388D02*
X7919587Y-15881246D01*
X7919587Y-15881246D02*
X7929111Y-15862198D01*
X7929111Y-15862198D02*
X7938634Y-15852674D01*
X7938634Y-15852674D02*
X7957682Y-15843150D01*
X7957682Y-15843150D02*
X7986253Y-15843150D01*
X7986253Y-15843150D02*
X8005301Y-15852674D01*
X8005301Y-15852674D02*
X8014825Y-15862198D01*
X8014825Y-15862198D02*
X8024349Y-15881246D01*
X8024349Y-15881246D02*
X8024349Y-15938388D01*
X8024349Y-15938388D02*
X8014825Y-15957436D01*
X8014825Y-15957436D02*
X8005301Y-15966960D01*
X8005301Y-15966960D02*
X7986253Y-15976484D01*
X7986253Y-15976484D02*
X7957682Y-15976484D01*
X8081492Y-15843150D02*
X8157682Y-15843150D01*
X8110063Y-15776484D02*
X8110063Y-15947912D01*
X8110063Y-15947912D02*
X8119587Y-15966960D01*
X8119587Y-15966960D02*
X8138634Y-15976484D01*
X8138634Y-15976484D02*
X8157682Y-15976484D01*
X8376730Y-15843150D02*
X8376730Y-16043150D01*
X8376730Y-15852674D02*
X8395777Y-15843150D01*
X8395777Y-15843150D02*
X8433873Y-15843150D01*
X8433873Y-15843150D02*
X8452920Y-15852674D01*
X8452920Y-15852674D02*
X8462444Y-15862198D01*
X8462444Y-15862198D02*
X8471968Y-15881246D01*
X8471968Y-15881246D02*
X8471968Y-15938388D01*
X8471968Y-15938388D02*
X8462444Y-15957436D01*
X8462444Y-15957436D02*
X8452920Y-15966960D01*
X8452920Y-15966960D02*
X8433873Y-15976484D01*
X8433873Y-15976484D02*
X8395777Y-15976484D01*
X8395777Y-15976484D02*
X8376730Y-15966960D01*
X8586254Y-15976484D02*
X8567206Y-15966960D01*
X8567206Y-15966960D02*
X8557682Y-15947912D01*
X8557682Y-15947912D02*
X8557682Y-15776484D01*
X8748158Y-15976484D02*
X8748158Y-15871722D01*
X8748158Y-15871722D02*
X8738635Y-15852674D01*
X8738635Y-15852674D02*
X8719587Y-15843150D01*
X8719587Y-15843150D02*
X8681492Y-15843150D01*
X8681492Y-15843150D02*
X8662444Y-15852674D01*
X8748158Y-15966960D02*
X8729111Y-15976484D01*
X8729111Y-15976484D02*
X8681492Y-15976484D01*
X8681492Y-15976484D02*
X8662444Y-15966960D01*
X8662444Y-15966960D02*
X8652920Y-15947912D01*
X8652920Y-15947912D02*
X8652920Y-15928865D01*
X8652920Y-15928865D02*
X8662444Y-15909817D01*
X8662444Y-15909817D02*
X8681492Y-15900293D01*
X8681492Y-15900293D02*
X8729111Y-15900293D01*
X8729111Y-15900293D02*
X8748158Y-15890769D01*
X8814825Y-15843150D02*
X8891015Y-15843150D01*
X8843396Y-15776484D02*
X8843396Y-15947912D01*
X8843396Y-15947912D02*
X8852920Y-15966960D01*
X8852920Y-15966960D02*
X8871968Y-15976484D01*
X8871968Y-15976484D02*
X8891015Y-15976484D01*
X9033873Y-15966960D02*
X9014825Y-15976484D01*
X9014825Y-15976484D02*
X8976730Y-15976484D01*
X8976730Y-15976484D02*
X8957682Y-15966960D01*
X8957682Y-15966960D02*
X8948158Y-15947912D01*
X8948158Y-15947912D02*
X8948158Y-15871722D01*
X8948158Y-15871722D02*
X8957682Y-15852674D01*
X8957682Y-15852674D02*
X8976730Y-15843150D01*
X8976730Y-15843150D02*
X9014825Y-15843150D01*
X9014825Y-15843150D02*
X9033873Y-15852674D01*
X9033873Y-15852674D02*
X9043396Y-15871722D01*
X9043396Y-15871722D02*
X9043396Y-15890769D01*
X9043396Y-15890769D02*
X8948158Y-15909817D01*
X9214825Y-15976484D02*
X9214825Y-15776484D01*
X9214825Y-15966960D02*
X9195777Y-15976484D01*
X9195777Y-15976484D02*
X9157682Y-15976484D01*
X9157682Y-15976484D02*
X9138635Y-15966960D01*
X9138635Y-15966960D02*
X9129111Y-15957436D01*
X9129111Y-15957436D02*
X9119587Y-15938388D01*
X9119587Y-15938388D02*
X9119587Y-15881246D01*
X9119587Y-15881246D02*
X9129111Y-15862198D01*
X9129111Y-15862198D02*
X9138635Y-15852674D01*
X9138635Y-15852674D02*
X9157682Y-15843150D01*
X9157682Y-15843150D02*
X9195777Y-15843150D01*
X9195777Y-15843150D02*
X9214825Y-15852674D01*
X9291016Y-16052674D02*
X9300539Y-16043150D01*
X9300539Y-16043150D02*
X9319587Y-16014579D01*
X9319587Y-16014579D02*
X9329111Y-15995531D01*
X9329111Y-15995531D02*
X9338635Y-15966960D01*
X9338635Y-15966960D02*
X9348158Y-15919341D01*
X9348158Y-15919341D02*
X9348158Y-15881246D01*
X9348158Y-15881246D02*
X9338635Y-15833627D01*
X9338635Y-15833627D02*
X9329111Y-15805055D01*
X9329111Y-15805055D02*
X9319587Y-15786008D01*
X9319587Y-15786008D02*
X9300539Y-15757436D01*
X9300539Y-15757436D02*
X9291016Y-15747912D01*
M02*
