M48
; DRILL file {KiCad 7.0.9} date 
; FORMAT={-:-/ absolute / inch / decimal}
; #@! TF.CreationDate,2024-03-25T15:38:09+01:00
; #@! TF.GenerationSoftware,Kicad,Pcbnew,7.0.9
; #@! TF.FileFunction,Plated,1,4,PTH
FMAT,2
INCH
; #@! TA.AperFunction,Plated,PTH,ViaDrill
T1C0.0157
; #@! TA.AperFunction,Plated,PTH,ComponentDrill
T2C0.0197
; #@! TA.AperFunction,Plated,PTH,ComponentDrill
T3C0.0591
; #@! TA.AperFunction,Plated,PTH,ComponentDrill
T4C0.0906
; #@! TA.AperFunction,Plated,PTH,ComponentDrill
T5C0.1260
%
G90
G05
T1
X1.32Y-5.5208
X1.47Y-5.5208
X1.58Y-1.83
X1.58Y-1.88
X1.58Y-1.93
X1.58Y-1.98
X1.58Y-2.03
X1.58Y-2.08
X1.58Y-2.13
X1.58Y-2.18
X1.58Y-2.23
X1.58Y-2.28
X1.58Y-2.33
X1.58Y-2.38
X1.62Y-1.83
X1.62Y-1.88
X1.62Y-1.931
X1.62Y-1.981
X1.62Y-2.031
X1.62Y-2.081
X1.62Y-2.13
X1.62Y-2.181
X1.62Y-2.23
X1.62Y-2.28
X1.62Y-2.33
X1.62Y-2.381
X1.62Y-5.5208
X1.65Y-2.78
X1.65Y-2.93
X1.65Y-3.08
X2.7137Y-5.5208
X2.8637Y-5.5208
X2.98Y-1.83
X2.98Y-1.88
X2.98Y-1.93
X2.98Y-1.98
X2.98Y-2.03
X2.98Y-2.08
X2.98Y-2.13
X2.98Y-2.18
X2.98Y-2.23
X2.98Y-2.28
X2.98Y-2.33
X2.98Y-2.38
X3.0137Y-5.5208
X3.02Y-1.83
X3.02Y-1.88
X3.02Y-1.93
X3.02Y-1.98
X3.02Y-2.03
X3.02Y-2.08
X3.02Y-2.13
X3.02Y-2.18
X3.02Y-2.23
X3.02Y-2.28
X3.02Y-2.33
X3.02Y-2.38
X3.05Y-2.78
X3.05Y-2.93
X3.05Y-3.08
X4.1074Y-5.5208
X4.2574Y-5.5208
X4.37Y-1.83
X4.37Y-1.88
X4.37Y-1.93
X4.37Y-1.98
X4.37Y-2.03
X4.37Y-2.08
X4.37Y-2.13
X4.37Y-2.18
X4.37Y-2.23
X4.37Y-2.28
X4.37Y-2.33
X4.37Y-2.38
X4.4074Y-5.5208
X4.41Y-1.83
X4.41Y-1.88
X4.41Y-1.93
X4.41Y-1.98
X4.41Y-2.03
X4.41Y-2.08
X4.41Y-2.13
X4.41Y-2.18
X4.41Y-2.23
X4.41Y-2.28
X4.41Y-2.33
X4.41Y-2.38
X4.44Y-2.78
X4.44Y-2.93
X4.44Y-3.08
X5.5011Y-5.5208
X5.6511Y-5.5208
X5.77Y-1.83
X5.77Y-1.88
X5.77Y-1.93
X5.77Y-1.98
X5.77Y-2.03
X5.77Y-2.08
X5.77Y-2.13
X5.77Y-2.18
X5.77Y-2.23
X5.77Y-2.28
X5.77Y-2.33
X5.77Y-2.38
X5.8011Y-5.5208
X5.81Y-1.83
X5.81Y-1.88
X5.81Y-1.93
X5.81Y-1.98
X5.81Y-2.03
X5.81Y-2.08
X5.81Y-2.13
X5.81Y-2.18
X5.81Y-2.23
X5.81Y-2.28
X5.81Y-2.33
X5.81Y-2.38
X5.83Y-2.78
X5.83Y-2.93
X5.83Y-3.08
T2
X1.3755Y-1.1417
X1.4032Y-1.0749
X1.4032Y-1.2085
X1.47Y-1.0472
X1.47Y-1.2362
X1.5368Y-1.0749
X1.5368Y-1.2085
X1.5645Y-1.1417
X2.0724Y-5.6693
X2.1Y-5.6025
X2.1Y-5.7361
X2.1669Y-5.5748
X2.1669Y-5.7638
X2.2337Y-5.6025
X2.2337Y-5.7361
X2.2613Y-5.6693
X4.8598Y-5.6693
X4.8874Y-5.6025
X4.8874Y-5.7361
X4.9543Y-5.5748
X4.9543Y-5.7638
X5.0211Y-5.6025
X5.0211Y-5.7361
X5.0487Y-5.6693
X5.5566Y-1.1417
X5.5843Y-1.0749
X5.5843Y-1.2085
X5.6511Y-1.0472
X5.6511Y-1.2362
X5.7179Y-1.0749
X5.7179Y-1.2085
X5.7456Y-1.1417
T3
X1.2192Y-5.6708
X1.7208Y-5.6708
X2.53Y-1.0454
X2.6129Y-5.6708
X2.73Y-1.0454
X2.93Y-1.0454
X3.1145Y-5.6708
X3.13Y-1.0454
X4.0066Y-5.6708
X4.5082Y-5.6708
X5.4003Y-5.6716
X5.9019Y-5.6716
T4
X2.3576Y-1.26
X3.3024Y-1.26
T5
X1.47Y-1.1417
X2.1669Y-5.6693
X4.9543Y-5.6693
X5.6511Y-1.1417
T0
M30
