%TF.GenerationSoftware,KiCad,Pcbnew,7.0.9*%
%TF.CreationDate,2024-03-30T19:36:49+01:00*%
%TF.ProjectId,8x-sata-backplane,38782d73-6174-4612-9d62-61636b706c61,rev?*%
%TF.SameCoordinates,Original*%
%TF.FileFunction,Soldermask,Top*%
%TF.FilePolarity,Negative*%
%FSLAX46Y46*%
G04 Gerber Fmt 4.6, Leading zero omitted, Abs format (unit mm)*
G04 Created by KiCad (PCBNEW 7.0.9) date 2024-03-30 19:36:49*
%MOMM*%
%LPD*%
G01*
G04 APERTURE LIST*
G04 Aperture macros list*
%AMRoundRect*
0 Rectangle with rounded corners*
0 $1 Rounding radius*
0 $2 $3 $4 $5 $6 $7 $8 $9 X,Y pos of 4 corners*
0 Add a 4 corners polygon primitive as box body*
4,1,4,$2,$3,$4,$5,$6,$7,$8,$9,$2,$3,0*
0 Add four circle primitives for the rounded corners*
1,1,$1+$1,$2,$3*
1,1,$1+$1,$4,$5*
1,1,$1+$1,$6,$7*
1,1,$1+$1,$8,$9*
0 Add four rect primitives between the rounded corners*
20,1,$1+$1,$2,$3,$4,$5,0*
20,1,$1+$1,$4,$5,$6,$7,0*
20,1,$1+$1,$6,$7,$8,$9,0*
20,1,$1+$1,$8,$9,$2,$3,0*%
G04 Aperture macros list end*
%ADD10C,2.300000*%
%ADD11C,3.200000*%
%ADD12C,2.100000*%
%ADD13RoundRect,0.112500X1.790000X-0.112500X1.790000X0.112500X-1.790000X0.112500X-1.790000X-0.112500X0*%
%ADD14RoundRect,0.112500X1.155000X-0.112500X1.155000X0.112500X-1.155000X0.112500X-1.155000X-0.112500X0*%
%ADD15RoundRect,0.150000X1.750000X-0.150000X1.750000X0.150000X-1.750000X0.150000X-1.750000X-0.150000X0*%
%ADD16R,4.445000X2.100000*%
%ADD17RoundRect,0.225000X0.225000X0.775000X-0.225000X0.775000X-0.225000X-0.775000X0.225000X-0.775000X0*%
%ADD18RoundRect,0.150000X0.150000X0.850000X-0.150000X0.850000X-0.150000X-0.850000X0.150000X-0.850000X0*%
%ADD19RoundRect,0.550000X0.550000X0.950000X-0.550000X0.950000X-0.550000X-0.950000X0.550000X-0.950000X0*%
%ADD20RoundRect,0.250000X0.262500X0.450000X-0.262500X0.450000X-0.262500X-0.450000X0.262500X-0.450000X0*%
%ADD21RoundRect,0.218750X0.256250X-0.218750X0.256250X0.218750X-0.256250X0.218750X-0.256250X-0.218750X0*%
%ADD22RoundRect,0.150000X0.150000X-0.587500X0.150000X0.587500X-0.150000X0.587500X-0.150000X-0.587500X0*%
%ADD23RoundRect,0.250000X-0.262500X-0.450000X0.262500X-0.450000X0.262500X0.450000X-0.262500X0.450000X0*%
G04 APERTURE END LIST*
D10*
%TO.C,J9*%
X59882000Y-32004000D03*
X83882000Y-32004000D03*
D11*
X79502000Y-26554000D03*
X74422000Y-26554000D03*
X69342000Y-26554000D03*
X64262000Y-26554000D03*
%TD*%
D12*
%TO.C,J7*%
X151483000Y-82535000D03*
X151483000Y-45735000D03*
D13*
X150585500Y-80010000D03*
D14*
X149950500Y-78740000D03*
X149950500Y-77470000D03*
D13*
X150585500Y-76200000D03*
D14*
X149950500Y-74930000D03*
X149950500Y-73660000D03*
D13*
X150585500Y-72390000D03*
D15*
X150583000Y-66040000D03*
X150583000Y-64770000D03*
X150583000Y-63500000D03*
X150583000Y-62230000D03*
X150583000Y-60960000D03*
X150583000Y-59690000D03*
X150583000Y-58420000D03*
X150583000Y-57150000D03*
X150583000Y-55880000D03*
X150583000Y-54610000D03*
X150583000Y-53340000D03*
X150583000Y-52070000D03*
X150583000Y-50800000D03*
X150583000Y-49530000D03*
X150583000Y-48260000D03*
D16*
X150900500Y-85485000D03*
X150900500Y-42785000D03*
%TD*%
D17*
%TO.C,J6*%
X111948000Y-141678000D03*
D18*
X110678000Y-141678000D03*
X109408000Y-141678000D03*
D17*
X108138000Y-141678000D03*
D18*
X106868000Y-141678000D03*
X105598000Y-141678000D03*
D17*
X104328000Y-141678000D03*
D19*
X101768000Y-144038000D03*
X114508000Y-144038000D03*
%TD*%
D12*
%TO.C,J1*%
X45283000Y-82535000D03*
X45283000Y-45735000D03*
D13*
X44385500Y-80010000D03*
D14*
X43750500Y-78740000D03*
X43750500Y-77470000D03*
D13*
X44385500Y-76200000D03*
D14*
X43750500Y-74930000D03*
X43750500Y-73660000D03*
D13*
X44385500Y-72390000D03*
D15*
X44383000Y-66040000D03*
X44383000Y-64770000D03*
X44383000Y-63500000D03*
X44383000Y-62230000D03*
X44383000Y-60960000D03*
X44383000Y-59690000D03*
X44383000Y-58420000D03*
X44383000Y-57150000D03*
X44383000Y-55880000D03*
X44383000Y-54610000D03*
X44383000Y-53340000D03*
X44383000Y-52070000D03*
X44383000Y-50800000D03*
X44383000Y-49530000D03*
X44383000Y-48260000D03*
D16*
X44700500Y-85485000D03*
X44700500Y-42785000D03*
%TD*%
D20*
%TO.C,R11*%
X145645500Y-35052000D03*
X147470500Y-35052000D03*
%TD*%
D11*
%TO.C,REF\u002A\u002A*%
X125838000Y-144000000D03*
%TD*%
D17*
%TO.C,J4*%
X76548000Y-141678000D03*
D18*
X75278000Y-141678000D03*
X74008000Y-141678000D03*
D17*
X72738000Y-141678000D03*
D18*
X71468000Y-141678000D03*
X70198000Y-141678000D03*
D17*
X68928000Y-141678000D03*
D19*
X66368000Y-144038000D03*
X79108000Y-144038000D03*
%TD*%
D21*
%TO.C,D3*%
X119380000Y-37871500D03*
X119380000Y-36296500D03*
%TD*%
%TO.C,D4*%
X154686000Y-37363500D03*
X154686000Y-35788500D03*
%TD*%
D22*
%TO.C,Q3*%
X113858000Y-36751500D03*
X115758000Y-36751500D03*
X114808000Y-34876500D03*
%TD*%
D20*
%TO.C,R12*%
X151026500Y-38862000D03*
X149201500Y-38862000D03*
%TD*%
D23*
%TO.C,R4*%
X74779500Y-37084000D03*
X76604500Y-37084000D03*
%TD*%
D22*
%TO.C,Q1*%
X42992000Y-36751500D03*
X44892000Y-36751500D03*
X43942000Y-34876500D03*
%TD*%
D11*
%TO.C,REF\u002A\u002A*%
X143538000Y-28000000D03*
%TD*%
D21*
%TO.C,D2*%
X83820000Y-37871500D03*
X83820000Y-36296500D03*
%TD*%
D20*
%TO.C,R2*%
X41298500Y-35052000D03*
X39473500Y-35052000D03*
%TD*%
%TO.C,R9*%
X115720500Y-38862000D03*
X113895500Y-38862000D03*
%TD*%
D11*
%TO.C,REF\u002A\u002A*%
X55038000Y-144000000D03*
%TD*%
D12*
%TO.C,J5*%
X116083000Y-82535000D03*
X116083000Y-45735000D03*
D13*
X115185500Y-80010000D03*
D14*
X114550500Y-78740000D03*
X114550500Y-77470000D03*
D13*
X115185500Y-76200000D03*
D14*
X114550500Y-74930000D03*
X114550500Y-73660000D03*
D13*
X115185500Y-72390000D03*
D15*
X115183000Y-66040000D03*
X115183000Y-64770000D03*
X115183000Y-63500000D03*
X115183000Y-62230000D03*
X115183000Y-60960000D03*
X115183000Y-59690000D03*
X115183000Y-58420000D03*
X115183000Y-57150000D03*
X115183000Y-55880000D03*
X115183000Y-54610000D03*
X115183000Y-53340000D03*
X115183000Y-52070000D03*
X115183000Y-50800000D03*
X115183000Y-49530000D03*
X115183000Y-48260000D03*
D16*
X115500500Y-85485000D03*
X115500500Y-42785000D03*
%TD*%
D20*
%TO.C,R5*%
X76604500Y-35052000D03*
X74779500Y-35052000D03*
%TD*%
D22*
%TO.C,Q4*%
X149164000Y-36751500D03*
X151064000Y-36751500D03*
X150114000Y-34876500D03*
%TD*%
D20*
%TO.C,R8*%
X112164500Y-35052000D03*
X110339500Y-35052000D03*
%TD*%
D23*
%TO.C,R7*%
X110339500Y-37084000D03*
X112164500Y-37084000D03*
%TD*%
D20*
%TO.C,R3*%
X44854500Y-38862000D03*
X43029500Y-38862000D03*
%TD*%
D17*
%TO.C,J8*%
X147348000Y-141698000D03*
D18*
X146078000Y-141698000D03*
X144808000Y-141698000D03*
D17*
X143538000Y-141698000D03*
D18*
X142268000Y-141698000D03*
X140998000Y-141698000D03*
D17*
X139728000Y-141698000D03*
D19*
X137168000Y-144058000D03*
X149908000Y-144058000D03*
%TD*%
D22*
%TO.C,Q2*%
X78298000Y-36751500D03*
X80198000Y-36751500D03*
X79248000Y-34876500D03*
%TD*%
D20*
%TO.C,R6*%
X80160500Y-38862000D03*
X78335500Y-38862000D03*
%TD*%
D21*
%TO.C,D1*%
X48514000Y-37871500D03*
X48514000Y-36296500D03*
%TD*%
D11*
%TO.C,REF\u002A\u002A*%
X37338000Y-28000000D03*
%TD*%
D23*
%TO.C,R10*%
X145645500Y-37084000D03*
X147470500Y-37084000D03*
%TD*%
%TO.C,R1*%
X41298500Y-37084000D03*
X39473500Y-37084000D03*
%TD*%
D17*
%TO.C,J2*%
X41148000Y-141678000D03*
D18*
X39878000Y-141678000D03*
X38608000Y-141678000D03*
D17*
X37338000Y-141678000D03*
D18*
X36068000Y-141678000D03*
X34798000Y-141678000D03*
D17*
X33528000Y-141678000D03*
D19*
X30968000Y-144038000D03*
X43708000Y-144038000D03*
%TD*%
D12*
%TO.C,J3*%
X80683000Y-82535000D03*
X80683000Y-45735000D03*
D13*
X79785500Y-80010000D03*
D14*
X79150500Y-78740000D03*
X79150500Y-77470000D03*
D13*
X79785500Y-76200000D03*
D14*
X79150500Y-74930000D03*
X79150500Y-73660000D03*
D13*
X79785500Y-72390000D03*
D15*
X79783000Y-66040000D03*
X79783000Y-64770000D03*
X79783000Y-63500000D03*
X79783000Y-62230000D03*
X79783000Y-60960000D03*
X79783000Y-59690000D03*
X79783000Y-58420000D03*
X79783000Y-57150000D03*
X79783000Y-55880000D03*
X79783000Y-54610000D03*
X79783000Y-53340000D03*
X79783000Y-52070000D03*
X79783000Y-50800000D03*
X79783000Y-49530000D03*
X79783000Y-48260000D03*
D16*
X80100500Y-85485000D03*
X80100500Y-42785000D03*
%TD*%
M02*
