%TF.GenerationSoftware,KiCad,Pcbnew,7.0.9*%
%TF.CreationDate,2024-03-30T19:36:48+01:00*%
%TF.ProjectId,8x-sata-backplane,38782d73-6174-4612-9d62-61636b706c61,rev?*%
%TF.SameCoordinates,Original*%
%TF.FileFunction,Copper,L2,Inr*%
%TF.FilePolarity,Positive*%
%FSLAX46Y46*%
G04 Gerber Fmt 4.6, Leading zero omitted, Abs format (unit mm)*
G04 Created by KiCad (PCBNEW 7.0.9) date 2024-03-30 19:36:48*
%MOMM*%
%LPD*%
G01*
G04 APERTURE LIST*
G04 Aperture macros list*
%AMRoundRect*
0 Rectangle with rounded corners*
0 $1 Rounding radius*
0 $2 $3 $4 $5 $6 $7 $8 $9 X,Y pos of 4 corners*
0 Add a 4 corners polygon primitive as box body*
4,1,4,$2,$3,$4,$5,$6,$7,$8,$9,$2,$3,0*
0 Add four circle primitives for the rounded corners*
1,1,$1+$1,$2,$3*
1,1,$1+$1,$4,$5*
1,1,$1+$1,$6,$7*
1,1,$1+$1,$8,$9*
0 Add four rect primitives between the rounded corners*
20,1,$1+$1,$2,$3,$4,$5,0*
20,1,$1+$1,$4,$5,$6,$7,0*
20,1,$1+$1,$6,$7,$8,$9,0*
20,1,$1+$1,$8,$9,$2,$3,0*%
G04 Aperture macros list end*
%TA.AperFunction,ComponentPad*%
%ADD10C,3.200000*%
%TD*%
%TA.AperFunction,ComponentPad*%
%ADD11RoundRect,0.550000X0.550000X0.950000X-0.550000X0.950000X-0.550000X-0.950000X0.550000X-0.950000X0*%
%TD*%
%TA.AperFunction,ViaPad*%
%ADD12C,0.800000*%
%TD*%
G04 APERTURE END LIST*
D10*
%TO.N,12V*%
%TO.C,J9*%
X79502000Y-26554000D03*
%TO.N,GND*%
X74422000Y-26554000D03*
X69342000Y-26554000D03*
%TO.N,5V*%
X64262000Y-26554000D03*
%TD*%
D11*
%TO.N,GND3*%
%TO.C,J6*%
X101768000Y-144038000D03*
X114508000Y-144038000D03*
%TD*%
%TO.N,GND2*%
%TO.C,J4*%
X66368000Y-144038000D03*
X79108000Y-144038000D03*
%TD*%
%TO.N,GND4*%
%TO.C,J8*%
X137168000Y-144058000D03*
X149908000Y-144058000D03*
%TD*%
%TO.N,GND1*%
%TO.C,J2*%
X30968000Y-144038000D03*
X43708000Y-144038000D03*
%TD*%
D12*
%TO.N,5V*%
X38862000Y-36068000D03*
X74168000Y-36068000D03*
X109728000Y-36068000D03*
X145034000Y-36068000D03*
%TO.N,GND*%
X148336000Y-38862000D03*
X113030000Y-38862000D03*
X77470000Y-38862000D03*
X42164000Y-38862000D03*
X40132000Y-54610000D03*
X110998000Y-62230000D03*
X76708000Y-52070000D03*
X75692000Y-52070000D03*
X147574000Y-59690000D03*
X112014000Y-52070000D03*
X40132000Y-60960000D03*
X110998000Y-59690000D03*
X110998000Y-60960000D03*
X76708000Y-60960000D03*
X76708000Y-59690000D03*
X40132000Y-59690000D03*
X146558000Y-52070000D03*
X112014000Y-62230000D03*
X76708000Y-62230000D03*
X75692000Y-59690000D03*
X110998000Y-54610000D03*
X112014000Y-59690000D03*
X147574000Y-52070000D03*
X146558000Y-54610000D03*
X40132000Y-62230000D03*
X41148000Y-60960000D03*
X41148000Y-52096000D03*
X112014000Y-60960000D03*
X147574000Y-60960000D03*
X146558000Y-60960000D03*
X76708000Y-54610000D03*
X146558000Y-62230000D03*
X147574000Y-54610000D03*
X41148000Y-59690000D03*
X75692000Y-62230000D03*
X146558000Y-59690000D03*
X147574000Y-62230000D03*
X75692000Y-54610000D03*
X75692000Y-60960000D03*
X40132000Y-52070000D03*
X110998000Y-52070000D03*
X41148000Y-54636000D03*
X41148000Y-62256000D03*
X112014000Y-54610000D03*
%TO.N,5V*%
X146558000Y-58420000D03*
X110998000Y-57150000D03*
X110998000Y-58420000D03*
X75692000Y-55880000D03*
X41148000Y-58420000D03*
X112014000Y-57150000D03*
X147574000Y-58420000D03*
X76708000Y-58420000D03*
X40132000Y-58420000D03*
X41148000Y-55880000D03*
X147574000Y-57150000D03*
X40132000Y-57150000D03*
X112014000Y-58420000D03*
X76708000Y-55880000D03*
X40132000Y-55880000D03*
X75692000Y-58420000D03*
X146558000Y-57150000D03*
X76708000Y-57150000D03*
X75692000Y-57150000D03*
X146558000Y-55880000D03*
X112014000Y-55880000D03*
X41148000Y-57176000D03*
X147574000Y-55880000D03*
X110998000Y-55880000D03*
%TO.N,12V*%
X147574000Y-48260000D03*
X41148000Y-49530000D03*
X75692000Y-50800000D03*
X147574000Y-50800000D03*
X112014000Y-49530000D03*
X110998000Y-50800000D03*
X40132000Y-49530000D03*
X147574000Y-49530000D03*
X110998000Y-48260000D03*
X110998000Y-49530000D03*
X75692000Y-48260000D03*
X41148000Y-50826000D03*
X76708000Y-48260000D03*
X76708000Y-50800000D03*
X75692000Y-49530000D03*
X146558000Y-50800000D03*
X112014000Y-50800000D03*
X112014000Y-48260000D03*
X40132000Y-48260000D03*
X76708000Y-49530000D03*
X146558000Y-48260000D03*
X146558000Y-49530000D03*
X41148000Y-48260000D03*
X40132000Y-50800000D03*
%TO.N,GND1*%
X37338000Y-140228000D03*
X33528000Y-140228000D03*
X44700500Y-87118500D03*
X41910000Y-72390000D03*
X41910000Y-76200000D03*
X41910000Y-80010000D03*
X41148000Y-140228000D03*
%TO.N,GND2*%
X72738000Y-140228000D03*
X76548000Y-140228000D03*
X77470000Y-72390000D03*
X68928000Y-140228000D03*
X77470000Y-80010000D03*
X80010000Y-87122000D03*
X77470000Y-76200000D03*
%TO.N,GND3*%
X112776000Y-76200000D03*
X104328000Y-140228000D03*
X112776000Y-72390000D03*
X108138000Y-140228000D03*
X111948000Y-140228000D03*
X112776000Y-80010000D03*
X115570000Y-87122000D03*
%TO.N,GND4*%
X148082000Y-80010000D03*
X150876000Y-87122000D03*
X148082000Y-72390000D03*
X143538000Y-140228000D03*
X139728000Y-140228000D03*
X147348000Y-140228000D03*
X148082000Y-76200000D03*
%TD*%
%TA.AperFunction,Conductor*%
%TO.N,GND1*%
G36*
X47976539Y-69869685D02*
G01*
X48022294Y-69922489D01*
X48033500Y-69974000D01*
X48033500Y-134738351D01*
X48065522Y-134940534D01*
X48128781Y-135135223D01*
X48221713Y-135317611D01*
X48224945Y-135322059D01*
X48236317Y-135337711D01*
X48259798Y-135403516D01*
X48260000Y-135410597D01*
X48260000Y-151975500D01*
X48240315Y-152042539D01*
X48187511Y-152088294D01*
X48136000Y-152099500D01*
X27155878Y-152099500D01*
X27152133Y-152099387D01*
X26892624Y-152083689D01*
X26885185Y-152082785D01*
X26631315Y-152036263D01*
X26624039Y-152034469D01*
X26434801Y-151975500D01*
X26377630Y-151957684D01*
X26370628Y-151955028D01*
X26135263Y-151849100D01*
X26128628Y-151845617D01*
X25907754Y-151712094D01*
X25901586Y-151707837D01*
X25698413Y-151548661D01*
X25692812Y-151543699D01*
X25510299Y-151361186D01*
X25505338Y-151355586D01*
X25427935Y-151256789D01*
X25346161Y-151152411D01*
X25341905Y-151146245D01*
X25208382Y-150925371D01*
X25204899Y-150918736D01*
X25098971Y-150683371D01*
X25096318Y-150676378D01*
X25019529Y-150429957D01*
X25017738Y-150422693D01*
X24971214Y-150168814D01*
X24970310Y-150161375D01*
X24954613Y-149901866D01*
X24954500Y-149898122D01*
X24954500Y-82476198D01*
X43898757Y-82476198D01*
X43908730Y-82710976D01*
X43908730Y-82710982D01*
X43933711Y-82826890D01*
X43958240Y-82940703D01*
X44045859Y-83158753D01*
X44109077Y-83261425D01*
X44169070Y-83358860D01*
X44324325Y-83535264D01*
X44324329Y-83535268D01*
X44507153Y-83682888D01*
X44507157Y-83682891D01*
X44507160Y-83682893D01*
X44712315Y-83797499D01*
X44933887Y-83875785D01*
X45063131Y-83897946D01*
X45165493Y-83915499D01*
X45165502Y-83915500D01*
X45341645Y-83915500D01*
X45517144Y-83900563D01*
X45517147Y-83900562D01*
X45517149Y-83900562D01*
X45744562Y-83841348D01*
X45875386Y-83782211D01*
X45958691Y-83744556D01*
X45958692Y-83744554D01*
X45958697Y-83744553D01*
X46153393Y-83612962D01*
X46323050Y-83450359D01*
X46462786Y-83261423D01*
X46568582Y-83051589D01*
X46637394Y-82826894D01*
X46667243Y-82593802D01*
X46657269Y-82359018D01*
X46607760Y-82129297D01*
X46520141Y-81911247D01*
X46396931Y-81711141D01*
X46241675Y-81534736D01*
X46241674Y-81534735D01*
X46241670Y-81534731D01*
X46058846Y-81387111D01*
X46058840Y-81387107D01*
X45853684Y-81272500D01*
X45632120Y-81194217D01*
X45632115Y-81194215D01*
X45632113Y-81194215D01*
X45632109Y-81194214D01*
X45632108Y-81194214D01*
X45400506Y-81154500D01*
X45400498Y-81154500D01*
X45224360Y-81154500D01*
X45224355Y-81154500D01*
X45048855Y-81169436D01*
X44821438Y-81228651D01*
X44607308Y-81325443D01*
X44607300Y-81325448D01*
X44412616Y-81457030D01*
X44412607Y-81457038D01*
X44242949Y-81619642D01*
X44103216Y-81808574D01*
X44103213Y-81808578D01*
X43997418Y-82018409D01*
X43928605Y-82243109D01*
X43898757Y-82476198D01*
X24954500Y-82476198D01*
X24954500Y-69974000D01*
X24974185Y-69906961D01*
X25026989Y-69861206D01*
X25078500Y-69850000D01*
X47909500Y-69850000D01*
X47976539Y-69869685D01*
G37*
%TD.AperFunction*%
%TD*%
%TA.AperFunction,Conductor*%
%TO.N,GND*%
G36*
X153240788Y-23700613D02*
G01*
X153279656Y-23702964D01*
X153463384Y-23714077D01*
X153470816Y-23714981D01*
X153479307Y-23716537D01*
X153724704Y-23761506D01*
X153731953Y-23763294D01*
X153978382Y-23840084D01*
X153985375Y-23842737D01*
X154220747Y-23948668D01*
X154227374Y-23952145D01*
X154448262Y-24085675D01*
X154454419Y-24089925D01*
X154657593Y-24249101D01*
X154663202Y-24254070D01*
X154845711Y-24436576D01*
X154850680Y-24442185D01*
X155009855Y-24645354D01*
X155014112Y-24651521D01*
X155147638Y-24872396D01*
X155151120Y-24879031D01*
X155257049Y-25114388D01*
X155259706Y-25121395D01*
X155336495Y-25367806D01*
X155338288Y-25375082D01*
X155384816Y-25628957D01*
X155385719Y-25636396D01*
X155401387Y-25895359D01*
X155401500Y-25899104D01*
X155401500Y-66957758D01*
X155381815Y-67024797D01*
X155329011Y-67070552D01*
X155277500Y-67081758D01*
X131224500Y-67081758D01*
X131157461Y-67062073D01*
X131111706Y-67009269D01*
X131100500Y-66957758D01*
X131100500Y-58420000D01*
X145652540Y-58420000D01*
X145672326Y-58608256D01*
X145672327Y-58608259D01*
X145730818Y-58788277D01*
X145730821Y-58788284D01*
X145825467Y-58952216D01*
X145952129Y-59092888D01*
X146105265Y-59204148D01*
X146105270Y-59204151D01*
X146278192Y-59281142D01*
X146278197Y-59281144D01*
X146463354Y-59320500D01*
X146463355Y-59320500D01*
X146652644Y-59320500D01*
X146652646Y-59320500D01*
X146837803Y-59281144D01*
X147010730Y-59204151D01*
X147010734Y-59204148D01*
X147015563Y-59201998D01*
X147084813Y-59192712D01*
X147116437Y-59201998D01*
X147121265Y-59204148D01*
X147121270Y-59204151D01*
X147294197Y-59281144D01*
X147479354Y-59320500D01*
X147479355Y-59320500D01*
X147668644Y-59320500D01*
X147668646Y-59320500D01*
X147853803Y-59281144D01*
X148026730Y-59204151D01*
X148179871Y-59092888D01*
X148306533Y-58952216D01*
X148401179Y-58788284D01*
X148459674Y-58608256D01*
X148479460Y-58420000D01*
X148459674Y-58231744D01*
X148401179Y-58051716D01*
X148306533Y-57887784D01*
X148288693Y-57867971D01*
X148258464Y-57804981D01*
X148267089Y-57735646D01*
X148288694Y-57702028D01*
X148306533Y-57682216D01*
X148401179Y-57518284D01*
X148459674Y-57338256D01*
X148479460Y-57150000D01*
X148459674Y-56961744D01*
X148401179Y-56781716D01*
X148306533Y-56617784D01*
X148288693Y-56597971D01*
X148258464Y-56534981D01*
X148267089Y-56465646D01*
X148288694Y-56432028D01*
X148306533Y-56412216D01*
X148401179Y-56248284D01*
X148459674Y-56068256D01*
X148479460Y-55880000D01*
X148459674Y-55691744D01*
X148401179Y-55511716D01*
X148306533Y-55347784D01*
X148179871Y-55207112D01*
X148179870Y-55207111D01*
X148026734Y-55095851D01*
X148026729Y-55095848D01*
X147853807Y-55018857D01*
X147853802Y-55018855D01*
X147708001Y-54987865D01*
X147668646Y-54979500D01*
X147479354Y-54979500D01*
X147446897Y-54986398D01*
X147294197Y-55018855D01*
X147294192Y-55018857D01*
X147116436Y-55098001D01*
X147047186Y-55107286D01*
X147015564Y-55098001D01*
X146837807Y-55018857D01*
X146837802Y-55018855D01*
X146692001Y-54987865D01*
X146652646Y-54979500D01*
X146463354Y-54979500D01*
X146430897Y-54986398D01*
X146278197Y-55018855D01*
X146278192Y-55018857D01*
X146105270Y-55095848D01*
X146105265Y-55095851D01*
X145952129Y-55207111D01*
X145825466Y-55347785D01*
X145730821Y-55511715D01*
X145730818Y-55511722D01*
X145672327Y-55691740D01*
X145672326Y-55691744D01*
X145652540Y-55880000D01*
X145672326Y-56068256D01*
X145672327Y-56068259D01*
X145730818Y-56248277D01*
X145730821Y-56248284D01*
X145825467Y-56412216D01*
X145835806Y-56423699D01*
X145843307Y-56432030D01*
X145873535Y-56495022D01*
X145864909Y-56564357D01*
X145843307Y-56597970D01*
X145825466Y-56617785D01*
X145730821Y-56781715D01*
X145730818Y-56781722D01*
X145672327Y-56961740D01*
X145672326Y-56961744D01*
X145652540Y-57150000D01*
X145672326Y-57338256D01*
X145672327Y-57338259D01*
X145730818Y-57518277D01*
X145730821Y-57518284D01*
X145825467Y-57682216D01*
X145835806Y-57693699D01*
X145843307Y-57702030D01*
X145873535Y-57765022D01*
X145864909Y-57834357D01*
X145843307Y-57867970D01*
X145825466Y-57887785D01*
X145730821Y-58051715D01*
X145730818Y-58051722D01*
X145672327Y-58231740D01*
X145672326Y-58231744D01*
X145652540Y-58420000D01*
X131100500Y-58420000D01*
X131100500Y-50800000D01*
X145652540Y-50800000D01*
X145672326Y-50988256D01*
X145672327Y-50988259D01*
X145730818Y-51168277D01*
X145730821Y-51168284D01*
X145825467Y-51332216D01*
X145848876Y-51358214D01*
X145952129Y-51472888D01*
X146105265Y-51584148D01*
X146105270Y-51584151D01*
X146278192Y-51661142D01*
X146278197Y-51661144D01*
X146463354Y-51700500D01*
X146463355Y-51700500D01*
X146652644Y-51700500D01*
X146652646Y-51700500D01*
X146837803Y-51661144D01*
X147010730Y-51584151D01*
X147010734Y-51584148D01*
X147015563Y-51581998D01*
X147084813Y-51572712D01*
X147116437Y-51581998D01*
X147121265Y-51584148D01*
X147121270Y-51584151D01*
X147294197Y-51661144D01*
X147479354Y-51700500D01*
X147479355Y-51700500D01*
X147668644Y-51700500D01*
X147668646Y-51700500D01*
X147853803Y-51661144D01*
X148026730Y-51584151D01*
X148179871Y-51472888D01*
X148306533Y-51332216D01*
X148401179Y-51168284D01*
X148459674Y-50988256D01*
X148479460Y-50800000D01*
X148459674Y-50611744D01*
X148401179Y-50431716D01*
X148306533Y-50267784D01*
X148288693Y-50247971D01*
X148258464Y-50184981D01*
X148267089Y-50115646D01*
X148288694Y-50082028D01*
X148306533Y-50062216D01*
X148401179Y-49898284D01*
X148459674Y-49718256D01*
X148479460Y-49530000D01*
X148459674Y-49341744D01*
X148401179Y-49161716D01*
X148306533Y-48997784D01*
X148288693Y-48977971D01*
X148258464Y-48914981D01*
X148267089Y-48845646D01*
X148288694Y-48812028D01*
X148306533Y-48792216D01*
X148401179Y-48628284D01*
X148459674Y-48448256D01*
X148479460Y-48260000D01*
X148459674Y-48071744D01*
X148401179Y-47891716D01*
X148306533Y-47727784D01*
X148179871Y-47587112D01*
X148179870Y-47587111D01*
X148026734Y-47475851D01*
X148026729Y-47475848D01*
X147853807Y-47398857D01*
X147853802Y-47398855D01*
X147708001Y-47367865D01*
X147668646Y-47359500D01*
X147479354Y-47359500D01*
X147446897Y-47366398D01*
X147294197Y-47398855D01*
X147294192Y-47398857D01*
X147116436Y-47478001D01*
X147047186Y-47487286D01*
X147015564Y-47478001D01*
X146837807Y-47398857D01*
X146837802Y-47398855D01*
X146692001Y-47367865D01*
X146652646Y-47359500D01*
X146463354Y-47359500D01*
X146430897Y-47366398D01*
X146278197Y-47398855D01*
X146278192Y-47398857D01*
X146105270Y-47475848D01*
X146105265Y-47475851D01*
X145952129Y-47587111D01*
X145825466Y-47727785D01*
X145730821Y-47891715D01*
X145730818Y-47891722D01*
X145672327Y-48071740D01*
X145672326Y-48071744D01*
X145652540Y-48260000D01*
X145672326Y-48448256D01*
X145672327Y-48448259D01*
X145730818Y-48628277D01*
X145730821Y-48628284D01*
X145825467Y-48792216D01*
X145835806Y-48803699D01*
X145843307Y-48812030D01*
X145873535Y-48875022D01*
X145864909Y-48944357D01*
X145843307Y-48977970D01*
X145825466Y-48997785D01*
X145730821Y-49161715D01*
X145730818Y-49161722D01*
X145672327Y-49341740D01*
X145672326Y-49341744D01*
X145652540Y-49530000D01*
X145672326Y-49718256D01*
X145672327Y-49718259D01*
X145730818Y-49898277D01*
X145730821Y-49898284D01*
X145825467Y-50062216D01*
X145835806Y-50073699D01*
X145843307Y-50082030D01*
X145873535Y-50145022D01*
X145864909Y-50214357D01*
X145843307Y-50247970D01*
X145825466Y-50267785D01*
X145730821Y-50431715D01*
X145730818Y-50431722D01*
X145672327Y-50611740D01*
X145672326Y-50611744D01*
X145652540Y-50800000D01*
X131100500Y-50800000D01*
X131100500Y-45676198D01*
X150098757Y-45676198D01*
X150108730Y-45910976D01*
X150108730Y-45910982D01*
X150133711Y-46026890D01*
X150158240Y-46140703D01*
X150245859Y-46358753D01*
X150309077Y-46461425D01*
X150369070Y-46558860D01*
X150524325Y-46735264D01*
X150524329Y-46735268D01*
X150707153Y-46882888D01*
X150707157Y-46882891D01*
X150707160Y-46882893D01*
X150912315Y-46997499D01*
X151133887Y-47075785D01*
X151263131Y-47097946D01*
X151365493Y-47115499D01*
X151365502Y-47115500D01*
X151541645Y-47115500D01*
X151717144Y-47100563D01*
X151717147Y-47100562D01*
X151717149Y-47100562D01*
X151944562Y-47041348D01*
X152075386Y-46982211D01*
X152158691Y-46944556D01*
X152158692Y-46944554D01*
X152158697Y-46944553D01*
X152353393Y-46812962D01*
X152523050Y-46650359D01*
X152662786Y-46461423D01*
X152768582Y-46251589D01*
X152837394Y-46026894D01*
X152867243Y-45793802D01*
X152857269Y-45559018D01*
X152807760Y-45329297D01*
X152720141Y-45111247D01*
X152596931Y-44911141D01*
X152441675Y-44734736D01*
X152441674Y-44734735D01*
X152441670Y-44734731D01*
X152258846Y-44587111D01*
X152258840Y-44587107D01*
X152053684Y-44472500D01*
X151832120Y-44394217D01*
X151832115Y-44394215D01*
X151832113Y-44394215D01*
X151832109Y-44394214D01*
X151832108Y-44394214D01*
X151600506Y-44354500D01*
X151600498Y-44354500D01*
X151424360Y-44354500D01*
X151424355Y-44354500D01*
X151248855Y-44369436D01*
X151021438Y-44428651D01*
X150807308Y-44525443D01*
X150807300Y-44525448D01*
X150612616Y-44657030D01*
X150612607Y-44657038D01*
X150442949Y-44819642D01*
X150303216Y-45008574D01*
X150303213Y-45008578D01*
X150197418Y-45218409D01*
X150128605Y-45443109D01*
X150098757Y-45676198D01*
X131100500Y-45676198D01*
X131100500Y-39759648D01*
X131068477Y-39557465D01*
X131005218Y-39362776D01*
X130963238Y-39280387D01*
X130912287Y-39180390D01*
X130899289Y-39162500D01*
X130791971Y-39014786D01*
X130647213Y-38870028D01*
X130481613Y-38749715D01*
X130481612Y-38749714D01*
X130481610Y-38749713D01*
X130424653Y-38720691D01*
X130299223Y-38656781D01*
X130104534Y-38593522D01*
X129929995Y-38565878D01*
X129902352Y-38561500D01*
X129856173Y-38561500D01*
X120181595Y-38561500D01*
X120134000Y-38561500D01*
X120031648Y-38561500D01*
X120007329Y-38565351D01*
X119829465Y-38593522D01*
X119634776Y-38656781D01*
X119452386Y-38749715D01*
X119286786Y-38870028D01*
X119142028Y-39014786D01*
X119021715Y-39180386D01*
X118928781Y-39362776D01*
X118865522Y-39557465D01*
X118833500Y-39759648D01*
X118833500Y-66957758D01*
X118813815Y-67024797D01*
X118761011Y-67070552D01*
X118709500Y-67081758D01*
X95824500Y-67081758D01*
X95757461Y-67062073D01*
X95711706Y-67009269D01*
X95700500Y-66957758D01*
X95700500Y-58420000D01*
X110092540Y-58420000D01*
X110112326Y-58608256D01*
X110112327Y-58608259D01*
X110170818Y-58788277D01*
X110170821Y-58788284D01*
X110265467Y-58952216D01*
X110392129Y-59092888D01*
X110545265Y-59204148D01*
X110545270Y-59204151D01*
X110718192Y-59281142D01*
X110718197Y-59281144D01*
X110903354Y-59320500D01*
X110903355Y-59320500D01*
X111092644Y-59320500D01*
X111092646Y-59320500D01*
X111277803Y-59281144D01*
X111450730Y-59204151D01*
X111450734Y-59204148D01*
X111455563Y-59201998D01*
X111524813Y-59192712D01*
X111556437Y-59201998D01*
X111561265Y-59204148D01*
X111561270Y-59204151D01*
X111734197Y-59281144D01*
X111919354Y-59320500D01*
X111919355Y-59320500D01*
X112108644Y-59320500D01*
X112108646Y-59320500D01*
X112293803Y-59281144D01*
X112466730Y-59204151D01*
X112619871Y-59092888D01*
X112746533Y-58952216D01*
X112841179Y-58788284D01*
X112899674Y-58608256D01*
X112919460Y-58420000D01*
X112899674Y-58231744D01*
X112841179Y-58051716D01*
X112746533Y-57887784D01*
X112728693Y-57867971D01*
X112698464Y-57804981D01*
X112707089Y-57735646D01*
X112728694Y-57702028D01*
X112746533Y-57682216D01*
X112841179Y-57518284D01*
X112899674Y-57338256D01*
X112919460Y-57150000D01*
X112899674Y-56961744D01*
X112841179Y-56781716D01*
X112746533Y-56617784D01*
X112728693Y-56597971D01*
X112698464Y-56534981D01*
X112707089Y-56465646D01*
X112728694Y-56432028D01*
X112746533Y-56412216D01*
X112841179Y-56248284D01*
X112899674Y-56068256D01*
X112919460Y-55880000D01*
X112899674Y-55691744D01*
X112841179Y-55511716D01*
X112746533Y-55347784D01*
X112619871Y-55207112D01*
X112619870Y-55207111D01*
X112466734Y-55095851D01*
X112466729Y-55095848D01*
X112293807Y-55018857D01*
X112293802Y-55018855D01*
X112148001Y-54987865D01*
X112108646Y-54979500D01*
X111919354Y-54979500D01*
X111886897Y-54986398D01*
X111734197Y-55018855D01*
X111734192Y-55018857D01*
X111556436Y-55098001D01*
X111487186Y-55107286D01*
X111455564Y-55098001D01*
X111277807Y-55018857D01*
X111277802Y-55018855D01*
X111132001Y-54987865D01*
X111092646Y-54979500D01*
X110903354Y-54979500D01*
X110870897Y-54986398D01*
X110718197Y-55018855D01*
X110718192Y-55018857D01*
X110545270Y-55095848D01*
X110545265Y-55095851D01*
X110392129Y-55207111D01*
X110265466Y-55347785D01*
X110170821Y-55511715D01*
X110170818Y-55511722D01*
X110112327Y-55691740D01*
X110112326Y-55691744D01*
X110092540Y-55880000D01*
X110112326Y-56068256D01*
X110112327Y-56068259D01*
X110170818Y-56248277D01*
X110170821Y-56248284D01*
X110265467Y-56412216D01*
X110275806Y-56423699D01*
X110283307Y-56432030D01*
X110313535Y-56495022D01*
X110304909Y-56564357D01*
X110283307Y-56597970D01*
X110265466Y-56617785D01*
X110170821Y-56781715D01*
X110170818Y-56781722D01*
X110112327Y-56961740D01*
X110112326Y-56961744D01*
X110092540Y-57150000D01*
X110112326Y-57338256D01*
X110112327Y-57338259D01*
X110170818Y-57518277D01*
X110170821Y-57518284D01*
X110265467Y-57682216D01*
X110275806Y-57693699D01*
X110283307Y-57702030D01*
X110313535Y-57765022D01*
X110304909Y-57834357D01*
X110283307Y-57867970D01*
X110265466Y-57887785D01*
X110170821Y-58051715D01*
X110170818Y-58051722D01*
X110112327Y-58231740D01*
X110112326Y-58231744D01*
X110092540Y-58420000D01*
X95700500Y-58420000D01*
X95700500Y-50800000D01*
X110092540Y-50800000D01*
X110112326Y-50988256D01*
X110112327Y-50988259D01*
X110170818Y-51168277D01*
X110170821Y-51168284D01*
X110265467Y-51332216D01*
X110288876Y-51358214D01*
X110392129Y-51472888D01*
X110545265Y-51584148D01*
X110545270Y-51584151D01*
X110718192Y-51661142D01*
X110718197Y-51661144D01*
X110903354Y-51700500D01*
X110903355Y-51700500D01*
X111092644Y-51700500D01*
X111092646Y-51700500D01*
X111277803Y-51661144D01*
X111450730Y-51584151D01*
X111450734Y-51584148D01*
X111455563Y-51581998D01*
X111524813Y-51572712D01*
X111556437Y-51581998D01*
X111561265Y-51584148D01*
X111561270Y-51584151D01*
X111734197Y-51661144D01*
X111919354Y-51700500D01*
X111919355Y-51700500D01*
X112108644Y-51700500D01*
X112108646Y-51700500D01*
X112293803Y-51661144D01*
X112466730Y-51584151D01*
X112619871Y-51472888D01*
X112746533Y-51332216D01*
X112841179Y-51168284D01*
X112899674Y-50988256D01*
X112919460Y-50800000D01*
X112899674Y-50611744D01*
X112841179Y-50431716D01*
X112746533Y-50267784D01*
X112728693Y-50247971D01*
X112698464Y-50184981D01*
X112707089Y-50115646D01*
X112728694Y-50082028D01*
X112746533Y-50062216D01*
X112841179Y-49898284D01*
X112899674Y-49718256D01*
X112919460Y-49530000D01*
X112899674Y-49341744D01*
X112841179Y-49161716D01*
X112746533Y-48997784D01*
X112728693Y-48977971D01*
X112698464Y-48914981D01*
X112707089Y-48845646D01*
X112728694Y-48812028D01*
X112746533Y-48792216D01*
X112841179Y-48628284D01*
X112899674Y-48448256D01*
X112919460Y-48260000D01*
X112899674Y-48071744D01*
X112841179Y-47891716D01*
X112746533Y-47727784D01*
X112619871Y-47587112D01*
X112619870Y-47587111D01*
X112466734Y-47475851D01*
X112466729Y-47475848D01*
X112293807Y-47398857D01*
X112293802Y-47398855D01*
X112148001Y-47367865D01*
X112108646Y-47359500D01*
X111919354Y-47359500D01*
X111886897Y-47366398D01*
X111734197Y-47398855D01*
X111734192Y-47398857D01*
X111556436Y-47478001D01*
X111487186Y-47487286D01*
X111455564Y-47478001D01*
X111277807Y-47398857D01*
X111277802Y-47398855D01*
X111132001Y-47367865D01*
X111092646Y-47359500D01*
X110903354Y-47359500D01*
X110870897Y-47366398D01*
X110718197Y-47398855D01*
X110718192Y-47398857D01*
X110545270Y-47475848D01*
X110545265Y-47475851D01*
X110392129Y-47587111D01*
X110265466Y-47727785D01*
X110170821Y-47891715D01*
X110170818Y-47891722D01*
X110112327Y-48071740D01*
X110112326Y-48071744D01*
X110092540Y-48260000D01*
X110112326Y-48448256D01*
X110112327Y-48448259D01*
X110170818Y-48628277D01*
X110170821Y-48628284D01*
X110265467Y-48792216D01*
X110275806Y-48803699D01*
X110283307Y-48812030D01*
X110313535Y-48875022D01*
X110304909Y-48944357D01*
X110283307Y-48977970D01*
X110265466Y-48997785D01*
X110170821Y-49161715D01*
X110170818Y-49161722D01*
X110112327Y-49341740D01*
X110112326Y-49341744D01*
X110092540Y-49530000D01*
X110112326Y-49718256D01*
X110112327Y-49718259D01*
X110170818Y-49898277D01*
X110170821Y-49898284D01*
X110265467Y-50062216D01*
X110275806Y-50073699D01*
X110283307Y-50082030D01*
X110313535Y-50145022D01*
X110304909Y-50214357D01*
X110283307Y-50247970D01*
X110265466Y-50267785D01*
X110170821Y-50431715D01*
X110170818Y-50431722D01*
X110112327Y-50611740D01*
X110112326Y-50611744D01*
X110092540Y-50800000D01*
X95700500Y-50800000D01*
X95700500Y-45676198D01*
X114698757Y-45676198D01*
X114708730Y-45910976D01*
X114708730Y-45910982D01*
X114733711Y-46026890D01*
X114758240Y-46140703D01*
X114845859Y-46358753D01*
X114909077Y-46461425D01*
X114969070Y-46558860D01*
X115124325Y-46735264D01*
X115124329Y-46735268D01*
X115307153Y-46882888D01*
X115307157Y-46882891D01*
X115307160Y-46882893D01*
X115512315Y-46997499D01*
X115733887Y-47075785D01*
X115863131Y-47097946D01*
X115965493Y-47115499D01*
X115965502Y-47115500D01*
X116141645Y-47115500D01*
X116317144Y-47100563D01*
X116317147Y-47100562D01*
X116317149Y-47100562D01*
X116544562Y-47041348D01*
X116675386Y-46982211D01*
X116758691Y-46944556D01*
X116758692Y-46944554D01*
X116758697Y-46944553D01*
X116953393Y-46812962D01*
X117123050Y-46650359D01*
X117262786Y-46461423D01*
X117368582Y-46251589D01*
X117437394Y-46026894D01*
X117467243Y-45793802D01*
X117457269Y-45559018D01*
X117407760Y-45329297D01*
X117320141Y-45111247D01*
X117196931Y-44911141D01*
X117041675Y-44734736D01*
X117041674Y-44734735D01*
X117041670Y-44734731D01*
X116858846Y-44587111D01*
X116858840Y-44587107D01*
X116653684Y-44472500D01*
X116432120Y-44394217D01*
X116432115Y-44394215D01*
X116432113Y-44394215D01*
X116432109Y-44394214D01*
X116432108Y-44394214D01*
X116200506Y-44354500D01*
X116200498Y-44354500D01*
X116024360Y-44354500D01*
X116024355Y-44354500D01*
X115848855Y-44369436D01*
X115621438Y-44428651D01*
X115407308Y-44525443D01*
X115407300Y-44525448D01*
X115212616Y-44657030D01*
X115212607Y-44657038D01*
X115042949Y-44819642D01*
X114903216Y-45008574D01*
X114903213Y-45008578D01*
X114797418Y-45218409D01*
X114728605Y-45443109D01*
X114698757Y-45676198D01*
X95700500Y-45676198D01*
X95700500Y-39759648D01*
X95668477Y-39557465D01*
X95605218Y-39362776D01*
X95563238Y-39280387D01*
X95512287Y-39180390D01*
X95499289Y-39162500D01*
X95391971Y-39014786D01*
X95247213Y-38870028D01*
X95081613Y-38749715D01*
X95081612Y-38749714D01*
X95081610Y-38749713D01*
X95024653Y-38720691D01*
X94899223Y-38656781D01*
X94704534Y-38593522D01*
X94529995Y-38565878D01*
X94502352Y-38561500D01*
X94456173Y-38561500D01*
X84781595Y-38561500D01*
X84734000Y-38561500D01*
X84631648Y-38561500D01*
X84607329Y-38565351D01*
X84429465Y-38593522D01*
X84234776Y-38656781D01*
X84052386Y-38749715D01*
X83886786Y-38870028D01*
X83742028Y-39014786D01*
X83621715Y-39180386D01*
X83528781Y-39362776D01*
X83465522Y-39557465D01*
X83433500Y-39759648D01*
X83433500Y-66957758D01*
X83413815Y-67024797D01*
X83361011Y-67070552D01*
X83309500Y-67081758D01*
X60424500Y-67081758D01*
X60357461Y-67062073D01*
X60311706Y-67009269D01*
X60300500Y-66957758D01*
X60300500Y-58420000D01*
X74786540Y-58420000D01*
X74806326Y-58608256D01*
X74806327Y-58608259D01*
X74864818Y-58788277D01*
X74864821Y-58788284D01*
X74959467Y-58952216D01*
X75086129Y-59092888D01*
X75239265Y-59204148D01*
X75239270Y-59204151D01*
X75412192Y-59281142D01*
X75412197Y-59281144D01*
X75597354Y-59320500D01*
X75597355Y-59320500D01*
X75786644Y-59320500D01*
X75786646Y-59320500D01*
X75971803Y-59281144D01*
X76144730Y-59204151D01*
X76144734Y-59204148D01*
X76149563Y-59201998D01*
X76218813Y-59192712D01*
X76250437Y-59201998D01*
X76255265Y-59204148D01*
X76255270Y-59204151D01*
X76428197Y-59281144D01*
X76613354Y-59320500D01*
X76613355Y-59320500D01*
X76802644Y-59320500D01*
X76802646Y-59320500D01*
X76987803Y-59281144D01*
X77160730Y-59204151D01*
X77313871Y-59092888D01*
X77440533Y-58952216D01*
X77535179Y-58788284D01*
X77593674Y-58608256D01*
X77613460Y-58420000D01*
X77593674Y-58231744D01*
X77535179Y-58051716D01*
X77440533Y-57887784D01*
X77422693Y-57867971D01*
X77392464Y-57804981D01*
X77401089Y-57735646D01*
X77422694Y-57702028D01*
X77440533Y-57682216D01*
X77535179Y-57518284D01*
X77593674Y-57338256D01*
X77613460Y-57150000D01*
X77593674Y-56961744D01*
X77535179Y-56781716D01*
X77440533Y-56617784D01*
X77422693Y-56597971D01*
X77392464Y-56534981D01*
X77401089Y-56465646D01*
X77422694Y-56432028D01*
X77440533Y-56412216D01*
X77535179Y-56248284D01*
X77593674Y-56068256D01*
X77613460Y-55880000D01*
X77593674Y-55691744D01*
X77535179Y-55511716D01*
X77440533Y-55347784D01*
X77313871Y-55207112D01*
X77313870Y-55207111D01*
X77160734Y-55095851D01*
X77160729Y-55095848D01*
X76987807Y-55018857D01*
X76987802Y-55018855D01*
X76842001Y-54987865D01*
X76802646Y-54979500D01*
X76613354Y-54979500D01*
X76580897Y-54986398D01*
X76428197Y-55018855D01*
X76428192Y-55018857D01*
X76250436Y-55098001D01*
X76181186Y-55107286D01*
X76149564Y-55098001D01*
X75971807Y-55018857D01*
X75971802Y-55018855D01*
X75826001Y-54987865D01*
X75786646Y-54979500D01*
X75597354Y-54979500D01*
X75564897Y-54986398D01*
X75412197Y-55018855D01*
X75412192Y-55018857D01*
X75239270Y-55095848D01*
X75239265Y-55095851D01*
X75086129Y-55207111D01*
X74959466Y-55347785D01*
X74864821Y-55511715D01*
X74864818Y-55511722D01*
X74806327Y-55691740D01*
X74806326Y-55691744D01*
X74786540Y-55880000D01*
X74806326Y-56068256D01*
X74806327Y-56068259D01*
X74864818Y-56248277D01*
X74864821Y-56248284D01*
X74959467Y-56412216D01*
X74969806Y-56423699D01*
X74977307Y-56432030D01*
X75007535Y-56495022D01*
X74998909Y-56564357D01*
X74977307Y-56597970D01*
X74959466Y-56617785D01*
X74864821Y-56781715D01*
X74864818Y-56781722D01*
X74806327Y-56961740D01*
X74806326Y-56961744D01*
X74786540Y-57150000D01*
X74806326Y-57338256D01*
X74806327Y-57338259D01*
X74864818Y-57518277D01*
X74864821Y-57518284D01*
X74959467Y-57682216D01*
X74969806Y-57693699D01*
X74977307Y-57702030D01*
X75007535Y-57765022D01*
X74998909Y-57834357D01*
X74977307Y-57867970D01*
X74959466Y-57887785D01*
X74864821Y-58051715D01*
X74864818Y-58051722D01*
X74806327Y-58231740D01*
X74806326Y-58231744D01*
X74786540Y-58420000D01*
X60300500Y-58420000D01*
X60300500Y-50800000D01*
X74786540Y-50800000D01*
X74806326Y-50988256D01*
X74806327Y-50988259D01*
X74864818Y-51168277D01*
X74864821Y-51168284D01*
X74959467Y-51332216D01*
X74982876Y-51358214D01*
X75086129Y-51472888D01*
X75239265Y-51584148D01*
X75239270Y-51584151D01*
X75412192Y-51661142D01*
X75412197Y-51661144D01*
X75597354Y-51700500D01*
X75597355Y-51700500D01*
X75786644Y-51700500D01*
X75786646Y-51700500D01*
X75971803Y-51661144D01*
X76144730Y-51584151D01*
X76144734Y-51584148D01*
X76149563Y-51581998D01*
X76218813Y-51572712D01*
X76250437Y-51581998D01*
X76255265Y-51584148D01*
X76255270Y-51584151D01*
X76428197Y-51661144D01*
X76613354Y-51700500D01*
X76613355Y-51700500D01*
X76802644Y-51700500D01*
X76802646Y-51700500D01*
X76987803Y-51661144D01*
X77160730Y-51584151D01*
X77313871Y-51472888D01*
X77440533Y-51332216D01*
X77535179Y-51168284D01*
X77593674Y-50988256D01*
X77613460Y-50800000D01*
X77593674Y-50611744D01*
X77535179Y-50431716D01*
X77440533Y-50267784D01*
X77422693Y-50247971D01*
X77392464Y-50184981D01*
X77401089Y-50115646D01*
X77422694Y-50082028D01*
X77440533Y-50062216D01*
X77535179Y-49898284D01*
X77593674Y-49718256D01*
X77613460Y-49530000D01*
X77593674Y-49341744D01*
X77535179Y-49161716D01*
X77440533Y-48997784D01*
X77422693Y-48977971D01*
X77392464Y-48914981D01*
X77401089Y-48845646D01*
X77422694Y-48812028D01*
X77440533Y-48792216D01*
X77535179Y-48628284D01*
X77593674Y-48448256D01*
X77613460Y-48260000D01*
X77593674Y-48071744D01*
X77535179Y-47891716D01*
X77440533Y-47727784D01*
X77313871Y-47587112D01*
X77313870Y-47587111D01*
X77160734Y-47475851D01*
X77160729Y-47475848D01*
X76987807Y-47398857D01*
X76987802Y-47398855D01*
X76842001Y-47367865D01*
X76802646Y-47359500D01*
X76613354Y-47359500D01*
X76580897Y-47366398D01*
X76428197Y-47398855D01*
X76428192Y-47398857D01*
X76250436Y-47478001D01*
X76181186Y-47487286D01*
X76149564Y-47478001D01*
X75971807Y-47398857D01*
X75971802Y-47398855D01*
X75826001Y-47367865D01*
X75786646Y-47359500D01*
X75597354Y-47359500D01*
X75564897Y-47366398D01*
X75412197Y-47398855D01*
X75412192Y-47398857D01*
X75239270Y-47475848D01*
X75239265Y-47475851D01*
X75086129Y-47587111D01*
X74959466Y-47727785D01*
X74864821Y-47891715D01*
X74864818Y-47891722D01*
X74806327Y-48071740D01*
X74806326Y-48071744D01*
X74786540Y-48260000D01*
X74806326Y-48448256D01*
X74806327Y-48448259D01*
X74864818Y-48628277D01*
X74864821Y-48628284D01*
X74959467Y-48792216D01*
X74969806Y-48803699D01*
X74977307Y-48812030D01*
X75007535Y-48875022D01*
X74998909Y-48944357D01*
X74977307Y-48977970D01*
X74959466Y-48997785D01*
X74864821Y-49161715D01*
X74864818Y-49161722D01*
X74806327Y-49341740D01*
X74806326Y-49341744D01*
X74786540Y-49530000D01*
X74806326Y-49718256D01*
X74806327Y-49718259D01*
X74864818Y-49898277D01*
X74864821Y-49898284D01*
X74959467Y-50062216D01*
X74969806Y-50073699D01*
X74977307Y-50082030D01*
X75007535Y-50145022D01*
X74998909Y-50214357D01*
X74977307Y-50247970D01*
X74959466Y-50267785D01*
X74864821Y-50431715D01*
X74864818Y-50431722D01*
X74806327Y-50611740D01*
X74806326Y-50611744D01*
X74786540Y-50800000D01*
X60300500Y-50800000D01*
X60300500Y-45676198D01*
X79298757Y-45676198D01*
X79308730Y-45910976D01*
X79308730Y-45910982D01*
X79333711Y-46026890D01*
X79358240Y-46140703D01*
X79445859Y-46358753D01*
X79509077Y-46461425D01*
X79569070Y-46558860D01*
X79724325Y-46735264D01*
X79724329Y-46735268D01*
X79907153Y-46882888D01*
X79907157Y-46882891D01*
X79907160Y-46882893D01*
X80112315Y-46997499D01*
X80333887Y-47075785D01*
X80463131Y-47097946D01*
X80565493Y-47115499D01*
X80565502Y-47115500D01*
X80741645Y-47115500D01*
X80917144Y-47100563D01*
X80917147Y-47100562D01*
X80917149Y-47100562D01*
X81144562Y-47041348D01*
X81275386Y-46982211D01*
X81358691Y-46944556D01*
X81358692Y-46944554D01*
X81358697Y-46944553D01*
X81553393Y-46812962D01*
X81723050Y-46650359D01*
X81862786Y-46461423D01*
X81968582Y-46251589D01*
X82037394Y-46026894D01*
X82067243Y-45793802D01*
X82057269Y-45559018D01*
X82007760Y-45329297D01*
X81920141Y-45111247D01*
X81796931Y-44911141D01*
X81641675Y-44734736D01*
X81641674Y-44734735D01*
X81641670Y-44734731D01*
X81458846Y-44587111D01*
X81458840Y-44587107D01*
X81253684Y-44472500D01*
X81032120Y-44394217D01*
X81032115Y-44394215D01*
X81032113Y-44394215D01*
X81032109Y-44394214D01*
X81032108Y-44394214D01*
X80800506Y-44354500D01*
X80800498Y-44354500D01*
X80624360Y-44354500D01*
X80624355Y-44354500D01*
X80448855Y-44369436D01*
X80221438Y-44428651D01*
X80007308Y-44525443D01*
X80007300Y-44525448D01*
X79812616Y-44657030D01*
X79812607Y-44657038D01*
X79642949Y-44819642D01*
X79503216Y-45008574D01*
X79503213Y-45008578D01*
X79397418Y-45218409D01*
X79328605Y-45443109D01*
X79298757Y-45676198D01*
X60300500Y-45676198D01*
X60300500Y-39759648D01*
X60268477Y-39557465D01*
X60205218Y-39362776D01*
X60163238Y-39280387D01*
X60112287Y-39180390D01*
X60099289Y-39162500D01*
X59991971Y-39014786D01*
X59847213Y-38870028D01*
X59681613Y-38749715D01*
X59681612Y-38749714D01*
X59681610Y-38749713D01*
X59624653Y-38720691D01*
X59499223Y-38656781D01*
X59304534Y-38593522D01*
X59129995Y-38565878D01*
X59102352Y-38561500D01*
X59056173Y-38561500D01*
X49381595Y-38561500D01*
X49334000Y-38561500D01*
X49231648Y-38561500D01*
X49207329Y-38565351D01*
X49029465Y-38593522D01*
X48834776Y-38656781D01*
X48652386Y-38749715D01*
X48486786Y-38870028D01*
X48342028Y-39014786D01*
X48221715Y-39180386D01*
X48128781Y-39362776D01*
X48065522Y-39557465D01*
X48033500Y-39759648D01*
X48033500Y-66957758D01*
X48013815Y-67024797D01*
X47961011Y-67070552D01*
X47909500Y-67081758D01*
X25078500Y-67081758D01*
X25011461Y-67062073D01*
X24965706Y-67009269D01*
X24954500Y-66957758D01*
X24954500Y-58420000D01*
X39226540Y-58420000D01*
X39246326Y-58608256D01*
X39246327Y-58608259D01*
X39304818Y-58788277D01*
X39304821Y-58788284D01*
X39399467Y-58952216D01*
X39526129Y-59092888D01*
X39679265Y-59204148D01*
X39679270Y-59204151D01*
X39852192Y-59281142D01*
X39852197Y-59281144D01*
X40037354Y-59320500D01*
X40037355Y-59320500D01*
X40226644Y-59320500D01*
X40226646Y-59320500D01*
X40411803Y-59281144D01*
X40584730Y-59204151D01*
X40584734Y-59204148D01*
X40589563Y-59201998D01*
X40658813Y-59192712D01*
X40690437Y-59201998D01*
X40695265Y-59204148D01*
X40695270Y-59204151D01*
X40868197Y-59281144D01*
X41053354Y-59320500D01*
X41053355Y-59320500D01*
X41242644Y-59320500D01*
X41242646Y-59320500D01*
X41427803Y-59281144D01*
X41600730Y-59204151D01*
X41753871Y-59092888D01*
X41880533Y-58952216D01*
X41975179Y-58788284D01*
X42033674Y-58608256D01*
X42053460Y-58420000D01*
X42033674Y-58231744D01*
X41975179Y-58051716D01*
X41880533Y-57887784D01*
X41874400Y-57880973D01*
X41844170Y-57817983D01*
X41852793Y-57748647D01*
X41874401Y-57715026D01*
X41880533Y-57708216D01*
X41975179Y-57544284D01*
X42033674Y-57364256D01*
X42053460Y-57176000D01*
X42033674Y-56987744D01*
X41975179Y-56807716D01*
X41880533Y-56643784D01*
X41850988Y-56610971D01*
X41820759Y-56547982D01*
X41829383Y-56478647D01*
X41850987Y-56445029D01*
X41880533Y-56412216D01*
X41975179Y-56248284D01*
X42033674Y-56068256D01*
X42053460Y-55880000D01*
X42033674Y-55691744D01*
X41975179Y-55511716D01*
X41880533Y-55347784D01*
X41753871Y-55207112D01*
X41753870Y-55207111D01*
X41600734Y-55095851D01*
X41600729Y-55095848D01*
X41427807Y-55018857D01*
X41427802Y-55018855D01*
X41282001Y-54987865D01*
X41242646Y-54979500D01*
X41053354Y-54979500D01*
X41020897Y-54986398D01*
X40868197Y-55018855D01*
X40868192Y-55018857D01*
X40690436Y-55098001D01*
X40621186Y-55107286D01*
X40589564Y-55098001D01*
X40411807Y-55018857D01*
X40411802Y-55018855D01*
X40266001Y-54987865D01*
X40226646Y-54979500D01*
X40037354Y-54979500D01*
X40004897Y-54986398D01*
X39852197Y-55018855D01*
X39852192Y-55018857D01*
X39679270Y-55095848D01*
X39679265Y-55095851D01*
X39526129Y-55207111D01*
X39399466Y-55347785D01*
X39304821Y-55511715D01*
X39304818Y-55511722D01*
X39246327Y-55691740D01*
X39246326Y-55691744D01*
X39226540Y-55880000D01*
X39246326Y-56068256D01*
X39246327Y-56068259D01*
X39304818Y-56248277D01*
X39304821Y-56248284D01*
X39399467Y-56412216D01*
X39409806Y-56423699D01*
X39417307Y-56432030D01*
X39447535Y-56495022D01*
X39438909Y-56564357D01*
X39417307Y-56597970D01*
X39399466Y-56617785D01*
X39304821Y-56781715D01*
X39304818Y-56781722D01*
X39246327Y-56961740D01*
X39246326Y-56961744D01*
X39226540Y-57150000D01*
X39246326Y-57338256D01*
X39246327Y-57338259D01*
X39304818Y-57518277D01*
X39304821Y-57518284D01*
X39399467Y-57682216D01*
X39409806Y-57693699D01*
X39417307Y-57702030D01*
X39447535Y-57765022D01*
X39438909Y-57834357D01*
X39417307Y-57867970D01*
X39399466Y-57887785D01*
X39304821Y-58051715D01*
X39304818Y-58051722D01*
X39246327Y-58231740D01*
X39246326Y-58231744D01*
X39226540Y-58420000D01*
X24954500Y-58420000D01*
X24954500Y-50800000D01*
X39226540Y-50800000D01*
X39246326Y-50988256D01*
X39246327Y-50988259D01*
X39304818Y-51168277D01*
X39304821Y-51168284D01*
X39399467Y-51332216D01*
X39422876Y-51358214D01*
X39526129Y-51472888D01*
X39679265Y-51584148D01*
X39679270Y-51584151D01*
X39852192Y-51661142D01*
X39852197Y-51661144D01*
X40037354Y-51700500D01*
X40037355Y-51700500D01*
X40226644Y-51700500D01*
X40226646Y-51700500D01*
X40411803Y-51661144D01*
X40565677Y-51592633D01*
X40634927Y-51583349D01*
X40688997Y-51605594D01*
X40695266Y-51610148D01*
X40695270Y-51610151D01*
X40868192Y-51687142D01*
X40868197Y-51687144D01*
X41053354Y-51726500D01*
X41053355Y-51726500D01*
X41242644Y-51726500D01*
X41242646Y-51726500D01*
X41427803Y-51687144D01*
X41600730Y-51610151D01*
X41753871Y-51498888D01*
X41880533Y-51358216D01*
X41975179Y-51194284D01*
X42033674Y-51014256D01*
X42053460Y-50826000D01*
X42033674Y-50637744D01*
X41975179Y-50457716D01*
X41880533Y-50293784D01*
X41850988Y-50260971D01*
X41820759Y-50197982D01*
X41829383Y-50128647D01*
X41850987Y-50095029D01*
X41880533Y-50062216D01*
X41975179Y-49898284D01*
X42033674Y-49718256D01*
X42053460Y-49530000D01*
X42033674Y-49341744D01*
X41975179Y-49161716D01*
X41880533Y-48997784D01*
X41862693Y-48977971D01*
X41832464Y-48914981D01*
X41841089Y-48845646D01*
X41862694Y-48812028D01*
X41880533Y-48792216D01*
X41975179Y-48628284D01*
X42033674Y-48448256D01*
X42053460Y-48260000D01*
X42033674Y-48071744D01*
X41975179Y-47891716D01*
X41880533Y-47727784D01*
X41753871Y-47587112D01*
X41753870Y-47587111D01*
X41600734Y-47475851D01*
X41600729Y-47475848D01*
X41427807Y-47398857D01*
X41427802Y-47398855D01*
X41282001Y-47367865D01*
X41242646Y-47359500D01*
X41053354Y-47359500D01*
X41020897Y-47366398D01*
X40868197Y-47398855D01*
X40868192Y-47398857D01*
X40690436Y-47478001D01*
X40621186Y-47487286D01*
X40589564Y-47478001D01*
X40411807Y-47398857D01*
X40411802Y-47398855D01*
X40266001Y-47367865D01*
X40226646Y-47359500D01*
X40037354Y-47359500D01*
X40004897Y-47366398D01*
X39852197Y-47398855D01*
X39852192Y-47398857D01*
X39679270Y-47475848D01*
X39679265Y-47475851D01*
X39526129Y-47587111D01*
X39399466Y-47727785D01*
X39304821Y-47891715D01*
X39304818Y-47891722D01*
X39246327Y-48071740D01*
X39246326Y-48071744D01*
X39226540Y-48260000D01*
X39246326Y-48448256D01*
X39246327Y-48448259D01*
X39304818Y-48628277D01*
X39304821Y-48628284D01*
X39399467Y-48792216D01*
X39409806Y-48803699D01*
X39417307Y-48812030D01*
X39447535Y-48875022D01*
X39438909Y-48944357D01*
X39417307Y-48977970D01*
X39399466Y-48997785D01*
X39304821Y-49161715D01*
X39304818Y-49161722D01*
X39246327Y-49341740D01*
X39246326Y-49341744D01*
X39226540Y-49530000D01*
X39246326Y-49718256D01*
X39246327Y-49718259D01*
X39304818Y-49898277D01*
X39304821Y-49898284D01*
X39399467Y-50062216D01*
X39409806Y-50073699D01*
X39417307Y-50082030D01*
X39447535Y-50145022D01*
X39438909Y-50214357D01*
X39417307Y-50247970D01*
X39399466Y-50267785D01*
X39304821Y-50431715D01*
X39304818Y-50431722D01*
X39246327Y-50611740D01*
X39246326Y-50611744D01*
X39226540Y-50800000D01*
X24954500Y-50800000D01*
X24954500Y-45676198D01*
X43898757Y-45676198D01*
X43908730Y-45910976D01*
X43908730Y-45910982D01*
X43933711Y-46026890D01*
X43958240Y-46140703D01*
X44045859Y-46358753D01*
X44109077Y-46461425D01*
X44169070Y-46558860D01*
X44324325Y-46735264D01*
X44324329Y-46735268D01*
X44507153Y-46882888D01*
X44507157Y-46882891D01*
X44507160Y-46882893D01*
X44712315Y-46997499D01*
X44933887Y-47075785D01*
X45063131Y-47097946D01*
X45165493Y-47115499D01*
X45165502Y-47115500D01*
X45341645Y-47115500D01*
X45517144Y-47100563D01*
X45517147Y-47100562D01*
X45517149Y-47100562D01*
X45744562Y-47041348D01*
X45875386Y-46982211D01*
X45958691Y-46944556D01*
X45958692Y-46944554D01*
X45958697Y-46944553D01*
X46153393Y-46812962D01*
X46323050Y-46650359D01*
X46462786Y-46461423D01*
X46568582Y-46251589D01*
X46637394Y-46026894D01*
X46667243Y-45793802D01*
X46657269Y-45559018D01*
X46607760Y-45329297D01*
X46520141Y-45111247D01*
X46396931Y-44911141D01*
X46241675Y-44734736D01*
X46241674Y-44734735D01*
X46241670Y-44734731D01*
X46058846Y-44587111D01*
X46058840Y-44587107D01*
X45853684Y-44472500D01*
X45632120Y-44394217D01*
X45632115Y-44394215D01*
X45632113Y-44394215D01*
X45632109Y-44394214D01*
X45632108Y-44394214D01*
X45400506Y-44354500D01*
X45400498Y-44354500D01*
X45224360Y-44354500D01*
X45224355Y-44354500D01*
X45048855Y-44369436D01*
X44821438Y-44428651D01*
X44607308Y-44525443D01*
X44607300Y-44525448D01*
X44412616Y-44657030D01*
X44412607Y-44657038D01*
X44242949Y-44819642D01*
X44103216Y-45008574D01*
X44103213Y-45008578D01*
X43997418Y-45218409D01*
X43928605Y-45443109D01*
X43898757Y-45676198D01*
X24954500Y-45676198D01*
X24954500Y-36068000D01*
X37956540Y-36068000D01*
X37976326Y-36256256D01*
X37976327Y-36256259D01*
X38034818Y-36436277D01*
X38034821Y-36436284D01*
X38129467Y-36600216D01*
X38256129Y-36740888D01*
X38409265Y-36852148D01*
X38409270Y-36852151D01*
X38582192Y-36929142D01*
X38582197Y-36929144D01*
X38767354Y-36968500D01*
X38767355Y-36968500D01*
X38956644Y-36968500D01*
X38956646Y-36968500D01*
X39141803Y-36929144D01*
X39314730Y-36852151D01*
X39467871Y-36740888D01*
X39594533Y-36600216D01*
X39689179Y-36436284D01*
X39747674Y-36256256D01*
X39767460Y-36068000D01*
X73262540Y-36068000D01*
X73282326Y-36256256D01*
X73282327Y-36256259D01*
X73340818Y-36436277D01*
X73340821Y-36436284D01*
X73435467Y-36600216D01*
X73562129Y-36740888D01*
X73715265Y-36852148D01*
X73715270Y-36852151D01*
X73888192Y-36929142D01*
X73888197Y-36929144D01*
X74073354Y-36968500D01*
X74073355Y-36968500D01*
X74262644Y-36968500D01*
X74262646Y-36968500D01*
X74447803Y-36929144D01*
X74620730Y-36852151D01*
X74773871Y-36740888D01*
X74900533Y-36600216D01*
X74995179Y-36436284D01*
X75053674Y-36256256D01*
X75073460Y-36068000D01*
X108822540Y-36068000D01*
X108842326Y-36256256D01*
X108842327Y-36256259D01*
X108900818Y-36436277D01*
X108900821Y-36436284D01*
X108995467Y-36600216D01*
X109122129Y-36740888D01*
X109275265Y-36852148D01*
X109275270Y-36852151D01*
X109448192Y-36929142D01*
X109448197Y-36929144D01*
X109633354Y-36968500D01*
X109633355Y-36968500D01*
X109822644Y-36968500D01*
X109822646Y-36968500D01*
X110007803Y-36929144D01*
X110180730Y-36852151D01*
X110333871Y-36740888D01*
X110460533Y-36600216D01*
X110555179Y-36436284D01*
X110613674Y-36256256D01*
X110633460Y-36068000D01*
X144128540Y-36068000D01*
X144148326Y-36256256D01*
X144148327Y-36256259D01*
X144206818Y-36436277D01*
X144206821Y-36436284D01*
X144301467Y-36600216D01*
X144428129Y-36740888D01*
X144581265Y-36852148D01*
X144581270Y-36852151D01*
X144754192Y-36929142D01*
X144754197Y-36929144D01*
X144939354Y-36968500D01*
X144939355Y-36968500D01*
X145128644Y-36968500D01*
X145128646Y-36968500D01*
X145313803Y-36929144D01*
X145486730Y-36852151D01*
X145639871Y-36740888D01*
X145766533Y-36600216D01*
X145861179Y-36436284D01*
X145919674Y-36256256D01*
X145939460Y-36068000D01*
X145919674Y-35879744D01*
X145861179Y-35699716D01*
X145766533Y-35535784D01*
X145639871Y-35395112D01*
X145639870Y-35395111D01*
X145486734Y-35283851D01*
X145486729Y-35283848D01*
X145313807Y-35206857D01*
X145313802Y-35206855D01*
X145168001Y-35175865D01*
X145128646Y-35167500D01*
X144939354Y-35167500D01*
X144906897Y-35174398D01*
X144754197Y-35206855D01*
X144754192Y-35206857D01*
X144581270Y-35283848D01*
X144581265Y-35283851D01*
X144428129Y-35395111D01*
X144301466Y-35535785D01*
X144206821Y-35699715D01*
X144206818Y-35699722D01*
X144148327Y-35879740D01*
X144148326Y-35879744D01*
X144128540Y-36068000D01*
X110633460Y-36068000D01*
X110613674Y-35879744D01*
X110555179Y-35699716D01*
X110460533Y-35535784D01*
X110333871Y-35395112D01*
X110333870Y-35395111D01*
X110180734Y-35283851D01*
X110180729Y-35283848D01*
X110007807Y-35206857D01*
X110007802Y-35206855D01*
X109862001Y-35175865D01*
X109822646Y-35167500D01*
X109633354Y-35167500D01*
X109600897Y-35174398D01*
X109448197Y-35206855D01*
X109448192Y-35206857D01*
X109275270Y-35283848D01*
X109275265Y-35283851D01*
X109122129Y-35395111D01*
X108995466Y-35535785D01*
X108900821Y-35699715D01*
X108900818Y-35699722D01*
X108842327Y-35879740D01*
X108842326Y-35879744D01*
X108822540Y-36068000D01*
X75073460Y-36068000D01*
X75053674Y-35879744D01*
X74995179Y-35699716D01*
X74900533Y-35535784D01*
X74773871Y-35395112D01*
X74773870Y-35395111D01*
X74620734Y-35283851D01*
X74620729Y-35283848D01*
X74447807Y-35206857D01*
X74447802Y-35206855D01*
X74302001Y-35175865D01*
X74262646Y-35167500D01*
X74073354Y-35167500D01*
X74040897Y-35174398D01*
X73888197Y-35206855D01*
X73888192Y-35206857D01*
X73715270Y-35283848D01*
X73715265Y-35283851D01*
X73562129Y-35395111D01*
X73435466Y-35535785D01*
X73340821Y-35699715D01*
X73340818Y-35699722D01*
X73282327Y-35879740D01*
X73282326Y-35879744D01*
X73262540Y-36068000D01*
X39767460Y-36068000D01*
X39747674Y-35879744D01*
X39689179Y-35699716D01*
X39594533Y-35535784D01*
X39467871Y-35395112D01*
X39467870Y-35395111D01*
X39314734Y-35283851D01*
X39314729Y-35283848D01*
X39141807Y-35206857D01*
X39141802Y-35206855D01*
X38996001Y-35175865D01*
X38956646Y-35167500D01*
X38767354Y-35167500D01*
X38734897Y-35174398D01*
X38582197Y-35206855D01*
X38582192Y-35206857D01*
X38409270Y-35283848D01*
X38409265Y-35283851D01*
X38256129Y-35395111D01*
X38129466Y-35535785D01*
X38034821Y-35699715D01*
X38034818Y-35699722D01*
X37976327Y-35879740D01*
X37976326Y-35879744D01*
X37956540Y-36068000D01*
X24954500Y-36068000D01*
X24954500Y-32126676D01*
X58401500Y-32126676D01*
X58441884Y-32368690D01*
X58521548Y-32600740D01*
X58521554Y-32600754D01*
X58638323Y-32816526D01*
X58638329Y-32816535D01*
X58789022Y-33010145D01*
X58789025Y-33010149D01*
X58969544Y-33176329D01*
X59174943Y-33310522D01*
X59174945Y-33310523D01*
X59399635Y-33409082D01*
X59637483Y-33469313D01*
X59820765Y-33484500D01*
X59820767Y-33484500D01*
X59943233Y-33484500D01*
X59943235Y-33484500D01*
X60126517Y-33469313D01*
X60364365Y-33409082D01*
X60589055Y-33310523D01*
X60794458Y-33176327D01*
X60974972Y-33010152D01*
X61125673Y-32816532D01*
X61242449Y-32600748D01*
X61322116Y-32368687D01*
X61362500Y-32126678D01*
X61362500Y-32126676D01*
X82401500Y-32126676D01*
X82441884Y-32368690D01*
X82521548Y-32600740D01*
X82521554Y-32600754D01*
X82638323Y-32816526D01*
X82638329Y-32816535D01*
X82789022Y-33010145D01*
X82789025Y-33010149D01*
X82969544Y-33176329D01*
X83174943Y-33310522D01*
X83174945Y-33310523D01*
X83399635Y-33409082D01*
X83637483Y-33469313D01*
X83820765Y-33484500D01*
X83820767Y-33484500D01*
X83943233Y-33484500D01*
X83943235Y-33484500D01*
X84126517Y-33469313D01*
X84364365Y-33409082D01*
X84589055Y-33310523D01*
X84794458Y-33176327D01*
X84974972Y-33010152D01*
X85125673Y-32816532D01*
X85242449Y-32600748D01*
X85322116Y-32368687D01*
X85362500Y-32126678D01*
X85362500Y-31881322D01*
X85322116Y-31639313D01*
X85242449Y-31407252D01*
X85125673Y-31191468D01*
X84974972Y-30997848D01*
X84794458Y-30831673D01*
X84794455Y-30831670D01*
X84589056Y-30697477D01*
X84458438Y-30640182D01*
X84364365Y-30598918D01*
X84364363Y-30598917D01*
X84364362Y-30598917D01*
X84126513Y-30538686D01*
X83979640Y-30526516D01*
X83943235Y-30523500D01*
X83820765Y-30523500D01*
X83787648Y-30526244D01*
X83637486Y-30538686D01*
X83399637Y-30598917D01*
X83174943Y-30697477D01*
X82969544Y-30831670D01*
X82789025Y-30997850D01*
X82789022Y-30997854D01*
X82638329Y-31191464D01*
X82638323Y-31191473D01*
X82521554Y-31407245D01*
X82521548Y-31407259D01*
X82441884Y-31639309D01*
X82401500Y-31881323D01*
X82401500Y-32126676D01*
X61362500Y-32126676D01*
X61362500Y-31881322D01*
X61322116Y-31639313D01*
X61242449Y-31407252D01*
X61125673Y-31191468D01*
X60974972Y-30997848D01*
X60794458Y-30831673D01*
X60794455Y-30831670D01*
X60589056Y-30697477D01*
X60458438Y-30640182D01*
X60364365Y-30598918D01*
X60364363Y-30598917D01*
X60364362Y-30598917D01*
X60126513Y-30538686D01*
X59979640Y-30526516D01*
X59943235Y-30523500D01*
X59820765Y-30523500D01*
X59787648Y-30526244D01*
X59637486Y-30538686D01*
X59399637Y-30598917D01*
X59174943Y-30697477D01*
X58969544Y-30831670D01*
X58789025Y-30997850D01*
X58789022Y-30997854D01*
X58638329Y-31191464D01*
X58638323Y-31191473D01*
X58521554Y-31407245D01*
X58521548Y-31407259D01*
X58441884Y-31639309D01*
X58401500Y-31881323D01*
X58401500Y-32126676D01*
X24954500Y-32126676D01*
X24954500Y-28000001D01*
X35402569Y-28000001D01*
X35422269Y-28275442D01*
X35422270Y-28275449D01*
X35480966Y-28545267D01*
X35480968Y-28545274D01*
X35507113Y-28615371D01*
X35577470Y-28804008D01*
X35577472Y-28804012D01*
X35709808Y-29046367D01*
X35709813Y-29046375D01*
X35875292Y-29267430D01*
X35875308Y-29267448D01*
X36070551Y-29462691D01*
X36070569Y-29462707D01*
X36291624Y-29628186D01*
X36291632Y-29628191D01*
X36533987Y-29760527D01*
X36533991Y-29760529D01*
X36533993Y-29760530D01*
X36792726Y-29857032D01*
X37062559Y-29915731D01*
X37269056Y-29930500D01*
X37406944Y-29930500D01*
X37613441Y-29915731D01*
X37883274Y-29857032D01*
X38142007Y-29760530D01*
X38384373Y-29628188D01*
X38605438Y-29462701D01*
X38800701Y-29267438D01*
X38966188Y-29046373D01*
X39098530Y-28804007D01*
X39195032Y-28545274D01*
X39253731Y-28275441D01*
X39273431Y-28000000D01*
X39253731Y-27724559D01*
X39195032Y-27454726D01*
X39098530Y-27195993D01*
X39058145Y-27122034D01*
X38966191Y-26953632D01*
X38966186Y-26953624D01*
X38800707Y-26732569D01*
X38800691Y-26732551D01*
X38622140Y-26554000D01*
X62156592Y-26554000D01*
X62176201Y-26840680D01*
X62234666Y-27122034D01*
X62234667Y-27122037D01*
X62330894Y-27392793D01*
X62330893Y-27392793D01*
X62463098Y-27647935D01*
X62628812Y-27882700D01*
X62713923Y-27973831D01*
X62824947Y-28092708D01*
X63047853Y-28274055D01*
X63293382Y-28423365D01*
X63480237Y-28504526D01*
X63556942Y-28537844D01*
X63833642Y-28615371D01*
X64083920Y-28649771D01*
X64118321Y-28654500D01*
X64118322Y-28654500D01*
X64405679Y-28654500D01*
X64436370Y-28650281D01*
X64690358Y-28615371D01*
X64967058Y-28537844D01*
X65080015Y-28488779D01*
X65230617Y-28423365D01*
X65230620Y-28423363D01*
X65230625Y-28423361D01*
X65476147Y-28274055D01*
X65699053Y-28092708D01*
X65895189Y-27882698D01*
X66060901Y-27647936D01*
X66193104Y-27392797D01*
X66289334Y-27122032D01*
X66347798Y-26840686D01*
X66367408Y-26554000D01*
X77396592Y-26554000D01*
X77416201Y-26840680D01*
X77474666Y-27122034D01*
X77474667Y-27122037D01*
X77570894Y-27392793D01*
X77570893Y-27392793D01*
X77703098Y-27647935D01*
X77868812Y-27882700D01*
X77953923Y-27973831D01*
X78064947Y-28092708D01*
X78287853Y-28274055D01*
X78533382Y-28423365D01*
X78720237Y-28504526D01*
X78796942Y-28537844D01*
X79073642Y-28615371D01*
X79323920Y-28649771D01*
X79358321Y-28654500D01*
X79358322Y-28654500D01*
X79645679Y-28654500D01*
X79676370Y-28650281D01*
X79930358Y-28615371D01*
X80207058Y-28537844D01*
X80320015Y-28488779D01*
X80470617Y-28423365D01*
X80470620Y-28423363D01*
X80470625Y-28423361D01*
X80716147Y-28274055D01*
X80939053Y-28092708D01*
X81025635Y-28000001D01*
X141602569Y-28000001D01*
X141622269Y-28275442D01*
X141622270Y-28275449D01*
X141680966Y-28545267D01*
X141680968Y-28545274D01*
X141707113Y-28615371D01*
X141777470Y-28804008D01*
X141777472Y-28804012D01*
X141909808Y-29046367D01*
X141909813Y-29046375D01*
X142075292Y-29267430D01*
X142075308Y-29267448D01*
X142270551Y-29462691D01*
X142270569Y-29462707D01*
X142491624Y-29628186D01*
X142491632Y-29628191D01*
X142733987Y-29760527D01*
X142733991Y-29760529D01*
X142733993Y-29760530D01*
X142992726Y-29857032D01*
X143262559Y-29915731D01*
X143469056Y-29930500D01*
X143606944Y-29930500D01*
X143813441Y-29915731D01*
X144083274Y-29857032D01*
X144342007Y-29760530D01*
X144584373Y-29628188D01*
X144805438Y-29462701D01*
X145000701Y-29267438D01*
X145166188Y-29046373D01*
X145298530Y-28804007D01*
X145395032Y-28545274D01*
X145453731Y-28275441D01*
X145473431Y-28000000D01*
X145453731Y-27724559D01*
X145395032Y-27454726D01*
X145298530Y-27195993D01*
X145258145Y-27122034D01*
X145166191Y-26953632D01*
X145166186Y-26953624D01*
X145000707Y-26732569D01*
X145000691Y-26732551D01*
X144805448Y-26537308D01*
X144805430Y-26537292D01*
X144584375Y-26371813D01*
X144584367Y-26371808D01*
X144342012Y-26239472D01*
X144342008Y-26239470D01*
X144243917Y-26202884D01*
X144083274Y-26142968D01*
X144083270Y-26142967D01*
X144083267Y-26142966D01*
X143813449Y-26084270D01*
X143813442Y-26084269D01*
X143606944Y-26069500D01*
X143469056Y-26069500D01*
X143262557Y-26084269D01*
X143262550Y-26084270D01*
X142992732Y-26142966D01*
X142992727Y-26142967D01*
X142992726Y-26142968D01*
X142930172Y-26166299D01*
X142733991Y-26239470D01*
X142733987Y-26239472D01*
X142491632Y-26371808D01*
X142491624Y-26371813D01*
X142270569Y-26537292D01*
X142270551Y-26537308D01*
X142075308Y-26732551D01*
X142075292Y-26732569D01*
X141909813Y-26953624D01*
X141909808Y-26953632D01*
X141777472Y-27195987D01*
X141777470Y-27195991D01*
X141680966Y-27454732D01*
X141622270Y-27724550D01*
X141622269Y-27724557D01*
X141602569Y-27999998D01*
X141602569Y-28000001D01*
X81025635Y-28000001D01*
X81135189Y-27882698D01*
X81300901Y-27647936D01*
X81433104Y-27392797D01*
X81529334Y-27122032D01*
X81587798Y-26840686D01*
X81607408Y-26554000D01*
X81587798Y-26267314D01*
X81529334Y-25985968D01*
X81498462Y-25899104D01*
X81433105Y-25715206D01*
X81433106Y-25715206D01*
X81300901Y-25460064D01*
X81135187Y-25225299D01*
X81056554Y-25141105D01*
X80939053Y-25015292D01*
X80716147Y-24833945D01*
X80716146Y-24833944D01*
X80470617Y-24684634D01*
X80207063Y-24570158D01*
X80207061Y-24570157D01*
X80207058Y-24570156D01*
X80077578Y-24533877D01*
X79930364Y-24492630D01*
X79930359Y-24492629D01*
X79930358Y-24492629D01*
X79788018Y-24473064D01*
X79645679Y-24453500D01*
X79645678Y-24453500D01*
X79358322Y-24453500D01*
X79358321Y-24453500D01*
X79073642Y-24492629D01*
X79073635Y-24492630D01*
X78865861Y-24550845D01*
X78796942Y-24570156D01*
X78796939Y-24570156D01*
X78796936Y-24570158D01*
X78796935Y-24570158D01*
X78533382Y-24684634D01*
X78287853Y-24833944D01*
X78064950Y-25015289D01*
X77868812Y-25225299D01*
X77703098Y-25460064D01*
X77570894Y-25715206D01*
X77474667Y-25985962D01*
X77474666Y-25985965D01*
X77416201Y-26267319D01*
X77396592Y-26554000D01*
X66367408Y-26554000D01*
X66347798Y-26267314D01*
X66289334Y-25985968D01*
X66258462Y-25899104D01*
X66193105Y-25715206D01*
X66193106Y-25715206D01*
X66060901Y-25460064D01*
X65895187Y-25225299D01*
X65816554Y-25141105D01*
X65699053Y-25015292D01*
X65476147Y-24833945D01*
X65476146Y-24833944D01*
X65230617Y-24684634D01*
X64967063Y-24570158D01*
X64967061Y-24570157D01*
X64967058Y-24570156D01*
X64837578Y-24533877D01*
X64690364Y-24492630D01*
X64690359Y-24492629D01*
X64690358Y-24492629D01*
X64548018Y-24473064D01*
X64405679Y-24453500D01*
X64405678Y-24453500D01*
X64118322Y-24453500D01*
X64118321Y-24453500D01*
X63833642Y-24492629D01*
X63833635Y-24492630D01*
X63625861Y-24550845D01*
X63556942Y-24570156D01*
X63556939Y-24570156D01*
X63556936Y-24570158D01*
X63556935Y-24570158D01*
X63293382Y-24684634D01*
X63047853Y-24833944D01*
X62824950Y-25015289D01*
X62628812Y-25225299D01*
X62463098Y-25460064D01*
X62330894Y-25715206D01*
X62234667Y-25985962D01*
X62234666Y-25985965D01*
X62176201Y-26267319D01*
X62156592Y-26554000D01*
X38622140Y-26554000D01*
X38605448Y-26537308D01*
X38605430Y-26537292D01*
X38384375Y-26371813D01*
X38384367Y-26371808D01*
X38142012Y-26239472D01*
X38142008Y-26239470D01*
X38043917Y-26202884D01*
X37883274Y-26142968D01*
X37883270Y-26142967D01*
X37883267Y-26142966D01*
X37613449Y-26084270D01*
X37613442Y-26084269D01*
X37406944Y-26069500D01*
X37269056Y-26069500D01*
X37062557Y-26084269D01*
X37062550Y-26084270D01*
X36792732Y-26142966D01*
X36792727Y-26142967D01*
X36792726Y-26142968D01*
X36730172Y-26166299D01*
X36533991Y-26239470D01*
X36533987Y-26239472D01*
X36291632Y-26371808D01*
X36291624Y-26371813D01*
X36070569Y-26537292D01*
X36070551Y-26537308D01*
X35875308Y-26732551D01*
X35875292Y-26732569D01*
X35709813Y-26953624D01*
X35709808Y-26953632D01*
X35577472Y-27195987D01*
X35577470Y-27195991D01*
X35480966Y-27454732D01*
X35422270Y-27724550D01*
X35422269Y-27724557D01*
X35402569Y-27999998D01*
X35402569Y-28000001D01*
X24954500Y-28000001D01*
X24954500Y-25901877D01*
X24954613Y-25898133D01*
X24964013Y-25742727D01*
X24970311Y-25638615D01*
X24971214Y-25631185D01*
X24971622Y-25628957D01*
X25017739Y-25377302D01*
X25019530Y-25370039D01*
X25020226Y-25367806D01*
X25096319Y-25123615D01*
X25098971Y-25116628D01*
X25204899Y-24881263D01*
X25208382Y-24874628D01*
X25303691Y-24716966D01*
X25341907Y-24653750D01*
X25346155Y-24647595D01*
X25505346Y-24444402D01*
X25510291Y-24438821D01*
X25692821Y-24256291D01*
X25698402Y-24251346D01*
X25901595Y-24092155D01*
X25907754Y-24087905D01*
X25911455Y-24085668D01*
X26001959Y-24030956D01*
X26128628Y-23954382D01*
X26135263Y-23950899D01*
X26370628Y-23844971D01*
X26377615Y-23842319D01*
X26624046Y-23765528D01*
X26631302Y-23763739D01*
X26885186Y-23717213D01*
X26892615Y-23716311D01*
X27101921Y-23703650D01*
X27152134Y-23700613D01*
X27155878Y-23700500D01*
X153237044Y-23700500D01*
X153240788Y-23700613D01*
G37*
%TD.AperFunction*%
%TD*%
%TA.AperFunction,Conductor*%
%TO.N,GND3*%
G36*
X118776539Y-69869685D02*
G01*
X118822294Y-69922489D01*
X118833500Y-69974000D01*
X118833500Y-134738351D01*
X118865522Y-134940534D01*
X118928781Y-135135223D01*
X119003698Y-135282254D01*
X119021713Y-135317610D01*
X119102319Y-135428556D01*
X119125798Y-135494358D01*
X119126000Y-135501438D01*
X119126000Y-151975500D01*
X119106315Y-152042539D01*
X119053511Y-152088294D01*
X119002000Y-152099500D01*
X95374000Y-152099500D01*
X95306961Y-152079815D01*
X95261206Y-152027011D01*
X95250000Y-151975500D01*
X95250000Y-135676547D01*
X95269685Y-135609508D01*
X95286319Y-135588866D01*
X95286780Y-135588405D01*
X95391966Y-135483219D01*
X95391968Y-135483215D01*
X95391971Y-135483213D01*
X95499289Y-135335500D01*
X95512287Y-135317610D01*
X95605220Y-135135219D01*
X95668477Y-134940534D01*
X95700500Y-134738352D01*
X95700500Y-134636000D01*
X95700500Y-134588405D01*
X95700500Y-82476198D01*
X114698757Y-82476198D01*
X114708730Y-82710976D01*
X114708730Y-82710982D01*
X114733711Y-82826890D01*
X114758240Y-82940703D01*
X114845859Y-83158753D01*
X114909077Y-83261425D01*
X114969070Y-83358860D01*
X115124325Y-83535264D01*
X115124329Y-83535268D01*
X115307153Y-83682888D01*
X115307157Y-83682891D01*
X115307160Y-83682893D01*
X115512315Y-83797499D01*
X115733887Y-83875785D01*
X115863131Y-83897946D01*
X115965493Y-83915499D01*
X115965502Y-83915500D01*
X116141645Y-83915500D01*
X116317144Y-83900563D01*
X116317147Y-83900562D01*
X116317149Y-83900562D01*
X116544562Y-83841348D01*
X116675386Y-83782211D01*
X116758691Y-83744556D01*
X116758692Y-83744554D01*
X116758697Y-83744553D01*
X116953393Y-83612962D01*
X117123050Y-83450359D01*
X117262786Y-83261423D01*
X117368582Y-83051589D01*
X117437394Y-82826894D01*
X117467243Y-82593802D01*
X117457269Y-82359018D01*
X117407760Y-82129297D01*
X117320141Y-81911247D01*
X117196931Y-81711141D01*
X117041675Y-81534736D01*
X117041674Y-81534735D01*
X117041670Y-81534731D01*
X116858846Y-81387111D01*
X116858840Y-81387107D01*
X116653684Y-81272500D01*
X116432120Y-81194217D01*
X116432115Y-81194215D01*
X116432113Y-81194215D01*
X116432109Y-81194214D01*
X116432108Y-81194214D01*
X116200506Y-81154500D01*
X116200498Y-81154500D01*
X116024360Y-81154500D01*
X116024355Y-81154500D01*
X115848855Y-81169436D01*
X115621438Y-81228651D01*
X115407308Y-81325443D01*
X115407300Y-81325448D01*
X115212616Y-81457030D01*
X115212607Y-81457038D01*
X115042949Y-81619642D01*
X114903216Y-81808574D01*
X114903213Y-81808578D01*
X114797418Y-82018409D01*
X114728605Y-82243109D01*
X114698757Y-82476198D01*
X95700500Y-82476198D01*
X95700500Y-69974000D01*
X95720185Y-69906961D01*
X95772989Y-69861206D01*
X95824500Y-69850000D01*
X118709500Y-69850000D01*
X118776539Y-69869685D01*
G37*
%TD.AperFunction*%
%TD*%
%TA.AperFunction,Conductor*%
%TO.N,GND2*%
G36*
X83376539Y-69869685D02*
G01*
X83422294Y-69922489D01*
X83433500Y-69974000D01*
X83433500Y-134738351D01*
X83465522Y-134940534D01*
X83528781Y-135135223D01*
X83621715Y-135317613D01*
X83742028Y-135483213D01*
X83783681Y-135524866D01*
X83817166Y-135586189D01*
X83820000Y-135612547D01*
X83820000Y-151975500D01*
X83800315Y-152042539D01*
X83747511Y-152088294D01*
X83696000Y-152099500D01*
X60068000Y-152099500D01*
X60000961Y-152079815D01*
X59955206Y-152027011D01*
X59944000Y-151975500D01*
X59944000Y-135582547D01*
X59963685Y-135515508D01*
X59980319Y-135494866D01*
X59991966Y-135483219D01*
X59991968Y-135483215D01*
X59991971Y-135483213D01*
X60099289Y-135335500D01*
X60112287Y-135317610D01*
X60205220Y-135135219D01*
X60268477Y-134940534D01*
X60300500Y-134738352D01*
X60300500Y-134636000D01*
X60300500Y-134588405D01*
X60300500Y-82476198D01*
X79298757Y-82476198D01*
X79308730Y-82710976D01*
X79308730Y-82710982D01*
X79333711Y-82826890D01*
X79358240Y-82940703D01*
X79445859Y-83158753D01*
X79509077Y-83261425D01*
X79569070Y-83358860D01*
X79724325Y-83535264D01*
X79724329Y-83535268D01*
X79907153Y-83682888D01*
X79907157Y-83682891D01*
X79907160Y-83682893D01*
X80112315Y-83797499D01*
X80333887Y-83875785D01*
X80463131Y-83897946D01*
X80565493Y-83915499D01*
X80565502Y-83915500D01*
X80741645Y-83915500D01*
X80917144Y-83900563D01*
X80917147Y-83900562D01*
X80917149Y-83900562D01*
X81144562Y-83841348D01*
X81275386Y-83782211D01*
X81358691Y-83744556D01*
X81358692Y-83744554D01*
X81358697Y-83744553D01*
X81553393Y-83612962D01*
X81723050Y-83450359D01*
X81862786Y-83261423D01*
X81968582Y-83051589D01*
X82037394Y-82826894D01*
X82067243Y-82593802D01*
X82057269Y-82359018D01*
X82007760Y-82129297D01*
X81920141Y-81911247D01*
X81796931Y-81711141D01*
X81641675Y-81534736D01*
X81641674Y-81534735D01*
X81641670Y-81534731D01*
X81458846Y-81387111D01*
X81458840Y-81387107D01*
X81253684Y-81272500D01*
X81032120Y-81194217D01*
X81032115Y-81194215D01*
X81032113Y-81194215D01*
X81032109Y-81194214D01*
X81032108Y-81194214D01*
X80800506Y-81154500D01*
X80800498Y-81154500D01*
X80624360Y-81154500D01*
X80624355Y-81154500D01*
X80448855Y-81169436D01*
X80221438Y-81228651D01*
X80007308Y-81325443D01*
X80007300Y-81325448D01*
X79812616Y-81457030D01*
X79812607Y-81457038D01*
X79642949Y-81619642D01*
X79503216Y-81808574D01*
X79503213Y-81808578D01*
X79397418Y-82018409D01*
X79328605Y-82243109D01*
X79298757Y-82476198D01*
X60300500Y-82476198D01*
X60300500Y-69974000D01*
X60320185Y-69906961D01*
X60372989Y-69861206D01*
X60424500Y-69850000D01*
X83309500Y-69850000D01*
X83376539Y-69869685D01*
G37*
%TD.AperFunction*%
%TD*%
%TA.AperFunction,Conductor*%
%TO.N,GND4*%
G36*
X155344539Y-69869685D02*
G01*
X155390294Y-69922489D01*
X155401500Y-69974000D01*
X155401500Y-149845996D01*
X155401499Y-149846014D01*
X155401499Y-149895896D01*
X155401386Y-149899639D01*
X155385692Y-150159149D01*
X155384788Y-150166589D01*
X155338269Y-150420456D01*
X155336475Y-150427732D01*
X155259691Y-150674151D01*
X155257034Y-150681158D01*
X155151109Y-150916519D01*
X155147627Y-150923154D01*
X155014104Y-151144032D01*
X155009847Y-151150200D01*
X154850680Y-151353366D01*
X154845710Y-151358975D01*
X154663199Y-151541488D01*
X154657590Y-151546457D01*
X154454424Y-151705630D01*
X154448257Y-151709887D01*
X154227376Y-151843415D01*
X154220741Y-151846898D01*
X153985381Y-151952826D01*
X153978382Y-151955480D01*
X153748834Y-152027011D01*
X153731967Y-152032267D01*
X153724691Y-152034060D01*
X153470815Y-152080585D01*
X153463376Y-152081489D01*
X153204413Y-152097154D01*
X153200668Y-152097267D01*
X153154405Y-152097267D01*
X153154403Y-152097267D01*
X153149950Y-152097973D01*
X153130549Y-152099500D01*
X130934000Y-152099500D01*
X130866961Y-152079815D01*
X130821206Y-152027011D01*
X130810000Y-151975500D01*
X130810000Y-135498686D01*
X130829685Y-135431647D01*
X130833665Y-135425823D01*
X130912287Y-135317610D01*
X131005220Y-135135219D01*
X131068477Y-134940534D01*
X131100500Y-134738352D01*
X131100500Y-134636000D01*
X131100500Y-134588405D01*
X131100500Y-82476198D01*
X150098757Y-82476198D01*
X150108730Y-82710976D01*
X150108730Y-82710982D01*
X150133711Y-82826890D01*
X150158240Y-82940703D01*
X150245859Y-83158753D01*
X150309077Y-83261425D01*
X150369070Y-83358860D01*
X150524325Y-83535264D01*
X150524329Y-83535268D01*
X150707153Y-83682888D01*
X150707157Y-83682891D01*
X150707160Y-83682893D01*
X150912315Y-83797499D01*
X151133887Y-83875785D01*
X151263131Y-83897946D01*
X151365493Y-83915499D01*
X151365502Y-83915500D01*
X151541645Y-83915500D01*
X151717144Y-83900563D01*
X151717147Y-83900562D01*
X151717149Y-83900562D01*
X151944562Y-83841348D01*
X152075386Y-83782211D01*
X152158691Y-83744556D01*
X152158692Y-83744554D01*
X152158697Y-83744553D01*
X152353393Y-83612962D01*
X152523050Y-83450359D01*
X152662786Y-83261423D01*
X152768582Y-83051589D01*
X152837394Y-82826894D01*
X152867243Y-82593802D01*
X152857269Y-82359018D01*
X152807760Y-82129297D01*
X152720141Y-81911247D01*
X152596931Y-81711141D01*
X152441675Y-81534736D01*
X152441674Y-81534735D01*
X152441670Y-81534731D01*
X152258846Y-81387111D01*
X152258840Y-81387107D01*
X152053684Y-81272500D01*
X151832120Y-81194217D01*
X151832115Y-81194215D01*
X151832113Y-81194215D01*
X151832109Y-81194214D01*
X151832108Y-81194214D01*
X151600506Y-81154500D01*
X151600498Y-81154500D01*
X151424360Y-81154500D01*
X151424355Y-81154500D01*
X151248855Y-81169436D01*
X151021438Y-81228651D01*
X150807308Y-81325443D01*
X150807300Y-81325448D01*
X150612616Y-81457030D01*
X150612607Y-81457038D01*
X150442949Y-81619642D01*
X150303216Y-81808574D01*
X150303213Y-81808578D01*
X150197418Y-82018409D01*
X150128605Y-82243109D01*
X150098757Y-82476198D01*
X131100500Y-82476198D01*
X131100500Y-69974000D01*
X131120185Y-69906961D01*
X131172989Y-69861206D01*
X131224500Y-69850000D01*
X155277500Y-69850000D01*
X155344539Y-69869685D01*
G37*
%TD.AperFunction*%
%TD*%
M02*
